<?xml version="1.0" encoding="utf-8"?>
<!-- Generator: Adobe Illustrator 16.0.0, SVG Export Plug-In . SVG Version: 6.00 Build 0)  -->
<!DOCTYPE svg PUBLIC "-//W3C//DTD SVG 1.1//EN" "http://www.w3.org/Graphics/SVG/1.1/DTD/svg11.dtd">
<svg version="1.1" xmlns="http://www.w3.org/2000/svg" xmlns:xlink="http://www.w3.org/1999/xlink" x="0px" y="0px" width="300px"
	 height="160px" viewBox="0 0 300 160" enable-background="new 0 0 300 160" xml:space="preserve">
<g id="Слой_2">
	<g>
		<g>
			<g>
				<path fill="#50917A" d="M163.381,111.887h-18.943c-0.449-1.198-0.799-2.805-0.216-4.182c0.192-0.453,0.488-0.857,0.865-1.223
					h8.596h13.986v-3.567h-8.881c-0.614-0.603-1.479-1.725-2.35-3.724c1.017-2.707,0.556-5.626,0.156-7.208h26.522
					c3.733,0,6.919-3.369,6.919-7.086V36.935c0-3.717-3.186-6.922-6.919-6.922h-72.271c-3.732,0-6.617,3.205-6.617,6.922v47.964
					c0,3.717,2.885,7.086,6.617,7.086h43.7c0.235,0.804,0.635,2.51,0.504,4.332c-0.178-0.167-0.377-0.291-0.604-0.308
					c-0.483-0.037-3.967-0.039-7.409-0.029c-0.42-0.001-0.84-0.002-1.255-0.003c-0.102,0-0.201,0-0.301,0
					c-2.871-0.004-5.439,0.001-5.854,0.033c-0.997,0.077-1.537,2.064-1.537,2.064c-1.015,2.724-2.079,4.135-2.804,4.843h-8.88v3.567
					h16.232c-0.079,0.149-0.167,0.294-0.233,0.451c-0.718,1.695-0.495,3.502-0.057,4.953h-16.181c-3.081,0-5.407,2.645-5.407,5.726
					v14.885c0,3.081,2.326,5.061,5.407,5.061h37.212c3.086,0,4.772-1.977,4.772-5.061v-14.885
					C168.153,114.532,166.467,111.887,163.381,111.887z M154.08,117.613h3.725v3.724h-3.725V117.613z M159.66,123.196v3.721h-3.723
					v-3.721H159.66z M148.498,117.613h3.723v3.724h-3.723V117.613z M154.08,123.196v3.721h-3.723v-3.721H154.08z M148.498,123.196
					v3.721h-3.721v-3.721H148.498z M146.641,121.336h-3.723v-3.724h3.723V121.336z M137.334,117.613h3.722v3.724h-3.722V117.613z
					 M142.918,123.196v3.721h-3.725v-3.721H142.918z M126.169,117.613h3.722v3.724h-3.722V117.613z M129.891,132.498h-3.722v-3.722
					h3.722V132.498z M131.754,126.917h-3.722v-3.721h3.722V126.917z M131.754,117.613h3.721v3.724h-3.721V117.613z M137.334,123.196
					v3.721h-3.722v-3.721H137.334z M158.279,131.634h-25.67v-1.975h25.67V131.634z M163.381,132.498h-3.721v-3.722h3.721V132.498z
					 M163.381,121.333h-3.721v-3.72h3.721V121.333z"/>
				<path fill="#50917A" d="M76.503,49.706c0,0.241,0.021,0.477,0.05,0.71c0.024,0.385,0.186,1.357,0.955,3.717
					c0.979,3.009,1.406,4.132,1.433,6.021h-0.019c-0.017,0.197-0.193,2.286-0.154,3.167c0.033,0.808,0.939,1.706,1.588,2.155v0.383
					c0,0,0.861,0.047,1.703,0.015c0.842,0.032,1.705-0.015,1.705-0.015v-0.383c0.646-0.45,1.554-1.347,1.587-2.155
					c0.034-0.786-0.102-2.522-0.145-3.031c0.007-1.974,0.433-3.076,1.436-6.157c1.142-3.501,0.944-3.954,0.944-3.954l-0.011-0.009
					c0.013-0.153,0.023-0.307,0.023-0.464c0-3.063-2.483-5.548-5.548-5.548C78.988,44.158,76.503,46.643,76.503,49.706z"/>
				
					<ellipse transform="matrix(-0.9879 0.1553 -0.1553 -0.9879 148.6469 100.7917)" fill="#50917A" cx="70.385" cy="56.204" rx="5.267" ry="0.254"/>
				
					<ellipse transform="matrix(0.9714 0.2375 -0.2375 0.9714 13.5507 -15.1132)" fill="#50917A" cx="69.49" cy="48.674" rx="5.265" ry="0.255"/>
				<path fill="#50917A" d="M71.507,42.248c2.376,1.672,4.371,2.935,4.453,2.819c0.081-0.114-1.782-1.565-4.161-3.237
					c-2.38-1.672-4.374-2.935-4.454-2.819C67.264,39.125,69.125,40.577,71.507,42.248z"/>
				
					<ellipse transform="matrix(0.3991 0.9169 -0.9169 0.3991 81.6485 -48.4158)" fill="#50917A" cx="77.765" cy="38.088" rx="5.265" ry="0.256"/>
				
					<ellipse transform="matrix(0.992 0.1262 -0.1262 0.992 5.3656 -10.3407)" fill="#50917A" cx="84.326" cy="37.193" rx="0.255" ry="5.265"/>
				
					<ellipse transform="matrix(0.8193 0.5733 -0.5733 0.8193 39.1468 -44.6169)" fill="#50917A" cx="90.363" cy="39.802" rx="0.255" ry="5.266"/>
				
					<ellipse transform="matrix(-0.9375 0.3479 -0.3479 -0.9375 198.7769 55.695)" fill="#50917A" cx="94.389" cy="45.692" rx="5.266" ry="0.256"/>
				
					<ellipse transform="matrix(-0.0381 -0.9993 0.9993 -0.0381 47.3627 148.1569)" fill="#50917A" cx="94.986" cy="51.284" rx="0.256" ry="5.267"/>
				
					<ellipse transform="matrix(-0.9795 -0.2016 0.2016 -0.9795 175.4792 132.066)" fill="#50917A" cx="94.464" cy="57.098" rx="5.266" ry="0.256"/>
				<path fill="#50917A" d="M96.26,95.278c0.016-0.218,0.024-0.436,0.024-0.659c0-5.295-3.062-10.313-9.519-10.313
					c-5.326,0-7.225,3.068-8.705,6.429c-0.831-0.713-1.907-1.14-3.083-1.14c-2.634,0-4.769,2.15-4.769,4.804
					c0,0.28,0.025,0.554,0.071,0.821c-3.596,0.572-6.343,3.705-6.343,7.488c0,4.188,3.369,7.583,7.525,7.583H94.75
					c4.156,0,7.527-3.396,7.527-7.583C102.277,99.041,99.693,95.982,96.26,95.278z"/>
				<polygon fill="#50917A" points="223.938,97.385 220.658,91.598 215.566,94.483 215.559,94.469 213.965,95.372 213.922,95.397 
					213.93,95.41 205.547,100.159 204.184,102.952 181.558,102.952 181.558,138.517 203.544,138.517 209.686,138.517 
					209.686,132.942 209.686,105.46 217.236,101.182 217.251,101.206 218.978,100.281 218.939,100.217 				"/>
			</g>
		</g>
		<g>
			<g>
				<g>
					<g>
						<g>
							<g>
								<rect x="107.537" y="27.578" fill="#D9DAD8" width="80.088" height="55.125"/>
								<rect x="107.537" y="27.578" fill="#E3F6E9" width="80.088" height="9.042"/>
								<path fill="#152C34" d="M182.979,23.908h-72.27c-3.732,0-6.617,3.205-6.617,6.922v47.964c0,3.717,2.885,7.086,6.617,7.086
									h72.27c3.734,0,6.92-3.369,6.92-7.086V30.83C189.898,27.113,186.713,23.908,182.979,23.908z M185.131,80.318h-76.272V29.47
									h76.272V80.318z"/>
								<g>
									<path fill="#FBFFFD" d="M158.65,96.811h8.881v3.567H126.27v-3.567h8.88c0.726-0.708,1.789-2.12,2.804-4.843
										c0,0,0.541-1.988,1.537-2.064c0.49-0.037,3.97-0.039,7.41-0.029c3.441-0.009,6.926-0.008,7.41,0.029
										c1,0.077,1.535,2.064,1.535,2.064C156.863,94.691,157.929,96.103,158.65,96.811z"/>
									<path fill="#E0E4DE" d="M158.65,96.811c-0.722-0.708-1.787-2.12-2.805-4.843c0,0-0.535-1.988-1.535-2.064
										c-0.484-0.037-3.969-0.039-7.41-0.029c-1.862-0.005-3.73-0.006-5.137-0.001c4.326,2.968,8.236,6.561,11.781,10.505h13.986
										v-3.567H158.65z"/>
								</g>
							</g>
						</g>
						<g>
							<g>
								<path fill="#152C34" d="M163.244,105.782h-37.213c-3.082,0-5.406,2.645-5.406,5.726v14.885c0,3.081,2.324,5.061,5.406,5.061
									h37.213c3.084,0,4.771-1.977,4.771-5.061v-14.885C168.016,108.427,166.328,105.782,163.244,105.782z M153.943,111.508h3.724
									v3.724h-3.724V111.508z M159.521,117.091v3.721H155.8v-3.721H159.521z M148.361,111.508h3.722v3.724h-3.722V111.508z
									 M153.943,117.091v3.721h-3.724v-3.721H153.943z M142.78,111.508h3.724v3.724h-3.724V111.508z M148.361,117.091v3.721
									h-3.723v-3.721H148.361z M137.195,111.508h3.723v3.724h-3.723V111.508z M142.78,117.091v3.721h-3.724v-3.721H142.78z
									 M126.031,111.508h3.721v3.724h-3.721V111.508z M129.752,126.393h-3.721v-3.722h3.721V126.393z M131.615,120.812h-3.721
									v-3.721h3.721V120.812z M131.615,111.508h3.722v3.724h-3.722V111.508z M137.195,117.091v3.721h-3.721v-3.721H137.195z
									 M158.142,125.529h-25.67v-1.975h25.67V125.529z M163.244,126.393h-3.723v-3.722h3.723V126.393z M163.244,115.228h-3.723
									v-3.72h3.723V115.228z"/>
							</g>
							<g>
								<path fill="#152C34" d="M143.494,108.627c-0.111-0.173-2.73-4.241-1.227-7.798c0.916-2.16,3.092-3.588,6.471-4.241
									c2.569-0.498,4.363-1.621,5.326-3.339c1.852-3.292,0.209-7.809,0.189-7.854l1.852-0.691c0.08,0.217,1.982,5.404-0.312,9.502
									c-1.262,2.255-3.511,3.706-6.681,4.319c-2.692,0.522-4.385,1.557-5.029,3.076c-1.08,2.553,1.041,5.913,1.063,5.945
									L143.494,108.627z"/>
							</g>
						</g>
					</g>
				</g>
				<g>
					<g>
						<circle fill="#FFC038" cx="81.913" cy="43.601" r="5.548"/>
						<path fill="#FFC038" d="M76.424,44.074c0,0-0.195,0.453,0.946,3.954c1.14,3.502,1.534,4.447,1.415,7.022h3.602V38.879
							L76.424,44.074z"/>
						<path fill="#FFC038" d="M87.447,44.074c0,0,0.197,0.453-0.943,3.954c-1.141,3.502-1.534,4.447-1.416,7.022h-3.6V38.879
							L87.447,44.074z"/>
						<path fill="#3F0000" d="M78.785,54.049c-0.018,0.197-0.194,2.286-0.156,3.167c0.033,0.808,0.939,1.706,1.588,2.155v0.383
							c0,0,0.863,0.047,1.704,0.015c0.843,0.032,1.705-0.015,1.705-0.015v-0.383c0.647-0.45,1.554-1.347,1.587-2.155
							c0.038-0.881-0.139-2.97-0.156-3.167H78.785z"/>
						<g>
							<path fill="#3F0000" d="M84.611,45.068c-0.07-0.086-0.17-0.114-0.248-0.113c-0.125,0.001-0.215,0.054-0.232,0.065
								c-0.187,0.154-0.24,0.482-0.32,0.994c-0.09,0.018-0.189,0.029-0.287,0.027c-0.286,0-0.578-0.08-0.805-0.258
								c0.102-0.169,0.15-0.353,0.151-0.5c-0.001-0.121-0.03-0.25-0.159-0.313c-0.07-0.032-0.15-0.047-0.228-0.047
								c-0.086,0-0.175,0.018-0.253,0.068c-0.076,0.051-0.137,0.148-0.133,0.258c0.003,0.163,0.096,0.336,0.305,0.558
								c-0.127,0.136-0.311,0.237-0.547,0.237s-0.42-0.102-0.547-0.237c0.207-0.222,0.301-0.395,0.305-0.558
								c0.002-0.11-0.057-0.207-0.134-0.258c-0.077-0.051-0.165-0.068-0.253-0.068c-0.078,0-0.156,0.015-0.227,0.047
								c-0.129,0.062-0.158,0.192-0.16,0.313c0,0.147,0.049,0.331,0.15,0.5c-0.225,0.178-0.518,0.258-0.801,0.258
								c-0.102,0.002-0.199-0.009-0.291-0.027c-0.079-0.512-0.133-0.839-0.318-0.994c-0.02-0.011-0.108-0.063-0.234-0.065
								c-0.074-0.001-0.177,0.027-0.246,0.113c-0.068,0.084-0.102,0.201-0.102,0.364c0,0.025,0.001,0.055,0.004,0.088
								c0.033,0.341,0.32,0.572,0.684,0.682c0.195,1.589,0.23,4.597,0.23,6.447c0,0.948-0.01,1.592-0.01,1.594l0.236,0.002
								c0,0,0.01-0.647,0.01-1.597c0-1.268-0.016-3.073-0.09-4.604c-0.031-0.671-0.075-1.289-0.133-1.789
								c0.084,0.012,0.172,0.02,0.26,0.02c0.324,0,0.67-0.091,0.943-0.307c0.164,0.174,0.398,0.301,0.706,0.308v0.001
								c0.007,0,0.011,0.001,0.016,0.001c0.001,0,0.001,0,0.001,0l0,0c0.024,0,0.051-0.004,0.072-0.006v-0.001
								c0.279-0.021,0.496-0.141,0.65-0.303c0.275,0.215,0.617,0.307,0.945,0.307c0.086,0,0.172-0.008,0.257-0.02
								c-0.058,0.5-0.101,1.118-0.133,1.789c-0.073,1.531-0.089,3.337-0.089,4.604c0,0.949,0.009,1.597,0.009,1.597l0.235-0.002
								c0-0.002-0.008-0.646-0.008-1.594c-0.001-1.85,0.034-4.858,0.229-6.447c0.365-0.11,0.652-0.341,0.684-0.682
								c0.004-0.034,0.004-0.063,0.004-0.088C84.711,45.269,84.68,45.152,84.611,45.068z M79.238,45.503
								c-0.004-0.025-0.004-0.048-0.004-0.071c0.019-0.267,0.063-0.226,0.111-0.242c0.002,0,0.004,0,0.004,0
								c0.023,0,0.049,0.008,0.068,0.016c0.021,0.007,0.039,0.015,0.039,0.015c0.025-0.007,0.133,0.286,0.195,0.718
								C79.404,45.837,79.238,45.671,79.238,45.503z M81.076,45.282c0-0.039,0.006-0.069,0.014-0.085
								c0.003-0.007,0.006-0.011,0.007-0.014c0.038-0.015,0.085-0.026,0.13-0.026c0.115,0.01,0.15,0.035,0.15,0.092
								c0.004,0.051-0.045,0.18-0.209,0.361C81.107,45.493,81.077,45.375,81.076,45.282z M82.543,45.61
								c-0.166-0.181-0.213-0.31-0.211-0.361c0-0.057,0.037-0.082,0.151-0.092c0.046,0,0.093,0.011,0.132,0.026
								c0,0.003,0.004,0.007,0.006,0.014c0.006,0.016,0.012,0.047,0.012,0.085C82.633,45.375,82.604,45.493,82.543,45.61z
								 M84.473,45.503c0,0.168-0.167,0.334-0.414,0.437c0.062-0.433,0.17-0.726,0.193-0.718c0.002,0,0.018-0.008,0.04-0.015
								c0.02-0.008,0.045-0.016,0.067-0.016c0.002,0,0.004,0,0.004,0c0.049,0.016,0.094-0.024,0.111,0.242
								C84.475,45.455,84.475,45.478,84.473,45.503z"/>
						</g>
					</g>
					
						<ellipse transform="matrix(-0.1569 -0.9876 0.9876 -0.1569 31.7947 127.3373)" fill="#FFC038" cx="70.247" cy="50.098" rx="0.255" ry="5.266"/>
					
						<ellipse transform="matrix(0.2374 -0.9714 0.9714 0.2374 11.5396 99.8368)" fill="#FFC038" cx="69.354" cy="42.569" rx="0.255" ry="5.264"/>
					
						<ellipse transform="matrix(0.5719 -0.8204 0.8204 0.5719 1.1399 74.0528)" fill="#FFC038" cx="71.515" cy="35.934" rx="0.254" ry="5.265"/>
					
						<ellipse transform="matrix(0.9179 -0.3969 0.3969 0.9179 -6.318 33.4384)" fill="#FFC038" cx="77.627" cy="31.983" rx="0.256" ry="5.265"/>
					
						<ellipse transform="matrix(0.992 0.1259 -0.1259 0.992 4.5844 -10.3529)" fill="#FFC038" cx="84.188" cy="31.088" rx="0.256" ry="5.266"/>
					
						<ellipse transform="matrix(0.8193 0.5733 -0.5733 0.8193 35.6217 -45.641)" fill="#FFC038" cx="90.226" cy="33.698" rx="0.255" ry="5.266"/>
					
						<ellipse transform="matrix(0.3509 0.9364 -0.9364 0.3509 98.2475 -62.5626)" fill="#FFC038" cx="94.252" cy="39.587" rx="0.256" ry="5.266"/>
					
						<ellipse transform="matrix(0.0419 0.9991 -0.9991 0.0419 136.0089 -51.4816)" fill="#FFC038" cx="94.849" cy="45.179" rx="0.256" ry="5.267"/>
					
						<ellipse transform="matrix(-0.1987 0.9801 -0.9801 -0.1987 163.0469 -31.3221)" fill="#FFC038" cx="94.328" cy="50.994" rx="0.256" ry="5.266"/>
				</g>
			</g>
			<g>
				<g>
					<path fill="#FFFBF0" d="M157.561,33.057c0,0.977-0.793,1.771-1.771,1.771h-33.618c-0.978,0-1.77-0.794-1.77-1.771l0,0
						c0-0.978,0.792-1.769,1.77-1.769h33.618C156.768,31.288,157.561,32.079,157.561,33.057L157.561,33.057z"/>
				</g>
				<g>
					<path fill="#FFFBF0" d="M183.129,33.057c0,0.977-0.794,1.771-1.771,1.771h-15.887c-0.977,0-1.768-0.794-1.768-1.771l0,0
						c0-0.978,0.791-1.769,1.768-1.769h15.887C182.335,31.288,183.129,32.079,183.129,33.057L183.129,33.057z"/>
				</g>
				<g>
					<g>
						<g>
							<polygon fill="#3D442B" points="110.602,42.916 110.602,41.388 183.188,41.388 183.188,42.916 110.602,42.916 							"/>
						</g>
					</g>
					<g>
						<g>
							<rect x="110.686" y="46.692" fill="#9ECDDC" width="15.365" height="20.149"/>
						</g>
						<g>
							<g>
								<rect x="110.686" y="68.687" fill="#3D442B" width="15.447" height="1.844"/>
							</g>
						</g>
						<g>
							<g>
								<rect x="110.686" y="71.95" fill="#3D442B" width="15.447" height="1.844"/>
							</g>
						</g>
						<g>
							<g>
								<rect x="110.686" y="75.78" fill="#3D442B" width="15.447" height="1.844"/>
							</g>
						</g>
						<g>
							<g>
								<g>
									<rect x="127.809" y="46.763" fill="#3D442B" width="16.92" height="1.845"/>
								</g>
							</g>
							<g>
								<g>
									<rect x="127.809" y="50.026" fill="#3D442B" width="16.92" height="1.844"/>
								</g>
							</g>
							<g>
								<g>
									<rect x="127.809" y="53.858" fill="#3D442B" width="16.92" height="1.844"/>
								</g>
							</g>
							<g>
								<g>
									<rect x="127.809" y="57.264" fill="#3D442B" width="16.92" height="1.842"/>
								</g>
							</g>
							<g>
								<g>
									<rect x="127.809" y="60.527" fill="#3D442B" width="16.92" height="1.844"/>
								</g>
							</g>
							<g>
								<g>
									<rect x="127.809" y="64.358" fill="#3D442B" width="16.92" height="1.845"/>
								</g>
							</g>
							<g>
								<g>
									<rect x="127.809" y="68.615" fill="#3D442B" width="16.92" height="1.844"/>
								</g>
							</g>
							<g>
								<g>
									<rect x="127.809" y="71.878" fill="#3D442B" width="16.92" height="1.845"/>
								</g>
							</g>
							<g>
								<g>
									<rect x="127.809" y="75.71" fill="#3D442B" width="16.92" height="1.844"/>
								</g>
							</g>
						</g>
					</g>
					<g>
						<g>
							<rect x="149.102" y="46.692" fill="#9ECDDC" width="15.367" height="20.149"/>
						</g>
						<g>
							<g>
								<rect x="149.104" y="68.687" fill="#3D442B" width="15.447" height="1.844"/>
							</g>
						</g>
						<g>
							<g>
								<rect x="149.104" y="71.95" fill="#3D442B" width="15.447" height="1.844"/>
							</g>
						</g>
						<g>
							<g>
								<rect x="149.104" y="75.78" fill="#3D442B" width="15.447" height="1.844"/>
							</g>
						</g>
						<g>
							<g>
								<g>
									<rect x="166.225" y="46.763" fill="#3D442B" width="16.92" height="1.845"/>
								</g>
							</g>
							<g>
								<g>
									<rect x="166.225" y="50.026" fill="#3D442B" width="16.92" height="1.844"/>
								</g>
							</g>
							<g>
								<g>
									<rect x="166.225" y="53.858" fill="#3D442B" width="16.92" height="1.844"/>
								</g>
							</g>
							<g>
								<g>
									<rect x="166.225" y="57.264" fill="#3D442B" width="16.92" height="1.842"/>
								</g>
							</g>
							<g>
								<g>
									<rect x="166.225" y="60.527" fill="#3D442B" width="16.92" height="1.844"/>
								</g>
							</g>
							<g>
								<g>
									<rect x="166.225" y="64.358" fill="#3D442B" width="16.92" height="1.845"/>
								</g>
							</g>
							<g>
								<g>
									<rect x="166.225" y="68.615" fill="#3D442B" width="16.92" height="1.844"/>
								</g>
							</g>
							<g>
								<g>
									<rect x="166.225" y="71.878" fill="#3D442B" width="16.92" height="1.845"/>
								</g>
							</g>
							<g>
								<g>
									<rect x="166.225" y="75.71" fill="#3D442B" width="16.92" height="1.844"/>
								</g>
							</g>
						</g>
					</g>
				</g>
			</g>
			<circle fill="#0FA3B3" cx="111.839" cy="33.243" r="1.589"/>
			<circle fill="#0FA3B3" cx="160.899" cy="33.243" r="1.589"/>
			<circle fill="#FF4B34" cx="116.605" cy="33.243" r="1.589"/>
			<line fill="none" stroke="#D9DAD8" x1="126.834" y1="45.757" x2="110.15" y2="67.408"/>
			<line fill="none" stroke="#D9DAD8" x1="109.653" y1="45.856" x2="126.438" y2="67.11"/>
			<line fill="none" stroke="#D9DAD8" x1="147.988" y1="45.956" x2="165.17" y2="67.408"/>
			<line fill="none" stroke="#D9DAD8" x1="165.566" y1="45.261" x2="148.484" y2="67.706"/>
			<g>
				<path id="Path_2_" fill="#FEFDFD" d="M102.139,96.603c0,4.188-3.37,7.583-7.527,7.583H71.324c-4.155,0-7.524-3.396-7.524-7.583
					c0-3.783,2.747-6.916,6.343-7.488c-0.046-0.267-0.07-0.541-0.07-0.821c0-2.654,2.133-4.804,4.768-4.804
					c1.176,0,2.252,0.427,3.082,1.14c1.481-3.361,3.379-6.429,8.705-6.429c6.459,0,9.52,5.018,9.52,10.313
					c0,0.223-0.008,0.441-0.023,0.659C99.555,89.877,102.139,92.936,102.139,96.603z"/>
				<g>
					<path fill="#0FA3B3" d="M90.973,94.817h-0.547c-0.146,0-0.32-0.134-0.377-0.291c-0.053-0.149-0.113-0.294-0.182-0.437
						c-0.072-0.15-0.046-0.367,0.059-0.47l0.391-0.391c0.271-0.273,0.271-0.716,0-0.989l-0.633-0.632
						c-0.133-0.132-0.309-0.205-0.494-0.205c-0.188,0-0.362,0.073-0.496,0.205l-0.389,0.389c-0.063,0.063-0.167,0.099-0.277,0.099
						c-0.07,0-0.137-0.012-0.193-0.04c-0.143-0.069-0.289-0.13-0.436-0.183c-0.158-0.057-0.293-0.229-0.293-0.376V90.95
						c0-0.386-0.314-0.7-0.699-0.7h-0.895c-0.385,0-0.699,0.314-0.699,0.7v0.547c0,0.147-0.134,0.32-0.293,0.376
						c-0.146,0.053-0.294,0.113-0.435,0.183c-0.056,0.025-0.124,0.04-0.192,0.04c-0.112,0-0.217-0.037-0.278-0.099l-0.39-0.389
						c-0.132-0.132-0.309-0.205-0.494-0.205c-0.188,0-0.363,0.073-0.495,0.205l-0.634,0.632c-0.131,0.132-0.204,0.308-0.204,0.495
						c0,0.188,0.073,0.362,0.204,0.494l0.39,0.391c0.104,0.105,0.132,0.32,0.06,0.47c-0.068,0.142-0.131,0.288-0.182,0.437
						c-0.057,0.157-0.23,0.291-0.377,0.291h-0.548c-0.386,0-0.699,0.314-0.699,0.7v0.893c0,0.387,0.313,0.701,0.699,0.701h0.548
						c0.146,0,0.32,0.133,0.377,0.292c0.051,0.146,0.113,0.292,0.182,0.435c0.072,0.151,0.045,0.367-0.06,0.471l-0.39,0.39
						c-0.273,0.271-0.273,0.715,0,0.989l0.634,0.633c0.132,0.132,0.307,0.206,0.495,0.206c0.186,0,0.362-0.074,0.494-0.206
						l0.39-0.389c0.063-0.063,0.167-0.101,0.278-0.101c0.07,0,0.137,0.013,0.192,0.042c0.143,0.068,0.288,0.13,0.435,0.181
						c0.159,0.056,0.293,0.23,0.293,0.377v0.547c0,0.386,0.314,0.699,0.699,0.699h0.895c0.386,0,0.699-0.313,0.699-0.699v-0.547
						c0-0.147,0.135-0.321,0.293-0.377c0.146-0.051,0.293-0.113,0.436-0.181c0.055-0.025,0.123-0.042,0.191-0.042
						c0.112,0,0.217,0.038,0.279,0.101l0.389,0.389c0.134,0.132,0.309,0.206,0.496,0.206c0.187,0,0.361-0.074,0.494-0.206
						l0.633-0.633c0.271-0.272,0.271-0.718,0-0.989l-0.391-0.39c-0.104-0.104-0.131-0.32-0.058-0.471
						c0.068-0.141,0.128-0.289,0.182-0.435c0.056-0.159,0.229-0.292,0.376-0.292h0.547c0.387,0,0.699-0.314,0.699-0.701v-0.893
						C91.672,95.132,91.358,94.817,90.973,94.817z M88.01,95.964c0,1.131-0.92,2.05-2.051,2.05s-2.051-0.919-2.051-2.05
						s0.92-2.051,2.051-2.051S88.01,94.833,88.01,95.964z"/>
					<path fill="#0FA3B3" d="M81.719,90.329c0.014-0.037,0.059-0.07,0.08-0.07h0.273c0.257,0,0.467-0.208,0.467-0.465v-0.446
						c0-0.258-0.21-0.468-0.467-0.468h-0.273c-0.021,0-0.066-0.032-0.08-0.068c-0.027-0.078-0.059-0.156-0.096-0.229
						c-0.016-0.035-0.007-0.087,0.008-0.101l0.193-0.196c0.184-0.182,0.184-0.479,0-0.66L81.51,87.31
						c-0.09-0.088-0.206-0.137-0.33-0.137c-0.125,0-0.242,0.049-0.33,0.137l-0.195,0.195c-0.006,0.006-0.025,0.016-0.057,0.016
						c-0.018,0-0.033-0.004-0.045-0.009c-0.074-0.036-0.152-0.069-0.229-0.095c-0.037-0.013-0.068-0.058-0.068-0.08v-0.273
						c0-0.257-0.211-0.467-0.468-0.467h-0.447c-0.257,0-0.466,0.21-0.466,0.467v0.273c0,0.021-0.031,0.066-0.068,0.08
						c-0.077,0.026-0.154,0.059-0.23,0.095c-0.012,0.005-0.027,0.009-0.045,0.009c-0.029,0-0.051-0.01-0.057-0.016L78.28,87.31
						c-0.089-0.088-0.206-0.137-0.329-0.137c-0.126,0-0.242,0.049-0.33,0.137l-0.316,0.316c-0.183,0.181-0.183,0.478,0,0.661
						l0.193,0.195c0.016,0.013,0.025,0.066,0.008,0.101c-0.035,0.075-0.068,0.152-0.097,0.229c-0.013,0.036-0.057,0.068-0.077,0.068
						h-0.275c-0.256,0-0.465,0.21-0.465,0.468v0.446c0,0.257,0.209,0.465,0.465,0.465h0.275c0.021,0,0.064,0.033,0.077,0.07
						c0.028,0.078,0.062,0.154,0.097,0.23c0.018,0.033,0.008,0.087-0.008,0.102l-0.193,0.195c-0.089,0.087-0.137,0.204-0.137,0.329
						c0,0.125,0.048,0.242,0.137,0.33l0.316,0.316c0.088,0.087,0.204,0.137,0.33,0.137c0.123,0,0.24-0.049,0.329-0.137l0.194-0.195
						c0.006-0.005,0.027-0.016,0.057-0.016c0.018,0,0.033,0.002,0.047,0.009c0.074,0.035,0.151,0.068,0.229,0.096
						c0.037,0.013,0.068,0.057,0.068,0.079v0.274c0,0.259,0.209,0.466,0.466,0.466h0.447c0.257,0,0.468-0.208,0.468-0.466v-0.274
						c0-0.021,0.031-0.065,0.068-0.079c0.076-0.027,0.154-0.061,0.229-0.096c0.012-0.005,0.027-0.009,0.045-0.009
						c0.031,0,0.051,0.011,0.057,0.016l0.196,0.195c0.088,0.087,0.204,0.137,0.329,0.137c0.124,0,0.24-0.049,0.33-0.137l0.314-0.316
						c0.184-0.183,0.184-0.478,0-0.659l-0.193-0.195c-0.015-0.015-0.023-0.068-0.008-0.102
						C81.66,90.483,81.691,90.407,81.719,90.329z M80.475,89.571c0,0.5-0.408,0.908-0.91,0.908c-0.5,0-0.908-0.407-0.908-0.908
						c0-0.501,0.408-0.91,0.908-0.91C80.066,88.661,80.475,89.069,80.475,89.571z"/>
				</g>
			</g>
			<g>
				<g>
					<rect x="181.42" y="96.847" fill="#FEFDFD" width="28.127" height="35.565"/>
					<polygon fill="#0FA3B3" points="203.406,132.412 209.547,132.412 209.547,126.837 					"/>
				</g>
				<path fill="#0FA3B3" d="M207.527,101.498c0,0.4-0.325,0.727-0.727,0.727h-21.945c-0.402,0-0.728-0.326-0.728-0.727l0,0
					c0-0.403,0.325-0.728,0.728-0.728h21.945C207.202,100.77,207.527,101.095,207.527,101.498L207.527,101.498z"/>
				<path fill="#0FA3B3" d="M207.527,106.589c0,0.402-0.325,0.729-0.727,0.729h-21.945c-0.402,0-0.728-0.326-0.728-0.729l0,0
					c0-0.401,0.325-0.728,0.728-0.728h21.945C207.202,105.861,207.527,106.188,207.527,106.589L207.527,106.589z"/>
				<path fill="#0FA3B3" d="M207.527,111.924c0,0.401-0.325,0.727-0.727,0.727h-21.945c-0.402,0-0.728-0.325-0.728-0.727l0,0
					c0-0.401,0.325-0.728,0.728-0.728h21.945C207.202,111.196,207.527,111.522,207.527,111.924L207.527,111.924z"/>
				<path fill="#0FA3B3" d="M207.527,117.38c0,0.402-0.325,0.728-0.727,0.728h-21.945c-0.402,0-0.728-0.325-0.728-0.728l0,0
					c0-0.402,0.325-0.728,0.728-0.728h21.945C207.202,116.652,207.527,116.978,207.527,117.38L207.527,117.38z"/>
				<path fill="#0FA3B3" d="M207.527,122.716c0,0.399-0.325,0.726-0.727,0.726h-21.945c-0.402,0-0.728-0.326-0.728-0.726l0,0
					c0-0.404,0.325-0.729,0.728-0.729h21.945C207.202,121.987,207.527,122.312,207.527,122.716L207.527,122.716z"/>
			</g>
			<g>
				<polygon fill="#152C34" points="205.416,94.067 205.409,94.054 220.521,85.493 223.8,91.28 208.688,99.842 208.688,99.841 
					207.168,97.159 				"/>
				<polygon fill="#152C34" points="208.537,99.829 208.537,99.829 208.688,99.841 				"/>
				<polygon fill="#0FA3B3" points="213.827,89.267 215.42,88.364 218.84,94.176 217.113,95.101 213.784,89.292 				"/>
				<polygon fill="#0FA3B3" points="204.139,99.458 202.77,99.376 203.449,98.071 205.409,94.054 205.416,94.067 207.168,97.159 
					208.688,99.841 208.537,99.829 204.141,99.46 				"/>
			</g>
		</g>
	</g>
</g>
<g id="Слой_1" display="none" opacity="0.75">
</g>
</svg>
