<?xml version="1.0" encoding="utf-8"?>
<!-- Generator: Adobe Illustrator 16.0.0, SVG Export Plug-In . SVG Version: 6.00 Build 0)  -->
<!DOCTYPE svg PUBLIC "-//W3C//DTD SVG 1.1//EN" "http://www.w3.org/Graphics/SVG/1.1/DTD/svg11.dtd">
<svg version="1.1" xmlns="http://www.w3.org/2000/svg" xmlns:xlink="http://www.w3.org/1999/xlink" x="0px" y="0px" width="300px"
	 height="160px" viewBox="0 0 300 160" enable-background="new 0 0 300 160" xml:space="preserve">
<g id="Слой_2">
	<g>
		<g>
			<g>
				<path fill="#50917A" d="M219.144,109.146l0.001-0.127c0.071-0.078,0.046-0.153,0.046-0.153v-3.117h-15.563
					c0.057-0.255,0.097-0.52,0.097-0.799V49.523c0-1.542-0.93-2.791-2.078-2.791h-86.395c-1.148,0-2.078,1.249-2.078,2.791v3.997
					c-0.174,0.096-0.351,0.177-0.521,0.279c-6.868,4.143-9.076,13.069-4.933,19.939c1.374,2.275,3.278,4.026,5.454,5.217v25.994
					c0,0.279,0.039,0.544,0.097,0.799H97.778l-0.08,3.014c0.004,0.02,0.014,0.031,0.018,0.049c0.033,0.444,0.592,1.46,4.635,2.343
					h112.056C214.406,111.154,218.156,110.914,219.144,109.146z"/>
				<path fill="#50917A" d="M214.653,89.817h27.215c0.522,0,0.948-0.424,0.948-0.947V52.697c0-0.524-0.426-0.948-0.948-0.948
					h-12.172c-0.268-0.672-0.798-1.318-1.858-1.318s-1.573,0.646-1.822,1.318h-11.362c-0.525,0-0.95,0.424-0.95,0.948V88.87
					C213.703,89.394,214.128,89.817,214.653,89.817z M227.838,50.971c0.584-0.002,0.887,0.362,1.051,0.778h-2.09
					C227.13,50.906,227.838,50.971,227.838,50.971z"/>
				<path fill="#50917A" d="M103.517,99.63V77.296c-0.001-1.052-0.854-1.903-1.904-1.903H90.614c-1.052,0-1.903,0.852-1.903,1.903
					V99.63c0,1.049,0.852,1.901,1.903,1.901h10.998C102.663,101.531,103.517,100.679,103.517,99.63z"/>
				<path fill="#50917A" d="M74.365,57.797l28.87,7.993c0.07-2.449,0.662-4.851,1.746-7.05l-28.872-7.993
					c-1.948-0.481-3.917,0.707-4.397,2.653C71.229,55.345,72.417,57.313,74.365,57.797z"/>
				<polygon fill="#50917A" points="245.078,124.972 245.078,118.81 240.093,118.81 240.093,104.726 235.104,104.726 
					235.104,111.182 230.116,111.182 230.116,120.276 225.128,120.276 225.128,126.145 220.139,126.145 220.139,120.57 
					215.152,120.57 215.152,129.372 220.139,129.372 225.128,129.372 230.116,129.372 235.104,129.372 240.093,129.372 
					245.078,129.372 250.068,129.372 250.068,124.972 				"/>
				<path fill="#50917A" d="M82.11,92.275c-0.23-10.774-7.588-19.354-16.436-19.166c-8.845,0.188-15.83,9.074-15.601,19.849
					c0.216,10.111,6.712,18.291,14.823,19.103l0.639,0.063c0.512-0.209,9.19,1.291,20.668-10.139c0,0-2.979,0.652-6.307,0.67
					C81.372,99.627,82.19,96.069,82.11,92.275z"/>
			</g>
		</g>
		<g>
			<g>
				<g>
					<g>
						<g>
							<g>
								<g>
									<path fill="#152C34" d="M203.586,98.845c0,1.541-0.93,2.791-2.078,2.791h-86.396c-1.146,0-2.078-1.25-2.078-2.791V43.418
										c0-1.542,0.932-2.79,2.078-2.79h86.396c1.148,0,2.078,1.248,2.078,2.79V98.845z"/>
									<rect x="116.646" y="43.978" fill="#F4EEE5" width="83.576" height="51.523"/>
									<g>
										<g>
											<path fill="#152C34" d="M97.612,102.478c0,0-0.754,1.402,4.601,2.572h112.056c0,0,3.75-0.24,4.737-2.008l0.006-0.968
												L97.612,102.478z"/>
											<path fill="#E7E6E7" d="M97.64,99.645h121.413v3.117c0,0,0.179,0.415-1.249,0.312H98.782c0,0-1.117,0.313-1.221-0.415
												L97.64,99.645z"/>
											<path fill="#152C34" d="M213.411,101.463c0,0.122-0.079,0.221-0.18,0.221h-4.131c-0.098,0-0.18-0.099-0.18-0.221l0,0
												c0-0.121,0.082-0.219,0.18-0.219h4.131C213.332,101.244,213.411,101.342,213.411,101.463L213.411,101.463z"/>
										</g>
										<path fill="#152C34" d="M150.099,99.668c0,0-0.467,1.561,1.092,1.716h14.085c0,0,1.499,0.194,1.299-1.662L150.099,99.668z
											"/>
										<g>
											<linearGradient id="SVGID_2_" gradientUnits="userSpaceOnUse" x1="150.4316" y1="101.2402" x2="150.4316" y2="99.6309">
												<stop  offset="0.0244" style="stop-color:#5F6767"/>
												<stop  offset="0.4756" style="stop-color:#676B6C"/>
												<stop  offset="0.5137" style="stop-color:#717576"/>
												<stop  offset="0.6192" style="stop-color:#878A8B"/>
												<stop  offset="0.7202" style="stop-color:#949899"/>
												<stop  offset="0.811" style="stop-color:#999C9D"/>
											</linearGradient>
											<path fill="url(#SVGID_2_)" d="M150.177,99.667h0.01l0.006-0.036h-0.172c0,0-0.424,1.353,0.888,1.609
												C149.788,100.911,150.177,99.667,150.177,99.667z"/>
											<linearGradient id="SVGID_4_" gradientUnits="userSpaceOnUse" x1="158.7871" y1="101.3169" x2="158.7871" y2="99.7168">
												<stop  offset="0.0244" style="stop-color:#5F6767"/>
												<stop  offset="0.4756" style="stop-color:#676B6C"/>
												<stop  offset="0.5137" style="stop-color:#717576"/>
												<stop  offset="0.6192" style="stop-color:#878A8B"/>
												<stop  offset="0.7202" style="stop-color:#949899"/>
												<stop  offset="0.811" style="stop-color:#999C9D"/>
											</linearGradient>
											<path fill="url(#SVGID_4_)" d="M166.653,99.717h-0.152v0.037c0.109,1.755-1.303,1.516-1.303,1.516h-14.085
												c-0.073-0.008-0.14-0.019-0.205-0.029c0.106,0.029,0.226,0.054,0.359,0.065h14.087
												C165.354,101.306,166.808,101.556,166.653,99.717z"/>
											<linearGradient id="SVGID_6_" gradientUnits="userSpaceOnUse" x1="166.5" y1="99.7539" x2="166.5" y2="99.7168">
												<stop  offset="0.0244" style="stop-color:#5F6767"/>
												<stop  offset="0.4756" style="stop-color:#676B6C"/>
												<stop  offset="0.5137" style="stop-color:#717576"/>
												<stop  offset="0.6192" style="stop-color:#878A8B"/>
												<stop  offset="0.7202" style="stop-color:#949899"/>
												<stop  offset="0.811" style="stop-color:#999C9D"/>
											</linearGradient>
											<path fill="url(#SVGID_6_)" d="M166.501,99.754v-0.037h-0.002C166.5,99.729,166.5,99.741,166.501,99.754z"/>
										</g>
									</g>
									<path fill="#0FA3B3" d="M141.788,68.363v1.138h-17.072h-1.138v-1.138V51.291h1.138v17.072H141.788z M139.513,51.291
										l-4.482,0.731l1.08,1.317l-9.479,7.754l0.721,0.88l9.479-7.753l1.076,1.315L139.513,51.291z M138.274,57.784l-1.037-1.271
										v10.713h2.275V54.511L138.274,57.784z M130.407,60.946v6.279h2.275v-8.141L130.407,60.946z M127.19,63.576l-0.198-0.245
										v3.895h2.276v-5.35L127.19,63.576z M133.821,58.152v9.073h2.277V56.289L133.821,58.152z"/>
									<path fill="#9ECDDC" d="M141.788,92.035v1.137h-17.072h-1.138v-1.137V74.961h1.138v17.074H141.788z M139.513,74.961
										l-4.482,0.731l1.08,1.319l-9.479,7.752l0.721,0.881l9.479-7.754l1.076,1.315L139.513,74.961z M138.274,81.454l-1.037-1.271
										v10.713h2.275V78.18L138.274,81.454z M130.407,84.616v6.28h2.275v-8.142L130.407,84.616z M127.19,87.246l-0.198-0.244
										v3.895h2.276v-5.351L127.19,87.246z M133.821,81.824v9.072h2.277V79.959L133.821,81.824z"/>
									<rect x="143.463" y="51.051" fill="#FF4B34" width="18.694" height="3.145"/>
									<rect x="143.463" y="57.849" fill="#0FA3B3" width="18.694" height="1.426"/>
									<rect x="143.463" y="59.274" fill="#A3BF33" width="18.694" height="12.993"/>
									<rect x="165.359" y="47.703" fill="#A3BF33" width="31.633" height="12.993"/>
								</g>
								<rect x="143.399" y="76.994" fill="#9ECDDC" width="18.848" height="5.226"/>
								<rect x="143.399" y="85.952" fill="#0FA3B3" width="18.848" height="4.479"/>
							</g>
							<g>
								<path fill="#152C34" d="M242.679,82.766c0,0.522-0.426,0.946-0.948,0.946h-27.215c-0.525,0-0.95-0.424-0.95-0.946V46.593
									c0-0.524,0.425-0.948,0.95-0.948h27.215c0.522,0,0.948,0.424,0.948,0.948V82.766z"/>
								<rect x="215.806" y="47.883" fill="#F4EEE5" width="23.887" height="34.337"/>
								<path fill="#FF4B34" d="M229.831,47.137c0,0,0.081-2.812-2.131-2.812s-2.054,2.812-2.054,2.812h-3.869v2.986h11.942v-2.986
									H229.831z M227.7,44.866c1.293-0.004,1.246,1.765,1.237,1.999l-2.441-0.009C226.427,44.745,227.7,44.866,227.7,44.866z"/>
								<g>
									<g>
										<rect x="223.271" y="55.348" fill="#414F5A" width="13.437" height="0.747"/>
									</g>
									<g>
										<rect x="223.271" y="61.319" fill="#414F5A" width="13.437" height="0.746"/>
									</g>
									<g>
										<rect x="223.271" y="66.544" fill="#414F5A" width="13.437" height="0.747"/>
									</g>
									<g>
										<rect x="223.271" y="72.516" fill="#414F5A" width="13.437" height="0.748"/>
									</g>
								</g>
								<g>
									<path fill="#414F5A" d="M221.101,54.332l-1.406,1.181l-0.473-0.563c-0.131-0.155-0.362-0.176-0.519-0.046
										c-0.155,0.132-0.176,0.362-0.044,0.518l0.708,0.846c0.132,0.154,0.363,0.175,0.518,0.045l1.688-1.418
										c0.157-0.13,0.176-0.362,0.046-0.518C221.488,54.221,221.257,54.202,221.101,54.332z"/>
									<path fill="#414F5A" d="M221.101,60.332l-1.406,1.182l-0.473-0.563c-0.131-0.155-0.362-0.175-0.519-0.046
										c-0.155,0.132-0.176,0.363-0.044,0.519l0.708,0.845c0.132,0.154,0.363,0.175,0.518,0.045l1.688-1.418
										c0.157-0.132,0.176-0.362,0.046-0.518C221.488,60.222,221.257,60.201,221.101,60.332z"/>
									<path fill="#414F5A" d="M221.101,65.859l-1.406,1.181l-0.473-0.563c-0.131-0.154-0.362-0.175-0.519-0.045
										c-0.155,0.131-0.176,0.362-0.044,0.518l0.708,0.846c0.132,0.154,0.363,0.174,0.518,0.045l1.688-1.419
										c0.157-0.129,0.176-0.362,0.046-0.518C221.488,65.748,221.257,65.729,221.101,65.859z"/>
									<path fill="#414F5A" d="M221.069,71.457l-1.406,1.182l-0.473-0.563c-0.131-0.154-0.362-0.176-0.519-0.046
										c-0.155,0.132-0.176,0.363-0.045,0.519l0.708,0.845c0.131,0.154,0.364,0.176,0.52,0.045l1.688-1.419
										c0.156-0.129,0.176-0.361,0.045-0.517C221.457,71.347,221.226,71.328,221.069,71.457z"/>
								</g>
							</g>
							<g>
								<g>
									<path fill="#152C34" d="M101.475,69.287H90.476c-1.051,0-1.902,0.853-1.902,1.904v22.333c0,1.05,0.852,1.902,1.902,1.902
										h10.999c1.051,0,1.904-0.853,1.904-1.902V71.191C103.378,70.14,102.525,69.287,101.475,69.287z"/>
									<polygon fill="#FEFDFD" points="98.526,71.22 93.427,71.22 93.427,70.664 98.527,70.664 98.527,71.22 									"/>
									<circle fill="#FEFDFD" cx="100.221" cy="70.964" r="0.487"/>
									<rect x="93.653" y="91.969" fill="#FEFDFD" width="4.645" height="1.43"/>
								</g>
								<rect x="90.4" y="73.264" fill="#B2EEF2" width="10.45" height="11.195"/>
								<rect x="90.4" y="85.952" fill="#FF4B34" width="10.45" height="3.732"/>
							</g>
							<g>
								<g>
									<path fill="#FEFDFD" d="M150.856,66.561l-1.359-1.189l-3.887,3.332c0.141,0.13,0.332,0.213,0.543,0.213h9.408
										c0.209,0,0.398-0.083,0.538-0.213l-3.884-3.332L150.856,66.561z"/>
									<path fill="#FEFDFD" d="M156.103,61.279c-0.141-0.133-0.331-0.213-0.541-0.213h-9.408c-0.21,0-0.4,0.08-0.541,0.213
										l5.244,4.496L156.103,61.279z"/>
									<polygon fill="#FEFDFD" points="145.362,61.756 145.362,68.276 149.155,65.052 									"/>
									<polygon fill="#FEFDFD" points="152.558,65.052 156.351,68.276 156.351,61.753 									"/>
								</g>
							</g>
						</g>
					</g>
					<g>
						<circle fill="#F4EEE5" cx="120.092" cy="60.092" r="13.187"/>
						<g>
							<g>
								<path fill="#152C34" d="M74.228,51.691l28.869,7.994c0.071-2.449,0.663-4.851,1.746-7.05l-28.871-7.993
									c-1.949-0.481-3.917,0.706-4.397,2.652C71.091,49.24,72.279,51.208,74.228,51.691z"/>
								<path fill="#152C34" d="M107.581,67.634c4.146,6.867,13.074,9.074,19.939,4.931c6.867-4.143,9.075-13.07,4.932-19.938
									c-4.142-6.866-13.071-9.075-19.938-4.931C105.646,51.838,103.438,60.764,107.581,67.634z M114.392,50.804
									c5.141-3.104,11.849-1.444,14.953,3.701c3.102,5.14,1.443,11.847-3.7,14.953c-5.145,3.101-11.852,1.442-14.954-3.7
									C107.588,60.614,109.247,53.906,114.392,50.804z"/>
								<path fill="#152C34" d="M127.273,55.752l-2.075,1.251c1.725,2.858,0.803,6.585-2.055,8.308l1.251,2.073
									C128.395,64.97,129.686,59.752,127.273,55.752z"/>
							</g>
						</g>
					</g>
					<rect x="113.156" y="43.67" fill="#152C34" width="3.421" height="48.022"/>
					<g>
						<g>
							<g>
								<rect x="173.216" y="62.282" fill="#3D442B" width="23.762" height="1.731"/>
							</g>
						</g>
						<g>
							<g>
								<rect x="165.502" y="65.348" fill="#3D442B" width="31.476" height="1.732"/>
							</g>
						</g>
						<g>
							<g>
								<rect x="165.502" y="68.947" fill="#3D442B" width="31.476" height="1.732"/>
							</g>
						</g>
						<g>
							<g>
								<rect x="165.502" y="72.146" fill="#3D442B" width="31.476" height="1.732"/>
							</g>
						</g>
						<g>
							<g>
								<rect x="165.502" y="75.212" fill="#3D442B" width="31.476" height="1.732"/>
							</g>
						</g>
						<g>
							<g>
								<rect x="165.502" y="78.812" fill="#3D442B" width="31.476" height="1.734"/>
							</g>
						</g>
						<g>
							<g>
								<rect x="165.502" y="82.813" fill="#3D442B" width="31.476" height="1.731"/>
							</g>
						</g>
						<g>
							<g>
								<rect x="165.502" y="85.878" fill="#3D442B" width="31.476" height="1.732"/>
							</g>
						</g>
						<g>
							<g>
								<rect x="165.502" y="89.477" fill="#3D442B" width="31.476" height="1.733"/>
							</g>
						</g>
					</g>
				</g>
				<g>
					<rect x="215.015" y="114.466" fill="#152C34" width="4.986" height="8.802"/>
					<rect x="220.001" y="120.04" fill="#FF4B34" width="4.989" height="3.228"/>
					<rect x="224.99" y="114.172" fill="#57AD92" width="4.988" height="9.096"/>
					<rect x="229.979" y="105.077" fill="#152C34" width="4.988" height="18.19"/>
					<rect x="234.967" y="98.62" fill="#FF4B34" width="4.988" height="24.647"/>
					<rect x="239.955" y="112.705" fill="#A3BF33" width="4.985" height="10.563"/>
					<rect x="244.94" y="118.867" fill="#57AD92" width="4.99" height="4.4"/>
				</g>
				<g>
					<path fill="#9ECDDC" d="M49.937,86.853c0.215,10.112,6.711,18.292,14.823,19.104l0.639,0.063
						c0.513-0.209,9.19,1.291,20.669-10.139c0,0-2.98,0.651-6.307,0.67c1.475-3.028,2.293-6.587,2.211-10.38
						c-0.229-10.774-7.588-19.354-16.434-19.167C56.692,67.193,49.706,76.079,49.937,86.853z"/>
					<circle fill="#F4EEE5" cx="65.811" cy="94.646" r="2.022"/>
					<circle fill="#F4EEE5" cx="65.654" cy="87.271" r="2.023"/>
					<circle fill="#F4EEE5" cx="65.491" cy="79.66" r="2.022"/>
				</g>
			</g>
		</g>
	</g>
</g>
<g id="Слой_1" display="none" opacity="0.75">
</g>
</svg>
