<?xml version="1.0" encoding="utf-8"?>
<!-- Generator: Adobe Illustrator 16.0.0, SVG Export Plug-In . SVG Version: 6.00 Build 0)  -->
<!DOCTYPE svg PUBLIC "-//W3C//DTD SVG 1.1//EN" "http://www.w3.org/Graphics/SVG/1.1/DTD/svg11.dtd">
<svg version="1.1" xmlns="http://www.w3.org/2000/svg" xmlns:xlink="http://www.w3.org/1999/xlink" x="0px" y="0px" width="300px"
	 height="160px" viewBox="0 0 300 160" enable-background="new 0 0 300 160" xml:space="preserve">
<g id="Слой_2">
	<g>
		<g>
			<g>
				<path fill="#50917A" d="M205.924,45.892v6.006c-0.44,0.149-0.762,0.552-0.762,1.042c0,0.349,0.171,0.647,0.423,0.852
					c-0.236,0.724-0.588,2.196-0.344,4.157h0.914h0.352h0.905c0.251-2.012-0.124-3.515-0.359-4.216
					c0.206-0.202,0.336-0.481,0.336-0.793c0-0.49-0.321-0.894-0.762-1.042v-6.326l0.226-0.104l-0.226-0.101v-0.074h-0.166
					l-10.623-4.746l-11.426,5.04l11.133,5.038L205.924,45.892z"/>
				<path fill="#50917A" d="M201.871,48.59c0,0.053-5.45,2.579-6.501,3.066c-1.055-0.487-6.504-3.014-6.504-3.066v7.483
					c1.757,1.866,5.219,2.168,6.327,2.217v0.01c0,0,0.063,0,0.177-0.003c0.11,0.003,0.175,0.003,0.175,0.003v-0.01
					c1.108-0.049,4.569-0.351,6.326-2.217V48.59z"/>
				<path fill="#50917A" d="M168.688,66.203h-8.712h-0.112h-0.031c-0.354,0-1.52,0-4.955,0c-4.189,0-12.004-3.017-15.716-5.037
					c-0.055-0.029-0.108-0.06-0.163-0.09c-0.81-0.449-1.411-0.846-1.701-1.142v29.661c0.046-0.038,0.099-0.074,0.15-0.11
					c0.097-0.064,0.225-0.139,0.37-0.219c0.453-0.236,1.104-0.505,2.084-0.979c4.02-1.71,11.501-4.244,15.501-4.244
					c2.878,0,4.017,0,4.43,0v0.021h2.033l-2.037,6.643c-0.01,0.031-0.015,0.062-0.022,0.093h7.399l2.085-6.796
					c2.321-0.296,4.12-2.241,4.12-4.625v-8.492C173.41,68.3,171.297,66.203,168.688,66.203z"/>
				<circle fill="#50917A" cx="132.627" cy="75.007" r="3.034"/>
				<path fill="#50917A" d="M132.855,86.362c-6.376-0.013-11.533-5.17-11.546-11.545c0.013-6.376,5.17-11.533,11.546-11.545v0.001
					c0.725,0,1.312-0.588,1.312-1.313c0-0.726-0.587-1.313-1.312-1.313c-7.825,0.001-14.167,6.344-14.171,14.169
					c0.004,7.824,6.346,14.168,14.171,14.17c0.725,0,1.312-0.589,1.312-1.313C134.167,86.948,133.58,86.362,132.855,86.362z"/>
				<path fill="#50917A" d="M132.855,80.673c-3.235-0.006-5.85-2.621-5.856-5.855c0.007-3.235,2.621-5.851,5.856-5.855
					c0.725,0,1.313-0.587,1.313-1.312c0-0.727-0.589-1.313-1.313-1.313c-4.684,0.001-8.479,3.796-8.48,8.48
					c0.001,4.683,3.797,8.479,8.48,8.48c0.725,0,1.313-0.588,1.313-1.313C134.169,81.26,133.58,80.673,132.855,80.673z"/>
				<path fill="#50917A" d="M68.409,78.562c0.939-2.885,0.777-3.257,0.777-3.257l-0.026-0.022c0.01-0.123,0.037-0.24,0.037-0.365
					c0-2.524-2.047-4.569-4.569-4.569c-2.521,0-4.57,2.045-4.57,4.569c0,0.146,0.029,0.282,0.043,0.425
					c-0.017,0.141-0.01,0.782,0.785,3.22c0.806,2.477,1.158,3.404,1.18,4.959h-0.014c-0.016,0.163-0.16,1.884-0.129,2.609
					c0.027,0.665,0.773,1.404,1.308,1.774v0.315c0,0,0.71,0.039,1.404,0.013c0.692,0.026,1.403-0.013,1.403-0.013v-0.315
					c0.533-0.37,1.28-1.109,1.308-1.774c0.028-0.645-0.083-2.067-0.118-2.493C67.233,82.009,67.582,81.1,68.409,78.562z"/>
				
					<ellipse transform="matrix(-0.1512 -0.9885 0.9885 -0.1512 -16.0075 146.7888)" fill="#50917A" cx="55.019" cy="80.267" rx="0.21" ry="4.337"/>
				
					<ellipse transform="matrix(0.9714 0.2376 -0.2376 0.9714 19.1482 -10.7747)" fill="#50917A" cx="54.282" cy="74.065" rx="4.337" ry="0.21"/>
				
					<ellipse transform="matrix(0.5724 -0.82 0.82 0.5724 -32.2791 75.3083)" fill="#50917A" cx="56.063" cy="68.602" rx="0.209" ry="4.337"/>
				
					<ellipse transform="matrix(0.3991 0.9169 -0.9169 0.3991 96.6301 -16.7546)" fill="#50917A" cx="61.098" cy="65.348" rx="4.337" ry="0.21"/>
				
					<ellipse transform="matrix(0.9921 0.1255 -0.1255 0.9921 8.6318 -7.8329)" fill="#50917A" cx="66.5" cy="64.61" rx="0.21" ry="4.336"/>
				
					<ellipse transform="matrix(0.8186 0.5744 -0.5744 0.8186 51.3135 -28.9426)" fill="#50917A" cx="71.474" cy="66.759" rx="0.21" ry="4.337"/>
				
					<ellipse transform="matrix(-0.9376 0.3478 -0.3478 -0.9376 169.8159 112.737)" fill="#50917A" cx="74.79" cy="71.61" rx="4.337" ry="0.211"/>
				<path fill="#50917A" d="M75.273,76.004c-2.394,0.096-4.329,0.267-4.327,0.385c0.007,0.112,1.95,0.131,4.344,0.037
					c2.393-0.096,4.33-0.267,4.324-0.383C79.61,75.927,77.665,75.909,75.273,76.004z"/>
				<path fill="#50917A" d="M70.604,80.129c-0.023,0.114,1.86,0.599,4.207,1.083c2.345,0.48,4.266,0.781,4.288,0.667
					c0.024-0.113-1.857-0.599-4.205-1.081C72.549,80.315,70.63,80.016,70.604,80.129z"/>
				<path fill="#50917A" d="M112.217,77.094h-2.132c-0.195,0-0.354,0.158-0.354,0.354s0.158,0.354,0.354,0.354h2.132
					c0.196,0,0.354-0.158,0.354-0.354S112.413,77.094,112.217,77.094z"/>
				<path fill="#50917A" d="M89.504,77.094h-2.13c-0.195,0-0.354,0.158-0.354,0.354s0.158,0.354,0.354,0.354h2.13
					c0.195,0,0.354-0.158,0.354-0.354S89.699,77.094,89.504,77.094z"/>
				<path fill="#50917A" d="M83.825,77.094h-0.947c-0.195,0-0.354,0.158-0.354,0.354s0.158,0.354,0.354,0.354h0.947
					c0.196,0,0.355-0.158,0.355-0.354S84.021,77.094,83.825,77.094z"/>
				<path fill="#50917A" d="M106.536,77.803c0.196,0,0.355-0.158,0.355-0.354s-0.159-0.354-0.355-0.354h-2.127
					c-0.197,0-0.355,0.158-0.355,0.354s0.158,0.354,0.355,0.354H106.536z"/>
				<path fill="#50917A" d="M95.182,77.094h-2.129c-0.196,0-0.354,0.158-0.354,0.354s0.158,0.354,0.354,0.354h2.129
					c0.196,0,0.354-0.158,0.354-0.354S95.378,77.094,95.182,77.094z"/>
				<path fill="#50917A" d="M92.342,116.365h-2.128c-0.197,0-0.355,0.159-0.355,0.355c0,0.195,0.158,0.355,0.355,0.355h2.128
					c0.197,0,0.356-0.16,0.356-0.355C92.698,116.524,92.539,116.365,92.342,116.365z"/>
				<path fill="#50917A" d="M98.021,116.365h-2.13c-0.195,0-0.354,0.159-0.354,0.355c0,0.195,0.159,0.355,0.354,0.355h2.13
					c0.195,0,0.354-0.16,0.354-0.355C98.375,116.524,98.216,116.365,98.021,116.365z"/>
				<path fill="#50917A" d="M98.611,77.921v2.129c0,0.195,0.159,0.354,0.356,0.354c0.194,0,0.354-0.159,0.354-0.354v-2.129
					c0-0.042-0.011-0.081-0.024-0.118h1.561c0.197,0,0.355-0.158,0.355-0.354s-0.158-0.354-0.355-0.354h-2.127
					c-0.197,0-0.355,0.158-0.355,0.354c0,0.163,0.112,0.295,0.263,0.336C98.621,77.826,98.611,77.872,98.611,77.921z"/>
				<path fill="#50917A" d="M86.665,116.365h-2.131c-0.194,0-0.354,0.159-0.354,0.355c0,0.195,0.159,0.355,0.354,0.355h2.131
					c0.194,0,0.354-0.16,0.354-0.355C87.019,116.524,86.859,116.365,86.665,116.365z"/>
				<path fill="#50917A" d="M80.985,116.365c-0.194,0-0.354,0.159-0.354,0.355c0,0.195,0.159,0.355,0.354,0.355
					c0.198,0,0.357-0.16,0.357-0.355C81.343,116.524,81.184,116.365,80.985,116.365z"/>
				<path fill="#50917A" d="M99.322,89.277c0-0.197-0.16-0.355-0.354-0.355c-0.197,0-0.356,0.158-0.356,0.355v2.129
					c0,0.194,0.159,0.355,0.356,0.355c0.194,0,0.354-0.161,0.354-0.355V89.277z"/>
				<path fill="#50917A" d="M99.322,83.6c0-0.196-0.16-0.354-0.354-0.354c-0.197,0-0.356,0.158-0.356,0.354v2.127
					c0,0.196,0.159,0.355,0.356,0.355c0.194,0,0.354-0.159,0.354-0.355V83.6z"/>
				<path fill="#50917A" d="M98.968,94.6c-0.197,0-0.356,0.159-0.356,0.354v2.129c0,0.196,0.159,0.355,0.356,0.355
					c0.194,0,0.354-0.159,0.354-0.355v-2.129C99.322,94.759,99.162,94.6,98.968,94.6z"/>
				<path fill="#50917A" d="M98.968,105.956c-0.197,0-0.356,0.159-0.356,0.354v2.129c0,0.196,0.159,0.355,0.356,0.355
					c0.194,0,0.354-0.159,0.354-0.355v-2.129C99.322,106.115,99.162,105.956,98.968,105.956z"/>
				<path fill="#50917A" d="M98.968,111.634c-0.197,0-0.356,0.157-0.356,0.355v2.128c0,0.196,0.159,0.355,0.356,0.355
					c0.194,0,0.354-0.159,0.354-0.355v-2.128C99.322,111.791,99.162,111.634,98.968,111.634z"/>
				<path fill="#50917A" d="M224.001,74.136c0-0.196-0.159-0.354-0.354-0.354h-2.13c-0.195,0-0.355,0.157-0.355,0.354
					s0.16,0.356,0.355,0.356h2.13C223.842,74.492,224.001,74.332,224.001,74.136z"/>
				<path fill="#50917A" d="M181.771,73.782c-0.196,0-0.354,0.157-0.354,0.354s0.158,0.356,0.354,0.356h2.128
					c0.195,0,0.355-0.16,0.355-0.356s-0.16-0.354-0.355-0.354H181.771z"/>
				<path fill="#50917A" d="M195.256,73.782h-2.129c-0.196,0-0.354,0.157-0.354,0.354s0.158,0.356,0.354,0.356h2.129
					c0.195,0,0.354-0.16,0.354-0.356S195.451,73.782,195.256,73.782z"/>
				<path fill="#50917A" d="M206.612,73.782h-2.129c-0.197,0-0.355,0.157-0.355,0.354s0.158,0.356,0.355,0.356h2.129
					c0.195,0,0.354-0.16,0.354-0.356S206.808,73.782,206.612,73.782z"/>
				<path fill="#50917A" d="M217.969,73.782h-2.13c-0.195,0-0.355,0.157-0.355,0.354s0.16,0.356,0.355,0.356h2.13
					c0.195,0,0.354-0.16,0.354-0.356S218.164,73.782,217.969,73.782z"/>
				<path fill="#50917A" d="M187.448,73.782c-0.195,0-0.354,0.157-0.354,0.354s0.159,0.356,0.354,0.356h2.129
					c0.196,0,0.355-0.16,0.355-0.356s-0.159-0.354-0.355-0.354H187.448z"/>
				<path fill="#50917A" d="M212.291,73.782h-2.13c-0.195,0-0.355,0.157-0.355,0.354s0.16,0.356,0.355,0.356h2.13
					c0.195,0,0.354-0.16,0.354-0.356S212.486,73.782,212.291,73.782z"/>
				<path fill="#50917A" d="M176.802,120.623h-2.129c-0.196,0-0.355,0.161-0.355,0.355c0,0.196,0.159,0.356,0.355,0.356h2.129
					c0.195,0,0.355-0.16,0.355-0.356C177.157,120.784,176.997,120.623,176.802,120.623z"/>
				<path fill="#50917A" d="M160.479,95.073c-0.196,0-0.354,0.16-0.354,0.355v2.128c0,0.195,0.158,0.355,0.354,0.355
					c0.195,0,0.356-0.16,0.356-0.355v-2.128C160.835,95.233,160.674,95.073,160.479,95.073z"/>
				<path fill="#50917A" d="M171.124,120.623h-2.129c-0.196,0-0.354,0.161-0.354,0.355c0,0.196,0.158,0.356,0.354,0.356h2.129
					c0.195,0,0.355-0.16,0.355-0.356C171.479,120.784,171.319,120.623,171.124,120.623z"/>
				<path fill="#50917A" d="M165.446,120.623h-2.129c-0.197,0-0.355,0.161-0.355,0.355c0,0.196,0.158,0.356,0.355,0.356h2.129
					c0.197,0,0.355-0.16,0.355-0.356C165.802,120.784,165.644,120.623,165.446,120.623z"/>
				<path fill="#50917A" d="M160.479,117.785c-0.196,0-0.354,0.158-0.354,0.354v2.13c0,0.195,0.158,0.354,0.354,0.354
					c0.195,0,0.356-0.158,0.356-0.354v-2.13C160.835,117.943,160.674,117.785,160.479,117.785z"/>
				<path fill="#50917A" d="M160.479,106.429c-0.196,0-0.354,0.159-0.354,0.355v2.13c0,0.195,0.158,0.354,0.354,0.354
					c0.195,0,0.356-0.158,0.356-0.354v-2.13C160.835,106.588,160.674,106.429,160.479,106.429z"/>
				<path fill="#50917A" d="M160.479,112.106c-0.196,0-0.354,0.159-0.354,0.355v2.13c0,0.194,0.158,0.354,0.354,0.354
					c0.195,0,0.356-0.159,0.356-0.354v-2.13C160.835,112.266,160.674,112.106,160.479,112.106z"/>
				<path fill="#50917A" d="M181.771,120.623h-1.421c-0.195,0-0.354,0.161-0.354,0.355c0,0.196,0.158,0.356,0.354,0.356h1.421
					c0.195,0,0.356-0.16,0.356-0.356C182.127,120.784,181.966,120.623,181.771,120.623z"/>
				<path fill="#50917A" d="M160.479,100.751c-0.196,0-0.354,0.159-0.354,0.355v2.129c0,0.194,0.158,0.354,0.354,0.354
					c0.195,0,0.356-0.16,0.356-0.354v-2.129C160.835,100.91,160.674,100.751,160.479,100.751z"/>
				<path fill="#50917A" d="M150.074,111.752c0,0.196,0.16,0.355,0.355,0.355c0.196,0,0.354-0.159,0.354-0.355v-2.127
					c0-0.199-0.158-0.357-0.354-0.357c-0.195,0-0.355,0.158-0.355,0.357V111.752z"/>
				<path fill="#50917A" d="M150.074,123.244c0,0.194,0.16,0.354,0.355,0.354c0.196,0,0.354-0.16,0.354-0.354v-2.129
					c0-0.196-0.158-0.355-0.354-0.355c-0.195,0-0.355,0.159-0.355,0.355V123.244z"/>
				<path fill="#50917A" d="M150.074,117.431c0,0.195,0.16,0.354,0.355,0.354c0.196,0,0.354-0.159,0.354-0.354v-2.13
					c0-0.196-0.158-0.354-0.354-0.354c-0.195,0-0.355,0.157-0.355,0.354V117.431z"/>
				<path fill="#50917A" d="M150.074,100.396c0,0.196,0.16,0.355,0.355,0.355c0.196,0,0.354-0.159,0.354-0.355v-2.129
					c0-0.196-0.158-0.354-0.354-0.354c-0.195,0-0.355,0.158-0.355,0.354V100.396z"/>
				<path fill="#50917A" d="M150.074,106.076c0,0.193,0.16,0.354,0.355,0.354c0.196,0,0.354-0.16,0.354-0.354v-2.131
					c0-0.196-0.158-0.355-0.354-0.355c-0.195,0-0.355,0.159-0.355,0.355V106.076z"/>
				<path fill="#50917A" d="M150.43,95.073c0.196,0,0.354-0.16,0.354-0.354V92.59c0-0.196-0.158-0.355-0.354-0.355
					c-0.195,0-0.355,0.159-0.355,0.355v2.129C150.074,94.913,150.234,95.073,150.43,95.073z"/>
				<path fill="#50917A" d="M148.176,43.733c0.196,0,0.354-0.159,0.354-0.354V41.25c0-0.195-0.158-0.354-0.354-0.354
					s-0.354,0.159-0.354,0.354v2.129C147.821,43.574,147.979,43.733,148.176,43.733z"/>
				<path fill="#50917A" d="M148.176,60.769c0.196,0,0.354-0.158,0.354-0.355v-2.129c0-0.196-0.158-0.354-0.354-0.354
					s-0.354,0.158-0.354,0.354v2.129C147.821,60.61,147.979,60.769,148.176,60.769z"/>
				<path fill="#50917A" d="M148.176,55.091c0.196,0,0.354-0.159,0.354-0.356v-2.127c0-0.197-0.158-0.356-0.354-0.356
					s-0.354,0.159-0.354,0.356v2.127C147.821,54.932,147.979,55.091,148.176,55.091z"/>
				<path fill="#50917A" d="M148.176,49.412c0.196,0,0.354-0.158,0.354-0.354v-2.129c0-0.196-0.158-0.355-0.354-0.355
					s-0.354,0.159-0.354,0.355v2.129C147.821,49.254,147.979,49.412,148.176,49.412z"/>
				<path fill="#50917A" d="M181.533,51.306h2.131c0.194,0,0.354-0.16,0.354-0.354c0-0.196-0.16-0.355-0.354-0.355h-2.131
					c-0.196,0-0.354,0.159-0.354,0.355C181.179,51.146,181.337,51.306,181.533,51.306z"/>
				<path fill="#50917A" d="M177.985,50.596h-2.13c-0.196,0-0.354,0.159-0.354,0.355c0,0.194,0.157,0.354,0.354,0.354h2.13
					c0.194,0,0.354-0.16,0.354-0.354C178.339,50.755,178.18,50.596,177.985,50.596z"/>
				<path fill="#50917A" d="M153.145,51.306h2.129c0.195,0,0.354-0.16,0.354-0.354c0-0.196-0.159-0.355-0.354-0.355h-2.129
					c-0.196,0-0.354,0.159-0.354,0.355C152.79,51.146,152.948,51.306,153.145,51.306z"/>
				<path fill="#50917A" d="M170.179,51.306h2.129c0.194,0,0.354-0.16,0.354-0.354c0-0.196-0.16-0.355-0.354-0.355h-2.129
					c-0.196,0-0.356,0.159-0.356,0.355C169.822,51.146,169.982,51.306,170.179,51.306z"/>
				<path fill="#50917A" d="M164.5,51.306h2.13c0.195,0,0.354-0.16,0.354-0.354c0-0.196-0.158-0.355-0.354-0.355h-2.13
					c-0.196,0-0.355,0.159-0.355,0.355C164.145,51.146,164.304,51.306,164.5,51.306z"/>
				<path fill="#50917A" d="M158.821,51.306h2.131c0.195,0,0.354-0.16,0.354-0.354c0-0.196-0.158-0.355-0.354-0.355h-2.131
					c-0.196,0-0.354,0.159-0.354,0.355C158.468,51.146,158.625,51.306,158.821,51.306z"/>
				<path fill="#50917A" d="M196.705,121.304c-0.351-0.432-0.862-0.646-1.378-0.646l-1.324-1.633c2.759-2.937,3-7.527,0.393-10.742
					c-2.846-3.506-7.995-4.042-11.504-1.197c-3.506,2.846-4.041,7.995-1.196,11.501c2.607,3.215,7.148,3.925,10.589,1.832
					l1.326,1.634c-0.106,0.504-0.001,1.049,0.348,1.479l4.735,5.836c0.615,0.758,1.729,0.873,2.486,0.259
					c0.759-0.614,0.876-1.729,0.261-2.487L196.705,121.304z M182.88,117.626c-2.316-2.853-1.879-7.042,0.973-9.355
					c2.853-2.313,7.044-1.878,9.357,0.975c2.314,2.853,1.878,7.043-0.974,9.356C189.385,120.916,185.193,120.479,182.88,117.626z"/>
				<path fill="#50917A" d="M226.717,78.604v2.164c0,1.031,0.835,1.866,1.866,1.866h9.367c1.031,0,1.866-0.835,1.866-1.866V56.779
					c0-0.145-0.02-0.283-0.051-0.418v-0.084c-0.019-0.047-0.044-0.081-0.064-0.124c-0.226-0.634-0.779-1.104-1.46-1.212
					c-0.1-0.022-0.166-0.029-0.166-0.029h-0.125h-2.89h-6.478c-1.031,0-1.866,0.835-1.866,1.867v21.734l-0.032,0.091
					C226.685,78.604,226.696,78.604,226.717,78.604z M227.782,78.674V78.6c0,0,0.002,0,0.003,0v0.074H227.782z M232.048,57.34
					c0-0.163,0.133-0.294,0.295-0.294h1.963l-0.215,0.608h-1.748c-0.162,0-0.295-0.133-0.295-0.295V57.34z M227.782,58.873h0.003
					v16.618l-0.003,0.009V58.873z"/>
				<polygon fill="#50917A" points="141.041,127.348 141.041,127.626 141.041,141.5 153.158,141.5 159.818,134.84 159.818,134.654 
					159.818,127.626 159.818,127.348 159.818,123.926 141.041,123.926 				"/>
				<path fill="#50917A" d="M77.757,116.537c-0.47-0.378-1.012-0.706-1.622-0.983c-0.612-0.279-1.251-0.539-1.919-0.78l0.018-5.783
					c0.589,0.098,1.073,0.331,1.45,0.695c0.377,0.367,0.565,0.878,0.565,1.534v0.458c0.229,0.033,0.454,0.049,0.671,0.049
					c0.229,0,0.455-0.027,0.672-0.081c0.219-0.055,0.416-0.14,0.591-0.254c0.176-0.116,0.316-0.261,0.426-0.435
					c0.109-0.175,0.164-0.388,0.164-0.64c0-0.535-0.16-0.968-0.481-1.294c-0.324-0.329-0.72-0.582-1.189-0.764
					c-0.47-0.179-0.967-0.301-1.492-0.36c-0.524-0.061-0.984-0.095-1.376-0.106l0.016-2.098l-1.294,0.147v2
					c-0.657,0.065-1.278,0.199-1.868,0.402c-0.59,0.202-1.106,0.482-1.55,0.843c-0.442,0.361-0.794,0.809-1.057,1.344
					s-0.394,1.164-0.394,1.885c0,0.722,0.137,1.345,0.411,1.868c0.272,0.524,0.635,0.982,1.09,1.377
					c0.452,0.394,0.975,0.731,1.564,1.017c0.59,0.283,1.202,0.545,1.836,0.786v6.096c-0.821-0.055-1.44-0.285-1.861-0.697
					c-0.42-0.409-0.63-1.022-0.63-1.843v-0.476c-0.229-0.032-0.46-0.049-0.689-0.049c-0.239,0-0.473,0.029-0.695,0.09
					c-0.226,0.061-0.425,0.151-0.599,0.272c-0.175,0.118-0.314,0.271-0.418,0.457c-0.104,0.186-0.155,0.405-0.155,0.656
					c0,0.602,0.179,1.083,0.54,1.451c0.36,0.364,0.798,0.646,1.312,0.843c0.514,0.197,1.051,0.328,1.615,0.393
					c0.563,0.065,1.045,0.1,1.45,0.1h0.131l0.017,2.048l1.18-0.247v-1.884c0.688-0.088,1.344-0.245,1.965-0.476
					c0.624-0.229,1.166-0.54,1.632-0.933c0.465-0.395,0.833-0.875,1.106-1.442c0.273-0.568,0.409-1.239,0.409-2.016
					c0-0.711-0.139-1.323-0.417-1.836C78.6,117.358,78.227,116.914,77.757,116.537z M72.028,113.915
					c-0.301-0.17-0.566-0.368-0.795-0.599c-0.23-0.229-0.412-0.496-0.548-0.804c-0.138-0.305-0.205-0.666-0.205-1.081
					c0-0.361,0.065-0.681,0.196-0.958c0.132-0.279,0.307-0.522,0.524-0.73c0.218-0.206,0.479-0.374,0.778-0.499
					c0.301-0.125,0.626-0.21,0.976-0.254l0.016,5.392C72.644,114.238,72.33,114.086,72.028,113.915z M76.65,121.641
					c-0.136,0.317-0.325,0.596-0.566,0.838c-0.239,0.239-0.523,0.439-0.853,0.598c-0.325,0.157-0.678,0.27-1.047,0.336l0.016-5.671
					c0.338,0.131,0.669,0.278,0.991,0.441c0.323,0.164,0.606,0.357,0.853,0.583c0.245,0.224,0.441,0.481,0.591,0.779
					c0.146,0.294,0.221,0.638,0.221,1.03C76.855,120.97,76.787,121.325,76.65,121.641z"/>
				<path fill="#50917A" d="M103.116,45.954h-2.129c-0.195,0-0.355,0.157-0.355,0.354c0,0.195,0.16,0.355,0.355,0.355h2.129
					c0.195,0,0.354-0.16,0.354-0.355C103.471,46.111,103.312,45.954,103.116,45.954z"/>
				<path fill="#50917A" d="M140.732,46.663h2.13c0.195,0,0.354-0.16,0.354-0.355c0-0.196-0.159-0.354-0.354-0.354h-2.13
					c-0.196,0-0.354,0.157-0.354,0.354C140.378,46.503,140.536,46.663,140.732,46.663z"/>
				<path fill="#50917A" d="M120.504,46.308c0-0.196-0.158-0.354-0.354-0.354h-2.128c-0.196,0-0.355,0.157-0.355,0.354
					c0,0.195,0.159,0.355,0.355,0.355h2.128C120.346,46.663,120.504,46.503,120.504,46.308z"/>
				<path fill="#50917A" d="M129.376,46.663h2.13c0.194,0,0.355-0.16,0.355-0.355c0-0.196-0.161-0.354-0.355-0.354h-2.13
					c-0.196,0-0.354,0.157-0.354,0.354C129.021,46.503,129.18,46.663,129.376,46.663z"/>
				<path fill="#50917A" d="M108.795,45.954h-2.131c-0.196,0-0.354,0.157-0.354,0.354c0,0.195,0.158,0.355,0.354,0.355h2.131
					c0.196,0,0.354-0.16,0.354-0.355C109.149,46.111,108.991,45.954,108.795,45.954z"/>
				<path fill="#50917A" d="M114.471,45.954h-2.128c-0.196,0-0.354,0.157-0.354,0.354c0,0.195,0.158,0.355,0.354,0.355h2.128
					c0.196,0,0.356-0.16,0.356-0.355C114.827,46.111,114.667,45.954,114.471,45.954z"/>
				<path fill="#50917A" d="M137.538,46.308c0-0.196-0.158-0.354-0.354-0.354h-2.13c-0.195,0-0.354,0.157-0.354,0.354
					c0,0.195,0.158,0.355,0.354,0.355h2.13C137.38,46.663,137.538,46.503,137.538,46.308z"/>
				<path fill="#50917A" d="M123.699,46.663h2.129c0.196,0,0.354-0.16,0.354-0.355c0-0.196-0.158-0.354-0.354-0.354h-2.129
					c-0.196,0-0.354,0.157-0.354,0.354C123.345,46.503,123.503,46.663,123.699,46.663z"/>
				<path fill="#50917A" d="M117.308,101.421h-2.129c-0.196,0-0.354,0.159-0.354,0.354s0.158,0.355,0.354,0.355h2.129
					c0.197,0,0.355-0.16,0.355-0.355S117.505,101.421,117.308,101.421z"/>
				<path fill="#50917A" d="M125.943,101.421h-1.524c-0.196,0-0.355,0.159-0.355,0.354s0.159,0.357,0.355,0.357v-0.002h0.814v0.604
					c0,0.197,0.158,0.356,0.354,0.356c0.197,0,0.356-0.159,0.356-0.356V101.421z"/>
				<path fill="#50917A" d="M125.587,111.607c-0.195,0-0.354,0.159-0.354,0.356v0.548c0,0.194,0.158,0.354,0.354,0.354
					c0.197,0,0.356-0.16,0.356-0.354v-0.548C125.943,111.767,125.784,111.607,125.587,111.607z"/>
				<path fill="#50917A" d="M106.843,101.421h-2.128c-0.197,0-0.354,0.159-0.354,0.354s0.157,0.355,0.354,0.355h2.128
					c0.197,0,0.356-0.16,0.356-0.355S107.04,101.421,106.843,101.421z"/>
				<path fill="#50917A" d="M125.943,106.285c0-0.195-0.159-0.356-0.356-0.356c-0.195,0-0.354,0.161-0.354,0.356v2.129
					c0,0.195,0.158,0.355,0.354,0.355c0.197,0,0.356-0.16,0.356-0.355V106.285z"/>
				<path fill="#50917A" d="M122.396,101.775c0-0.195-0.159-0.354-0.356-0.354h-2.128c-0.197,0-0.354,0.159-0.354,0.354
					s0.157,0.355,0.354,0.355h2.128C122.236,102.131,122.396,101.971,122.396,101.775z"/>
				<path fill="#50917A" d="M111.984,101.421h-2.128c-0.197,0-0.355,0.159-0.355,0.354s0.158,0.355,0.355,0.355h2.128
					c0.197,0,0.356-0.16,0.356-0.355S112.182,101.421,111.984,101.421z"/>
				<path fill="#50917A" d="M101.165,101.421h-1.843v-0.788c0-0.197-0.16-0.355-0.354-0.355c-0.197,0-0.356,0.158-0.356,0.355v2.129
					c0,0.195,0.159,0.355,0.356,0.355c0.194,0,0.354-0.16,0.354-0.355v-0.631h1.843c0.197,0,0.356-0.16,0.356-0.355
					S101.362,101.421,101.165,101.421z"/>
				<path fill="#50917A" d="M198.642,96.698c-0.197,0-0.355,0.157-0.355,0.354v2.129c0,0.195,0.158,0.355,0.355,0.355
					c0.195,0,0.354-0.16,0.354-0.355v-2.129C198.995,96.855,198.837,96.698,198.642,96.698z"/>
				<path fill="#50917A" d="M198.995,85.695c0-0.195-0.158-0.354-0.354-0.354c-0.197,0-0.355,0.159-0.355,0.354v2.13
					c0,0.196,0.158,0.354,0.355,0.354c0.195,0,0.354-0.157,0.354-0.354V85.695z"/>
				<path fill="#50917A" d="M198.995,91.374c0-0.196-0.158-0.354-0.354-0.354c-0.197,0-0.355,0.158-0.355,0.354v2.129
					c0,0.196,0.158,0.354,0.355,0.354c0.195,0,0.354-0.158,0.354-0.354V91.374z"/>
				<path fill="#50917A" d="M220.113,99.232h-1.296c-0.195,0-0.355,0.159-0.355,0.355c0,0.195,0.16,0.353,0.355,0.353h1.296
					c0.194,0,0.354-0.157,0.354-0.353C220.468,99.392,220.308,99.232,220.113,99.232z"/>
				<path fill="#50917A" d="M215.27,99.232h-2.13c-0.196,0-0.355,0.159-0.355,0.355c0,0.195,0.159,0.353,0.355,0.353h2.13
					c0.195,0,0.354-0.157,0.354-0.353C215.624,99.392,215.465,99.232,215.27,99.232z"/>
				<path fill="#50917A" d="M209.592,99.232h-2.131c-0.196,0-0.354,0.159-0.354,0.355c0,0.195,0.158,0.353,0.354,0.353h2.131
					c0.194,0,0.354-0.157,0.354-0.353C209.946,99.392,209.786,99.232,209.592,99.232z"/>
				<path fill="#50917A" d="M198.995,80.019c0-0.195-0.158-0.354-0.354-0.354c-0.197,0-0.355,0.159-0.355,0.354v2.13
					c0,0.194,0.158,0.353,0.355,0.353c0.195,0,0.354-0.158,0.354-0.353V80.019z"/>
				<path fill="#50917A" d="M203.913,99.232h-2.129c-0.196,0-0.354,0.159-0.354,0.355c0,0.195,0.158,0.353,0.354,0.353h2.129
					c0.195,0,0.355-0.157,0.355-0.353C204.269,99.392,204.108,99.232,203.913,99.232z"/>
				<path fill="#50917A" d="M198.995,74.492h1.938c0.195,0,0.354-0.16,0.354-0.356s-0.159-0.354-0.354-0.354h-2.129
					c-0.161,0-0.291,0.107-0.334,0.254c-0.108,0.061-0.185,0.172-0.185,0.305v2.128c0,0.196,0.158,0.355,0.355,0.355
					c0.195,0,0.354-0.159,0.354-0.355V74.492z"/>
				<path fill="#50917A" d="M83.254,49.366h7.369l3.08,2.571c0.401,0.335,0.618,0.198,0.483-0.307l-0.603-2.249
					c-0.001-0.006-0.004-0.011-0.006-0.016h2.761c0.522,0,0.947-0.424,0.947-0.948v-9.102c0-0.522-0.425-0.948-0.947-0.948h-4.873
					v6.287c0,0.913-0.743,1.658-1.659,1.658h-7.5v2.104C82.307,48.942,82.731,49.366,83.254,49.366z"/>
				<path fill="#50917A" d="M76.724,45.602h1.45c-0.002,0.005-0.004,0.01-0.006,0.016l-0.603,2.249
					c-0.084,0.318-0.029,0.491,0.121,0.491c0.091,0,0.214-0.061,0.362-0.184l3.079-2.572h1.179h7.5c0.524,0,0.949-0.424,0.949-0.947
					v-6.286v-2.815c0-0.523-0.425-0.948-0.949-0.948H76.724c-0.522,0-0.947,0.425-0.947,0.948v9.102
					C75.776,45.178,76.2,45.602,76.724,45.602z"/>
				<path fill="#50917A" d="M248.058,104.007l-3.75,2.862c-0.268-0.209-0.602-0.398-0.965-0.571l-6.889-3.629l0.176-0.372
					l9.574-9.079l-3.65-1.729l-2.54,1.934l-2.676-1.269c-0.334-0.158-0.731-0.015-0.891,0.322c-0.158,0.333-0.018,0.732,0.316,0.89
					l2.052,0.972l-3.233,2.468l-2.774-1.313c-0.333-0.159-0.729-0.015-0.887,0.32c-0.158,0.334-0.02,0.73,0.313,0.89l2.15,1.019
					l-2.84,2.166l-0.072,0.153l-4.56-2.403c-1.123-0.532-2.463-0.054-2.996,1.07c-0.531,1.123-0.055,2.466,1.068,2.996l4.749,2.004
					l-0.116,0.246l0.163,2.673l-1.837-0.871c-0.334-0.158-0.729-0.013-0.888,0.322s-0.019,0.729,0.314,0.888l2.509,1.188
					l0.203,3.359l-1.981-0.94c-0.333-0.158-0.734-0.014-0.892,0.318c-0.157,0.333-0.017,0.733,0.318,0.892l2.649,1.256l0.251,4.037
					l3.648,1.731l0.629-12.439l0.219-0.464l7.17,3.03c0.404,0.191,0.791,0.341,1.15,0.408l0.261,4.271l1.603,1.29l1.305-4.696
					l0.723-1.524l2.934-4.25L248.058,104.007z"/>
				<path fill="#50917A" d="M122.276,125.836v3.11c0,2.614,2.119,4.734,4.734,4.734s4.735-2.12,4.735-4.734v-3.043
					C130.537,126.513,127.231,127.683,122.276,125.836z"/>
				<path fill="#50917A" d="M133.681,110.25l-0.609,0.023c0.015,0.401,0.051,0.781,0.085,1.138c0.177,1.86,0.273,2.885-2.89,3.438
					c-1.336,0.234-2.325,0.809-2.938,1.706c-0.566,0.832-0.68,1.75-0.678,2.379c-2.342,0.201-4.374,2.691-4.374,4.976
					c0,0.004,0,1.321,0,1.321c1.524,0.619,5.656,1.929,9.47-0.002v-1.319c0-2.217-1.87-4.448-4.075-4.914
					c-0.137-0.028-0.271-0.042-0.407-0.055c-0.002-0.542,0.092-1.343,0.573-2.046c0.517-0.754,1.37-1.239,2.535-1.443
					c3.72-0.651,3.575-2.172,3.392-4.098C133.731,111.007,133.696,110.64,133.681,110.25z M127.83,121.479v2.241
					c0,0.453-0.368,0.821-0.819,0.821s-0.819-0.368-0.819-0.821v-2.241c0-0.453,0.368-0.82,0.819-0.82
					C127.464,120.659,127.83,121.026,127.83,121.479z"/>
			</g>
		</g>
		<g>
			<g>
				<g>
					<polygon fill="#FF4B34" points="195.407,44.52 184.274,39.481 195.7,34.441 206.715,39.363 					"/>
					<g>
						<rect x="205.786" y="39.188" fill="#FF4B34" width="0.703" height="7.382"/>
						<circle fill="#FF4B34" cx="206.138" cy="46.835" r="1.113"/>
						<g>
							<path fill="#FF4B34" d="M205.633,47.186c0,0-0.879,1.847-0.529,4.658h1.266v-4.923
								C206.369,46.921,205.633,47.333,205.633,47.186z"/>
							<path fill="#FF4B34" d="M206.749,47.186c0,0,0.876,1.847,0.525,4.658h-1.257v-4.923
								C206.018,46.921,206.749,47.333,206.749,47.186z"/>
						</g>
					</g>
					<path fill="#FF4B34" d="M201.733,42.485c0,0.052-5.45,2.579-6.501,3.065c-1.055-0.486-6.504-3.014-6.504-3.065v7.482
						c1.757,1.866,5.219,2.169,6.327,2.218v0.01c0,0,0.063,0,0.177-0.004c0.11,0.004,0.175,0.004,0.175,0.004v-0.01
						c1.108-0.049,4.569-0.352,6.326-2.218V42.485z"/>
				</g>
				<g>
					<g>
						<g>
							<path fill="#152C34" d="M167.067,84.696h-7.399c0.008-0.031,0.013-0.062,0.022-0.093l3.265-10.646
								c0.57-1.856,2.551-2.904,4.421-2.339c1.872,0.565,2.927,2.528,2.357,4.385L167.067,84.696z"/>
							<path fill="#152C34" d="M159.694,60.099h8.855c2.609,0,4.723,2.097,4.723,4.685v8.492c0,2.588-2.113,4.685-4.723,4.685
								h-8.855V60.099z"/>
						</g>
						<path fill="#F4EEE5" d="M137.159,53.83c1.595,1.622,12.382,6.269,17.58,6.269c6.298,0,4.986,0,4.986,0v17.841
							c0,0,1.574,0-4.461,0c-5.328,0-16.832,4.495-18.105,5.551V53.83z"/>
						<path fill="#FF4B34" d="M137.159,53.83c0.611,0.62,2.005,1.306,3.149,1.906l-0.051,26.205
							c-1.771,0.886-2.61,1.145-3.099,1.549V53.83z"/>
					</g>
					<g>
						<g>
							<circle fill="#152C34" cx="132.49" cy="68.902" r="3.034"/>
						</g>
						<g>
							<path fill="#152C34" d="M134.029,81.569c0-0.726-0.587-1.312-1.312-1.312l0,0c-6.376-0.013-11.533-5.171-11.546-11.545l0,0
								c0.013-6.376,5.17-11.534,11.546-11.545l0,0v0.001c0.725,0,1.312-0.589,1.312-1.313l0,0c0-0.726-0.587-1.313-1.312-1.313l0,0
								c-7.825,0.001-14.167,6.343-14.171,14.169l0,0c0.004,7.824,6.346,14.168,14.171,14.17l0,0
								C133.442,82.883,134.029,82.293,134.029,81.569L134.029,81.569z"/>
						</g>
						<g>
							<path fill="#152C34" d="M134.031,75.881c0-0.726-0.589-1.313-1.313-1.313l0,0c-3.235-0.006-5.85-2.622-5.856-5.855l0,0
								c0.007-3.235,2.621-5.852,5.856-5.855l0,0c0.725,0,1.313-0.587,1.313-1.312l0,0c0-0.727-0.589-1.313-1.313-1.313l0,0
								c-4.684,0.001-8.479,3.795-8.48,8.48l0,0c0.001,4.683,3.797,8.478,8.48,8.48l0,0
								C133.442,77.193,134.031,76.604,134.031,75.881L134.031,75.881z"/>
						</g>
					</g>
				</g>
				<g>
					<g>
						<circle fill="#FFC038" cx="64.49" cy="68.812" r="4.57"/>
						<path fill="#FFC038" d="M59.97,69.2c0,0-0.162,0.371,0.778,3.256c0.938,2.885,1.265,3.663,1.166,5.785h2.966v-13.32
							L59.97,69.2z"/>
						<path fill="#FFC038" d="M69.049,69.2c0,0,0.162,0.371-0.777,3.256c-0.94,2.885-1.264,3.663-1.166,5.785H64.14v-13.32
							L69.049,69.2z"/>
						<path fill="#3F0000" d="M61.914,77.416c-0.016,0.162-0.16,1.883-0.129,2.608c0.027,0.666,0.773,1.405,1.308,1.775v0.314
							c0,0,0.71,0.04,1.404,0.013c0.692,0.027,1.403-0.013,1.403-0.013V81.8c0.533-0.37,1.28-1.109,1.308-1.775
							c0.031-0.726-0.114-2.446-0.128-2.608H61.914z"/>
						<g>
							<path fill="#3F0000" d="M66.712,70.019c-0.058-0.07-0.141-0.094-0.204-0.093c-0.104,0.001-0.176,0.045-0.191,0.054
								c-0.153,0.126-0.197,0.397-0.263,0.817c-0.076,0.016-0.156,0.024-0.237,0.022c-0.235,0-0.477-0.065-0.663-0.212
								c0.083-0.14,0.124-0.29,0.124-0.412c0-0.099-0.024-0.207-0.13-0.257c-0.06-0.026-0.125-0.039-0.188-0.039
								c-0.069,0-0.144,0.015-0.207,0.057c-0.064,0.043-0.112,0.122-0.111,0.212c0.004,0.135,0.08,0.276,0.252,0.459
								c-0.104,0.112-0.255,0.196-0.451,0.196c-0.194,0-0.344-0.084-0.449-0.196c0.17-0.183,0.248-0.324,0.25-0.459
								c0.004-0.09-0.045-0.169-0.109-0.212c-0.063-0.042-0.137-0.057-0.207-0.057c-0.065,0-0.13,0.013-0.188,0.039
								c-0.105,0.05-0.13,0.158-0.131,0.257c0,0.122,0.04,0.272,0.125,0.412c-0.187,0.146-0.429,0.212-0.661,0.212
								c-0.084,0.002-0.164-0.007-0.24-0.022c-0.065-0.42-0.107-0.691-0.262-0.817c-0.016-0.009-0.09-0.053-0.193-0.054
								c-0.061-0.001-0.146,0.022-0.201,0.093c-0.058,0.07-0.086,0.167-0.086,0.301c0,0.021,0.003,0.045,0.004,0.072
								c0.027,0.281,0.265,0.471,0.563,0.562c0.162,1.31,0.19,3.787,0.19,5.311c0,0.78-0.009,1.312-0.009,1.313l0.195,0.001
								c0,0,0.006-0.533,0.006-1.314c0-1.045-0.013-2.531-0.072-3.792c-0.026-0.554-0.063-1.063-0.109-1.474
								c0.07,0.011,0.142,0.017,0.214,0.017c0.268,0,0.552-0.075,0.777-0.253c0.135,0.144,0.328,0.247,0.581,0.254v0.001
								c0.004,0,0.01,0,0.013,0l0,0h0.002c0.02,0,0.041-0.002,0.059-0.004v-0.001c0.23-0.019,0.408-0.117,0.535-0.25
								c0.228,0.178,0.509,0.253,0.779,0.253c0.069,0,0.141-0.006,0.212-0.017c-0.048,0.411-0.083,0.92-0.11,1.474
								c-0.06,1.261-0.073,2.747-0.073,3.792c0,0.781,0.007,1.314,0.007,1.314l0.195-0.001c0-0.002-0.007-0.533-0.007-1.313
								c-0.001-1.523,0.027-4.001,0.188-5.311c0.301-0.091,0.537-0.28,0.564-0.562c0.001-0.027,0.001-0.052,0.001-0.072
								C66.794,70.186,66.769,70.089,66.712,70.019z M62.286,70.377c-0.002-0.021-0.003-0.039-0.003-0.058
								c0.017-0.221,0.052-0.187,0.092-0.198c0.003,0,0.003,0,0.004,0c0.02,0,0.039,0.004,0.056,0.012
								c0.019,0.007,0.032,0.014,0.032,0.012c0.021-0.005,0.107,0.235,0.16,0.593C62.424,70.652,62.286,70.516,62.286,70.377z
								 M63.8,70.195c0-0.032,0.007-0.058,0.012-0.07c0.004-0.005,0.005-0.009,0.007-0.011c0.03-0.012,0.068-0.021,0.107-0.021
								c0.093,0.009,0.122,0.029,0.122,0.075c0.003,0.043-0.036,0.147-0.171,0.299C63.826,70.37,63.802,70.271,63.8,70.195z
								 M65.008,70.467c-0.135-0.151-0.174-0.256-0.172-0.299c0-0.046,0.029-0.066,0.123-0.075c0.038,0,0.078,0.01,0.108,0.021
								c0.001,0.002,0.003,0.006,0.007,0.011c0.004,0.013,0.01,0.038,0.01,0.07C65.084,70.271,65.059,70.37,65.008,70.467z
								 M66.598,70.377c0,0.139-0.137,0.275-0.341,0.36c0.051-0.357,0.141-0.598,0.16-0.593c0.001,0.002,0.014-0.005,0.032-0.012
								c0.016-0.008,0.038-0.012,0.057-0.012c0.001,0,0.002,0,0.002,0c0.04,0.012,0.078-0.022,0.092,0.198
								C66.6,70.338,66.6,70.356,66.598,70.377z"/>
						</g>
					</g>
					
						<ellipse transform="matrix(-0.1515 -0.9885 0.9885 -0.1515 -10.1081 139.6476)" fill="#FFC038" cx="54.881" cy="74.162" rx="0.209" ry="4.337"/>
					
						<ellipse transform="matrix(0.2393 -0.971 0.971 0.2393 -24.7966 104.2734)" fill="#FFC038" cx="54.145" cy="67.961" rx="0.21" ry="4.336"/>
					
						<ellipse transform="matrix(0.5713 -0.8208 0.8208 0.5713 -27.3184 72.6958)" fill="#FFC038" cx="55.925" cy="62.497" rx="0.209" ry="4.336"/>
					
						<ellipse transform="matrix(0.9168 -0.3992 0.3992 0.9168 -18.5826 29.2636)" fill="#FFC038" cx="60.96" cy="59.242" rx="0.21" ry="4.337"/>
					
						<ellipse transform="matrix(0.9918 0.1278 -0.1278 0.9918 8.0178 -7.9985)" fill="#FFC038" cx="66.363" cy="58.505" rx="0.21" ry="4.338"/>
					
						<ellipse transform="matrix(0.8186 0.5744 -0.5744 0.8186 47.7821 -29.971)" fill="#FFC038" cx="71.336" cy="60.655" rx="0.21" ry="4.336"/>
					
						<ellipse transform="matrix(0.3473 0.9377 -0.9377 0.3473 110.1518 -27.2523)" fill="#FFC038" cx="74.653" cy="65.504" rx="0.211" ry="4.338"/>
					<path fill="#FFC038" d="M75.152,70.32c-2.394,0.095-4.337,0.076-4.344-0.037c-0.002-0.117,1.934-0.288,4.327-0.384
						c2.392-0.095,4.337-0.077,4.341,0.039C79.482,70.054,77.545,70.226,75.152,70.32z"/>
					<path fill="#FFC038" d="M74.673,75.106c-2.347-0.484-4.23-0.969-4.207-1.083c0.026-0.112,1.945,0.188,4.29,0.669
						c2.348,0.483,4.229,0.968,4.205,1.081C78.938,75.889,77.018,75.588,74.673,75.106z"/>
				</g>
				<g>
					<path fill="#F4EEE5" d="M109.947,71.697c-0.195,0-0.354-0.158-0.354-0.354l0,0c0-0.196,0.158-0.354,0.354-0.354l0,0h2.132
						c0.196,0,0.354,0.158,0.354,0.354l0,0c0,0.195-0.157,0.354-0.354,0.354l0,0H109.947L109.947,71.697z M104.271,71.697
						c-0.197,0-0.355-0.158-0.355-0.354l0,0c0-0.196,0.158-0.354,0.355-0.354l0,0h2.127c0.196,0,0.355,0.158,0.355,0.354l0,0
						c0,0.195-0.159,0.354-0.355,0.354l0,0H104.271L104.271,71.697z M98.594,71.697c-0.197,0-0.355-0.158-0.355-0.354l0,0
						c0-0.196,0.158-0.354,0.355-0.354l0,0h2.127c0.197,0,0.355,0.158,0.355,0.354l0,0c0,0.195-0.158,0.354-0.355,0.354l0,0H98.594
						L98.594,71.697z M92.915,71.697c-0.196,0-0.354-0.158-0.354-0.354l0,0c0-0.196,0.158-0.354,0.354-0.354l0,0h2.129
						c0.196,0,0.354,0.158,0.354,0.354l0,0c0,0.195-0.158,0.354-0.354,0.354l0,0H92.915L92.915,71.697z M87.236,71.697
						c-0.195,0-0.354-0.158-0.354-0.354l0,0c0-0.196,0.158-0.354,0.354-0.354l0,0h2.13c0.195,0,0.354,0.158,0.354,0.354l0,0
						c0,0.195-0.159,0.354-0.354,0.354l0,0H87.236L87.236,71.697z M82.74,71.697c-0.195,0-0.354-0.158-0.354-0.354l0,0
						c0-0.196,0.158-0.354,0.354-0.354l0,0h0.947c0.196,0,0.355,0.158,0.355,0.354l0,0c0,0.195-0.159,0.354-0.355,0.354l0,0H82.74
						L82.74,71.697z"/>
				</g>
				<g>
					<path fill="#F4EEE5" d="M95.753,110.972c-0.195,0-0.354-0.16-0.354-0.355l0,0c0-0.196,0.159-0.355,0.354-0.355l0,0h2.13
						c0.195,0,0.354,0.159,0.354,0.355l0,0c0,0.195-0.159,0.355-0.354,0.355l0,0H95.753L95.753,110.972z M90.076,110.972
						c-0.197,0-0.355-0.16-0.355-0.355l0,0c0-0.196,0.158-0.355,0.355-0.355l0,0h2.128c0.197,0,0.356,0.159,0.356,0.355l0,0
						c0,0.195-0.159,0.355-0.356,0.355l0,0H90.076L90.076,110.972z M84.396,110.972c-0.194,0-0.354-0.16-0.354-0.355l0,0
						c0-0.196,0.159-0.355,0.354-0.355l0,0h2.131c0.194,0,0.354,0.159,0.354,0.355l0,0c0,0.195-0.159,0.355-0.354,0.355l0,0H84.396
						L84.396,110.972z M80.494,110.616c0-0.196,0.159-0.355,0.354-0.355l0,0c0.198,0,0.357,0.159,0.357,0.355l0,0
						c0,0.195-0.159,0.355-0.357,0.355l0,0C80.653,110.972,80.494,110.812,80.494,110.616L80.494,110.616z M98.474,108.013v-2.129
						c0-0.197,0.159-0.355,0.356-0.355l0,0c0.194,0,0.354,0.158,0.354,0.355l0,0v2.129c0,0.196-0.16,0.355-0.354,0.355l0,0
						C98.633,108.368,98.474,108.209,98.474,108.013L98.474,108.013z M98.474,102.334v-2.129c0-0.195,0.159-0.354,0.356-0.354l0,0
						c0.194,0,0.354,0.159,0.354,0.354l0,0v2.129c0,0.196-0.16,0.355-0.354,0.355l0,0C98.633,102.689,98.474,102.53,98.474,102.334
						L98.474,102.334z M98.474,96.657v-2.129c0-0.197,0.159-0.355,0.356-0.355l0,0c0.194,0,0.354,0.158,0.354,0.355l0,0v2.129
						c0,0.195-0.16,0.355-0.354,0.355l0,0C98.633,97.013,98.474,96.853,98.474,96.657L98.474,96.657z M98.474,90.979v-2.13
						c0-0.194,0.159-0.354,0.356-0.354l0,0c0.194,0,0.354,0.159,0.354,0.354l0,0v2.13c0,0.195-0.16,0.354-0.354,0.354l0,0
						C98.633,91.333,98.474,91.174,98.474,90.979L98.474,90.979z M98.474,85.302v-2.13c0-0.197,0.159-0.355,0.356-0.355l0,0
						c0.194,0,0.354,0.158,0.354,0.355l0,0v2.13c0,0.194-0.16,0.354-0.354,0.354l0,0C98.633,85.656,98.474,85.496,98.474,85.302
						L98.474,85.302z M98.474,79.622v-2.128c0-0.196,0.159-0.354,0.356-0.354l0,0c0.194,0,0.354,0.157,0.354,0.354l0,0v2.128
						c0,0.196-0.16,0.355-0.354,0.355l0,0C98.633,79.978,98.474,79.818,98.474,79.622L98.474,79.622z M98.474,73.945v-2.129
						c0-0.196,0.159-0.355,0.356-0.355l0,0c0.194,0,0.354,0.159,0.354,0.355l0,0v2.129c0,0.195-0.16,0.354-0.354,0.354l0,0
						C98.633,74.299,98.474,74.141,98.474,73.945L98.474,73.945z"/>
				</g>
				<g>
					<path fill="#F4EEE5" d="M221.379,68.388c-0.195,0-0.355-0.16-0.355-0.356l0,0c0-0.196,0.16-0.354,0.355-0.354l0,0h2.13
						c0.195,0,0.354,0.158,0.354,0.354l0,0c0,0.196-0.159,0.356-0.354,0.356l0,0H221.379L221.379,68.388z M215.701,68.388
						c-0.195,0-0.355-0.16-0.355-0.356l0,0c0-0.196,0.16-0.354,0.355-0.354l0,0h2.13c0.195,0,0.354,0.158,0.354,0.354l0,0
						c0,0.196-0.159,0.356-0.354,0.356l0,0H215.701L215.701,68.388z M210.023,68.388c-0.195,0-0.355-0.16-0.355-0.356l0,0
						c0-0.196,0.16-0.354,0.355-0.354l0,0h2.13c0.195,0,0.354,0.158,0.354,0.354l0,0c0,0.196-0.159,0.356-0.354,0.356l0,0H210.023
						L210.023,68.388z M204.346,68.388c-0.197,0-0.355-0.16-0.355-0.356l0,0c0-0.196,0.158-0.354,0.355-0.354l0,0h2.129
						c0.195,0,0.354,0.158,0.354,0.354l0,0c0,0.196-0.159,0.356-0.354,0.356l0,0H204.346L204.346,68.388z M198.667,68.388
						c-0.196,0-0.354-0.16-0.354-0.356l0,0c0-0.196,0.158-0.354,0.354-0.354l0,0h2.129c0.195,0,0.354,0.158,0.354,0.354l0,0
						c0,0.196-0.159,0.356-0.354,0.356l0,0H198.667L198.667,68.388z M192.989,68.388c-0.196,0-0.354-0.16-0.354-0.356l0,0
						c0-0.196,0.158-0.354,0.354-0.354l0,0h2.129c0.195,0,0.354,0.158,0.354,0.354l0,0c0,0.196-0.159,0.356-0.354,0.356l0,0H192.989
						L192.989,68.388z M187.311,68.388c-0.195,0-0.354-0.16-0.354-0.356l0,0c0-0.196,0.159-0.354,0.354-0.354l0,0h2.129
						c0.196,0,0.355,0.158,0.355,0.354l0,0c0,0.196-0.159,0.356-0.355,0.356l0,0H187.311L187.311,68.388z M181.634,68.388
						c-0.196,0-0.354-0.16-0.354-0.356l0,0c0-0.196,0.158-0.354,0.354-0.354l0,0h2.128c0.195,0,0.355,0.158,0.355,0.354l0,0
						c0,0.196-0.16,0.356-0.355,0.356l0,0H181.634L181.634,68.388z"/>
				</g>
				<g>
					<path fill="#F4EEE5" d="M180.212,115.23c-0.195,0-0.354-0.16-0.354-0.356l0,0c0-0.194,0.158-0.355,0.354-0.355l0,0h1.421
						c0.195,0,0.356,0.161,0.356,0.355l0,0c0,0.196-0.161,0.356-0.356,0.356l0,0H180.212L180.212,115.23z M174.535,115.23
						c-0.196,0-0.355-0.16-0.355-0.356l0,0c0-0.194,0.159-0.355,0.355-0.355l0,0h2.129c0.195,0,0.355,0.161,0.355,0.355l0,0
						c0,0.196-0.16,0.356-0.355,0.356l0,0H174.535L174.535,115.23z M168.857,115.23c-0.196,0-0.354-0.16-0.354-0.356l0,0
						c0-0.194,0.158-0.355,0.354-0.355l0,0h2.129c0.195,0,0.355,0.161,0.355,0.355l0,0c0,0.196-0.16,0.356-0.355,0.356l0,0H168.857
						L168.857,115.23z M163.18,115.23c-0.197,0-0.355-0.16-0.355-0.356l0,0c0-0.194,0.158-0.355,0.355-0.355l0,0h2.129
						c0.197,0,0.355,0.161,0.355,0.355l0,0c0,0.196-0.158,0.356-0.355,0.356l0,0H163.18L163.18,115.23z M159.986,114.165v-2.13
						c0-0.196,0.158-0.354,0.354-0.354l0,0c0.195,0,0.356,0.158,0.356,0.354l0,0v2.13c0,0.195-0.161,0.354-0.356,0.354l0,0
						C160.145,114.519,159.986,114.36,159.986,114.165L159.986,114.165z M159.986,108.487v-2.131c0-0.195,0.158-0.354,0.354-0.354
						l0,0c0.195,0,0.356,0.159,0.356,0.354l0,0v2.131c0,0.194-0.161,0.354-0.356,0.354l0,0
						C160.145,108.841,159.986,108.682,159.986,108.487L159.986,108.487z M159.986,102.81v-2.131c0-0.196,0.158-0.355,0.354-0.355
						l0,0c0.195,0,0.356,0.159,0.356,0.355l0,0v2.131c0,0.194-0.161,0.354-0.356,0.354l0,0
						C160.145,103.163,159.986,103.004,159.986,102.81L159.986,102.81z M159.986,97.13v-2.129c0-0.196,0.158-0.355,0.354-0.355l0,0
						c0.195,0,0.356,0.159,0.356,0.355l0,0v2.129c0,0.195-0.161,0.355-0.356,0.355l0,0C160.145,97.485,159.986,97.325,159.986,97.13
						L159.986,97.13z M159.986,91.452v-2.128c0-0.196,0.158-0.355,0.354-0.355l0,0c0.195,0,0.356,0.159,0.356,0.355l0,0v2.128
						c0,0.195-0.161,0.355-0.356,0.355l0,0C160.145,91.808,159.986,91.647,159.986,91.452L159.986,91.452z"/>
				</g>
				<g>
					<path fill="#F4EEE5" d="M149.937,117.14v-2.129c0-0.196,0.16-0.355,0.355-0.355l0,0c0.196,0,0.354,0.159,0.354,0.355l0,0v2.129
						c0,0.194-0.158,0.354-0.354,0.354l0,0C150.097,117.494,149.937,117.334,149.937,117.14L149.937,117.14z M149.937,111.326v-2.13
						c0-0.196,0.16-0.354,0.355-0.354l0,0c0.196,0,0.354,0.157,0.354,0.354l0,0v2.13c0,0.195-0.158,0.354-0.354,0.354l0,0
						C150.097,111.681,149.937,111.521,149.937,111.326L149.937,111.326z M149.937,105.647v-2.128c0-0.198,0.16-0.356,0.355-0.356
						l0,0c0.196,0,0.354,0.158,0.354,0.356l0,0v2.128c0,0.196-0.158,0.355-0.354,0.355l0,0
						C150.097,106.003,149.937,105.844,149.937,105.647L149.937,105.647z M149.937,99.971v-2.13c0-0.196,0.16-0.355,0.355-0.355l0,0
						c0.196,0,0.354,0.159,0.354,0.355l0,0v2.13c0,0.193-0.158,0.354-0.354,0.354l0,0
						C150.097,100.325,149.937,100.164,149.937,99.971L149.937,99.971z M149.937,94.292v-2.13c0-0.195,0.16-0.354,0.355-0.354l0,0
						c0.196,0,0.354,0.158,0.354,0.354l0,0v2.13c0,0.195-0.158,0.354-0.354,0.354l0,0C150.097,94.646,149.937,94.487,149.937,94.292
						L149.937,94.292z M149.937,88.613v-2.129c0-0.196,0.16-0.354,0.355-0.354l0,0c0.196,0,0.354,0.158,0.354,0.354l0,0v2.129
						c0,0.195-0.158,0.355-0.354,0.355l0,0C150.097,88.969,149.937,88.809,149.937,88.613L149.937,88.613z"/>
				</g>
				<g>
					<path fill="#F4EEE5" d="M147.684,54.309v-2.13c0-0.195,0.158-0.354,0.354-0.354l0,0c0.196,0,0.354,0.158,0.354,0.354l0,0v2.13
						c0,0.197-0.158,0.354-0.354,0.354l0,0C147.842,54.663,147.684,54.506,147.684,54.309L147.684,54.309z M147.684,48.629v-2.127
						c0-0.196,0.158-0.355,0.354-0.355l0,0c0.196,0,0.354,0.159,0.354,0.355l0,0v2.127c0,0.197-0.158,0.356-0.354,0.356l0,0
						C147.842,48.985,147.684,48.826,147.684,48.629L147.684,48.629z M147.684,42.952v-2.129c0-0.196,0.158-0.355,0.354-0.355l0,0
						c0.196,0,0.354,0.159,0.354,0.355l0,0v2.129c0,0.196-0.158,0.355-0.354,0.355l0,0
						C147.842,43.308,147.684,43.148,147.684,42.952L147.684,42.952z M147.684,37.274v-2.129c0-0.196,0.158-0.355,0.354-0.355l0,0
						c0.196,0,0.354,0.159,0.354,0.355l0,0v2.129c0,0.195-0.158,0.354-0.354,0.354l0,0C147.842,37.628,147.684,37.47,147.684,37.274
						L147.684,37.274z"/>
				</g>
				<g>
					<path fill="#F4EEE5" d="M181.396,45.2c-0.196,0-0.354-0.159-0.354-0.354l0,0c0-0.196,0.158-0.355,0.354-0.355l0,0h2.131
						c0.194,0,0.354,0.159,0.354,0.355l0,0c0,0.194-0.16,0.354-0.354,0.354l0,0H181.396L181.396,45.2z M175.718,45.2
						c-0.196,0-0.354-0.159-0.354-0.354l0,0c0-0.196,0.157-0.355,0.354-0.355l0,0h2.13c0.194,0,0.354,0.159,0.354,0.355l0,0
						c0,0.194-0.159,0.354-0.354,0.354l0,0H175.718L175.718,45.2z M170.041,45.2c-0.196,0-0.356-0.159-0.356-0.354l0,0
						c0-0.196,0.16-0.355,0.356-0.355l0,0h2.129c0.194,0,0.354,0.159,0.354,0.355l0,0c0,0.194-0.16,0.354-0.354,0.354l0,0H170.041
						L170.041,45.2z M164.362,45.2c-0.196,0-0.355-0.159-0.355-0.354l0,0c0-0.196,0.159-0.355,0.355-0.355l0,0h2.13
						c0.195,0,0.354,0.159,0.354,0.355l0,0c0,0.194-0.158,0.354-0.354,0.354l0,0H164.362L164.362,45.2z M158.684,45.2
						c-0.196,0-0.354-0.159-0.354-0.354l0,0c0-0.196,0.157-0.355,0.354-0.355l0,0h2.131c0.195,0,0.354,0.159,0.354,0.355l0,0
						c0,0.194-0.158,0.354-0.354,0.354l0,0H158.684L158.684,45.2z M153.007,45.2c-0.196,0-0.354-0.159-0.354-0.354l0,0
						c0-0.196,0.158-0.355,0.354-0.355l0,0h2.129c0.195,0,0.354,0.159,0.354,0.355l0,0c0,0.194-0.159,0.354-0.354,0.354l0,0H153.007
						L153.007,45.2z"/>
				</g>
				<g>
					<path fill="#152C34" d="M182.754,100.981c-3.506,2.845-4.041,7.995-1.196,11.501c2.845,3.507,7.994,4.043,11.501,1.199
						c3.508-2.847,4.043-7.996,1.199-11.504C191.412,98.672,186.263,98.136,182.754,100.981z M192.099,112.497
						c-2.852,2.314-7.043,1.878-9.356-0.976c-2.316-2.853-1.879-7.042,0.973-9.356c2.853-2.313,7.044-1.877,9.357,0.975
						C195.387,105.992,194.95,110.184,192.099,112.497z"/>
					
						<rect x="193.902" y="112.106" transform="matrix(0.7764 -0.6303 0.6303 0.7764 -29.5557 148.8691)" fill="#152C34" width="2.213" height="7.957"/>
					<path fill="#152C34" d="M201.303,121.035c0.615,0.759,0.498,1.873-0.261,2.487l0,0c-0.757,0.614-1.871,0.499-2.486-0.259
						l-4.735-5.836c-0.613-0.759-0.498-1.872,0.26-2.487l0,0c0.758-0.615,1.871-0.5,2.487,0.259L201.303,121.035z"/>
				</g>
				<g>
					<path fill="#152C34" d="M239.679,50.674c0-1.032-0.835-1.867-1.866-1.867h-9.367c-1.031,0-1.866,0.835-1.866,1.867v23.99
						c0,1.031,0.835,1.866,1.866,1.866h9.367c1.031,0,1.866-0.835,1.866-1.866V50.674z M234.5,51.254
						c0,0.163-0.134,0.296-0.295,0.296h-2c-0.162,0-0.295-0.133-0.295-0.296v-0.02c0-0.162,0.133-0.294,0.295-0.294h2
						c0.161,0,0.295,0.132,0.295,0.294V51.254z M238.765,72.569h-11.12V52.769h11.12V72.569z"/>
					<rect x="227.647" y="52.769" fill="#FEFDFD" width="11.117" height="19.801"/>
					<defs>
						<filter id="Adobe_OpacityMaskFilter" filterUnits="userSpaceOnUse" x="226.547" y="48.807" width="13.122" height="23.693">
							<feFlood  style="flood-color:white;flood-opacity:1" result="back"/>
							<feBlend  in="SourceGraphic" in2="back" mode="normal"/>
						</filter>
					</defs>
					<mask maskUnits="userSpaceOnUse" x="226.547" y="48.807" width="13.122" height="23.693" id="SVGID_2_">
						<g filter="url(#Adobe_OpacityMaskFilter)">
							<defs>
								
									<filter id="Adobe_OpacityMaskFilter_1_" filterUnits="userSpaceOnUse" x="226.547" y="48.807" width="13.122" height="23.693">
									<feFlood  style="flood-color:white;flood-opacity:1" result="back"/>
									<feBlend  in="SourceGraphic" in2="back" mode="normal"/>
								</filter>
							</defs>
							<mask maskUnits="userSpaceOnUse" x="226.547" y="48.807" width="13.122" height="23.693" id="SVGID_2_">
							</mask>
							<linearGradient id="SVGID_4_" gradientUnits="userSpaceOnUse" x1="226.5469" y1="60.6533" x2="239.6689" y2="60.6533">
								<stop  offset="0" style="stop-color:#000000"/>
								<stop  offset="0.0945" style="stop-color:#060606"/>
								<stop  offset="0.2191" style="stop-color:#161616"/>
								<stop  offset="0.3607" style="stop-color:#323232"/>
								<stop  offset="0.5146" style="stop-color:#585858"/>
								<stop  offset="0.6787" style="stop-color:#898989"/>
								<stop  offset="0.8484" style="stop-color:#C4C4C4"/>
								<stop  offset="1" style="stop-color:#FFFFFF"/>
							</linearGradient>
							<path mask="url(#SVGID_2_)" fill="url(#SVGID_4_)" d="M234.923,48.807h3.015c0,0,1.177,0.094,1.69,1.365l0.04,21.419
								c0,0,0.048,0.802-0.752,0.909c-0.823-0.06-12.369,0-12.369,0"/>
						</g>
					</mask>
					<linearGradient id="SVGID_6_" gradientUnits="userSpaceOnUse" x1="226.5469" y1="60.6533" x2="239.6689" y2="60.6533">
						<stop  offset="0" style="stop-color:#FFFFFF"/>
						<stop  offset="1" style="stop-color:#FFFFFF"/>
					</linearGradient>
					<path opacity="0.6" fill="url(#SVGID_6_)" d="M234.923,48.807h3.015c0,0,1.177,0.094,1.69,1.365l0.04,21.419
						c0,0,0.048,0.802-0.752,0.909c-0.823-0.06-12.369,0-12.369,0"/>
					<path fill="#FF855D" d="M230.108,54.8c0.343-0.343,0.815-0.555,1.338-0.555v1.894L230.108,54.8z M231.663,54.786v1.894
						l-1.339-1.339c-0.343,0.344-0.555,0.816-0.555,1.339c0,1.045,0.848,1.892,1.894,1.892c1.045,0,1.894-0.847,1.894-1.892
						C233.557,55.634,232.708,54.786,231.663,54.786z"/>
					<g>
						<rect x="228.23" y="59.294" fill="#FF855D" width="9.951" height="0.486"/>
						<rect x="228.23" y="63.021" fill="#FFD57B" width="9.951" height="0.486"/>
						<rect x="228.23" y="64.366" fill="#FF855D" width="9.951" height="0.484"/>
						<rect x="228.23" y="65.712" fill="#6BD4DA" width="9.951" height="0.485"/>
						<rect x="228.23" y="67.057" fill="#FF855D" width="9.951" height="0.485"/>
						<rect x="228.23" y="59.605" fill="#414F5A" width="9.951" height="2.407"/>
					</g>
				</g>
				<g>
					<g>
						<g>
							<g>
								<polygon fill="#9ECDDC" points="159.681,117.821 140.903,117.821 140.903,135.396 153.021,135.396 159.681,128.735 								
									"/>
							</g>
						</g>
						<g>
							<g>
								<polygon fill="#4D3400" points="159.681,128.55 153.021,128.55 153.021,135.396 159.681,128.735 								"/>
							</g>
						</g>
					</g>
					<g>
						<g>
							<rect x="140.903" y="121.243" fill="#4D3400" width="18.777" height="0.278"/>
						</g>
					</g>
				</g>
				<g>
					<g>
						<path fill="#F4EEE5" d="M76.111,105.114c0-0.656-0.188-1.167-0.565-1.534c-0.377-0.363-0.861-0.597-1.45-0.695l-0.018,5.784
							c0.668,0.241,1.307,0.501,1.919,0.78c0.61,0.277,1.152,0.605,1.622,0.983c0.47,0.377,0.843,0.821,1.123,1.335
							c0.278,0.513,0.417,1.125,0.417,1.836c0,0.776-0.136,1.447-0.409,2.016c-0.273,0.567-0.642,1.048-1.106,1.442
							c-0.466,0.393-1.008,0.704-1.632,0.933c-0.621,0.23-1.277,0.388-1.965,0.476v1.884l-1.18,0.247l-0.017-2.048H72.72
							c-0.405,0-0.888-0.034-1.45-0.1c-0.564-0.064-1.102-0.195-1.615-0.393c-0.514-0.196-0.951-0.479-1.312-0.843
							c-0.361-0.368-0.54-0.85-0.54-1.451c0-0.251,0.051-0.471,0.155-0.656c0.104-0.186,0.243-0.339,0.418-0.457
							c0.174-0.121,0.373-0.212,0.599-0.272c0.223-0.061,0.456-0.09,0.695-0.09c0.229,0,0.46,0.017,0.689,0.049v0.476
							c0,0.82,0.21,1.434,0.63,1.843c0.421,0.412,1.04,0.643,1.861,0.697v-6.096c-0.634-0.241-1.246-0.503-1.836-0.786
							c-0.59-0.285-1.112-0.623-1.564-1.017c-0.455-0.395-0.817-0.853-1.09-1.377c-0.274-0.523-0.411-1.146-0.411-1.868
							s0.131-1.35,0.394-1.885s0.614-0.983,1.057-1.344c0.443-0.361,0.96-0.642,1.55-0.843c0.59-0.203,1.211-0.337,1.868-0.403v-2
							l1.294-0.147l-0.016,2.099c0.392,0.012,0.852,0.046,1.376,0.105c0.525,0.061,1.022,0.183,1.492,0.361
							c0.47,0.181,0.865,0.435,1.189,0.764c0.321,0.326,0.481,0.759,0.481,1.294c0,0.251-0.055,0.465-0.164,0.639
							s-0.25,0.318-0.426,0.436c-0.175,0.113-0.372,0.199-0.591,0.253c-0.217,0.055-0.442,0.082-0.672,0.082
							c-0.217,0-0.441-0.016-0.671-0.05V105.114z M70.343,105.327c0,0.415,0.067,0.775,0.205,1.08
							c0.136,0.309,0.317,0.574,0.548,0.804c0.229,0.231,0.494,0.43,0.795,0.6c0.302,0.17,0.615,0.323,0.942,0.467l-0.016-5.393
							c-0.35,0.045-0.675,0.13-0.976,0.254c-0.3,0.126-0.561,0.293-0.778,0.5s-0.393,0.451-0.524,0.729
							C70.408,104.646,70.343,104.966,70.343,105.327z M76.718,114.471c0-0.393-0.074-0.736-0.221-1.03
							c-0.149-0.298-0.346-0.556-0.591-0.779c-0.246-0.226-0.529-0.419-0.853-0.583c-0.322-0.163-0.653-0.311-0.991-0.441
							l-0.016,5.671c0.369-0.066,0.722-0.179,1.047-0.336c0.329-0.158,0.613-0.358,0.853-0.598c0.241-0.242,0.431-0.521,0.566-0.838
							C76.649,115.221,76.718,114.865,76.718,114.471z"/>
					</g>
				</g>
				<g>
					<path fill="#F4EEE5" d="M140.595,40.558c-0.196,0-0.354-0.16-0.354-0.354l0,0c0-0.196,0.158-0.354,0.354-0.354l0,0h2.13
						c0.195,0,0.354,0.158,0.354,0.354l0,0c0,0.194-0.159,0.354-0.354,0.354l0,0H140.595L140.595,40.558z M134.916,40.558
						c-0.195,0-0.354-0.16-0.354-0.354l0,0c0-0.196,0.158-0.354,0.354-0.354l0,0h2.13c0.196,0,0.354,0.158,0.354,0.354l0,0
						c0,0.194-0.158,0.354-0.354,0.354l0,0H134.916L134.916,40.558z M129.238,40.558c-0.196,0-0.354-0.16-0.354-0.354l0,0
						c0-0.196,0.158-0.354,0.354-0.354l0,0h2.13c0.194,0,0.355,0.158,0.355,0.354l0,0c0,0.194-0.161,0.354-0.355,0.354l0,0H129.238
						L129.238,40.558z M123.562,40.558c-0.196,0-0.354-0.16-0.354-0.354l0,0c0-0.196,0.158-0.354,0.354-0.354l0,0h2.129
						c0.196,0,0.354,0.158,0.354,0.354l0,0c0,0.194-0.158,0.354-0.354,0.354l0,0H123.562L123.562,40.558z M117.884,40.558
						c-0.196,0-0.355-0.16-0.355-0.354l0,0c0-0.196,0.159-0.354,0.355-0.354l0,0h2.128c0.196,0,0.354,0.158,0.354,0.354l0,0
						c0,0.194-0.158,0.354-0.354,0.354l0,0H117.884L117.884,40.558z M112.205,40.558c-0.196,0-0.354-0.16-0.354-0.354l0,0
						c0-0.196,0.158-0.354,0.354-0.354l0,0h2.128c0.196,0,0.356,0.158,0.356,0.354l0,0c0,0.194-0.16,0.354-0.356,0.354l0,0H112.205
						L112.205,40.558z M106.526,40.558c-0.196,0-0.354-0.16-0.354-0.354l0,0c0-0.196,0.158-0.354,0.354-0.354l0,0h2.131
						c0.196,0,0.354,0.158,0.354,0.354l0,0c0,0.194-0.158,0.354-0.354,0.354l0,0H106.526L106.526,40.558z M100.85,40.558
						c-0.195,0-0.355-0.16-0.355-0.354l0,0c0-0.196,0.16-0.354,0.355-0.354l0,0h2.129c0.195,0,0.354,0.158,0.354,0.354l0,0
						c0,0.194-0.159,0.354-0.354,0.354l0,0H100.85L100.85,40.558z"/>
				</g>
				<g>
					<path fill="#F4EEE5" d="M125.096,106.406v-0.548c0-0.197,0.158-0.356,0.354-0.356l0,0c0.197,0,0.356,0.159,0.356,0.356l0,0
						v0.548c0,0.195-0.159,0.355-0.356,0.355l0,0C125.254,106.762,125.096,106.602,125.096,106.406L125.096,106.406z
						 M125.096,102.309v-2.128c0-0.196,0.158-0.356,0.354-0.356l0,0c0.197,0,0.356,0.16,0.356,0.356l0,0v2.128
						c0,0.196-0.159,0.356-0.356,0.356l0,0C125.254,102.665,125.096,102.505,125.096,102.309L125.096,102.309z M125.096,96.631
						v-0.604h-0.814v0.001c-0.196,0-0.355-0.161-0.355-0.356l0,0c0-0.196,0.159-0.355,0.355-0.355l0,0h1.524v1.315
						c0,0.197-0.159,0.356-0.356,0.356l0,0C125.254,96.987,125.096,96.828,125.096,96.631L125.096,96.631z M104.577,96.026
						c-0.197,0-0.354-0.16-0.354-0.355l0,0c0-0.196,0.157-0.355,0.354-0.355l0,0h2.128c0.197,0,0.356,0.159,0.356,0.355l0,0
						c0,0.195-0.159,0.355-0.356,0.355l0,0H104.577L104.577,96.026z M109.719,96.026c-0.197,0-0.355-0.16-0.355-0.355l0,0
						c0-0.196,0.158-0.355,0.355-0.355l0,0h2.128c0.197,0,0.356,0.159,0.356,0.355l0,0c0,0.195-0.159,0.355-0.356,0.355l0,0H109.719
						L109.719,96.026z M115.041,96.026c-0.196,0-0.354-0.16-0.354-0.355l0,0c0-0.196,0.158-0.355,0.354-0.355l0,0h2.129
						c0.197,0,0.355,0.159,0.355,0.355l0,0c0,0.195-0.158,0.355-0.355,0.355l0,0H115.041L115.041,96.026z M119.773,96.026
						c-0.197,0-0.354-0.16-0.354-0.355l0,0c0-0.196,0.157-0.355,0.354-0.355l0,0h2.128c0.197,0,0.356,0.159,0.356,0.355l0,0
						c0,0.195-0.159,0.355-0.356,0.355l0,0H119.773L119.773,96.026z M98.899,96.026c-0.197,0-0.355-0.16-0.355-0.355l0,0
						c0-0.196,0.158-0.355,0.355-0.355l0,0h2.128c0.197,0,0.356,0.159,0.356,0.355l0,0c0,0.195-0.159,0.355-0.356,0.355l0,0H98.899
						L98.899,96.026z"/>
				</g>
				<g>
					<path fill="#F4EEE5" d="M218.68,93.836c-0.195,0-0.355-0.158-0.355-0.353l0,0c0-0.196,0.16-0.355,0.355-0.355l0,0h1.296
						c0.194,0,0.354,0.159,0.354,0.355l0,0c0,0.194-0.16,0.353-0.354,0.353l0,0H218.68L218.68,93.836z M213.002,93.836
						c-0.196,0-0.355-0.158-0.355-0.353l0,0c0-0.196,0.159-0.355,0.355-0.355l0,0h2.13c0.195,0,0.354,0.159,0.354,0.355l0,0
						c0,0.194-0.159,0.353-0.354,0.353l0,0H213.002L213.002,93.836z M207.323,93.836c-0.196,0-0.354-0.158-0.354-0.353l0,0
						c0-0.196,0.158-0.355,0.354-0.355l0,0h2.131c0.194,0,0.354,0.159,0.354,0.355l0,0c0,0.194-0.16,0.353-0.354,0.353l0,0H207.323
						L207.323,93.836z M201.646,93.836c-0.196,0-0.354-0.158-0.354-0.353l0,0c0-0.196,0.158-0.355,0.354-0.355l0,0h2.129
						c0.195,0,0.355,0.159,0.355,0.355l0,0c0,0.194-0.16,0.353-0.355,0.353l0,0H201.646L201.646,93.836z M198.148,93.076v-2.129
						c0-0.196,0.158-0.354,0.355-0.354l0,0c0.195,0,0.354,0.158,0.354,0.354l0,0v2.129c0,0.194-0.158,0.355-0.354,0.355l0,0
						C198.307,93.432,198.148,93.271,198.148,93.076L198.148,93.076z M198.148,87.397v-2.129c0-0.195,0.158-0.354,0.355-0.354l0,0
						c0.195,0,0.354,0.158,0.354,0.354l0,0v2.129c0,0.196-0.158,0.354-0.354,0.354l0,0
						C198.307,87.752,198.148,87.594,198.148,87.397L198.148,87.397z M198.148,81.72v-2.129c0-0.196,0.158-0.355,0.355-0.355l0,0
						c0.195,0,0.354,0.159,0.354,0.355l0,0v2.129c0,0.196-0.158,0.354-0.354,0.354l0,0C198.307,82.074,198.148,81.916,198.148,81.72
						L198.148,81.72z M198.148,76.043v-2.129c0-0.195,0.158-0.355,0.355-0.355l0,0c0.195,0,0.354,0.16,0.354,0.355l0,0v2.129
						c0,0.195-0.158,0.354-0.354,0.354l0,0C198.307,76.396,198.148,76.238,198.148,76.043L198.148,76.043z M198.148,70.364v-2.128
						c0-0.196,0.158-0.355,0.355-0.355l0,0c0.195,0,0.354,0.159,0.354,0.355l0,0v2.128c0,0.196-0.158,0.355-0.354,0.355l0,0
						C198.307,70.72,198.148,70.561,198.148,70.364L198.148,70.364z"/>
				</g>
				<g>
					<g>
						<path fill="#152C34" d="M96.201,32.264h-4.873v6.286c0,0.914-0.743,1.659-1.659,1.659h-7.5v2.104
							c0,0.523,0.425,0.948,0.947,0.948h7.369l3.08,2.57c0.401,0.336,0.618,0.198,0.483-0.307l-0.603-2.249
							c-0.001-0.006-0.004-0.01-0.006-0.015h2.761c0.522,0,0.947-0.425,0.947-0.948v-9.103
							C97.148,32.688,96.724,32.264,96.201,32.264z"/>
						<path fill="#152C34" d="M76.586,39.497h1.45c-0.002,0.005-0.004,0.009-0.006,0.015l-0.603,2.249
							c-0.084,0.318-0.029,0.491,0.121,0.491c0.091,0,0.214-0.06,0.362-0.183l3.079-2.572h1.179h7.5
							c0.524,0,0.949-0.425,0.949-0.948v-6.285v-2.816c0-0.523-0.425-0.947-0.949-0.947H76.586c-0.522,0-0.947,0.424-0.947,0.947
							v9.102C75.639,39.072,76.063,39.497,76.586,39.497z"/>
					</g>
				</g>
				<g>
					<g>
						<g>
							<path fill="#F4EEE5" d="M236.316,96.563l0.176-0.371l9.574-9.079l-3.65-1.73l-2.54,1.935l-2.676-1.269
								c-0.334-0.158-0.731-0.016-0.891,0.321c-0.158,0.334-0.018,0.732,0.316,0.891l2.052,0.972l-3.233,2.468l-2.774-1.314
								c-0.333-0.158-0.729-0.015-0.887,0.321c-0.158,0.333-0.02,0.73,0.313,0.89l2.15,1.019l-2.84,2.165l-0.072,0.153l-4.56-2.403
								c-1.123-0.531-2.463-0.053-2.996,1.07c-0.531,1.124-0.055,2.466,1.068,2.996l4.749,2.005l-0.116,0.246l0.163,2.672
								l-1.837-0.87c-0.334-0.158-0.729-0.014-0.888,0.321c-0.159,0.336-0.019,0.729,0.314,0.889l2.509,1.188l0.203,3.358
								l-1.981-0.94c-0.333-0.157-0.734-0.014-0.892,0.319s-0.017,0.732,0.318,0.892l2.649,1.255l0.251,4.038l3.648,1.731
								l0.629-12.44l0.219-0.463l7.17,3.029c0.404,0.191,0.791,0.342,1.15,0.408l0.261,4.271l1.603,1.29l1.305-4.696l0.723-1.524
								l2.934-4.25l-2.012-0.424l-3.75,2.863c-0.268-0.209-0.602-0.398-0.965-0.571L236.316,96.563z"/>
						</g>
					</g>
				</g>
				<g>
					<g>
						<g>
							<path fill="#F4EEE5" d="M122.139,119.731v3.11c0,2.614,2.119,4.734,4.734,4.734s4.735-2.12,4.735-4.734v-3.043
								C130.399,120.408,127.094,121.578,122.139,119.731z"/>
						</g>
						<g>
							<path fill="#F4EEE5" d="M127.533,112.891c-2.738-0.578-5.395,2.302-5.395,4.914c0,0.004,0,1.321,0,1.321
								c1.524,0.619,5.656,1.929,9.47-0.002v-1.319C131.608,115.588,129.738,113.356,127.533,112.891z M127.692,117.616
								c0,0.453-0.368,0.821-0.819,0.821s-0.819-0.368-0.819-0.821v-2.241c0-0.453,0.368-0.82,0.819-0.82
								c0.453,0,0.819,0.367,0.819,0.82V117.616z"/>
						</g>
					</g>
					<g>
						<path fill="#F4EEE5" d="M126.574,113.589c-0.016-0.072-0.338-1.737,0.616-3.139c0.613-0.897,1.603-1.472,2.938-1.706
							c3.163-0.553,3.066-1.578,2.89-3.438c-0.034-0.356-0.07-0.736-0.085-1.138l0.609-0.024c0.016,0.39,0.051,0.757,0.083,1.104
							c0.184,1.927,0.328,3.447-3.392,4.099c-1.165,0.204-2.019,0.689-2.535,1.443c-0.812,1.185-0.529,2.662-0.526,2.677
							L126.574,113.589z"/>
					</g>
				</g>
			</g>
		</g>
	</g>
</g>
<g id="Слой_1" display="none" opacity="0.75">
</g>
</svg>
