<?xml version="1.0" encoding="utf-8"?>
<!-- Generator: Adobe Illustrator 16.0.0, SVG Export Plug-In . SVG Version: 6.00 Build 0)  -->
<!DOCTYPE svg PUBLIC "-//W3C//DTD SVG 1.1//EN" "http://www.w3.org/Graphics/SVG/1.1/DTD/svg11.dtd">
<svg version="1.1" xmlns="http://www.w3.org/2000/svg" xmlns:xlink="http://www.w3.org/1999/xlink" x="0px" y="0px" width="60px"
	 height="60px" viewBox="0 0 60 60" enable-background="new 0 0 60 60" xml:space="preserve">
<g id="Слой_1">
	<g>
		<circle fill="#88C5CC" cx="30" cy="30" r="30"/>
		<g>
			<path fill="#CC584C" d="M20.625,45.938c0,1.031-0.844,1.875-1.875,1.875H8.438c-1.031,0-1.875-0.844-1.875-1.875V12.656
				c0-1.031,0.844-1.875,1.875-1.875H18.75c1.031,0,1.875,0.844,1.875,1.875V45.938z"/>
			<rect x="6.563" y="14.063" fill="#CCCCCC" width="14.063" height="19.688"/>
			<rect x="9.375" y="15.469" fill="#E6E6E6" width="8.438" height="1.406"/>
			<rect x="9.375" y="17.344" fill="#E6E6E6" width="8.438" height="1.406"/>
			<rect x="9.375" y="19.219" fill="#E6E6E6" width="8.438" height="1.406"/>
			<circle fill="#E6E6E6" cx="13.594" cy="40.313" r="4.219"/>
			<circle fill="#263740" cx="13.594" cy="40.313" r="3.281"/>
		</g>
		<g>
			<path fill="#263740" d="M35.625,45.938c0,1.031-0.844,1.875-1.875,1.875H23.438c-1.031,0-1.875-0.844-1.875-1.875V12.656
				c0-1.031,0.844-1.875,1.875-1.875H33.75c1.031,0,1.875,0.844,1.875,1.875V45.938z"/>
			<rect x="21.563" y="14.063" fill="#E6E6E6" width="14.063" height="19.688"/>
			<rect x="24.375" y="15.469" fill="#B3B3B3" width="8.438" height="1.406"/>
			<rect x="24.375" y="17.344" fill="#B3B3B3" width="8.438" height="1.406"/>
			<rect x="24.375" y="19.219" fill="#B3B3B3" width="8.438" height="1.406"/>
			<circle fill="#E6E6E6" cx="28.594" cy="40.313" r="4.219"/>
			<circle fill="#263740" cx="28.594" cy="40.313" r="3.281"/>
		</g>
		<g>
			<path fill="#263740" d="M56.083,43.499c0.21,1.01-0.444,2.007-1.454,2.217l-10.098,2.097c-1.01,0.209-2.008-0.445-2.217-1.455
				l-6.767-32.586c-0.209-1.009,0.444-2.007,1.455-2.217l10.098-2.096c1.009-0.21,2.007,0.445,2.216,1.455L56.083,43.499z"/>
			
				<rect x="37.688" y="13.513" transform="matrix(0.9791 -0.2033 0.2033 0.9791 -3.8144 9.5787)" fill="#E6E6E6" width="14.063" height="19.687"/>
			
				<rect x="38.929" y="15.081" transform="matrix(0.9791 -0.2033 0.2033 0.9791 -2.308 9.1021)" fill="#B3B3B3" width="8.437" height="1.406"/>
			
				<rect x="39.31" y="16.918" transform="matrix(0.9791 -0.2033 0.2033 0.9791 -2.6731 9.2168)" fill="#B3B3B3" width="8.438" height="1.405"/>
			
				<rect x="39.691" y="18.753" transform="matrix(0.9791 -0.2032 0.2032 0.9791 -3.0377 9.3299)" fill="#B3B3B3" width="8.438" height="1.406"/>
			<circle fill="#E6E6E6" cx="48.055" cy="39.421" r="4.219"/>
			<circle fill="#263740" cx="48.055" cy="39.421" r="3.281"/>
		</g>
		<path fill="#99602E" d="M5.862,47.813C11.327,55.205,20.102,60,30,60s18.673-4.795,24.138-12.188H5.862z"/>
	</g>
</g>
<g id="Слой_2" opacity="0.5">
</g>
<g id="Слой_3">
</g>
</svg>
