<?xml version="1.0" encoding="utf-8"?>
<!-- Generator: Adobe Illustrator 16.0.0, SVG Export Plug-In . SVG Version: 6.00 Build 0)  -->
<!DOCTYPE svg PUBLIC "-//W3C//DTD SVG 1.1//EN" "http://www.w3.org/Graphics/SVG/1.1/DTD/svg11.dtd">
<svg version="1.1" xmlns="http://www.w3.org/2000/svg" xmlns:xlink="http://www.w3.org/1999/xlink" x="0px" y="0px" width="60px"
	 height="60px" viewBox="0 0 60 60" enable-background="new 0 0 60 60" xml:space="preserve">
<g id="Слой_1">
	<g>
		<circle fill="#FA6D1B" cx="30" cy="30" r="30"/>
		<g>
			<path opacity="0.7" fill-rule="evenodd" clip-rule="evenodd" fill="#B5C9E8" d="M34.206,35.407c5.165,0,9.377-4.21,9.377-9.375
				c0-5.164-4.212-9.376-9.377-9.376c-5.163,0-9.376,4.212-9.376,9.376C24.83,31.196,29.043,35.407,34.206,35.407"/>
			<path opacity="0.7" fill-rule="evenodd" clip-rule="evenodd" fill="#D0DCF0" d="M34.206,24.115
				c-3.219,0.428-5.756,2.1-6.987,4.299c-0.266-0.396-0.486-0.85-0.623-1.399c-1.052-4.209,2.38-8.184,7.61-8.881V24.115z"/>
			<g>
				<g>
					<path fill="#4D4D4D" d="M27.563,35.67c1.98,1.377,4.134,1.981,6.631,2.067c3.271-0.086,6.025-1.206,8.353-3.531
						c2.321-2.324,3.442-5.077,3.442-8.351c0-3.272-1.121-6.026-3.442-8.35c-2.327-2.326-5.081-3.445-8.353-3.445
						c-3.271-0.085-6.029,1.119-8.438,3.358v0.087c-2.237,2.324-3.442,5.078-3.442,8.35c0,2.324,0.601,4.39,1.723,6.198
						 M40.563,32.227h-0.085c-1.723,1.721-3.877,2.668-6.285,2.668c-2.497,0-4.65-0.947-6.37-2.668
						c-1.812-1.808-2.67-3.875-2.67-6.372c0-2.496,0.858-4.563,2.67-6.372c1.72-1.722,3.873-2.582,6.37-2.582
						c2.496-0.086,4.563,0.775,6.37,2.582c1.723,1.723,2.583,3.876,2.583,6.372C43.146,28.353,42.286,30.419,40.563,32.227z"/>
					<path fill="#0F3154" d="M23.927,31.994c-0.872-0.761-1.731-0.663-2.665,0.296l-5.176,5.326l-3.565,3.667
						c-0.934,1.046-0.92,1.992,0.044,3.014l2.791,2.629c0.962,1.018,1.996,1.004,2.928-0.042l8.739-8.993
						c0.766-0.785,0.927-1.563,0.485-2.331"/>
				</g>
			</g>
		</g>
	</g>
</g>
<g id="Слой_2" opacity="0.5">
</g>
<g id="Слой_3">
</g>
</svg>
