<?xml version="1.0" encoding="utf-8"?>
<!-- Generator: Adobe Illustrator 16.0.0, SVG Export Plug-In . SVG Version: 6.00 Build 0)  -->
<!DOCTYPE svg PUBLIC "-//W3C//DTD SVG 1.1//EN" "http://www.w3.org/Graphics/SVG/1.1/DTD/svg11.dtd">
<svg version="1.1" xmlns="http://www.w3.org/2000/svg" xmlns:xlink="http://www.w3.org/1999/xlink" x="0px" y="0px" width="60px"
	 height="60px" viewBox="0 0 60 60" enable-background="new 0 0 60 60" xml:space="preserve">
<g id="Слой_1">
	<g>
		<path fill="#E2574C" d="M60,29.764C60,46.463,46.568,60,30,60S0,46.463,0,29.764C0,13.065,13.432,0,30,0S60,13.065,60,29.764z"/>
		<path fill="#F5F5F5" d="M36.91,8.977h-22.5c-0.516,0-1.086,0.425-1.086,0.945v40.629c0,0.52,0.57,0.945,1.086,0.945h30.938
			c0.516,0,0.789-0.425,0.789-0.945V18.897L36.91,8.977z"/>
		<path fill="#FFFFFF" d="M37.848,18.897c-0.516,0-1.086-0.425-1.086-0.945V8.977l9.523,9.921H37.848z"/>
		<path fill="#CC584C" d="M19.887,13.229c-1.875,0-3.602,1.692-3.602,3.779h3.602V13.229z"/>
		<path fill="#3D5866" d="M20.355,13.701v3.78h-3.602c0,2.087,1.678,3.779,3.75,3.779c2.07,0,3.676-1.692,3.676-3.779
			S22.699,13.701,20.355,13.701z"/>
		<path fill="#3D5866" d="M20.355,39.685v3.78h-3.602c0,2.087,1.678,3.78,3.75,3.78c2.07,0,3.676-1.692,3.676-3.78
			C24.18,41.377,22.699,39.685,20.355,39.685z"/>
		<rect x="26.449" y="14.173" fill="#CC584C" width="8.438" height="0.945"/>
		<rect x="21.293" y="28.819" fill="#CC584C" width="20.625" height="0.945"/>
		<rect x="26.449" y="16.536" fill="#B3B3B3" width="8.438" height="0.472"/>
		<rect x="21.293" y="30.708" fill="#B3B3B3" width="16.875" height="0.473"/>
		<rect x="26.449" y="41.103" fill="#B3B3B3" width="15" height="0.472"/>
		<rect x="26.449" y="42.52" fill="#B3B3B3" width="15" height="0.473"/>
		<rect x="26.449" y="43.938" fill="#B3B3B3" width="15" height="0.472"/>
		<rect x="26.449" y="45.354" fill="#B3B3B3" width="15" height="0.473"/>
		<rect x="26.449" y="46.771" fill="#B3B3B3" width="15" height="0.473"/>
		<rect x="21.293" y="32.126" fill="#B3B3B3" width="19.688" height="0.473"/>
		<rect x="21.293" y="33.543" fill="#B3B3B3" width="11.25" height="0.472"/>
		<rect x="26.449" y="17.48" fill="#B3B3B3" width="8.438" height="0.472"/>
		<rect x="26.449" y="18.425" fill="#B3B3B3" width="8.438" height="0.472"/>
		<rect x="26.449" y="19.37" fill="#B3B3B3" width="8.438" height="0.473"/>
		<path fill="#CC584C" d="M19.887,28.819c-1.875,0-3.602,1.692-3.602,3.78h3.602V28.819z"/>
	</g>
</g>
<g id="Слой_2" opacity="0.5">
</g>
<g id="Слой_3">
</g>
</svg>
