<?xml version="1.0" encoding="utf-8"?>
<!-- Generator: Adobe Illustrator 16.0.0, SVG Export Plug-In . SVG Version: 6.00 Build 0)  -->
<!DOCTYPE svg PUBLIC "-//W3C//DTD SVG 1.1//EN" "http://www.w3.org/Graphics/SVG/1.1/DTD/svg11.dtd">
<svg version="1.1" xmlns="http://www.w3.org/2000/svg" xmlns:xlink="http://www.w3.org/1999/xlink" x="0px" y="0px" width="270px"
	 height="400px" viewBox="0 0 270 400" enable-background="new 0 0 270 400" xml:space="preserve">
<g id="Слой_2">
	<g>
		<g>
			<g>
				<path fill="#414042" d="M8.963,395.341c0,1.491-0.446,2.617-1.339,3.379c-0.895,0.761-1.941,1.142-3.143,1.142
					c-1.232,0-2.287-0.381-3.164-1.142C0.438,397.958,0,396.832,0,395.341v-24.139c0-1.43,0.438-2.533,1.317-3.31
					c0.877-0.776,1.932-1.165,3.164-1.165c1.201,0,2.248,0.389,3.143,1.165c0.893,0.776,1.339,1.88,1.339,3.31V395.341z"/>
			</g>
			<g>
				<path fill="#414042" d="M28.18,395.341c0,1.491-0.447,2.617-1.339,3.379c-0.894,0.761-1.957,1.142-3.188,1.142
					c-1.201,0-2.24-0.381-3.118-1.142c-0.878-0.762-1.317-1.888-1.317-3.379v-19.339h-3.142c-1.417,0-2.517-0.448-3.304-1.347
					c-0.783-0.896-1.178-1.963-1.178-3.199c0-1.235,0.395-2.303,1.178-3.197c0.787-0.896,1.887-1.345,3.304-1.345h15.151
					c1.419,0,2.527,0.449,3.326,1.345c0.803,0.895,1.202,1.962,1.202,3.197c0,1.236-0.399,2.303-1.202,3.199
					c-0.799,0.898-1.907,1.347-3.326,1.347H28.18V395.341z"/>
			</g>
			<g>
				<path fill="#414042" d="M60.821,395.201c0,3.105-1.486,4.66-4.458,4.66c-3.003,0-4.504-1.521-4.504-4.567v-23.859
					c0-3.046,1.446-4.567,4.342-4.567h9.147c1.941,0,3.625,0.249,5.059,0.745c1.432,0.496,2.609,1.204,3.534,2.119
					c0.924,0.918,1.608,2.029,2.056,3.334c0.445,1.305,0.67,2.766,0.67,4.38c0,1.49-0.207,2.881-0.623,4.174
					c-0.416,1.287-1.01,2.399-1.779,3.329c-0.771,0.934-1.709,1.672-2.818,2.216c-1.109,0.543-2.371,0.814-3.787,0.814h-1.572
					c-1.479,0-2.51-0.351-3.094-1.05c-0.587-0.698-0.879-1.637-0.879-2.815c0-1.185,0.324-2.053,0.971-2.615
					c0.648-0.557,1.462-0.837,2.448-0.837h0.739c0.77,0,1.369-0.201,1.801-0.604s0.648-1.028,0.648-1.866
					c0-0.931-0.266-1.606-0.793-2.025c-0.525-0.419-1.269-0.63-2.229-0.63h-4.879V395.201z"/>
			</g>
			<g>
				<path fill="#414042" d="M89.787,387.277c-0.155-0.246-0.308-0.636-0.462-1.164c-0.155-0.529-0.216-1.103-0.186-1.724
					c0-1.182,0.308-2.121,0.925-2.82c0.616-0.698,1.462-1.049,2.542-1.049h0.645c0.77,0,1.387-0.217,1.848-0.651
					c0.463-0.435,0.693-1.117,0.693-2.05c0-0.84-0.232-1.428-0.698-1.773c-0.464-0.341-1.177-0.511-2.137-0.511h-4.88v19.481
					c0,3.104-1.485,4.658-4.457,4.658c-3.004,0-4.506-1.523-4.506-4.568v-23.672c0-3.046,1.448-4.567,4.344-4.567h9.703
					c1.908,0,3.556,0.286,4.942,0.862c1.385,0.576,2.524,1.327,3.419,2.258c0.893,0.935,1.554,1.998,1.985,3.195
					c0.431,1.195,0.647,2.416,0.647,3.658c0,2.235-0.531,4.129-1.595,5.685c-1.063,1.555-2.349,2.642-3.856,3.261l4.296,6.805
					c0.584,1.055,0.877,1.99,0.877,2.797c0,0.651-0.141,1.259-0.415,1.818c-0.277,0.559-0.648,1.031-1.109,1.418
					c-0.461,0.39-0.986,0.693-1.57,0.911c-0.585,0.218-1.172,0.326-1.756,0.326c-0.709,0-1.408-0.187-2.104-0.56
					c-0.691-0.373-1.256-0.962-1.685-1.772L89.787,387.277z"/>
			</g>
			<g>
				<path fill="#414042" d="M106.694,383.271c0-2.329,0.43-4.504,1.291-6.525c0.861-2.018,2.045-3.788,3.555-5.311
					c1.506-1.523,3.258-2.719,5.256-3.592c2-0.866,4.153-1.301,6.459-1.301c2.307,0,4.469,0.435,6.482,1.301
					c2.014,0.873,3.768,2.068,5.26,3.592c1.491,1.522,2.676,3.293,3.552,5.311c0.876,2.021,1.315,4.196,1.315,6.525
					c0,2.33-0.439,4.506-1.315,6.523c-0.876,2.021-2.061,3.792-3.552,5.313c-1.492,1.524-3.246,2.72-5.26,3.59
					S125.562,400,123.255,400c-2.306,0-4.459-0.434-6.459-1.304c-1.998-0.87-3.75-2.065-5.256-3.59
					c-1.51-1.521-2.693-3.292-3.555-5.313C107.124,387.776,106.694,385.601,106.694,383.271z M115.795,383.388
					c0,1.054,0.2,2.035,0.601,2.95c0.4,0.916,0.939,1.713,1.619,2.394c0.676,0.681,1.469,1.215,2.377,1.602
					c0.909,0.389,1.886,0.579,2.934,0.579c1.047,0,2.025-0.19,2.934-0.579c0.91-0.387,1.709-0.921,2.401-1.602
					c0.695-0.681,1.239-1.478,1.642-2.394c0.399-0.915,0.601-1.896,0.601-2.95c0-1.052-0.201-2.044-0.601-2.973
					c-0.402-0.932-0.946-1.736-1.642-2.416c-0.692-0.682-1.491-1.224-2.401-1.628c-0.908-0.4-1.887-0.604-2.934-0.604
					c-1.048,0-2.024,0.203-2.934,0.604c-0.908,0.404-1.701,0.946-2.377,1.628c-0.68,0.68-1.219,1.484-1.619,2.416
					C115.995,381.344,115.795,382.336,115.795,383.388z"/>
			</g>
			<g>
				<path fill="#414042" d="M163.008,383.317c0,2.486-0.308,4.737-0.923,6.759c-0.617,2.02-1.541,3.741-2.771,5.172
					c-1.232,1.429-2.773,2.524-4.621,3.285c-1.848,0.762-4.004,1.142-6.467,1.142h-2.125c-1.417,0-2.527-0.45-3.327-1.352
					s-1.2-1.973-1.2-3.217c0-1.24,0.4-2.305,1.2-3.19c0.8-0.885,1.91-1.329,3.327-1.329h1.34c1.076,0,2.031-0.107,2.863-0.326
					c0.831-0.217,1.531-0.582,2.102-1.094c0.57-0.514,1.001-1.204,1.295-2.075c0.293-0.868,0.438-1.94,0.438-3.215v-12.675
					c0-1.43,0.438-2.533,1.315-3.31c0.879-0.776,1.918-1.165,3.119-1.165s2.24,0.389,3.119,1.165c0.877,0.776,1.315,1.88,1.315,3.31
					V383.317z"/>
			</g>
			<g>
				<path fill="#414042" d="M170.931,399.675c-2.973,0-4.458-1.518-4.458-4.561v-23.641c0-3.039,1.485-4.56,4.458-4.56h15.269
					c1.415,0,2.517,0.449,3.304,1.345c0.783,0.895,1.178,1.962,1.178,3.197c0,1.236-0.395,2.303-1.178,3.199
					c-0.787,0.898-1.889,1.347-3.304,1.347h-10.765v3.121h8.963c1.293,0,2.301,0.411,3.026,1.235
					c0.723,0.822,1.085,1.793,1.085,2.912s-0.362,2.091-1.085,2.914c-0.726,0.82-1.733,1.233-3.026,1.233h-8.963v3.169h10.765
					c1.415,0,2.517,0.444,3.304,1.329c0.783,0.886,1.178,1.95,1.178,3.19c0,1.244-0.395,2.315-1.178,3.217
					c-0.787,0.901-1.889,1.352-3.304,1.352H170.931z"/>
			</g>
			<g>
				<path fill="#414042" d="M209.759,376.095c-1.262,0-2.355,0.201-3.279,0.605c-0.924,0.405-1.701,0.941-2.334,1.607
					c-0.63,0.669-1.101,1.439-1.408,2.308c-0.308,0.87-0.462,1.755-0.462,2.655c0,0.932,0.154,1.842,0.462,2.727
					s0.778,1.662,1.408,2.332c0.633,0.666,1.41,1.21,2.334,1.628c0.924,0.421,2,0.63,3.232,0.63h3.328
					c0.769,0,1.432,0.135,1.985,0.396c0.555,0.264,1.017,0.606,1.387,1.026c0.369,0.421,0.647,0.9,0.831,1.443
					c0.186,0.543,0.277,1.097,0.277,1.653c0,1.213-0.369,2.277-1.108,3.193c-0.739,0.917-1.864,1.375-3.372,1.375h-3.281
					c-2.68,0-5.035-0.458-7.068-1.375c-2.031-0.916-3.72-2.135-5.059-3.654c-1.338-1.525-2.348-3.25-3.025-5.178
					c-0.678-1.925-1.017-3.913-1.017-5.965c0-2.05,0.348-4.077,1.04-6.078c0.695-2.007,1.748-3.785,3.164-5.338
					c1.418-1.555,3.172-2.812,5.267-3.775c2.095-0.963,4.557-1.444,7.392-1.444h2.588c0.737,0,1.393,0.133,1.963,0.396
					c0.569,0.265,1.046,0.614,1.432,1.049c0.385,0.436,0.676,0.927,0.877,1.469c0.201,0.541,0.302,1.111,0.302,1.7
					s-0.101,1.164-0.302,1.726c-0.201,0.557-0.492,1.049-0.877,1.465c-0.386,0.421-0.862,0.764-1.432,1.026
					c-0.57,0.265-1.226,0.397-1.963,0.397H209.759z"/>
			</g>
			<g>
				<path fill="#414042" d="M236.139,395.341c0,1.491-0.448,2.617-1.341,3.379c-0.892,0.761-1.953,1.142-3.188,1.142
					c-1.2,0-2.24-0.381-3.119-1.142c-0.876-0.762-1.315-1.888-1.315-3.379v-19.339h-3.142c-1.416,0-2.518-0.448-3.301-1.347
					c-0.787-0.896-1.182-1.963-1.182-3.199c0-1.235,0.395-2.303,1.182-3.197c0.783-0.896,1.885-1.345,3.301-1.345h15.152
					c1.416,0,2.524,0.449,3.326,1.345c0.801,0.895,1.201,1.962,1.201,3.197c0,1.236-0.4,2.303-1.201,3.199
					c-0.802,0.898-1.91,1.347-3.326,1.347h-3.048V395.341z"/>
			</g>
			<g>
				<path fill="#414042" d="M270,389.237c0,6.957-3.379,10.438-10.137,10.438h-8.933c-0.742,0-1.391-0.132-1.944-0.396
					c-0.558-0.265-1.019-0.605-1.39-1.025c-0.369-0.417-0.648-0.9-0.833-1.445c-0.185-0.541-0.278-1.108-0.278-1.701
					c0-0.557,0.094-1.11,0.277-1.653c0.185-0.543,0.469-1.022,0.855-1.443c0.385-0.42,0.861-0.763,1.432-1.026
					c0.568-0.262,1.225-0.396,1.965-0.396h9.332c0.615,0,1.068-0.177,1.361-0.535c0.291-0.357,0.44-0.737,0.44-1.143
					c0-0.434-0.149-0.84-0.44-1.211c-0.293-0.373-0.746-0.56-1.361-0.56h-4.621c-3.172,0-5.561-0.781-7.159-2.346
					c-1.604-1.568-2.405-4.023-2.405-7.368c0-7.008,3.403-10.511,10.212-10.511h7.204c0.771,0,1.449,0.132,2.034,0.394
					c0.585,0.261,1.077,0.603,1.479,1.02c0.398,0.418,0.699,0.897,0.9,1.438c0.199,0.539,0.299,1.09,0.299,1.646
					c0,0.556-0.1,1.114-0.299,1.668c-0.201,0.557-0.502,1.054-0.9,1.486c-0.402,0.432-0.901,0.781-1.502,1.041
					c-0.602,0.265-1.287,0.396-2.056,0.396h-7.761c-0.618,0-1.063,0.179-1.34,0.534c-0.277,0.358-0.417,0.756-0.417,1.189
					c0,0.404,0.14,0.785,0.417,1.142c0.277,0.358,0.727,0.536,1.346,0.536h4.631c3.244,0,5.653,0.791,7.229,2.377
					C269.214,383.363,270,385.849,270,389.237z"/>
			</g>
		</g>
		<g>
			<linearGradient id="SVGID_2_" gradientUnits="userSpaceOnUse" x1="0.9912" y1="172.1016" x2="72.1396" y2="172.1016">
				<stop  offset="0" style="stop-color:#F29100"/>
				<stop  offset="1" style="stop-color:#E20613"/>
			</linearGradient>
			<path fill="url(#SVGID_2_)" d="M36.565,99.599c19.616,0,35.574,16.099,35.574,35.885v73.236
				c0,19.788-15.958,35.885-35.574,35.885c-19.614,0-35.574-16.097-35.574-35.885v-73.236
				C0.991,115.697,16.951,99.599,36.565,99.599"/>
			<g>
				<linearGradient id="SVGID_4_" gradientUnits="userSpaceOnUse" x1="99.0029" y1="208.7197" x2="170.1504" y2="208.7197">
					<stop  offset="0" style="stop-color:#E20613"/>
					<stop  offset="1" style="stop-color:#E61D73"/>
				</linearGradient>
				<path fill="url(#SVGID_4_)" d="M134.576,99.599c19.616,0,35.574,16.099,35.574,35.885v146.471
					c0,19.786-15.958,35.887-35.574,35.887c-19.614,0-35.573-16.101-35.573-35.887V135.483
					C99.003,115.697,114.962,99.599,134.576,99.599"/>
			</g>
			<g>
				<g>
					<linearGradient id="SVGID_6_" gradientUnits="userSpaceOnUse" x1="0.2666" y1="109.8525" x2="268.8857" y2="109.8525">
						<stop  offset="0" style="stop-color:#E20613"/>
						<stop  offset="1" style="stop-color:#45195B"/>
					</linearGradient>
					<path fill="url(#SVGID_6_)" d="M159.986,0L159.986,0H36.565C16.602,0,0.267,16.479,0.267,36.618
						c0,20.141,16.335,36.616,36.299,36.616h123.421l0,0c20.048,0,36.3,16.394,36.3,36.618c0,20.224-16.252,36.618-36.3,36.618l0,0
						c-20.048,0-36.301,16.395-36.301,36.616c0,20.223,16.253,36.618,36.301,36.618l0,0c60.144,0,108.899-49.185,108.899-109.853
						C268.886,49.183,220.13,0,159.986,0L159.986,0z"/>
				</g>
			</g>
			<g>
				<g>
					<linearGradient id="SVGID_8_" gradientUnits="userSpaceOnUse" x1="0.2666" y1="36.6172" x2="72.8652" y2="36.6172">
						<stop  offset="0" style="stop-color:#F29100"/>
						<stop  offset="1" style="stop-color:#E20613"/>
					</linearGradient>
					<path fill="url(#SVGID_8_)" d="M36.565,0C16.519,0,0.267,16.396,0.267,36.618s16.252,36.616,36.299,36.616
						s36.3-16.394,36.3-36.616S56.612,0,36.565,0L36.565,0z"/>
				</g>
			</g>
		</g>
	</g>
</g>
<g id="Слой_1" display="none" opacity="0.75">
</g>
</svg>
