<?xml version="1.0" encoding="utf-8"?>
<!-- Generator: Adobe Illustrator 16.0.0, SVG Export Plug-In . SVG Version: 6.00 Build 0)  -->
<!DOCTYPE svg PUBLIC "-//W3C//DTD SVG 1.1//EN" "http://www.w3.org/Graphics/SVG/1.1/DTD/svg11.dtd">
<svg version="1.1" xmlns="http://www.w3.org/2000/svg" xmlns:xlink="http://www.w3.org/1999/xlink" x="0px" y="0px" width="20px"
	 height="20px" viewBox="0 0 20 20" enable-background="new 0 0 20 20" xml:space="preserve">
<g id="Слой_2">
	<g>
		<circle fill="#8DC63F" cx="10" cy="10" r="10"/>
		<path fill="#FFFFFF" d="M14.706,12.862l-1.521-1.523c-0.305-0.302-0.806-0.293-1.12,0.021l-0.767,0.767
			c-0.047-0.026-0.098-0.054-0.151-0.084c-0.484-0.269-1.146-0.636-1.845-1.334c-0.699-0.7-1.067-1.364-1.336-1.848
			C7.938,8.81,7.91,8.76,7.884,8.712l0.514-0.513l0.254-0.253c0.314-0.315,0.323-0.816,0.021-1.119L7.149,5.304
			C6.848,5.001,6.346,5.011,6.03,5.325L5.603,5.757l0.011,0.011C5.471,5.952,5.35,6.164,5.26,6.392
			C5.178,6.609,5.127,6.817,5.104,7.024c-0.202,1.667,0.56,3.189,2.625,5.256c2.857,2.855,5.16,2.641,5.259,2.629
			c0.217-0.026,0.424-0.077,0.636-0.159c0.226-0.088,0.438-0.209,0.62-0.352l0.009,0.008l0.435-0.426
			C15,13.667,15.01,13.165,14.706,12.862L14.706,12.862z M14.706,12.862"/>
	</g>
</g>
<g id="Слой_1" display="none" opacity="0.75">
</g>
</svg>
