<?xml version="1.0" encoding="utf-8"?>
<!-- Generator: Adobe Illustrator 16.0.0, SVG Export Plug-In . SVG Version: 6.00 Build 0)  -->
<!DOCTYPE svg PUBLIC "-//W3C//DTD SVG 1.1//EN" "http://www.w3.org/Graphics/SVG/1.1/DTD/svg11.dtd">
<svg version="1.1" xmlns="http://www.w3.org/2000/svg" xmlns:xlink="http://www.w3.org/1999/xlink" x="0px" y="0px" width="200px"
	 height="40px" viewBox="0 0 200 40" enable-background="new 0 0 200 40" xml:space="preserve">
<g id="Слой_2">
	<g>
		<g opacity="0.5">
			<path d="M4.28,13.64c2.313,0,4.193,1.882,4.193,4.194v8.559c0,2.312-1.881,4.194-4.193,4.194s-4.195-1.882-4.195-4.194v-8.559
				C0.085,15.522,1.968,13.64,4.28,13.64 M18.831,28.264c-2.684,0-4.867-2.183-4.867-4.866c0-2.684,2.184-4.866,4.867-4.866
				c0.418,0,0.822-0.073,1.197-0.203v-0.494c0-2.313-1.881-4.194-4.193-4.194s-4.193,1.882-4.193,4.194v17.119
				c0,2.312,1.881,4.194,4.193,4.194s4.193-1.882,4.193-4.194v-6.746C19.634,28.242,19.235,28.264,18.831,28.264z M8.56,6.28
				C8.56,3.916,6.644,2,4.28,2C1.927,2,0.001,3.926,0.001,6.28c0,2.354,1.926,4.279,4.279,4.279C6.644,10.559,8.56,8.643,8.56,6.28z
				 M18.831,2H6.593c1.52,0.824,2.553,2.433,2.553,4.28c0,1.845-1.033,3.455-2.553,4.279h12.238c2.363,0,4.279,1.917,4.279,4.28
				s-1.916,4.279-4.279,4.279s-4.281,1.917-4.281,4.28s1.918,4.279,4.281,4.279c7.09,0,12.838-5.748,12.838-12.838
				C31.669,7.748,25.921,2,18.831,2z"/>
			<path d="M135.062,20.037c0,1.339-0.168,2.552-0.502,3.64c-0.334,1.089-0.838,2.017-1.506,2.786c-0.67,0.771-1.506,1.36-2.51,1.77
				c-1.004,0.41-2.176,0.614-3.514,0.614h-1.154c-0.77,0-1.373-0.241-1.807-0.727c-0.436-0.485-0.652-1.063-0.652-1.732
				c0-0.668,0.217-1.242,0.652-1.719c0.434-0.477,1.037-0.716,1.807-0.716h0.727c0.586,0,1.105-0.058,1.557-0.175
				c0.451-0.117,0.832-0.313,1.143-0.59c0.309-0.275,0.543-0.648,0.703-1.116c0.158-0.469,0.238-1.046,0.238-1.732v-6.826
				c0-0.769,0.238-1.364,0.715-1.783c0.477-0.417,1.041-0.626,1.693-0.626s1.217,0.209,1.695,0.626
				c0.477,0.419,0.715,1.014,0.715,1.783V20.037z"/>
			<path d="M51.368,26.512c0,0.804-0.242,1.41-0.727,1.82c-0.486,0.41-1.055,0.615-1.707,0.615c-0.67,0-1.242-0.206-1.719-0.615
				c-0.479-0.41-0.717-1.017-0.717-1.82v-13c0-0.769,0.238-1.364,0.717-1.783c0.477-0.417,1.049-0.626,1.719-0.626
				c0.652,0,1.221,0.209,1.707,0.626c0.484,0.419,0.727,1.014,0.727,1.783V26.512z"/>
			<path d="M61.81,26.512c0,0.804-0.242,1.41-0.729,1.82c-0.484,0.41-1.063,0.615-1.73,0.615c-0.652,0-1.219-0.206-1.695-0.615
				c-0.477-0.41-0.715-1.017-0.715-1.82V16.097h-1.707c-0.77,0-1.367-0.241-1.795-0.724c-0.426-0.483-0.641-1.057-0.641-1.724
				c0-0.666,0.215-1.24,0.641-1.723c0.428-0.482,1.025-0.724,1.795-0.724h8.232c0.77,0,1.371,0.242,1.807,0.724
				c0.436,0.483,0.654,1.057,0.654,1.723c0,0.667-0.219,1.241-0.654,1.724s-1.037,0.724-1.807,0.724H61.81V26.512z"/>
			<path d="M79.544,26.438c0,1.673-0.809,2.51-2.422,2.51c-1.633,0-2.447-0.82-2.447-2.46V13.637c0-1.64,0.785-2.46,2.359-2.46
				h4.969c1.055,0,1.971,0.134,2.748,0.402c0.779,0.268,1.418,0.648,1.92,1.142s0.875,1.092,1.117,1.794
				c0.242,0.703,0.363,1.49,0.363,2.359c0,0.803-0.111,1.553-0.338,2.247s-0.549,1.292-0.967,1.794
				c-0.418,0.502-0.928,0.899-1.531,1.192c-0.602,0.293-1.287,0.439-2.057,0.439h-0.854c-0.805,0-1.365-0.188-1.682-0.565
				c-0.318-0.377-0.479-0.883-0.479-1.519c0-0.636,0.178-1.104,0.527-1.406c0.352-0.301,0.795-0.451,1.33-0.451h0.402
				c0.418,0,0.744-0.109,0.979-0.326s0.352-0.553,0.352-1.004c0-0.502-0.143-0.866-0.43-1.092c-0.285-0.226-0.689-0.338-1.211-0.338
				h-2.65V26.438z"/>
			<path d="M95.28,22.171c-0.084-0.134-0.168-0.343-0.252-0.628c-0.082-0.284-0.115-0.594-0.1-0.928
				c0-0.636,0.168-1.142,0.504-1.518c0.332-0.376,0.793-0.565,1.379-0.565h0.352c0.418,0,0.754-0.117,1.004-0.352
				s0.377-0.602,0.377-1.104c0-0.452-0.127-0.77-0.379-0.954c-0.252-0.184-0.641-0.276-1.162-0.276h-2.652v10.491
				c0,1.673-0.807,2.509-2.42,2.509c-1.633,0-2.447-0.818-2.447-2.459v-12.75c0-1.64,0.785-2.46,2.357-2.46h5.271
				c1.037,0,1.934,0.155,2.686,0.465c0.754,0.31,1.373,0.715,1.857,1.217s0.846,1.075,1.08,1.719
				c0.234,0.645,0.352,1.302,0.352,1.971c0,1.205-0.289,2.225-0.867,3.062c-0.576,0.837-1.275,1.423-2.094,1.757l2.332,3.665
				c0.318,0.569,0.479,1.071,0.479,1.506c0,0.352-0.076,0.678-0.227,0.979c-0.15,0.302-0.352,0.557-0.604,0.766
				c-0.25,0.209-0.535,0.373-0.854,0.49c-0.316,0.117-0.635,0.176-0.953,0.176c-0.385,0-0.766-0.102-1.141-0.302
				c-0.377-0.201-0.684-0.519-0.916-0.954L95.28,22.171z"/>
			<path d="M104.466,20.012c0-1.255,0.234-2.426,0.703-3.514c0.467-1.087,1.109-2.041,1.928-2.861
				c0.82-0.819,1.771-1.464,2.859-1.933c1.086-0.468,2.256-0.702,3.508-0.702c1.254,0,2.428,0.234,3.521,0.702
				c1.096,0.469,2.049,1.114,2.857,1.933c0.811,0.82,1.455,1.774,1.93,2.861c0.477,1.088,0.715,2.259,0.715,3.514
				c0,1.255-0.238,2.427-0.715,3.514c-0.475,1.088-1.119,2.042-1.93,2.861c-0.809,0.821-1.762,1.465-2.857,1.933
				c-1.094,0.469-2.268,0.703-3.521,0.703c-1.252,0-2.422-0.234-3.508-0.703c-1.088-0.468-2.039-1.112-2.859-1.933
				c-0.818-0.819-1.461-1.773-1.928-2.861C104.7,22.438,104.466,21.267,104.466,20.012z M109.411,20.074
				c0,0.567,0.107,1.097,0.326,1.589c0.217,0.492,0.51,0.922,0.879,1.289c0.367,0.368,0.799,0.655,1.291,0.864
				c0.494,0.208,1.025,0.312,1.594,0.312c0.57,0,1.102-0.104,1.596-0.312c0.492-0.209,0.928-0.496,1.305-0.864
				c0.377-0.367,0.672-0.796,0.891-1.289c0.217-0.492,0.326-1.022,0.326-1.589c0-0.566-0.109-1.1-0.326-1.602
				c-0.219-0.5-0.514-0.934-0.891-1.3c-0.377-0.368-0.813-0.659-1.305-0.876c-0.494-0.217-1.025-0.325-1.596-0.325
				c-0.568,0-1.1,0.108-1.594,0.325c-0.492,0.217-0.924,0.508-1.291,0.876c-0.369,0.366-0.662,0.8-0.879,1.3
				C109.519,18.974,109.411,19.508,109.411,20.074z"/>
			<path d="M139.366,28.846c-1.615,0-2.422-0.818-2.422-2.455V13.658c0-1.637,0.807-2.456,2.422-2.456h8.295
				c0.77,0,1.367,0.242,1.795,0.724c0.426,0.483,0.641,1.057,0.641,1.723c0,0.667-0.215,1.241-0.641,1.724
				c-0.428,0.483-1.025,0.724-1.795,0.724h-5.848v1.682h4.867c0.705,0,1.252,0.222,1.646,0.665c0.391,0.443,0.59,0.966,0.59,1.568
				c0,0.603-0.199,1.126-0.59,1.569c-0.395,0.443-0.941,0.666-1.646,0.666h-4.867v1.706h5.848c0.77,0,1.367,0.239,1.795,0.716
				c0.426,0.477,0.641,1.05,0.641,1.719c0,0.67-0.215,1.248-0.641,1.732c-0.428,0.486-1.025,0.727-1.795,0.727H139.366z"/>
			<path d="M160.462,16.146c-0.686,0-1.281,0.109-1.783,0.326c-0.5,0.218-0.924,0.507-1.268,0.866
				c-0.342,0.36-0.598,0.774-0.766,1.242c-0.166,0.469-0.25,0.946-0.25,1.431c0,0.501,0.084,0.991,0.25,1.469
				c0.168,0.477,0.424,0.895,0.766,1.255c0.344,0.36,0.768,0.653,1.268,0.878c0.502,0.226,1.088,0.338,1.758,0.338h1.809
				c0.416,0,0.777,0.071,1.078,0.213c0.301,0.143,0.553,0.327,0.754,0.553c0.199,0.226,0.352,0.485,0.451,0.778
				s0.15,0.59,0.15,0.891c0,0.654-0.201,1.226-0.602,1.72c-0.402,0.493-1.014,0.739-1.832,0.739h-1.783
				c-1.455,0-2.736-0.246-3.84-0.739c-1.105-0.494-2.021-1.151-2.748-1.97c-0.729-0.82-1.277-1.75-1.645-2.787
				c-0.369-1.037-0.553-2.108-0.553-3.213s0.189-2.196,0.566-3.276c0.375-1.079,0.949-2.037,1.717-2.873
				c0.771-0.837,1.725-1.514,2.863-2.033c1.137-0.518,2.475-0.778,4.016-0.778h1.406c0.4,0,0.756,0.072,1.066,0.214
				c0.309,0.142,0.568,0.331,0.775,0.564c0.211,0.234,0.369,0.499,0.479,0.791c0.109,0.292,0.164,0.599,0.164,0.917
				s-0.055,0.626-0.164,0.929c-0.109,0.301-0.268,0.564-0.479,0.79c-0.207,0.226-0.467,0.411-0.775,0.552
				c-0.311,0.143-0.666,0.213-1.066,0.213H160.462z"/>
			<path d="M174.794,26.512c0,0.804-0.244,1.41-0.729,1.82c-0.486,0.41-1.063,0.615-1.732,0.615c-0.652,0-1.217-0.206-1.693-0.615
				c-0.477-0.41-0.715-1.017-0.715-1.82V16.097h-1.707c-0.771,0-1.369-0.241-1.795-0.724c-0.428-0.483-0.641-1.057-0.641-1.724
				c0-0.666,0.213-1.24,0.641-1.723c0.426-0.482,1.023-0.724,1.795-0.724h8.232c0.768,0,1.371,0.242,1.807,0.724
				c0.436,0.483,0.652,1.057,0.652,1.723c0,0.667-0.217,1.241-0.652,1.724s-1.039,0.724-1.807,0.724h-1.656V26.512z"/>
			<path d="M193.19,23.225c0,3.749-1.836,5.622-5.508,5.622h-4.854c-0.402,0-0.754-0.071-1.057-0.213
				c-0.301-0.142-0.553-0.326-0.754-0.552c-0.201-0.226-0.352-0.485-0.453-0.779c-0.1-0.292-0.15-0.598-0.15-0.916
				c0-0.301,0.051-0.598,0.15-0.891c0.102-0.293,0.256-0.552,0.465-0.778s0.467-0.41,0.777-0.553
				c0.311-0.142,0.666-0.213,1.068-0.213h5.07c0.334,0,0.58-0.096,0.738-0.288s0.24-0.398,0.24-0.616
				c0-0.233-0.082-0.451-0.24-0.652c-0.158-0.201-0.404-0.301-0.738-0.301h-2.512c-1.723,0-3.02-0.42-3.891-1.264
				c-0.869-0.843-1.305-2.166-1.305-3.969c0-3.772,1.85-5.659,5.547-5.659h3.916c0.418,0,0.787,0.071,1.104,0.212
				c0.318,0.141,0.586,0.324,0.805,0.549c0.217,0.225,0.379,0.484,0.488,0.775s0.164,0.587,0.164,0.886c0,0.3-0.055,0.6-0.164,0.899
				c-0.109,0.3-0.271,0.567-0.488,0.8c-0.219,0.233-0.49,0.421-0.816,0.562s-0.699,0.212-1.117,0.212h-4.217
				c-0.336,0-0.576,0.096-0.729,0.288c-0.148,0.193-0.225,0.407-0.225,0.641c0,0.218,0.076,0.422,0.225,0.615
				c0.152,0.193,0.396,0.289,0.732,0.289h2.516c1.764,0,3.072,0.426,3.928,1.28C192.763,20.062,193.19,21.4,193.19,23.225z"/>
			<path d="M48.69,37.255l1.424-2.755c0.029-0.057,0.068-0.108,0.117-0.155s0.113-0.071,0.193-0.071h0.268
				c0.053,0,0.098,0.019,0.135,0.056c0.037,0.038,0.055,0.083,0.055,0.135v4.554c0,0.051-0.018,0.096-0.055,0.134
				c-0.037,0.038-0.082,0.056-0.135,0.056h-0.289c-0.051,0-0.096-0.019-0.133-0.056c-0.039-0.038-0.057-0.083-0.057-0.134v-3.341
				l-1.1,2.121c-0.037,0.071-0.078,0.126-0.121,0.166c-0.041,0.04-0.098,0.06-0.168,0.06h-0.268c-0.07,0-0.127-0.02-0.17-0.06
				c-0.043-0.04-0.082-0.095-0.119-0.166l-1.1-2.121v3.341c0,0.051-0.02,0.096-0.057,0.134c-0.039,0.038-0.082,0.056-0.135,0.056
				h-0.289c-0.051,0-0.096-0.019-0.133-0.056c-0.039-0.038-0.057-0.083-0.057-0.134v-4.554c0-0.052,0.018-0.097,0.057-0.135
				c0.037-0.037,0.082-0.056,0.133-0.056h0.268c0.08,0,0.146,0.024,0.195,0.071s0.088,0.099,0.115,0.155L48.69,37.255z"/>
			<path d="M52.208,39.208c-0.051,0-0.096-0.019-0.135-0.056c-0.037-0.038-0.055-0.083-0.055-0.134v-3.285
				c0-0.052,0.018-0.096,0.055-0.134c0.039-0.038,0.084-0.057,0.135-0.057h0.262c0.051,0,0.096,0.02,0.133,0.057
				s0.057,0.082,0.057,0.134v0.712h0.762c0.225,0,0.432,0.032,0.617,0.099c0.186,0.065,0.346,0.159,0.479,0.278
				c0.135,0.12,0.238,0.266,0.314,0.437c0.074,0.172,0.111,0.361,0.111,0.568s-0.037,0.396-0.111,0.567
				c-0.076,0.172-0.18,0.318-0.314,0.437c-0.133,0.121-0.293,0.213-0.479,0.279c-0.186,0.066-0.393,0.099-0.617,0.099H52.208z
				 M54.31,37.826c0-0.141-0.025-0.261-0.076-0.359c-0.049-0.099-0.117-0.179-0.203-0.24c-0.086-0.061-0.191-0.105-0.314-0.133
				c-0.121-0.029-0.254-0.042-0.395-0.042h-0.662v1.55h0.662c0.141,0,0.273-0.014,0.395-0.042c0.123-0.029,0.229-0.074,0.314-0.134
				c0.086-0.062,0.154-0.141,0.203-0.24C54.284,38.087,54.31,37.967,54.31,37.826z M55.937,39.018c0,0.051-0.018,0.096-0.055,0.134
				c-0.039,0.038-0.084,0.056-0.135,0.056h-0.262c-0.051,0-0.096-0.019-0.133-0.056c-0.039-0.038-0.057-0.083-0.057-0.134v-3.285
				c0-0.052,0.018-0.096,0.057-0.134c0.037-0.038,0.082-0.057,0.133-0.057h0.262c0.051,0,0.096,0.02,0.135,0.057
				c0.037,0.038,0.055,0.082,0.055,0.134V39.018z"/>
			<path d="M59.187,37.622c0.02,0.188,0.061,0.348,0.123,0.479s0.141,0.239,0.232,0.324c0.092,0.084,0.193,0.147,0.307,0.187
				s0.229,0.06,0.346,0.06c0.225,0,0.418-0.043,0.578-0.127c0.158-0.084,0.285-0.226,0.373-0.423
				c0.033-0.076,0.068-0.126,0.104-0.151c0.035-0.026,0.078-0.039,0.129-0.039h0.211c0.053,0,0.098,0.019,0.139,0.056
				c0.039,0.038,0.057,0.083,0.053,0.134c-0.004,0.112-0.041,0.236-0.109,0.37c-0.068,0.133-0.168,0.259-0.303,0.374
				c-0.135,0.115-0.299,0.213-0.494,0.292c-0.193,0.08-0.422,0.12-0.68,0.12s-0.488-0.042-0.688-0.126
				c-0.199-0.085-0.369-0.199-0.508-0.345s-0.246-0.317-0.324-0.515s-0.121-0.409-0.131-0.635c-0.004-0.074-0.008-0.168-0.01-0.277
				c-0.002-0.111,0.002-0.206,0.01-0.286c0.02-0.226,0.068-0.437,0.145-0.635c0.078-0.198,0.186-0.369,0.322-0.515
				c0.135-0.145,0.303-0.26,0.5-0.345s0.426-0.127,0.684-0.127s0.486,0.04,0.68,0.12c0.195,0.081,0.359,0.177,0.494,0.292
				c0.135,0.115,0.234,0.24,0.303,0.374c0.068,0.134,0.105,0.257,0.109,0.369c0.004,0.052-0.014,0.096-0.053,0.134
				c-0.041,0.038-0.086,0.056-0.139,0.056h-0.211c-0.051,0-0.094-0.013-0.129-0.038c-0.035-0.026-0.07-0.077-0.104-0.152
				c-0.088-0.197-0.215-0.338-0.373-0.422c-0.16-0.085-0.354-0.128-0.578-0.128c-0.117,0-0.234,0.021-0.35,0.061
				c-0.115,0.04-0.219,0.103-0.311,0.187c-0.09,0.085-0.168,0.193-0.23,0.324c-0.064,0.132-0.104,0.292-0.117,0.479
				C59.173,37.302,59.173,37.467,59.187,37.622z"/>
			<path d="M64.128,35.472c0.252,0,0.479,0.039,0.676,0.116c0.197,0.079,0.367,0.185,0.508,0.321
				c0.141,0.136,0.252,0.302,0.334,0.497c0.084,0.195,0.135,0.407,0.152,0.638c0.004,0.042,0.008,0.092,0.008,0.151
				c0,0.059,0,0.119,0,0.184c0,0.063,0,0.124,0,0.183c0,0.06-0.004,0.107-0.008,0.144c-0.023,0.235-0.074,0.449-0.154,0.642
				c-0.08,0.192-0.191,0.357-0.332,0.493s-0.311,0.244-0.508,0.32c-0.197,0.078-0.424,0.117-0.676,0.117
				c-0.254,0-0.48-0.039-0.678-0.117c-0.197-0.077-0.365-0.184-0.508-0.32c-0.141-0.136-0.252-0.301-0.334-0.493
				c-0.082-0.193-0.133-0.407-0.152-0.642c-0.004-0.037-0.008-0.084-0.01-0.144c-0.004-0.059-0.004-0.119-0.004-0.183
				c0-0.064,0-0.125,0.004-0.184c0.002-0.059,0.006-0.109,0.01-0.151c0.02-0.231,0.07-0.443,0.152-0.638
				c0.082-0.195,0.193-0.361,0.334-0.497c0.143-0.137,0.311-0.243,0.508-0.321C63.647,35.51,63.874,35.472,64.128,35.472z
				 M65.155,37.671c0.01-0.08,0.016-0.177,0.016-0.292c0-0.116-0.006-0.216-0.016-0.3c-0.014-0.141-0.043-0.273-0.09-0.395
				s-0.113-0.228-0.197-0.317c-0.086-0.089-0.189-0.159-0.311-0.212c-0.121-0.051-0.266-0.078-0.43-0.078
				c-0.166,0-0.309,0.027-0.43,0.078c-0.123,0.053-0.227,0.123-0.311,0.212c-0.086,0.089-0.15,0.195-0.197,0.317
				s-0.078,0.254-0.092,0.395c-0.01,0.084-0.014,0.184-0.014,0.3c0,0.115,0.004,0.212,0.014,0.292
				c0.014,0.141,0.045,0.272,0.092,0.395c0.047,0.122,0.111,0.228,0.197,0.317c0.084,0.089,0.188,0.16,0.311,0.211
				c0.121,0.052,0.264,0.078,0.43,0.078c0.164,0,0.309-0.025,0.43-0.078c0.121-0.051,0.225-0.123,0.311-0.211
				c0.084-0.089,0.15-0.195,0.197-0.317C65.112,37.943,65.142,37.812,65.155,37.671z"/>
			<path d="M67.087,38.338c0.08,0.148,0.195,0.241,0.342,0.278c0.148,0.038,0.316,0.056,0.506,0.056
				c0.117,0,0.227-0.008,0.326-0.024c0.102-0.017,0.189-0.043,0.266-0.081c0.074-0.039,0.135-0.09,0.18-0.155
				c0.045-0.066,0.066-0.146,0.066-0.24c0-0.179-0.074-0.307-0.225-0.384c-0.15-0.078-0.336-0.116-0.557-0.116H67.44
				c-0.051,0-0.096-0.019-0.135-0.056c-0.037-0.037-0.055-0.082-0.055-0.134v-0.226c0-0.051,0.018-0.096,0.055-0.134
				c0.039-0.037,0.084-0.057,0.135-0.057h0.557c0.197,0,0.365-0.041,0.504-0.123c0.139-0.082,0.209-0.205,0.209-0.37
				c0-0.173-0.076-0.3-0.227-0.377c-0.15-0.077-0.334-0.117-0.549-0.117c-0.213,0-0.377,0.033-0.494,0.096
				c-0.117,0.063-0.211,0.167-0.283,0.313c-0.023,0.051-0.055,0.097-0.094,0.134s-0.086,0.056-0.139,0.056h-0.211
				c-0.051,0-0.096-0.018-0.137-0.056s-0.059-0.083-0.053-0.134c0.004-0.126,0.039-0.252,0.102-0.374
				c0.064-0.123,0.154-0.232,0.271-0.328c0.117-0.097,0.264-0.173,0.438-0.229c0.174-0.057,0.373-0.085,0.6-0.085
				c0.197,0,0.381,0.022,0.553,0.067s0.32,0.113,0.447,0.205c0.127,0.091,0.229,0.206,0.303,0.341
				c0.076,0.137,0.113,0.298,0.113,0.487c0,0.165-0.029,0.31-0.088,0.437c-0.059,0.127-0.141,0.237-0.244,0.332
				c0.123,0.089,0.219,0.201,0.289,0.334c0.072,0.134,0.105,0.299,0.105,0.497c0,0.207-0.037,0.38-0.115,0.521
				c-0.078,0.141-0.184,0.255-0.318,0.342c-0.133,0.086-0.291,0.148-0.471,0.187c-0.182,0.037-0.373,0.056-0.574,0.056
				c-0.25,0-0.465-0.025-0.646-0.077c-0.18-0.051-0.332-0.12-0.453-0.207c-0.123-0.086-0.215-0.187-0.279-0.301
				c-0.063-0.114-0.098-0.232-0.102-0.354c-0.006-0.051,0.012-0.095,0.053-0.133c0.039-0.037,0.086-0.056,0.137-0.056h0.211
				c0.053,0,0.096,0.013,0.127,0.039C67.015,38.213,67.05,38.264,67.087,38.338z"/>
			<path d="M70.634,35.732c0-0.052,0.018-0.096,0.053-0.134s0.078-0.057,0.131-0.057h1.967c0.051,0,0.096,0.02,0.133,0.057
				s0.057,0.082,0.057,0.134v2.869l0.135,0.007c0.051,0,0.096,0.019,0.133,0.057c0.037,0.037,0.057,0.082,0.057,0.133v0.995
				c0,0.051-0.02,0.096-0.057,0.134c-0.037,0.037-0.082,0.056-0.133,0.056h-0.262c-0.053,0-0.096-0.019-0.135-0.056
				c-0.037-0.038-0.057-0.083-0.057-0.135v-0.585h-2.086v0.585c0,0.052-0.02,0.097-0.057,0.135
				c-0.037,0.037-0.082,0.056-0.133,0.056h-0.262c-0.051,0-0.096-0.019-0.133-0.056c-0.039-0.038-0.057-0.083-0.057-0.135v-1
				c0-0.052,0.018-0.097,0.057-0.134c0.037-0.039,0.082-0.057,0.133-0.057h0.162c0.076,0,0.137-0.019,0.184-0.056
				s0.084-0.089,0.109-0.156c0.025-0.065,0.043-0.139,0.049-0.221c0.008-0.083,0.012-0.17,0.012-0.265V35.732z M72.331,36.148
				h-1.057v1.868c0,0.258-0.045,0.453-0.133,0.584h1.189V36.148z"/>
			<path d="M73.896,38.284c0-0.188,0.039-0.353,0.113-0.494c0.076-0.141,0.18-0.26,0.311-0.359c0.131-0.099,0.285-0.179,0.463-0.239
				c0.176-0.062,0.361-0.108,0.559-0.142l0.994-0.162v-0.092c0-0.24-0.078-0.419-0.236-0.539c-0.156-0.121-0.354-0.181-0.588-0.181
				c-0.207,0-0.363,0.039-0.469,0.113c-0.105,0.076-0.195,0.166-0.271,0.269c-0.027,0.038-0.059,0.063-0.092,0.078
				c-0.033,0.015-0.078,0.021-0.133,0.021h-0.211c-0.053,0-0.1-0.019-0.139-0.056c-0.041-0.038-0.057-0.083-0.053-0.134
				c0.01-0.104,0.051-0.209,0.123-0.317c0.072-0.108,0.172-0.205,0.295-0.289c0.125-0.084,0.27-0.154,0.432-0.208
				c0.162-0.055,0.334-0.082,0.518-0.082c0.211,0,0.408,0.03,0.588,0.092c0.182,0.062,0.336,0.151,0.467,0.268
				c0.129,0.117,0.23,0.263,0.303,0.437s0.109,0.373,0.109,0.599v2.15c0,0.051-0.02,0.096-0.057,0.134
				c-0.037,0.038-0.082,0.056-0.135,0.056h-0.26c-0.053,0-0.096-0.019-0.135-0.056c-0.037-0.038-0.057-0.083-0.057-0.134v-0.289
				c-0.041,0.089-0.107,0.168-0.197,0.235c-0.088,0.069-0.191,0.127-0.307,0.173c-0.115,0.047-0.234,0.083-0.359,0.106
				c-0.125,0.023-0.24,0.035-0.348,0.035c-0.184,0-0.354-0.025-0.506-0.077c-0.152-0.051-0.281-0.121-0.387-0.208
				s-0.188-0.191-0.246-0.314C73.927,38.557,73.896,38.425,73.896,38.284z M75.192,38.672c0.17,0,0.326-0.025,0.467-0.078
				c0.141-0.051,0.262-0.123,0.363-0.215c0.102-0.092,0.178-0.201,0.232-0.328c0.053-0.127,0.08-0.268,0.08-0.423v-0.177
				l-0.83,0.135c-0.297,0.047-0.531,0.122-0.707,0.226c-0.174,0.104-0.26,0.237-0.26,0.401c0,0.052,0.012,0.104,0.035,0.156
				c0.023,0.052,0.061,0.101,0.113,0.147c0.051,0.047,0.117,0.084,0.201,0.112C74.97,38.658,75.071,38.672,75.192,38.672z"/>
			<path d="M77.837,37.022c0.018-0.216,0.07-0.418,0.154-0.605c0.086-0.188,0.195-0.353,0.332-0.494s0.299-0.25,0.49-0.331
				s0.402-0.12,0.637-0.12c0.254,0,0.48,0.041,0.682,0.123c0.199,0.083,0.369,0.201,0.51,0.356c0.141,0.155,0.25,0.343,0.324,0.564
				c0.076,0.221,0.113,0.467,0.113,0.74v0.19c0,0.052-0.02,0.096-0.057,0.134c-0.037,0.037-0.082,0.056-0.135,0.056h-2.424v0.042
				c0.01,0.32,0.107,0.565,0.293,0.737c0.186,0.17,0.416,0.257,0.693,0.257c0.26,0,0.453-0.036,0.582-0.109
				c0.129-0.074,0.234-0.154,0.314-0.244c0.037-0.038,0.07-0.063,0.098-0.078c0.029-0.014,0.07-0.02,0.127-0.02h0.211
				c0.053,0,0.1,0.018,0.143,0.056c0.041,0.038,0.059,0.083,0.049,0.135c-0.014,0.084-0.055,0.177-0.119,0.278
				c-0.066,0.101-0.162,0.195-0.287,0.281c-0.125,0.088-0.279,0.161-0.465,0.22s-0.402,0.087-0.652,0.087
				c-0.234,0-0.445-0.041-0.633-0.124c-0.189-0.082-0.352-0.194-0.49-0.338c-0.139-0.143-0.25-0.312-0.336-0.507
				c-0.084-0.195-0.137-0.409-0.154-0.638C77.813,37.455,77.813,37.239,77.837,37.022z M78.464,37.044h1.98v-0.022
				c0-0.286-0.09-0.515-0.271-0.687c-0.18-0.171-0.422-0.258-0.723-0.258c-0.135,0-0.262,0.023-0.381,0.067
				c-0.117,0.045-0.221,0.109-0.309,0.19c-0.09,0.082-0.16,0.183-0.211,0.3c-0.053,0.118-0.082,0.247-0.086,0.387V37.044z"/>
			<path d="M83.737,37.797l1.121-2.114c0.014-0.028,0.041-0.058,0.08-0.091c0.041-0.033,0.1-0.05,0.18-0.05h0.232
				c0.053,0,0.096,0.02,0.135,0.057c0.037,0.038,0.057,0.082,0.057,0.134v3.285c0,0.051-0.02,0.096-0.057,0.134
				c-0.039,0.038-0.082,0.056-0.135,0.056h-0.26c-0.053,0-0.098-0.019-0.135-0.056c-0.037-0.038-0.057-0.083-0.057-0.134v-2.122
				l-0.832,1.536c-0.023,0.042-0.053,0.082-0.088,0.12s-0.088,0.057-0.158,0.057h-0.17c-0.07,0-0.123-0.019-0.158-0.057
				s-0.064-0.077-0.088-0.12l-0.832-1.536v2.122c0,0.051-0.018,0.096-0.057,0.134c-0.037,0.038-0.082,0.056-0.133,0.056h-0.262
				c-0.051,0-0.096-0.019-0.133-0.056c-0.039-0.038-0.057-0.083-0.057-0.134v-3.285c0-0.052,0.018-0.096,0.057-0.134
				c0.037-0.038,0.082-0.057,0.133-0.057h0.232c0.08,0,0.141,0.018,0.18,0.05c0.041,0.033,0.068,0.063,0.082,0.091L83.737,37.797z"
				/>
			<path d="M91.138,39.208c-0.053,0-0.096-0.019-0.135-0.056c-0.037-0.038-0.055-0.083-0.055-0.134v-2.361l-2.053,2.473
				c-0.037,0.052-0.088,0.078-0.154,0.078h-0.24c-0.051,0-0.094-0.019-0.131-0.056c-0.035-0.038-0.053-0.083-0.053-0.134v-3.285
				c0-0.052,0.02-0.096,0.057-0.134s0.082-0.057,0.135-0.057h0.26c0.053,0,0.098,0.02,0.135,0.057s0.057,0.082,0.057,0.134v2.383
				l2.051-2.496c0.023-0.023,0.045-0.042,0.066-0.056c0.021-0.015,0.051-0.022,0.088-0.022h0.232c0.053,0,0.098,0.02,0.135,0.057
				s0.057,0.082,0.057,0.134v3.285c0,0.051-0.02,0.096-0.057,0.134c-0.037,0.038-0.082,0.056-0.135,0.056H91.138z"/>
			<path d="M95.726,35.542c0.053,0,0.098,0.02,0.135,0.057s0.057,0.082,0.057,0.134v3.285c0,0.051-0.02,0.096-0.057,0.134
				c-0.037,0.038-0.082,0.056-0.135,0.056h-0.26c-0.053,0-0.096-0.019-0.135-0.056c-0.037-0.038-0.055-0.083-0.055-0.134v-1.375
				h-1.988v1.375c0,0.051-0.02,0.096-0.057,0.134c-0.037,0.038-0.082,0.056-0.135,0.056h-0.26c-0.053,0-0.096-0.017-0.135-0.053
				c-0.037-0.036-0.057-0.081-0.057-0.137v-3.285c0-0.052,0.02-0.096,0.057-0.134c0.039-0.038,0.082-0.057,0.135-0.057h0.26
				c0.053,0,0.098,0.02,0.135,0.057s0.057,0.082,0.057,0.134v1.305h1.988v-1.305c0-0.052,0.018-0.096,0.055-0.134
				c0.039-0.038,0.082-0.057,0.135-0.057H95.726z"/>
			<path d="M99.821,35.542c0.051,0,0.096,0.02,0.135,0.057c0.037,0.038,0.057,0.082,0.057,0.134v0.226
				c0,0.052-0.02,0.097-0.057,0.134c-0.039,0.038-0.084,0.057-0.135,0.057h-1.219v2.869c0,0.051-0.02,0.096-0.057,0.134
				c-0.039,0.038-0.082,0.056-0.133,0.056h-0.262c-0.053,0-0.098-0.019-0.135-0.056c-0.037-0.038-0.057-0.083-0.057-0.134v-2.869
				h-1.219c-0.051,0-0.096-0.019-0.133-0.057c-0.039-0.037-0.057-0.082-0.057-0.134v-0.226c0-0.052,0.018-0.096,0.057-0.134
				c0.037-0.038,0.082-0.057,0.133-0.057H99.821z"/>
			<path d="M100.394,37.022c0.018-0.216,0.07-0.418,0.154-0.605c0.084-0.188,0.195-0.353,0.33-0.494
				c0.137-0.141,0.301-0.25,0.49-0.331c0.191-0.081,0.402-0.12,0.639-0.12c0.254,0,0.48,0.041,0.68,0.123s0.369,0.201,0.512,0.356
				c0.141,0.155,0.248,0.343,0.324,0.564c0.074,0.221,0.111,0.467,0.111,0.74v0.19c0,0.052-0.018,0.096-0.055,0.134
				c-0.039,0.037-0.084,0.056-0.135,0.056h-2.424v0.042c0.01,0.32,0.105,0.565,0.293,0.737c0.186,0.17,0.416,0.257,0.693,0.257
				c0.258,0,0.451-0.036,0.582-0.109c0.129-0.074,0.234-0.154,0.313-0.244c0.039-0.038,0.07-0.063,0.1-0.078
				c0.027-0.014,0.07-0.02,0.127-0.02h0.211c0.053,0,0.098,0.018,0.141,0.056c0.043,0.038,0.059,0.083,0.049,0.135
				c-0.014,0.084-0.053,0.177-0.119,0.278s-0.162,0.195-0.285,0.281c-0.125,0.088-0.279,0.161-0.465,0.22s-0.404,0.087-0.652,0.087
				c-0.236,0-0.447-0.041-0.635-0.124c-0.188-0.082-0.35-0.194-0.49-0.338c-0.139-0.143-0.25-0.312-0.334-0.507
				s-0.137-0.409-0.154-0.638C100.37,37.455,100.37,37.239,100.394,37.022z M101.021,37.044h1.98v-0.022
				c0-0.286-0.092-0.515-0.271-0.687c-0.182-0.171-0.422-0.258-0.723-0.258c-0.137,0-0.262,0.023-0.381,0.067
				c-0.117,0.045-0.221,0.109-0.311,0.19c-0.088,0.082-0.158,0.183-0.211,0.3c-0.053,0.118-0.08,0.247-0.084,0.387V37.044z"/>
			<path d="M106.222,39.278c-0.291,0-0.523-0.051-0.697-0.151c-0.176-0.102-0.307-0.21-0.395-0.327v1.557
				c0,0.051-0.02,0.096-0.057,0.134s-0.082,0.056-0.135,0.056h-0.26c-0.053,0-0.098-0.019-0.135-0.056s-0.057-0.083-0.057-0.134
				v-4.624c0-0.052,0.02-0.096,0.057-0.134s0.082-0.057,0.135-0.057h0.26c0.053,0,0.098,0.02,0.135,0.057s0.057,0.082,0.057,0.134
				v0.219c0.094-0.127,0.227-0.238,0.4-0.334c0.174-0.096,0.404-0.145,0.691-0.145c0.221,0,0.428,0.039,0.617,0.116
				c0.189,0.079,0.355,0.189,0.496,0.335s0.254,0.322,0.34,0.529c0.084,0.207,0.133,0.439,0.146,0.698
				c0.006,0.07,0.008,0.146,0.008,0.229c0,0.082-0.002,0.158-0.008,0.229c-0.014,0.258-0.063,0.491-0.146,0.698
				c-0.086,0.207-0.199,0.382-0.34,0.525c-0.141,0.144-0.307,0.254-0.496,0.331C106.649,39.239,106.442,39.278,106.222,39.278z
				 M105.13,37.071c-0.006,0.071-0.008,0.164-0.008,0.279c0,0.115,0.002,0.208,0.008,0.279c0.014,0.333,0.113,0.591,0.299,0.771
				s0.426,0.271,0.723,0.271c0.311,0,0.555-0.099,0.732-0.296c0.18-0.197,0.277-0.465,0.297-0.804c0.004-0.132,0.004-0.263,0-0.395
				c-0.02-0.338-0.117-0.606-0.297-0.804c-0.178-0.197-0.422-0.296-0.732-0.296c-0.291,0-0.531,0.09-0.719,0.269
				S105.144,36.766,105.13,37.071z"/>
			<path d="M111.782,35.542c0.053,0,0.098,0.02,0.135,0.057s0.057,0.082,0.057,0.134v3.285c0,0.051-0.02,0.096-0.057,0.134
				c-0.037,0.038-0.082,0.056-0.135,0.056h-0.26c-0.053,0-0.098-0.019-0.135-0.056c-0.037-0.038-0.057-0.083-0.057-0.134v-1.375
				h-1.986v1.375c0,0.051-0.02,0.096-0.057,0.134c-0.039,0.038-0.082,0.056-0.133,0.056h-0.262c-0.053,0-0.098-0.017-0.135-0.053
				c-0.037-0.036-0.057-0.081-0.057-0.137v-3.285c0-0.052,0.02-0.096,0.057-0.134s0.082-0.057,0.135-0.057h0.262
				c0.051,0,0.094,0.02,0.133,0.057c0.037,0.038,0.057,0.082,0.057,0.134v1.305h1.986v-1.305c0-0.052,0.02-0.096,0.057-0.134
				s0.082-0.057,0.135-0.057H111.782z"/>
			<path d="M112.86,37.022c0.02-0.216,0.072-0.418,0.156-0.605c0.084-0.188,0.195-0.353,0.332-0.494
				c0.135-0.141,0.299-0.25,0.488-0.331c0.191-0.081,0.404-0.12,0.639-0.12c0.254,0,0.48,0.041,0.68,0.123
				c0.201,0.083,0.371,0.201,0.512,0.356c0.141,0.155,0.248,0.343,0.324,0.564c0.076,0.221,0.113,0.467,0.113,0.74v0.19
				c0,0.052-0.02,0.096-0.057,0.134c-0.037,0.037-0.082,0.056-0.135,0.056h-2.424v0.042c0.01,0.32,0.107,0.565,0.291,0.737
				c0.188,0.17,0.418,0.257,0.695,0.257c0.258,0,0.453-0.036,0.582-0.109c0.129-0.074,0.234-0.154,0.313-0.244
				c0.039-0.038,0.07-0.063,0.1-0.078c0.027-0.014,0.07-0.02,0.127-0.02h0.211c0.053,0,0.1,0.018,0.141,0.056
				c0.043,0.038,0.059,0.083,0.051,0.135c-0.016,0.084-0.055,0.177-0.121,0.278c-0.064,0.101-0.16,0.195-0.285,0.281
				c-0.123,0.088-0.279,0.161-0.465,0.22s-0.402,0.087-0.652,0.087c-0.234,0-0.445-0.041-0.635-0.124
				c-0.188-0.082-0.352-0.194-0.488-0.338c-0.139-0.143-0.252-0.312-0.336-0.507s-0.137-0.409-0.156-0.638
				C112.837,37.455,112.837,37.239,112.86,37.022z M113.489,37.044h1.98v-0.022c0-0.286-0.09-0.515-0.273-0.687
				c-0.18-0.171-0.42-0.258-0.721-0.258c-0.135,0-0.264,0.023-0.381,0.067c-0.117,0.045-0.221,0.109-0.311,0.19
				c-0.088,0.082-0.158,0.183-0.211,0.3c-0.051,0.118-0.08,0.247-0.084,0.387V37.044z"/>
			<path d="M119.749,35.542c0.051,0,0.096,0.02,0.133,0.057c0.039,0.038,0.057,0.082,0.057,0.134v0.226
				c0,0.052-0.018,0.097-0.057,0.134c-0.037,0.038-0.082,0.057-0.133,0.057h-1.221v2.869c0,0.051-0.018,0.096-0.057,0.134
				c-0.037,0.038-0.082,0.056-0.133,0.056h-0.262c-0.051,0-0.096-0.019-0.133-0.056c-0.039-0.038-0.057-0.083-0.057-0.134v-2.869
				h-1.221c-0.051,0-0.096-0.019-0.133-0.057c-0.037-0.037-0.057-0.082-0.057-0.134v-0.226c0-0.052,0.02-0.096,0.057-0.134
				s0.082-0.057,0.133-0.057H119.749z"/>
			<path d="M124.478,34.252c0,0.165-0.037,0.314-0.109,0.451c-0.072,0.136-0.164,0.269-0.275,0.398
				c-0.109,0.13-0.232,0.261-0.365,0.395c-0.135,0.135-0.266,0.281-0.393,0.441c0.119-0.028,0.248-0.043,0.389-0.043
				c0.234,0,0.451,0.038,0.648,0.113c0.197,0.075,0.367,0.186,0.512,0.332c0.143,0.146,0.254,0.323,0.334,0.532
				c0.08,0.21,0.119,0.448,0.119,0.716c0,0.25-0.039,0.479-0.119,0.688c-0.08,0.209-0.191,0.387-0.334,0.535
				c-0.145,0.148-0.314,0.263-0.512,0.345c-0.197,0.083-0.414,0.124-0.648,0.124c-0.236,0-0.451-0.041-0.648-0.124
				c-0.197-0.082-0.369-0.197-0.512-0.345s-0.256-0.326-0.334-0.535c-0.08-0.208-0.121-0.438-0.121-0.688
				c0-0.362,0.043-0.678,0.127-0.948c0.086-0.27,0.193-0.506,0.32-0.708c0.131-0.202,0.27-0.377,0.418-0.528
				c0.146-0.15,0.285-0.29,0.414-0.416c0.131-0.127,0.236-0.248,0.322-0.364c0.084-0.114,0.127-0.237,0.127-0.369
				c0-0.052,0.018-0.096,0.057-0.134c0.037-0.038,0.08-0.056,0.133-0.056h0.26c0.053,0,0.098,0.019,0.135,0.056
				C124.458,34.156,124.478,34.201,124.478,34.252z M123.724,36.501c-0.33,0-0.574,0.1-0.734,0.299
				c-0.158,0.2-0.238,0.461-0.238,0.786s0.08,0.586,0.238,0.786c0.16,0.2,0.404,0.299,0.734,0.299c0.328,0,0.574-0.1,0.732-0.299
				c0.16-0.2,0.24-0.461,0.24-0.786s-0.08-0.586-0.24-0.786C124.298,36.601,124.052,36.501,123.724,36.501z"/>
			<path d="M129.017,39.208c-0.051,0-0.096-0.019-0.133-0.056c-0.039-0.038-0.057-0.083-0.057-0.134v-2.361l-2.051,2.473
				c-0.039,0.052-0.09,0.078-0.156,0.078h-0.24c-0.051,0-0.094-0.019-0.129-0.056c-0.037-0.038-0.053-0.083-0.053-0.134v-3.285
				c0-0.052,0.018-0.096,0.055-0.134c0.039-0.038,0.084-0.057,0.135-0.057h0.26c0.053,0,0.098,0.02,0.135,0.057
				c0.039,0.038,0.057,0.082,0.057,0.134v2.383l2.051-2.496c0.023-0.023,0.047-0.042,0.066-0.056
				c0.021-0.015,0.051-0.022,0.09-0.022h0.232c0.051,0,0.096,0.02,0.133,0.057s0.057,0.082,0.057,0.134v3.285
				c0,0.051-0.02,0.096-0.057,0.134c-0.037,0.038-0.082,0.056-0.133,0.056H129.017z"/>
			<path d="M130.919,38.338c0.082,0.148,0.193,0.241,0.342,0.278c0.148,0.038,0.318,0.056,0.506,0.056
				c0.117,0,0.227-0.008,0.326-0.024c0.102-0.017,0.189-0.043,0.266-0.081c0.074-0.039,0.135-0.09,0.18-0.155
				c0.045-0.066,0.066-0.146,0.066-0.24c0-0.179-0.074-0.307-0.227-0.384c-0.148-0.078-0.336-0.116-0.555-0.116h-0.551
				c-0.051,0-0.096-0.019-0.133-0.056s-0.057-0.082-0.057-0.134v-0.226c0-0.051,0.02-0.096,0.057-0.134
				c0.037-0.037,0.082-0.057,0.133-0.057h0.557c0.197,0,0.365-0.041,0.504-0.123c0.139-0.082,0.209-0.205,0.209-0.37
				c0-0.173-0.076-0.3-0.225-0.377c-0.152-0.077-0.336-0.117-0.551-0.117c-0.213,0-0.377,0.033-0.494,0.096
				c-0.117,0.063-0.211,0.167-0.281,0.313c-0.023,0.051-0.057,0.097-0.096,0.134s-0.086,0.056-0.137,0.056h-0.213
				c-0.051,0-0.096-0.018-0.137-0.056s-0.057-0.083-0.053-0.134c0.004-0.126,0.039-0.252,0.102-0.374
				c0.064-0.123,0.154-0.232,0.271-0.328c0.117-0.097,0.264-0.173,0.438-0.229c0.174-0.057,0.373-0.085,0.6-0.085
				c0.197,0,0.381,0.022,0.553,0.067s0.32,0.113,0.447,0.205c0.127,0.091,0.229,0.206,0.303,0.341
				c0.076,0.137,0.113,0.298,0.113,0.487c0,0.165-0.029,0.31-0.088,0.437c-0.059,0.127-0.141,0.237-0.242,0.332
				c0.121,0.089,0.217,0.201,0.289,0.334c0.068,0.134,0.105,0.299,0.105,0.497c0,0.207-0.039,0.38-0.117,0.521
				c-0.078,0.141-0.184,0.255-0.316,0.342c-0.135,0.086-0.291,0.148-0.473,0.187c-0.182,0.037-0.373,0.056-0.574,0.056
				c-0.25,0-0.465-0.025-0.646-0.077c-0.18-0.051-0.332-0.12-0.455-0.207c-0.121-0.086-0.213-0.187-0.277-0.301
				s-0.098-0.232-0.102-0.354c-0.006-0.051,0.014-0.095,0.053-0.133c0.039-0.037,0.086-0.056,0.137-0.056h0.213
				c0.051,0,0.094,0.013,0.125,0.039C130.847,38.213,130.882,38.264,130.919,38.338z"/>
			<path d="M137.222,35.542c0.051,0,0.096,0.02,0.135,0.057c0.037,0.038,0.055,0.082,0.055,0.134v3.285
				c0,0.051-0.018,0.096-0.055,0.134c-0.039,0.038-0.084,0.056-0.135,0.056h-0.26c-0.053,0-0.098-0.019-0.135-0.056
				c-0.039-0.038-0.057-0.083-0.057-0.134v-1.375h-1.988v1.375c0,0.051-0.018,0.096-0.057,0.134
				c-0.037,0.038-0.082,0.056-0.135,0.056h-0.26c-0.051,0-0.096-0.017-0.133-0.053c-0.039-0.036-0.057-0.081-0.057-0.137v-3.285
				c0-0.052,0.018-0.096,0.057-0.134c0.037-0.038,0.082-0.057,0.133-0.057h0.26c0.053,0,0.098,0.02,0.135,0.057
				c0.039,0.038,0.057,0.082,0.057,0.134v1.305h1.988v-1.305c0-0.052,0.018-0.096,0.057-0.134c0.037-0.038,0.082-0.057,0.135-0.057
				H137.222z"/>
			<path d="M138.3,37.022c0.02-0.216,0.07-0.418,0.154-0.605c0.086-0.188,0.195-0.353,0.332-0.494s0.301-0.25,0.49-0.331
				c0.191-0.081,0.402-0.12,0.637-0.12c0.254,0,0.482,0.041,0.682,0.123s0.371,0.201,0.512,0.356
				c0.139,0.155,0.248,0.343,0.322,0.564c0.076,0.221,0.113,0.467,0.113,0.74v0.19c0,0.052-0.018,0.096-0.057,0.134
				c-0.037,0.037-0.082,0.056-0.133,0.056h-2.426v0.042c0.01,0.32,0.107,0.565,0.293,0.737c0.186,0.17,0.416,0.257,0.693,0.257
				c0.26,0,0.453-0.036,0.582-0.109c0.131-0.074,0.234-0.154,0.314-0.244c0.037-0.038,0.07-0.063,0.098-0.078
				c0.029-0.014,0.07-0.02,0.127-0.02h0.211c0.053,0,0.1,0.018,0.143,0.056c0.041,0.038,0.059,0.083,0.049,0.135
				c-0.014,0.084-0.055,0.177-0.119,0.278c-0.066,0.101-0.162,0.195-0.285,0.281c-0.125,0.088-0.281,0.161-0.465,0.22
				c-0.188,0.059-0.404,0.087-0.654,0.087c-0.234,0-0.445-0.041-0.633-0.124c-0.188-0.082-0.352-0.194-0.49-0.338
				c-0.139-0.143-0.25-0.312-0.336-0.507c-0.084-0.195-0.135-0.409-0.154-0.638C138.276,37.455,138.276,37.239,138.3,37.022z
				 M138.927,37.044h1.98v-0.022c0-0.286-0.09-0.515-0.271-0.687c-0.18-0.171-0.422-0.258-0.723-0.258
				c-0.135,0-0.262,0.023-0.379,0.067c-0.117,0.045-0.221,0.109-0.311,0.19c-0.09,0.082-0.16,0.183-0.211,0.3
				c-0.053,0.118-0.08,0.247-0.086,0.387V37.044z"/>
			<path d="M142.868,37.622c0.018,0.188,0.061,0.348,0.123,0.479s0.141,0.239,0.232,0.324c0.092,0.084,0.193,0.147,0.307,0.187
				c0.111,0.04,0.229,0.06,0.346,0.06c0.225,0,0.418-0.043,0.578-0.127c0.158-0.084,0.283-0.226,0.373-0.423
				c0.033-0.076,0.066-0.126,0.102-0.151c0.035-0.026,0.08-0.039,0.131-0.039h0.211c0.053,0,0.098,0.019,0.139,0.056
				c0.039,0.038,0.057,0.083,0.051,0.134c-0.004,0.112-0.039,0.236-0.107,0.37c-0.068,0.133-0.17,0.259-0.303,0.374
				c-0.135,0.115-0.299,0.213-0.494,0.292s-0.422,0.12-0.68,0.12c-0.26,0-0.488-0.042-0.688-0.126
				c-0.199-0.085-0.369-0.199-0.508-0.345s-0.246-0.317-0.324-0.515s-0.121-0.409-0.131-0.635c-0.004-0.074-0.008-0.168-0.01-0.277
				c-0.002-0.111,0.002-0.206,0.01-0.286c0.02-0.226,0.066-0.437,0.145-0.635c0.078-0.198,0.186-0.369,0.32-0.515
				c0.137-0.145,0.305-0.26,0.502-0.345s0.424-0.127,0.684-0.127c0.258,0,0.484,0.04,0.68,0.12s0.359,0.177,0.494,0.292
				c0.133,0.115,0.234,0.24,0.303,0.374c0.068,0.134,0.104,0.257,0.107,0.369c0.006,0.052-0.012,0.096-0.051,0.134
				c-0.041,0.038-0.086,0.056-0.139,0.056h-0.211c-0.051,0-0.096-0.013-0.131-0.038c-0.035-0.026-0.068-0.077-0.102-0.152
				c-0.09-0.197-0.215-0.338-0.373-0.422c-0.16-0.085-0.354-0.128-0.578-0.128c-0.117,0-0.234,0.021-0.35,0.061
				c-0.115,0.04-0.219,0.103-0.311,0.187c-0.092,0.085-0.168,0.193-0.232,0.324c-0.064,0.132-0.104,0.292-0.115,0.479
				C142.854,37.302,142.854,37.467,142.868,37.622z"/>
		</g>
		<g>
			<g>
				<path fill="#FFFFFF" d="M4.28,11.64c2.313,0,4.193,1.882,4.193,4.194v8.559c0,2.312-1.881,4.194-4.193,4.194
					s-4.195-1.882-4.195-4.194v-8.559C0.085,13.522,1.968,11.64,4.28,11.64 M18.831,26.264c-2.684,0-4.867-2.183-4.867-4.866
					c0-2.684,2.184-4.866,4.867-4.866c0.418,0,0.822-0.073,1.197-0.203v-0.494c0-2.313-1.881-4.194-4.193-4.194
					s-4.193,1.882-4.193,4.194v17.119c0,2.312,1.881,4.194,4.193,4.194s4.193-1.882,4.193-4.194v-6.746
					C19.634,26.242,19.235,26.264,18.831,26.264z M8.56,4.28C8.56,1.916,6.644,0,4.28,0C1.927,0,0.001,1.926,0.001,4.28
					c0,2.354,1.926,4.279,4.279,4.279C6.644,8.559,8.56,6.643,8.56,4.28z M18.831,0H6.593c1.52,0.824,2.553,2.433,2.553,4.28
					c0,1.845-1.033,3.455-2.553,4.279h12.238c2.363,0,4.279,1.917,4.279,4.28s-1.916,4.279-4.279,4.279s-4.281,1.917-4.281,4.28
					s1.918,4.279,4.281,4.279c7.09,0,12.838-5.748,12.838-12.838C31.669,5.748,25.921,0,18.831,0z"/>
				<g>
					<g>
						<path fill="#FFFFFF" d="M135.062,18.037c0,1.339-0.168,2.552-0.502,3.64c-0.334,1.089-0.838,2.017-1.506,2.786
							c-0.67,0.771-1.506,1.36-2.51,1.77c-1.004,0.41-2.176,0.614-3.514,0.614h-1.154c-0.77,0-1.373-0.241-1.807-0.727
							c-0.436-0.485-0.652-1.063-0.652-1.732c0-0.668,0.217-1.242,0.652-1.719c0.434-0.477,1.037-0.716,1.807-0.716h0.727
							c0.586,0,1.105-0.058,1.557-0.175c0.451-0.117,0.832-0.313,1.143-0.59c0.309-0.275,0.543-0.648,0.703-1.116
							c0.158-0.469,0.238-1.046,0.238-1.732v-6.826c0-0.769,0.238-1.364,0.715-1.783c0.477-0.417,1.041-0.626,1.693-0.626
							s1.217,0.209,1.695,0.626c0.477,0.419,0.715,1.014,0.715,1.783V18.037z"/>
					</g>
					<g>
						<g>
							<path fill="#FFFFFF" d="M51.368,24.512c0,0.804-0.242,1.41-0.727,1.82c-0.486,0.41-1.055,0.615-1.707,0.615
								c-0.67,0-1.242-0.206-1.719-0.615c-0.479-0.41-0.717-1.017-0.717-1.82v-13c0-0.769,0.238-1.364,0.717-1.783
								c0.477-0.417,1.049-0.626,1.719-0.626c0.652,0,1.221,0.209,1.707,0.626c0.484,0.419,0.727,1.014,0.727,1.783V24.512z"/>
						</g>
						<g>
							<path fill="#FFFFFF" d="M61.81,24.512c0,0.804-0.242,1.41-0.729,1.82c-0.484,0.41-1.063,0.615-1.73,0.615
								c-0.652,0-1.219-0.206-1.695-0.615c-0.477-0.41-0.715-1.017-0.715-1.82V14.097h-1.707c-0.77,0-1.367-0.241-1.795-0.724
								c-0.426-0.483-0.641-1.057-0.641-1.724c0-0.666,0.215-1.24,0.641-1.723c0.428-0.482,1.025-0.724,1.795-0.724h8.232
								c0.77,0,1.371,0.242,1.807,0.724c0.436,0.483,0.654,1.057,0.654,1.723c0,0.667-0.219,1.241-0.654,1.724
								s-1.037,0.724-1.807,0.724H61.81V24.512z"/>
						</g>
						<g>
							<path fill="#FFFFFF" d="M79.544,24.438c0,1.673-0.809,2.51-2.422,2.51c-1.633,0-2.447-0.82-2.447-2.46V11.637
								c0-1.64,0.785-2.46,2.359-2.46h4.969c1.055,0,1.971,0.134,2.748,0.402c0.779,0.268,1.418,0.648,1.92,1.142
								s0.875,1.092,1.117,1.794c0.242,0.703,0.363,1.49,0.363,2.359c0,0.803-0.111,1.553-0.338,2.247s-0.549,1.292-0.967,1.794
								c-0.418,0.502-0.928,0.899-1.531,1.192c-0.602,0.293-1.287,0.439-2.057,0.439h-0.854c-0.805,0-1.365-0.188-1.682-0.565
								c-0.318-0.377-0.479-0.883-0.479-1.519c0-0.636,0.178-1.104,0.527-1.406c0.352-0.301,0.795-0.451,1.33-0.451h0.402
								c0.418,0,0.744-0.109,0.979-0.326s0.352-0.553,0.352-1.004c0-0.502-0.143-0.866-0.43-1.092
								c-0.285-0.226-0.689-0.338-1.211-0.338h-2.65V24.438z"/>
						</g>
						<g>
							<path fill="#FFFFFF" d="M95.28,20.171c-0.084-0.134-0.168-0.343-0.252-0.628c-0.082-0.284-0.115-0.594-0.1-0.928
								c0-0.636,0.168-1.142,0.504-1.518c0.332-0.376,0.793-0.565,1.379-0.565h0.352c0.418,0,0.754-0.117,1.004-0.352
								s0.377-0.602,0.377-1.104c0-0.452-0.127-0.77-0.379-0.954c-0.252-0.184-0.641-0.276-1.162-0.276h-2.652v10.491
								c0,1.673-0.807,2.509-2.42,2.509c-1.633,0-2.447-0.818-2.447-2.459v-12.75c0-1.64,0.785-2.46,2.357-2.46h5.271
								c1.037,0,1.934,0.155,2.686,0.465c0.754,0.31,1.373,0.715,1.857,1.217s0.846,1.075,1.08,1.719
								c0.234,0.645,0.352,1.302,0.352,1.971c0,1.205-0.289,2.225-0.867,3.062c-0.576,0.837-1.275,1.423-2.094,1.757l2.332,3.665
								c0.318,0.569,0.479,1.071,0.479,1.506c0,0.352-0.076,0.678-0.227,0.979c-0.15,0.302-0.352,0.557-0.604,0.766
								c-0.25,0.209-0.535,0.373-0.854,0.49c-0.316,0.117-0.635,0.176-0.953,0.176c-0.385,0-0.766-0.102-1.141-0.302
								c-0.377-0.201-0.684-0.519-0.916-0.954L95.28,20.171z"/>
						</g>
						<g>
							<path fill="#FFFFFF" d="M104.466,18.012c0-1.255,0.234-2.426,0.703-3.514c0.467-1.087,1.109-2.041,1.928-2.861
								c0.82-0.819,1.771-1.464,2.859-1.933c1.086-0.468,2.256-0.702,3.508-0.702c1.254,0,2.428,0.234,3.521,0.702
								c1.096,0.469,2.049,1.114,2.857,1.933c0.811,0.82,1.455,1.774,1.93,2.861c0.477,1.088,0.715,2.259,0.715,3.514
								c0,1.255-0.238,2.427-0.715,3.514c-0.475,1.088-1.119,2.042-1.93,2.861c-0.809,0.821-1.762,1.465-2.857,1.933
								c-1.094,0.469-2.268,0.703-3.521,0.703c-1.252,0-2.422-0.234-3.508-0.703c-1.088-0.468-2.039-1.112-2.859-1.933
								c-0.818-0.819-1.461-1.773-1.928-2.861C104.7,20.438,104.466,19.267,104.466,18.012z M109.411,18.074
								c0,0.567,0.107,1.097,0.326,1.589c0.217,0.492,0.51,0.922,0.879,1.289c0.367,0.368,0.799,0.655,1.291,0.864
								c0.494,0.208,1.025,0.312,1.594,0.312c0.57,0,1.102-0.104,1.596-0.312c0.492-0.209,0.928-0.496,1.305-0.864
								c0.377-0.367,0.672-0.796,0.891-1.289c0.217-0.492,0.326-1.022,0.326-1.589c0-0.566-0.109-1.1-0.326-1.602
								c-0.219-0.5-0.514-0.934-0.891-1.3c-0.377-0.368-0.813-0.659-1.305-0.876c-0.494-0.217-1.025-0.325-1.596-0.325
								c-0.568,0-1.1,0.108-1.594,0.325c-0.492,0.217-0.924,0.508-1.291,0.876c-0.369,0.366-0.662,0.8-0.879,1.3
								C109.519,16.974,109.411,17.508,109.411,18.074z"/>
						</g>
						<g>
							<path fill="#FFFFFF" d="M139.366,26.846c-1.615,0-2.422-0.818-2.422-2.455V11.658c0-1.637,0.807-2.456,2.422-2.456h8.295
								c0.77,0,1.367,0.242,1.795,0.724c0.426,0.483,0.641,1.057,0.641,1.723c0,0.667-0.215,1.241-0.641,1.724
								c-0.428,0.483-1.025,0.724-1.795,0.724h-5.848v1.682h4.867c0.705,0,1.252,0.222,1.646,0.665
								c0.391,0.443,0.59,0.966,0.59,1.568c0,0.603-0.199,1.126-0.59,1.569c-0.395,0.443-0.941,0.666-1.646,0.666h-4.867v1.706
								h5.848c0.77,0,1.367,0.239,1.795,0.716c0.426,0.477,0.641,1.05,0.641,1.719c0,0.67-0.215,1.248-0.641,1.732
								c-0.428,0.486-1.025,0.727-1.795,0.727H139.366z"/>
						</g>
						<g>
							<path fill="#FFFFFF" d="M160.462,14.146c-0.686,0-1.281,0.109-1.783,0.326c-0.5,0.218-0.924,0.507-1.268,0.866
								c-0.342,0.36-0.598,0.774-0.766,1.242c-0.166,0.469-0.25,0.946-0.25,1.431c0,0.501,0.084,0.991,0.25,1.469
								c0.168,0.477,0.424,0.895,0.766,1.255c0.344,0.36,0.768,0.653,1.268,0.878c0.502,0.226,1.088,0.338,1.758,0.338h1.809
								c0.416,0,0.777,0.071,1.078,0.213c0.301,0.143,0.553,0.327,0.754,0.553c0.199,0.226,0.352,0.485,0.451,0.778
								s0.15,0.59,0.15,0.891c0,0.654-0.201,1.226-0.602,1.72c-0.402,0.493-1.014,0.739-1.832,0.739h-1.783
								c-1.455,0-2.736-0.246-3.84-0.739c-1.105-0.494-2.021-1.151-2.748-1.97c-0.729-0.82-1.277-1.75-1.645-2.787
								c-0.369-1.037-0.553-2.108-0.553-3.213s0.189-2.196,0.566-3.276c0.375-1.079,0.949-2.037,1.717-2.873
								c0.771-0.837,1.725-1.514,2.863-2.033c1.137-0.518,2.475-0.778,4.016-0.778h1.406c0.4,0,0.756,0.072,1.066,0.214
								c0.309,0.142,0.568,0.331,0.775,0.564c0.211,0.234,0.369,0.499,0.479,0.791c0.109,0.292,0.164,0.599,0.164,0.917
								s-0.055,0.626-0.164,0.929c-0.109,0.301-0.268,0.564-0.479,0.79c-0.207,0.226-0.467,0.411-0.775,0.552
								c-0.311,0.143-0.666,0.213-1.066,0.213H160.462z"/>
						</g>
						<g>
							<path fill="#FFFFFF" d="M174.794,24.512c0,0.804-0.244,1.41-0.729,1.82c-0.486,0.41-1.063,0.615-1.732,0.615
								c-0.652,0-1.217-0.206-1.693-0.615c-0.477-0.41-0.715-1.017-0.715-1.82V14.097h-1.707c-0.771,0-1.369-0.241-1.795-0.724
								c-0.428-0.483-0.641-1.057-0.641-1.724c0-0.666,0.213-1.24,0.641-1.723c0.426-0.482,1.023-0.724,1.795-0.724h8.232
								c0.768,0,1.371,0.242,1.807,0.724c0.436,0.483,0.652,1.057,0.652,1.723c0,0.667-0.217,1.241-0.652,1.724
								s-1.039,0.724-1.807,0.724h-1.656V24.512z"/>
						</g>
						<g>
							<path fill="#FFFFFF" d="M193.19,21.225c0,3.749-1.836,5.622-5.508,5.622h-4.854c-0.402,0-0.754-0.071-1.057-0.213
								c-0.301-0.142-0.553-0.326-0.754-0.552c-0.201-0.226-0.352-0.485-0.453-0.779c-0.1-0.292-0.15-0.598-0.15-0.916
								c0-0.301,0.051-0.598,0.15-0.891c0.102-0.293,0.256-0.552,0.465-0.778s0.467-0.41,0.777-0.553
								c0.311-0.142,0.666-0.213,1.068-0.213h5.07c0.334,0,0.58-0.096,0.738-0.288s0.24-0.398,0.24-0.616
								c0-0.233-0.082-0.451-0.24-0.652c-0.158-0.201-0.404-0.301-0.738-0.301h-2.512c-1.723,0-3.02-0.42-3.891-1.264
								c-0.869-0.843-1.305-2.166-1.305-3.969c0-3.772,1.85-5.659,5.547-5.659h3.916c0.418,0,0.787,0.071,1.104,0.212
								c0.318,0.141,0.586,0.324,0.805,0.549c0.217,0.225,0.379,0.484,0.488,0.775s0.164,0.587,0.164,0.886
								c0,0.3-0.055,0.6-0.164,0.899c-0.109,0.3-0.271,0.567-0.488,0.8c-0.219,0.233-0.49,0.421-0.816,0.562
								s-0.699,0.212-1.117,0.212h-4.217c-0.336,0-0.576,0.096-0.729,0.288c-0.148,0.193-0.225,0.407-0.225,0.641
								c0,0.218,0.076,0.422,0.225,0.615c0.152,0.193,0.396,0.289,0.732,0.289h2.516c1.764,0,3.072,0.426,3.928,1.28
								C192.763,18.062,193.19,19.4,193.19,21.225z"/>
						</g>
					</g>
				</g>
				<g>
					<g>
						<path fill="#FFFFFF" d="M48.69,35.255l1.424-2.755c0.029-0.057,0.068-0.108,0.117-0.155s0.113-0.071,0.193-0.071h0.268
							c0.053,0,0.098,0.019,0.135,0.056c0.037,0.038,0.055,0.083,0.055,0.135v4.554c0,0.051-0.018,0.096-0.055,0.134
							c-0.037,0.038-0.082,0.056-0.135,0.056h-0.289c-0.051,0-0.096-0.019-0.133-0.056c-0.039-0.038-0.057-0.083-0.057-0.134v-3.341
							l-1.1,2.121c-0.037,0.071-0.078,0.126-0.121,0.166c-0.041,0.04-0.098,0.06-0.168,0.06h-0.268c-0.07,0-0.127-0.02-0.17-0.06
							c-0.043-0.04-0.082-0.095-0.119-0.166l-1.1-2.121v3.341c0,0.051-0.02,0.096-0.057,0.134c-0.039,0.038-0.082,0.056-0.135,0.056
							h-0.289c-0.051,0-0.096-0.019-0.133-0.056c-0.039-0.038-0.057-0.083-0.057-0.134v-4.554c0-0.052,0.018-0.097,0.057-0.135
							c0.037-0.037,0.082-0.056,0.133-0.056h0.268c0.08,0,0.146,0.024,0.195,0.071s0.088,0.099,0.115,0.155L48.69,35.255z"/>
					</g>
					<g>
						<path fill="#FFFFFF" d="M52.208,37.208c-0.051,0-0.096-0.019-0.135-0.056c-0.037-0.038-0.055-0.083-0.055-0.134v-3.285
							c0-0.052,0.018-0.096,0.055-0.134c0.039-0.038,0.084-0.057,0.135-0.057h0.262c0.051,0,0.096,0.02,0.133,0.057
							s0.057,0.082,0.057,0.134v0.712h0.762c0.225,0,0.432,0.032,0.617,0.099c0.186,0.065,0.346,0.159,0.479,0.278
							c0.135,0.12,0.238,0.266,0.314,0.437c0.074,0.172,0.111,0.361,0.111,0.568s-0.037,0.396-0.111,0.567
							c-0.076,0.172-0.18,0.318-0.314,0.437c-0.133,0.121-0.293,0.213-0.479,0.279c-0.186,0.066-0.393,0.099-0.617,0.099H52.208z
							 M54.31,35.826c0-0.141-0.025-0.261-0.076-0.359c-0.049-0.099-0.117-0.179-0.203-0.24c-0.086-0.061-0.191-0.105-0.314-0.133
							c-0.121-0.029-0.254-0.042-0.395-0.042h-0.662v1.55h0.662c0.141,0,0.273-0.014,0.395-0.042
							c0.123-0.029,0.229-0.074,0.314-0.134c0.086-0.062,0.154-0.141,0.203-0.24C54.284,36.087,54.31,35.967,54.31,35.826z
							 M55.937,37.018c0,0.051-0.018,0.096-0.055,0.134c-0.039,0.038-0.084,0.056-0.135,0.056h-0.262
							c-0.051,0-0.096-0.019-0.133-0.056c-0.039-0.038-0.057-0.083-0.057-0.134v-3.285c0-0.052,0.018-0.096,0.057-0.134
							c0.037-0.038,0.082-0.057,0.133-0.057h0.262c0.051,0,0.096,0.02,0.135,0.057c0.037,0.038,0.055,0.082,0.055,0.134V37.018z"/>
					</g>
					<g>
						<path fill="#FFFFFF" d="M59.187,35.622c0.02,0.188,0.061,0.348,0.123,0.479s0.141,0.239,0.232,0.324
							c0.092,0.084,0.193,0.147,0.307,0.187s0.229,0.06,0.346,0.06c0.225,0,0.418-0.043,0.578-0.127
							c0.158-0.084,0.285-0.226,0.373-0.423c0.033-0.076,0.068-0.126,0.104-0.151c0.035-0.026,0.078-0.039,0.129-0.039h0.211
							c0.053,0,0.098,0.019,0.139,0.056c0.039,0.038,0.057,0.083,0.053,0.134c-0.004,0.112-0.041,0.236-0.109,0.37
							c-0.068,0.133-0.168,0.259-0.303,0.374c-0.135,0.115-0.299,0.213-0.494,0.292c-0.193,0.08-0.422,0.12-0.68,0.12
							s-0.488-0.042-0.688-0.126c-0.199-0.085-0.369-0.199-0.508-0.345s-0.246-0.317-0.324-0.515s-0.121-0.409-0.131-0.635
							c-0.004-0.074-0.008-0.168-0.01-0.277c-0.002-0.111,0.002-0.206,0.01-0.286c0.02-0.226,0.068-0.437,0.145-0.635
							c0.078-0.198,0.186-0.369,0.322-0.515c0.135-0.145,0.303-0.26,0.5-0.345s0.426-0.127,0.684-0.127s0.486,0.04,0.68,0.12
							c0.195,0.081,0.359,0.177,0.494,0.292c0.135,0.115,0.234,0.24,0.303,0.374c0.068,0.134,0.105,0.257,0.109,0.369
							c0.004,0.052-0.014,0.096-0.053,0.134c-0.041,0.038-0.086,0.056-0.139,0.056h-0.211c-0.051,0-0.094-0.013-0.129-0.038
							c-0.035-0.026-0.07-0.077-0.104-0.152c-0.088-0.197-0.215-0.338-0.373-0.422c-0.16-0.085-0.354-0.128-0.578-0.128
							c-0.117,0-0.234,0.021-0.35,0.061c-0.115,0.04-0.219,0.103-0.311,0.187c-0.09,0.085-0.168,0.193-0.23,0.324
							c-0.064,0.132-0.104,0.292-0.117,0.479C59.173,35.302,59.173,35.467,59.187,35.622z"/>
					</g>
					<g>
						<path fill="#FFFFFF" d="M64.128,33.472c0.252,0,0.479,0.039,0.676,0.116c0.197,0.079,0.367,0.185,0.508,0.321
							c0.141,0.136,0.252,0.302,0.334,0.497c0.084,0.195,0.135,0.407,0.152,0.638c0.004,0.042,0.008,0.092,0.008,0.151
							c0,0.059,0,0.119,0,0.184c0,0.063,0,0.124,0,0.183c0,0.06-0.004,0.107-0.008,0.144c-0.023,0.235-0.074,0.449-0.154,0.642
							c-0.08,0.192-0.191,0.357-0.332,0.493s-0.311,0.244-0.508,0.32c-0.197,0.078-0.424,0.117-0.676,0.117
							c-0.254,0-0.48-0.039-0.678-0.117c-0.197-0.077-0.365-0.184-0.508-0.32c-0.141-0.136-0.252-0.301-0.334-0.493
							c-0.082-0.193-0.133-0.407-0.152-0.642c-0.004-0.037-0.008-0.084-0.01-0.144c-0.004-0.059-0.004-0.119-0.004-0.183
							c0-0.064,0-0.125,0.004-0.184c0.002-0.059,0.006-0.109,0.01-0.151c0.02-0.231,0.07-0.443,0.152-0.638
							c0.082-0.195,0.193-0.361,0.334-0.497c0.143-0.137,0.311-0.243,0.508-0.321C63.647,33.51,63.874,33.472,64.128,33.472z
							 M65.155,35.671c0.01-0.08,0.016-0.177,0.016-0.292c0-0.116-0.006-0.216-0.016-0.3c-0.014-0.141-0.043-0.273-0.09-0.395
							s-0.113-0.228-0.197-0.317c-0.086-0.089-0.189-0.159-0.311-0.212c-0.121-0.051-0.266-0.078-0.43-0.078
							c-0.166,0-0.309,0.027-0.43,0.078c-0.123,0.053-0.227,0.123-0.311,0.212c-0.086,0.089-0.15,0.195-0.197,0.317
							s-0.078,0.254-0.092,0.395c-0.01,0.084-0.014,0.184-0.014,0.3c0,0.115,0.004,0.212,0.014,0.292
							c0.014,0.141,0.045,0.272,0.092,0.395c0.047,0.122,0.111,0.228,0.197,0.317c0.084,0.089,0.188,0.16,0.311,0.211
							c0.121,0.052,0.264,0.078,0.43,0.078c0.164,0,0.309-0.025,0.43-0.078c0.121-0.051,0.225-0.123,0.311-0.211
							c0.084-0.089,0.15-0.195,0.197-0.317C65.112,35.943,65.142,35.812,65.155,35.671z"/>
					</g>
					<g>
						<path fill="#FFFFFF" d="M67.087,36.338c0.08,0.148,0.195,0.241,0.342,0.278c0.148,0.038,0.316,0.056,0.506,0.056
							c0.117,0,0.227-0.008,0.326-0.024c0.102-0.017,0.189-0.043,0.266-0.081c0.074-0.039,0.135-0.09,0.18-0.155
							c0.045-0.066,0.066-0.146,0.066-0.24c0-0.179-0.074-0.307-0.225-0.384c-0.15-0.078-0.336-0.116-0.557-0.116H67.44
							c-0.051,0-0.096-0.019-0.135-0.056c-0.037-0.037-0.055-0.082-0.055-0.134v-0.226c0-0.051,0.018-0.096,0.055-0.134
							c0.039-0.037,0.084-0.057,0.135-0.057h0.557c0.197,0,0.365-0.041,0.504-0.123c0.139-0.082,0.209-0.205,0.209-0.37
							c0-0.173-0.076-0.3-0.227-0.377c-0.15-0.077-0.334-0.117-0.549-0.117c-0.213,0-0.377,0.033-0.494,0.096
							c-0.117,0.063-0.211,0.167-0.283,0.313c-0.023,0.051-0.055,0.097-0.094,0.134s-0.086,0.056-0.139,0.056h-0.211
							c-0.051,0-0.096-0.018-0.137-0.056s-0.059-0.083-0.053-0.134c0.004-0.126,0.039-0.252,0.102-0.374
							c0.064-0.123,0.154-0.232,0.271-0.328c0.117-0.097,0.264-0.173,0.438-0.229c0.174-0.057,0.373-0.085,0.6-0.085
							c0.197,0,0.381,0.022,0.553,0.067s0.32,0.113,0.447,0.205c0.127,0.091,0.229,0.206,0.303,0.341
							c0.076,0.137,0.113,0.298,0.113,0.487c0,0.165-0.029,0.31-0.088,0.437c-0.059,0.127-0.141,0.237-0.244,0.332
							c0.123,0.089,0.219,0.201,0.289,0.334c0.072,0.134,0.105,0.299,0.105,0.497c0,0.207-0.037,0.38-0.115,0.521
							c-0.078,0.141-0.184,0.255-0.318,0.342c-0.133,0.086-0.291,0.148-0.471,0.187c-0.182,0.037-0.373,0.056-0.574,0.056
							c-0.25,0-0.465-0.025-0.646-0.077c-0.18-0.051-0.332-0.12-0.453-0.207c-0.123-0.086-0.215-0.187-0.279-0.301
							c-0.063-0.114-0.098-0.232-0.102-0.354c-0.006-0.051,0.012-0.095,0.053-0.133c0.039-0.037,0.086-0.056,0.137-0.056h0.211
							c0.053,0,0.096,0.013,0.127,0.039C67.015,36.213,67.05,36.264,67.087,36.338z"/>
					</g>
					<g>
						<path fill="#FFFFFF" d="M70.634,33.732c0-0.052,0.018-0.096,0.053-0.134s0.078-0.057,0.131-0.057h1.967
							c0.051,0,0.096,0.02,0.133,0.057s0.057,0.082,0.057,0.134v2.869l0.135,0.007c0.051,0,0.096,0.019,0.133,0.057
							c0.037,0.037,0.057,0.082,0.057,0.133v0.995c0,0.051-0.02,0.096-0.057,0.134c-0.037,0.037-0.082,0.056-0.133,0.056h-0.262
							c-0.053,0-0.096-0.019-0.135-0.056c-0.037-0.038-0.057-0.083-0.057-0.135v-0.585h-2.086v0.585c0,0.052-0.02,0.097-0.057,0.135
							c-0.037,0.037-0.082,0.056-0.133,0.056h-0.262c-0.051,0-0.096-0.019-0.133-0.056c-0.039-0.038-0.057-0.083-0.057-0.135v-1
							c0-0.052,0.018-0.097,0.057-0.134c0.037-0.039,0.082-0.057,0.133-0.057h0.162c0.076,0,0.137-0.019,0.184-0.056
							s0.084-0.089,0.109-0.156c0.025-0.065,0.043-0.139,0.049-0.221c0.008-0.083,0.012-0.17,0.012-0.265V33.732z M72.331,34.148
							h-1.057v1.868c0,0.258-0.045,0.453-0.133,0.584h1.189V34.148z"/>
					</g>
					<g>
						<path fill="#FFFFFF" d="M73.896,36.284c0-0.188,0.039-0.353,0.113-0.494c0.076-0.141,0.18-0.26,0.311-0.359
							c0.131-0.099,0.285-0.179,0.463-0.239c0.176-0.062,0.361-0.108,0.559-0.142l0.994-0.162v-0.092
							c0-0.24-0.078-0.419-0.236-0.539c-0.156-0.121-0.354-0.181-0.588-0.181c-0.207,0-0.363,0.039-0.469,0.113
							c-0.105,0.076-0.195,0.166-0.271,0.269c-0.027,0.038-0.059,0.063-0.092,0.078c-0.033,0.015-0.078,0.021-0.133,0.021h-0.211
							c-0.053,0-0.1-0.019-0.139-0.056c-0.041-0.038-0.057-0.083-0.053-0.134c0.01-0.104,0.051-0.209,0.123-0.317
							c0.072-0.108,0.172-0.205,0.295-0.289c0.125-0.084,0.27-0.154,0.432-0.208c0.162-0.055,0.334-0.082,0.518-0.082
							c0.211,0,0.408,0.03,0.588,0.092c0.182,0.062,0.336,0.151,0.467,0.268c0.129,0.117,0.23,0.263,0.303,0.437
							s0.109,0.373,0.109,0.599v2.15c0,0.051-0.02,0.096-0.057,0.134c-0.037,0.038-0.082,0.056-0.135,0.056h-0.26
							c-0.053,0-0.096-0.019-0.135-0.056c-0.037-0.038-0.057-0.083-0.057-0.134v-0.289c-0.041,0.089-0.107,0.168-0.197,0.235
							c-0.088,0.069-0.191,0.127-0.307,0.173c-0.115,0.047-0.234,0.083-0.359,0.106c-0.125,0.023-0.24,0.035-0.348,0.035
							c-0.184,0-0.354-0.025-0.506-0.077c-0.152-0.051-0.281-0.121-0.387-0.208s-0.188-0.191-0.246-0.314
							C73.927,36.557,73.896,36.425,73.896,36.284z M75.192,36.672c0.17,0,0.326-0.025,0.467-0.078
							c0.141-0.051,0.262-0.123,0.363-0.215c0.102-0.092,0.178-0.201,0.232-0.328c0.053-0.127,0.08-0.268,0.08-0.423v-0.177
							l-0.83,0.135c-0.297,0.047-0.531,0.122-0.707,0.226c-0.174,0.104-0.26,0.237-0.26,0.401c0,0.052,0.012,0.104,0.035,0.156
							c0.023,0.052,0.061,0.101,0.113,0.147c0.051,0.047,0.117,0.084,0.201,0.112C74.97,36.658,75.071,36.672,75.192,36.672z"/>
					</g>
					<g>
						<path fill="#FFFFFF" d="M77.837,35.022c0.018-0.216,0.07-0.418,0.154-0.605c0.086-0.188,0.195-0.353,0.332-0.494
							s0.299-0.25,0.49-0.331s0.402-0.12,0.637-0.12c0.254,0,0.48,0.041,0.682,0.123c0.199,0.083,0.369,0.201,0.51,0.356
							c0.141,0.155,0.25,0.343,0.324,0.564c0.076,0.221,0.113,0.467,0.113,0.74v0.19c0,0.052-0.02,0.096-0.057,0.134
							c-0.037,0.037-0.082,0.056-0.135,0.056h-2.424v0.042c0.01,0.32,0.107,0.565,0.293,0.737c0.186,0.17,0.416,0.257,0.693,0.257
							c0.26,0,0.453-0.036,0.582-0.109c0.129-0.074,0.234-0.154,0.314-0.244c0.037-0.038,0.07-0.063,0.098-0.078
							c0.029-0.014,0.07-0.02,0.127-0.02h0.211c0.053,0,0.1,0.018,0.143,0.056c0.041,0.038,0.059,0.083,0.049,0.135
							c-0.014,0.084-0.055,0.177-0.119,0.278c-0.066,0.101-0.162,0.195-0.287,0.281c-0.125,0.088-0.279,0.161-0.465,0.22
							s-0.402,0.087-0.652,0.087c-0.234,0-0.445-0.041-0.633-0.124c-0.189-0.082-0.352-0.194-0.49-0.338
							c-0.139-0.143-0.25-0.312-0.336-0.507c-0.084-0.195-0.137-0.409-0.154-0.638C77.813,35.455,77.813,35.239,77.837,35.022z
							 M78.464,35.044h1.98v-0.022c0-0.286-0.09-0.515-0.271-0.687c-0.18-0.171-0.422-0.258-0.723-0.258
							c-0.135,0-0.262,0.023-0.381,0.067c-0.117,0.045-0.221,0.109-0.309,0.19c-0.09,0.082-0.16,0.183-0.211,0.3
							c-0.053,0.118-0.082,0.247-0.086,0.387V35.044z"/>
					</g>
					<g>
						<path fill="#FFFFFF" d="M83.737,35.797l1.121-2.114c0.014-0.028,0.041-0.058,0.08-0.091c0.041-0.033,0.1-0.05,0.18-0.05h0.232
							c0.053,0,0.096,0.02,0.135,0.057c0.037,0.038,0.057,0.082,0.057,0.134v3.285c0,0.051-0.02,0.096-0.057,0.134
							c-0.039,0.038-0.082,0.056-0.135,0.056h-0.26c-0.053,0-0.098-0.019-0.135-0.056c-0.037-0.038-0.057-0.083-0.057-0.134v-2.122
							l-0.832,1.536c-0.023,0.042-0.053,0.082-0.088,0.12s-0.088,0.057-0.158,0.057h-0.17c-0.07,0-0.123-0.019-0.158-0.057
							s-0.064-0.077-0.088-0.12l-0.832-1.536v2.122c0,0.051-0.018,0.096-0.057,0.134c-0.037,0.038-0.082,0.056-0.133,0.056h-0.262
							c-0.051,0-0.096-0.019-0.133-0.056c-0.039-0.038-0.057-0.083-0.057-0.134v-3.285c0-0.052,0.018-0.096,0.057-0.134
							c0.037-0.038,0.082-0.057,0.133-0.057h0.232c0.08,0,0.141,0.018,0.18,0.05c0.041,0.033,0.068,0.063,0.082,0.091L83.737,35.797
							z"/>
					</g>
					<g>
						<path fill="#FFFFFF" d="M91.138,37.208c-0.053,0-0.096-0.019-0.135-0.056c-0.037-0.038-0.055-0.083-0.055-0.134v-2.361
							l-2.053,2.473c-0.037,0.052-0.088,0.078-0.154,0.078h-0.24c-0.051,0-0.094-0.019-0.131-0.056
							c-0.035-0.038-0.053-0.083-0.053-0.134v-3.285c0-0.052,0.02-0.096,0.057-0.134s0.082-0.057,0.135-0.057h0.26
							c0.053,0,0.098,0.02,0.135,0.057s0.057,0.082,0.057,0.134v2.383l2.051-2.496c0.023-0.023,0.045-0.042,0.066-0.056
							c0.021-0.015,0.051-0.022,0.088-0.022h0.232c0.053,0,0.098,0.02,0.135,0.057s0.057,0.082,0.057,0.134v3.285
							c0,0.051-0.02,0.096-0.057,0.134c-0.037,0.038-0.082,0.056-0.135,0.056H91.138z"/>
					</g>
					<g>
						<path fill="#FFFFFF" d="M95.726,33.542c0.053,0,0.098,0.02,0.135,0.057s0.057,0.082,0.057,0.134v3.285
							c0,0.051-0.02,0.096-0.057,0.134c-0.037,0.038-0.082,0.056-0.135,0.056h-0.26c-0.053,0-0.096-0.019-0.135-0.056
							c-0.037-0.038-0.055-0.083-0.055-0.134v-1.375h-1.988v1.375c0,0.051-0.02,0.096-0.057,0.134
							c-0.037,0.038-0.082,0.056-0.135,0.056h-0.26c-0.053,0-0.096-0.017-0.135-0.053c-0.037-0.036-0.057-0.081-0.057-0.137v-3.285
							c0-0.052,0.02-0.096,0.057-0.134c0.039-0.038,0.082-0.057,0.135-0.057h0.26c0.053,0,0.098,0.02,0.135,0.057
							s0.057,0.082,0.057,0.134v1.305h1.988v-1.305c0-0.052,0.018-0.096,0.055-0.134c0.039-0.038,0.082-0.057,0.135-0.057H95.726z"
							/>
					</g>
					<g>
						<path fill="#FFFFFF" d="M99.821,33.542c0.051,0,0.096,0.02,0.135,0.057c0.037,0.038,0.057,0.082,0.057,0.134v0.226
							c0,0.052-0.02,0.097-0.057,0.134c-0.039,0.038-0.084,0.057-0.135,0.057h-1.219v2.869c0,0.051-0.02,0.096-0.057,0.134
							c-0.039,0.038-0.082,0.056-0.133,0.056h-0.262c-0.053,0-0.098-0.019-0.135-0.056c-0.037-0.038-0.057-0.083-0.057-0.134v-2.869
							h-1.219c-0.051,0-0.096-0.019-0.133-0.057c-0.039-0.037-0.057-0.082-0.057-0.134v-0.226c0-0.052,0.018-0.096,0.057-0.134
							c0.037-0.038,0.082-0.057,0.133-0.057H99.821z"/>
					</g>
					<g>
						<path fill="#FFFFFF" d="M100.394,35.022c0.018-0.216,0.07-0.418,0.154-0.605c0.084-0.188,0.195-0.353,0.33-0.494
							c0.137-0.141,0.301-0.25,0.49-0.331c0.191-0.081,0.402-0.12,0.639-0.12c0.254,0,0.48,0.041,0.68,0.123
							s0.369,0.201,0.512,0.356c0.141,0.155,0.248,0.343,0.324,0.564c0.074,0.221,0.111,0.467,0.111,0.74v0.19
							c0,0.052-0.018,0.096-0.055,0.134c-0.039,0.037-0.084,0.056-0.135,0.056h-2.424v0.042c0.01,0.32,0.105,0.565,0.293,0.737
							c0.186,0.17,0.416,0.257,0.693,0.257c0.258,0,0.451-0.036,0.582-0.109c0.129-0.074,0.234-0.154,0.313-0.244
							c0.039-0.038,0.07-0.063,0.1-0.078c0.027-0.014,0.07-0.02,0.127-0.02h0.211c0.053,0,0.098,0.018,0.141,0.056
							c0.043,0.038,0.059,0.083,0.049,0.135c-0.014,0.084-0.053,0.177-0.119,0.278s-0.162,0.195-0.285,0.281
							c-0.125,0.088-0.279,0.161-0.465,0.22s-0.404,0.087-0.652,0.087c-0.236,0-0.447-0.041-0.635-0.124
							c-0.188-0.082-0.35-0.194-0.49-0.338c-0.139-0.143-0.25-0.312-0.334-0.507s-0.137-0.409-0.154-0.638
							C100.37,35.455,100.37,35.239,100.394,35.022z M101.021,35.044h1.98v-0.022c0-0.286-0.092-0.515-0.271-0.687
							c-0.182-0.171-0.422-0.258-0.723-0.258c-0.137,0-0.262,0.023-0.381,0.067c-0.117,0.045-0.221,0.109-0.311,0.19
							c-0.088,0.082-0.158,0.183-0.211,0.3c-0.053,0.118-0.08,0.247-0.084,0.387V35.044z"/>
					</g>
					<g>
						<path fill="#FFFFFF" d="M106.222,37.278c-0.291,0-0.523-0.051-0.697-0.151c-0.176-0.102-0.307-0.21-0.395-0.327v1.557
							c0,0.051-0.02,0.096-0.057,0.134s-0.082,0.056-0.135,0.056h-0.26c-0.053,0-0.098-0.019-0.135-0.056s-0.057-0.083-0.057-0.134
							v-4.624c0-0.052,0.02-0.096,0.057-0.134s0.082-0.057,0.135-0.057h0.26c0.053,0,0.098,0.02,0.135,0.057
							s0.057,0.082,0.057,0.134v0.219c0.094-0.127,0.227-0.238,0.4-0.334c0.174-0.096,0.404-0.145,0.691-0.145
							c0.221,0,0.428,0.039,0.617,0.116c0.189,0.079,0.355,0.189,0.496,0.335s0.254,0.322,0.34,0.529
							c0.084,0.207,0.133,0.439,0.146,0.698c0.006,0.07,0.008,0.146,0.008,0.229c0,0.082-0.002,0.158-0.008,0.229
							c-0.014,0.258-0.063,0.491-0.146,0.698c-0.086,0.207-0.199,0.382-0.34,0.525c-0.141,0.144-0.307,0.254-0.496,0.331
							C106.649,37.239,106.442,37.278,106.222,37.278z M105.13,35.071c-0.006,0.071-0.008,0.164-0.008,0.279
							c0,0.115,0.002,0.208,0.008,0.279c0.014,0.333,0.113,0.591,0.299,0.771s0.426,0.271,0.723,0.271
							c0.311,0,0.555-0.099,0.732-0.296c0.18-0.197,0.277-0.465,0.297-0.804c0.004-0.132,0.004-0.263,0-0.395
							c-0.02-0.338-0.117-0.606-0.297-0.804c-0.178-0.197-0.422-0.296-0.732-0.296c-0.291,0-0.531,0.09-0.719,0.269
							S105.144,34.766,105.13,35.071z"/>
					</g>
					<g>
						<path fill="#FFFFFF" d="M111.782,33.542c0.053,0,0.098,0.02,0.135,0.057s0.057,0.082,0.057,0.134v3.285
							c0,0.051-0.02,0.096-0.057,0.134c-0.037,0.038-0.082,0.056-0.135,0.056h-0.26c-0.053,0-0.098-0.019-0.135-0.056
							c-0.037-0.038-0.057-0.083-0.057-0.134v-1.375h-1.986v1.375c0,0.051-0.02,0.096-0.057,0.134
							c-0.039,0.038-0.082,0.056-0.133,0.056h-0.262c-0.053,0-0.098-0.017-0.135-0.053c-0.037-0.036-0.057-0.081-0.057-0.137v-3.285
							c0-0.052,0.02-0.096,0.057-0.134s0.082-0.057,0.135-0.057h0.262c0.051,0,0.094,0.02,0.133,0.057
							c0.037,0.038,0.057,0.082,0.057,0.134v1.305h1.986v-1.305c0-0.052,0.02-0.096,0.057-0.134s0.082-0.057,0.135-0.057H111.782z"
							/>
					</g>
					<g>
						<path fill="#FFFFFF" d="M112.86,35.022c0.02-0.216,0.072-0.418,0.156-0.605c0.084-0.188,0.195-0.353,0.332-0.494
							c0.135-0.141,0.299-0.25,0.488-0.331c0.191-0.081,0.404-0.12,0.639-0.12c0.254,0,0.48,0.041,0.68,0.123
							c0.201,0.083,0.371,0.201,0.512,0.356c0.141,0.155,0.248,0.343,0.324,0.564c0.076,0.221,0.113,0.467,0.113,0.74v0.19
							c0,0.052-0.02,0.096-0.057,0.134c-0.037,0.037-0.082,0.056-0.135,0.056h-2.424v0.042c0.01,0.32,0.107,0.565,0.291,0.737
							c0.188,0.17,0.418,0.257,0.695,0.257c0.258,0,0.453-0.036,0.582-0.109c0.129-0.074,0.234-0.154,0.313-0.244
							c0.039-0.038,0.07-0.063,0.1-0.078c0.027-0.014,0.07-0.02,0.127-0.02h0.211c0.053,0,0.1,0.018,0.141,0.056
							c0.043,0.038,0.059,0.083,0.051,0.135c-0.016,0.084-0.055,0.177-0.121,0.278c-0.064,0.101-0.16,0.195-0.285,0.281
							c-0.123,0.088-0.279,0.161-0.465,0.22s-0.402,0.087-0.652,0.087c-0.234,0-0.445-0.041-0.635-0.124
							c-0.188-0.082-0.352-0.194-0.488-0.338c-0.139-0.143-0.252-0.312-0.336-0.507s-0.137-0.409-0.156-0.638
							C112.837,35.455,112.837,35.239,112.86,35.022z M113.489,35.044h1.98v-0.022c0-0.286-0.09-0.515-0.273-0.687
							c-0.18-0.171-0.42-0.258-0.721-0.258c-0.135,0-0.264,0.023-0.381,0.067c-0.117,0.045-0.221,0.109-0.311,0.19
							c-0.088,0.082-0.158,0.183-0.211,0.3c-0.051,0.118-0.08,0.247-0.084,0.387V35.044z"/>
					</g>
					<g>
						<path fill="#FFFFFF" d="M119.749,33.542c0.051,0,0.096,0.02,0.133,0.057c0.039,0.038,0.057,0.082,0.057,0.134v0.226
							c0,0.052-0.018,0.097-0.057,0.134c-0.037,0.038-0.082,0.057-0.133,0.057h-1.221v2.869c0,0.051-0.018,0.096-0.057,0.134
							c-0.037,0.038-0.082,0.056-0.133,0.056h-0.262c-0.051,0-0.096-0.019-0.133-0.056c-0.039-0.038-0.057-0.083-0.057-0.134v-2.869
							h-1.221c-0.051,0-0.096-0.019-0.133-0.057c-0.037-0.037-0.057-0.082-0.057-0.134v-0.226c0-0.052,0.02-0.096,0.057-0.134
							s0.082-0.057,0.133-0.057H119.749z"/>
					</g>
					<g>
						<path fill="#FFFFFF" d="M124.478,32.252c0,0.165-0.037,0.314-0.109,0.451c-0.072,0.136-0.164,0.269-0.275,0.398
							c-0.109,0.13-0.232,0.261-0.365,0.395c-0.135,0.135-0.266,0.281-0.393,0.441c0.119-0.028,0.248-0.043,0.389-0.043
							c0.234,0,0.451,0.038,0.648,0.113c0.197,0.075,0.367,0.186,0.512,0.332c0.143,0.146,0.254,0.323,0.334,0.532
							c0.08,0.21,0.119,0.448,0.119,0.716c0,0.25-0.039,0.479-0.119,0.688c-0.08,0.209-0.191,0.387-0.334,0.535
							c-0.145,0.148-0.314,0.263-0.512,0.345c-0.197,0.083-0.414,0.124-0.648,0.124c-0.236,0-0.451-0.041-0.648-0.124
							c-0.197-0.082-0.369-0.197-0.512-0.345s-0.256-0.326-0.334-0.535c-0.08-0.208-0.121-0.438-0.121-0.688
							c0-0.362,0.043-0.678,0.127-0.948c0.086-0.27,0.193-0.506,0.32-0.708c0.131-0.202,0.27-0.377,0.418-0.528
							c0.146-0.15,0.285-0.29,0.414-0.416c0.131-0.127,0.236-0.248,0.322-0.364c0.084-0.114,0.127-0.237,0.127-0.369
							c0-0.052,0.018-0.096,0.057-0.134c0.037-0.038,0.08-0.056,0.133-0.056h0.26c0.053,0,0.098,0.019,0.135,0.056
							C124.458,32.156,124.478,32.201,124.478,32.252z M123.724,34.501c-0.33,0-0.574,0.1-0.734,0.299
							c-0.158,0.2-0.238,0.461-0.238,0.786s0.08,0.586,0.238,0.786c0.16,0.2,0.404,0.299,0.734,0.299c0.328,0,0.574-0.1,0.732-0.299
							c0.16-0.2,0.24-0.461,0.24-0.786s-0.08-0.586-0.24-0.786C124.298,34.601,124.052,34.501,123.724,34.501z"/>
					</g>
					<g>
						<path fill="#FFFFFF" d="M129.017,37.208c-0.051,0-0.096-0.019-0.133-0.056c-0.039-0.038-0.057-0.083-0.057-0.134v-2.361
							l-2.051,2.473c-0.039,0.052-0.09,0.078-0.156,0.078h-0.24c-0.051,0-0.094-0.019-0.129-0.056
							c-0.037-0.038-0.053-0.083-0.053-0.134v-3.285c0-0.052,0.018-0.096,0.055-0.134c0.039-0.038,0.084-0.057,0.135-0.057h0.26
							c0.053,0,0.098,0.02,0.135,0.057c0.039,0.038,0.057,0.082,0.057,0.134v2.383l2.051-2.496c0.023-0.023,0.047-0.042,0.066-0.056
							c0.021-0.015,0.051-0.022,0.09-0.022h0.232c0.051,0,0.096,0.02,0.133,0.057s0.057,0.082,0.057,0.134v3.285
							c0,0.051-0.02,0.096-0.057,0.134c-0.037,0.038-0.082,0.056-0.133,0.056H129.017z"/>
					</g>
					<g>
						<path fill="#FFFFFF" d="M130.919,36.338c0.082,0.148,0.193,0.241,0.342,0.278c0.148,0.038,0.318,0.056,0.506,0.056
							c0.117,0,0.227-0.008,0.326-0.024c0.102-0.017,0.189-0.043,0.266-0.081c0.074-0.039,0.135-0.09,0.18-0.155
							c0.045-0.066,0.066-0.146,0.066-0.24c0-0.179-0.074-0.307-0.227-0.384c-0.148-0.078-0.336-0.116-0.555-0.116h-0.551
							c-0.051,0-0.096-0.019-0.133-0.056s-0.057-0.082-0.057-0.134v-0.226c0-0.051,0.02-0.096,0.057-0.134
							c0.037-0.037,0.082-0.057,0.133-0.057h0.557c0.197,0,0.365-0.041,0.504-0.123c0.139-0.082,0.209-0.205,0.209-0.37
							c0-0.173-0.076-0.3-0.225-0.377c-0.152-0.077-0.336-0.117-0.551-0.117c-0.213,0-0.377,0.033-0.494,0.096
							c-0.117,0.063-0.211,0.167-0.281,0.313c-0.023,0.051-0.057,0.097-0.096,0.134s-0.086,0.056-0.137,0.056h-0.213
							c-0.051,0-0.096-0.018-0.137-0.056s-0.057-0.083-0.053-0.134c0.004-0.126,0.039-0.252,0.102-0.374
							c0.064-0.123,0.154-0.232,0.271-0.328c0.117-0.097,0.264-0.173,0.438-0.229c0.174-0.057,0.373-0.085,0.6-0.085
							c0.197,0,0.381,0.022,0.553,0.067s0.32,0.113,0.447,0.205c0.127,0.091,0.229,0.206,0.303,0.341
							c0.076,0.137,0.113,0.298,0.113,0.487c0,0.165-0.029,0.31-0.088,0.437c-0.059,0.127-0.141,0.237-0.242,0.332
							c0.121,0.089,0.217,0.201,0.289,0.334c0.068,0.134,0.105,0.299,0.105,0.497c0,0.207-0.039,0.38-0.117,0.521
							c-0.078,0.141-0.184,0.255-0.316,0.342c-0.135,0.086-0.291,0.148-0.473,0.187c-0.182,0.037-0.373,0.056-0.574,0.056
							c-0.25,0-0.465-0.025-0.646-0.077c-0.18-0.051-0.332-0.12-0.455-0.207c-0.121-0.086-0.213-0.187-0.277-0.301
							s-0.098-0.232-0.102-0.354c-0.006-0.051,0.014-0.095,0.053-0.133c0.039-0.037,0.086-0.056,0.137-0.056h0.213
							c0.051,0,0.094,0.013,0.125,0.039C130.847,36.213,130.882,36.264,130.919,36.338z"/>
					</g>
					<g>
						<path fill="#FFFFFF" d="M137.222,33.542c0.051,0,0.096,0.02,0.135,0.057c0.037,0.038,0.055,0.082,0.055,0.134v3.285
							c0,0.051-0.018,0.096-0.055,0.134c-0.039,0.038-0.084,0.056-0.135,0.056h-0.26c-0.053,0-0.098-0.019-0.135-0.056
							c-0.039-0.038-0.057-0.083-0.057-0.134v-1.375h-1.988v1.375c0,0.051-0.018,0.096-0.057,0.134
							c-0.037,0.038-0.082,0.056-0.135,0.056h-0.26c-0.051,0-0.096-0.017-0.133-0.053c-0.039-0.036-0.057-0.081-0.057-0.137v-3.285
							c0-0.052,0.018-0.096,0.057-0.134c0.037-0.038,0.082-0.057,0.133-0.057h0.26c0.053,0,0.098,0.02,0.135,0.057
							c0.039,0.038,0.057,0.082,0.057,0.134v1.305h1.988v-1.305c0-0.052,0.018-0.096,0.057-0.134
							c0.037-0.038,0.082-0.057,0.135-0.057H137.222z"/>
					</g>
					<g>
						<path fill="#FFFFFF" d="M138.3,35.022c0.02-0.216,0.07-0.418,0.154-0.605c0.086-0.188,0.195-0.353,0.332-0.494
							s0.301-0.25,0.49-0.331c0.191-0.081,0.402-0.12,0.637-0.12c0.254,0,0.482,0.041,0.682,0.123s0.371,0.201,0.512,0.356
							c0.139,0.155,0.248,0.343,0.322,0.564c0.076,0.221,0.113,0.467,0.113,0.74v0.19c0,0.052-0.018,0.096-0.057,0.134
							c-0.037,0.037-0.082,0.056-0.133,0.056h-2.426v0.042c0.01,0.32,0.107,0.565,0.293,0.737c0.186,0.17,0.416,0.257,0.693,0.257
							c0.26,0,0.453-0.036,0.582-0.109c0.131-0.074,0.234-0.154,0.314-0.244c0.037-0.038,0.07-0.063,0.098-0.078
							c0.029-0.014,0.07-0.02,0.127-0.02h0.211c0.053,0,0.1,0.018,0.143,0.056c0.041,0.038,0.059,0.083,0.049,0.135
							c-0.014,0.084-0.055,0.177-0.119,0.278c-0.066,0.101-0.162,0.195-0.285,0.281c-0.125,0.088-0.281,0.161-0.465,0.22
							c-0.188,0.059-0.404,0.087-0.654,0.087c-0.234,0-0.445-0.041-0.633-0.124c-0.188-0.082-0.352-0.194-0.49-0.338
							c-0.139-0.143-0.25-0.312-0.336-0.507c-0.084-0.195-0.135-0.409-0.154-0.638C138.276,35.455,138.276,35.239,138.3,35.022z
							 M138.927,35.044h1.98v-0.022c0-0.286-0.09-0.515-0.271-0.687c-0.18-0.171-0.422-0.258-0.723-0.258
							c-0.135,0-0.262,0.023-0.379,0.067c-0.117,0.045-0.221,0.109-0.311,0.19c-0.09,0.082-0.16,0.183-0.211,0.3
							c-0.053,0.118-0.08,0.247-0.086,0.387V35.044z"/>
					</g>
					<g>
						<path fill="#FFFFFF" d="M142.868,35.622c0.018,0.188,0.061,0.348,0.123,0.479s0.141,0.239,0.232,0.324
							c0.092,0.084,0.193,0.147,0.307,0.187c0.111,0.04,0.229,0.06,0.346,0.06c0.225,0,0.418-0.043,0.578-0.127
							c0.158-0.084,0.283-0.226,0.373-0.423c0.033-0.076,0.066-0.126,0.102-0.151c0.035-0.026,0.08-0.039,0.131-0.039h0.211
							c0.053,0,0.098,0.019,0.139,0.056c0.039,0.038,0.057,0.083,0.051,0.134c-0.004,0.112-0.039,0.236-0.107,0.37
							c-0.068,0.133-0.17,0.259-0.303,0.374c-0.135,0.115-0.299,0.213-0.494,0.292s-0.422,0.12-0.68,0.12
							c-0.26,0-0.488-0.042-0.688-0.126c-0.199-0.085-0.369-0.199-0.508-0.345s-0.246-0.317-0.324-0.515s-0.121-0.409-0.131-0.635
							c-0.004-0.074-0.008-0.168-0.01-0.277c-0.002-0.111,0.002-0.206,0.01-0.286c0.02-0.226,0.066-0.437,0.145-0.635
							c0.078-0.198,0.186-0.369,0.32-0.515c0.137-0.145,0.305-0.26,0.502-0.345s0.424-0.127,0.684-0.127
							c0.258,0,0.484,0.04,0.68,0.12s0.359,0.177,0.494,0.292c0.133,0.115,0.234,0.24,0.303,0.374
							c0.068,0.134,0.104,0.257,0.107,0.369c0.006,0.052-0.012,0.096-0.051,0.134c-0.041,0.038-0.086,0.056-0.139,0.056h-0.211
							c-0.051,0-0.096-0.013-0.131-0.038c-0.035-0.026-0.068-0.077-0.102-0.152c-0.09-0.197-0.215-0.338-0.373-0.422
							c-0.16-0.085-0.354-0.128-0.578-0.128c-0.117,0-0.234,0.021-0.35,0.061c-0.115,0.04-0.219,0.103-0.311,0.187
							c-0.092,0.085-0.168,0.193-0.232,0.324c-0.064,0.132-0.104,0.292-0.115,0.479C142.854,35.302,142.854,35.467,142.868,35.622z"
							/>
					</g>
				</g>
			</g>
		</g>
	</g>
</g>
<g id="Слой_1" display="none" opacity="0.75">
</g>
</svg>
