<?xml version="1.0" encoding="utf-8"?>
<!-- Generator: Adobe Illustrator 16.0.0, SVG Export Plug-In . SVG Version: 6.00 Build 0)  -->
<!DOCTYPE svg PUBLIC "-//W3C//DTD SVG 1.1//EN" "http://www.w3.org/Graphics/SVG/1.1/DTD/svg11.dtd">
<svg version="1.1" xmlns="http://www.w3.org/2000/svg" xmlns:xlink="http://www.w3.org/1999/xlink" x="0px" y="0px" width="240px"
	 height="390px" viewBox="0 0 240 390" enable-background="new 0 0 240 390" xml:space="preserve">
<g id="Слой_2">
	<g>
		<rect fill="#E4C6D2" width="240" height="390"/>
		<g>
			<g>
				<rect x="46.66" y="334.932" fill="#E4C6D2" width="152.439" height="2.488"/>
				<rect x="46.66" y="334.932" fill="none" width="152.439" height="2.488"/>
			</g>
			<path fill="#FFF7E2" d="M97.047,278.033H79.913v4.148h17.134c1.146,0,2.074-0.93,2.074-2.074S98.192,278.033,97.047,278.033"/>
			<path fill="#EE493E" d="M79.429,277.516h17.524c1.399,0,2.539,1.139,2.539,2.539s-1.14,2.539-2.539,2.539H79.429v-0.725h17.524
				c0.999,0,1.813-0.814,1.813-1.814s-0.814-1.813-1.813-1.813H79.429V277.516z"/>
			<rect x="96.8" y="278.246" fill="#EE493E" width="0.195" height="3.617"/>
			<rect x="70.179" y="282.594" fill="#604D81" width="103.889" height="8.424"/>
			<rect x="150.276" y="327.465" fill="#604D81" width="25.686" height="1.836"/>
			<g>
				<g>
					<defs>
						<rect id="SVGID_73_" x="173.427" y="327.465" width="2.535" height="1.836"/>
					</defs>
					<clipPath id="SVGID_2_">
						<use xlink:href="#SVGID_73_"  overflow="visible"/>
					</clipPath>
					<rect x="173.427" y="327.465" clip-path="url(#SVGID_2_)" fill="#7D67A0" width="2.535" height="1.836"/>
				</g>
			</g>
			<g>
				<g>
					<defs>
						<rect id="SVGID_75_" x="150.761" y="327.465" width="2.533" height="1.836"/>
					</defs>
					<clipPath id="SVGID_4_">
						<use xlink:href="#SVGID_75_"  overflow="visible"/>
					</clipPath>
					<rect x="150.761" y="327.465" clip-path="url(#SVGID_4_)" fill="#7D67A0" width="2.533" height="1.836"/>
				</g>
			</g>
			<polygon fill="#604D81" points="176.689,336.805 179.944,336.805 166.488,289 163.233,289.93 			"/>
			<polygon fill="#604D81" points="149.778,336.805 146.522,336.805 159.979,289 163.233,289.93 			"/>
			<rect x="156.351" y="291.018" fill="#ED4036" width="13.901" height="2.557"/>
			<g>
				<g>
					<defs>
						<rect id="SVGID_77_" x="158.452" y="293.574" width="3.735" height="0.848"/>
					</defs>
					<clipPath id="SVGID_6_">
						<use xlink:href="#SVGID_77_"  overflow="visible"/>
					</clipPath>
					<polygon clip-path="url(#SVGID_6_)" fill="#7D67A0" points="162.188,293.574 161.944,294.422 158.452,294.422 158.691,293.574 
											"/>
				</g>
			</g>
			<g>
				<g>
					<defs>
						<rect id="SVGID_79_" x="164.278" y="293.574" width="3.735" height="0.848"/>
					</defs>
					<clipPath id="SVGID_8_">
						<use xlink:href="#SVGID_79_"  overflow="visible"/>
					</clipPath>
					<polygon clip-path="url(#SVGID_8_)" fill="#7D67A0" points="164.278,293.574 164.521,294.422 168.014,294.422 167.774,293.574 
											"/>
				</g>
			</g>
			<rect x="68.284" y="327.465" fill="#604D81" width="25.686" height="1.836"/>
			<g>
				<g>
					<defs>
						<rect id="SVGID_81_" x="68.284" y="327.465" width="2.535" height="1.836"/>
					</defs>
					<clipPath id="SVGID_10_">
						<use xlink:href="#SVGID_81_"  overflow="visible"/>
					</clipPath>
					<rect x="68.284" y="327.465" clip-path="url(#SVGID_10_)" fill="#7D67A0" width="2.535" height="1.836"/>
				</g>
			</g>
			<g>
				<g>
					<defs>
						<rect id="SVGID_83_" x="90.891" y="327.465" width="2.535" height="1.836"/>
					</defs>
					<clipPath id="SVGID_12_">
						<use xlink:href="#SVGID_83_"  overflow="visible"/>
					</clipPath>
					<rect x="90.891" y="327.465" clip-path="url(#SVGID_12_)" fill="#7D67A0" width="2.535" height="1.836"/>
				</g>
			</g>
			<polygon fill="#604D81" points="67.557,336.805 64.302,336.805 77.758,289 81.013,289.93 			"/>
			<polygon fill="#604D81" points="94.468,336.805 97.723,336.805 84.268,289 81.013,289.93 			"/>
			<rect x="73.995" y="291.018" fill="#ED4036" width="13.9" height="2.557"/>
			<g>
				<g>
					<defs>
						<rect id="SVGID_85_" x="82.06" y="293.574" width="3.734" height="0.848"/>
					</defs>
					<clipPath id="SVGID_14_">
						<use xlink:href="#SVGID_85_"  overflow="visible"/>
					</clipPath>
					<polygon clip-path="url(#SVGID_14_)" fill="#7D67A0" points="82.06,293.574 82.302,294.422 85.794,294.422 85.555,293.574 
											"/>
				</g>
			</g>
			<g>
				<g>
					<defs>
						<rect id="SVGID_87_" x="76.233" y="293.574" width="3.734" height="0.848"/>
					</defs>
					<clipPath id="SVGID_16_">
						<use xlink:href="#SVGID_87_"  overflow="visible"/>
					</clipPath>
					<polygon clip-path="url(#SVGID_16_)" fill="#7D67A0" points="79.968,293.574 79.724,294.422 76.233,294.422 76.472,293.574 
											"/>
				</g>
			</g>
			<rect x="59.585" y="235.166" fill="#604D81" width="60.451" height="6.27"/>
			<rect x="142.384" y="200" fill="#FFF7E2" width="29.205" height="42.928"/>
			<path fill="#56C3EE" d="M166.217,216.244c0,5.656-4.585,10.24-10.241,10.24c-5.654,0-10.239-4.584-10.239-10.24
				c0-5.654,4.585-10.24,10.239-10.24C161.632,206.004,166.217,210.59,166.217,216.244"/>
			<rect x="146.957" y="223.664" fill="#FFD144" width="9.019" height="9.02"/>
			<polygon fill="#E060A1" points="168.099,216.244 168.099,230.455 151.467,230.455 			"/>
			<path fill="#56C3EE" d="M170.811,201.092c0,0.285-0.231,0.518-0.517,0.518c-0.286,0-0.518-0.232-0.518-0.518
				s0.231-0.518,0.518-0.518C170.579,200.574,170.811,200.807,170.811,201.092"/>
			<path fill="#56C3EE" d="M144.063,201.092c0,0.285-0.23,0.518-0.517,0.518s-0.517-0.232-0.517-0.518s0.23-0.518,0.517-0.518
				S144.063,200.807,144.063,201.092"/>
			<path fill="#56C3EE" d="M144.063,241.73c0,0.285-0.23,0.516-0.517,0.516s-0.517-0.23-0.517-0.516c0-0.287,0.23-0.518,0.517-0.518
				S144.063,241.443,144.063,241.73"/>
			<path fill="#56C3EE" d="M170.811,241.73c0,0.285-0.231,0.516-0.517,0.516c-0.286,0-0.518-0.23-0.518-0.516
				c0-0.287,0.231-0.518,0.518-0.518C170.579,241.213,170.811,241.443,170.811,241.73"/>
			<polygon fill="#FFFFFF" points="158.64,282.18 147.286,282.18 148.936,271.879 156.991,271.879 			"/>
			<g>
				<g>
					<defs>
						<rect id="SVGID_89_" x="148.398" y="271.879" width="9.13" height="3.223"/>
					</defs>
					<clipPath id="SVGID_18_">
						<use xlink:href="#SVGID_89_"  overflow="visible"/>
					</clipPath>
					<polygon clip-path="url(#SVGID_18_)" fill="#BEBDBE" points="157.528,275.102 156.991,271.879 148.936,271.879 
						148.398,275.102 					"/>
				</g>
			</g>
			<path fill="#404041" d="M179.896,237.736h-53.867c-1.243,0-2.251,1.008-2.251,2.252v31.23c0,1.242,1.008,2.252,2.251,2.252
				h53.867c1.243,0,2.251-1.01,2.251-2.252v-31.23C182.147,238.744,181.14,237.736,179.896,237.736"/>
			<rect x="126.354" y="240.08" fill="#E5E6E7" width="53.217" height="27.971"/>
			<rect x="130.479" y="246.018" fill="#EA7023" width="25.497" height="13.762"/>
			<rect x="130.479" y="246.018" fill="#404041" width="25.497" height="1.066"/>
			<rect x="132.808" y="250.154" fill="#FFFFFF" width="11.256" height="0.641"/>
			<rect x="132.808" y="252.008" fill="#FFFFFF" width="11.256" height="0.639"/>
			<rect x="132.808" y="253.857" fill="#FFFFFF" width="11.256" height="0.639"/>
			<rect x="132.808" y="255.709" fill="#FFFFFF" width="11.256" height="0.639"/>
			<path fill="#FFFFFF" d="M123.778,270.289v0.93c0,1.242,1.008,2.252,2.251,2.252h53.867c1.243,0,2.251-1.01,2.251-2.252v-0.93
				H123.778z"/>
			<g>
				<g>
					<defs>
						<rect id="SVGID_91_" x="147.286" y="281.18" width="11.354" height="1"/>
					</defs>
					<clipPath id="SVGID_20_">
						<use xlink:href="#SVGID_91_"  overflow="visible"/>
					</clipPath>
					<polygon clip-path="url(#SVGID_20_)" fill="#BEBDBE" points="147.411,281.18 147.286,282.178 158.64,282.178 158.515,281.18 
											"/>
				</g>
			</g>
			<rect x="144.043" y="281.777" fill="#FFFFFF" width="17.84" height="0.803"/>
			<g>
				<g>
					<defs>
						<rect id="SVGID_93_" x="144.043" y="282.391" width="17.84" height="0.199"/>
					</defs>
					<clipPath id="SVGID_22_">
						<use xlink:href="#SVGID_93_"  overflow="visible"/>
					</clipPath>
					<rect x="144.043" y="282.391" clip-path="url(#SVGID_22_)" fill="#BEBDBE" width="17.84" height="0.199"/>
				</g>
			</g>
			<path fill="#404041" d="M153.968,271.879c0,0.555-0.45,1.004-1.005,1.004s-1.005-0.449-1.005-1.004
				c0-0.553,0.45-1.004,1.005-1.004S153.968,271.326,153.968,271.879"/>
			
				<rect x="64.766" y="240.869" transform="matrix(0.9989 0.0479 -0.0479 0.9989 11.9505 -3.116)" fill="#FFFFFF" width="12.39" height="13.619"/>
			
				<rect x="65.788" y="242.118" transform="matrix(0.9988 0.0479 -0.0479 0.9988 11.9168 -3.1205)" fill="#26A8DF" width="10.428" height="9.431"/>
			<g>
				<g>
					<defs>
						<rect id="SVGID_95_" x="65.567" y="242.375" width="10.869" height="9.418"/>
					</defs>
					<clipPath id="SVGID_24_">
						<use xlink:href="#SVGID_95_"  overflow="visible"/>
					</clipPath>
					<polygon clip-path="url(#SVGID_24_)" fill="#FFFFFF" points="76.437,242.375 65.567,251.293 75.983,251.793 					"/>
				</g>
			</g>
			<polygon fill="#CAD44E" points="69.763,239.139 70.179,239.363 70.421,238.965 70.871,239.18 71.085,238.789 72.188,242.953 
				71.853,242.695 71.504,243.135 71.079,242.9 70.866,243.303 			"/>
			
				<rect x="82.052" y="240.87" transform="matrix(0.9948 -0.1017 0.1017 0.9948 -24.7249 10.2559)" fill="#FFFFFF" width="12.39" height="13.617"/>
			
				<rect x="82.947" y="242.121" transform="matrix(0.9948 -0.1017 0.1017 0.9948 -24.6441 10.2449)" fill="#EA008A" width="10.429" height="9.43"/>
			<g opacity="0.56">
				<g>
					<defs>
						<rect id="SVGID_97_" x="83.453" y="241.617" width="10.375" height="10.439"/>
					</defs>
					<clipPath id="SVGID_26_">
						<use xlink:href="#SVGID_97_"  overflow="visible"/>
					</clipPath>
					<polygon clip-path="url(#SVGID_26_)" fill="#FFFFFF" points="92.869,241.617 83.453,252.057 93.828,250.996 					"/>
				</g>
			</g>
			<polygon fill="#68A652" points="89.46,238.795 88.998,238.977 88.76,238.549 88.262,238.717 88.055,238.301 86.621,242.363 
				86.999,242.143 87.349,242.621 87.819,242.432 88.027,242.859 			"/>
			
				<rect x="99.339" y="240.869" transform="matrix(0.9989 0.0479 -0.0479 0.9989 11.9893 -4.7724)" fill="#FFFFFF" width="12.391" height="13.619"/>
			
				<rect x="100.36" y="242.119" transform="matrix(0.9988 0.0481 -0.0481 0.9988 12.0025 -4.7953)" fill="#DFB127" width="10.429" height="9.429"/>
			<g>
				<g>
					<defs>
						<rect id="SVGID_99_" x="100.14" y="242.375" width="10.87" height="9.418"/>
					</defs>
					<clipPath id="SVGID_28_">
						<use xlink:href="#SVGID_99_"  overflow="visible"/>
					</clipPath>
					<polygon clip-path="url(#SVGID_28_)" fill="#FFFFFF" points="111.01,242.375 100.14,251.291 110.556,251.793 					"/>
				</g>
			</g>
			<polygon fill="#ED6258" points="107.551,238.795 107.089,238.977 106.851,238.549 106.353,238.717 106.146,238.301 
				104.712,242.363 105.089,242.143 105.439,242.621 105.91,242.432 106.117,242.859 			"/>
			<path fill="#80C68D" d="M74.483,209.859h-8.94c-0.146,0-0.265,0.119-0.265,0.266v24.777c0,0.145,0.119,0.264,0.265,0.264h8.94
				c0.146,0,0.265-0.119,0.265-0.264v-24.777C74.748,209.979,74.629,209.859,74.483,209.859"/>
			<rect x="66.6" y="212.686" fill="#FFF7E2" width="6.827" height="6.402"/>
			<path fill="#9255A0" d="M82.259,215.887h-7.265c-0.136,0-0.246,0.109-0.246,0.246v18.787c0,0.137,0.11,0.246,0.246,0.246h7.265
				c0.136,0,0.246-0.109,0.246-0.246v-18.787C82.505,215.996,82.395,215.887,82.259,215.887"/>
			<path fill="#FFF7E2" d="M79.726,232.4c0,0.607-0.492,1.1-1.1,1.1c-0.606,0-1.099-0.492-1.099-1.1s0.492-1.098,1.099-1.098
				C79.233,231.303,79.726,231.793,79.726,232.4"/>
			<rect x="75.428" y="217.475" fill="#FFF7E2" width="6.397" height="12.646"/>
			
				<rect x="124.374" y="272.121" transform="matrix(0.9807 -0.1956 0.1956 0.9807 -51.7719 29.7812)" fill="#F5911E" width="1.068" height="9.822"/>
			<polygon fill="#D4B792" points="123.418,272.334 123.748,271.313 124.467,272.109 			"/>
			<polygon fill="#404041" points="123.959,271.547 123.748,271.313 123.635,271.664 			"/>
			
				<rect x="128.15" y="272.225" transform="matrix(0.9487 0.3162 -0.3162 0.9487 94.2417 -26.472)" fill="#FFF000" width="1.069" height="9.822"/>
			<polygon fill="#D4B792" points="129.714,272.314 130.506,271.592 130.736,272.639 			"/>
			<polygon fill="#404041" points="130.573,271.898 130.506,271.592 130.234,271.84 			"/>
			<path fill="#404041" d="M130.262,276.52h-6.546c-0.102,0-0.185,0.084-0.185,0.186v6.133c0,0.1,0.083,0.184,0.185,0.184h6.546
				c0.102,0,0.185-0.084,0.185-0.184v-6.133C130.446,276.604,130.363,276.52,130.262,276.52"/>
			<polygon fill="#80CFED" points="104.812,235.166 99.895,235.166 98.598,229.916 106.108,229.916 			"/>
			<g>
				<g>
					<defs>
						<rect id="SVGID_101_" x="98.895" y="231.115" width="6.917" height="1.17"/>
					</defs>
					<clipPath id="SVGID_30_">
						<use xlink:href="#SVGID_101_"  overflow="visible"/>
					</clipPath>
					<polygon clip-path="url(#SVGID_30_)" fill="#EB6166" points="98.895,231.115 99.183,232.285 105.522,232.285 105.812,231.115 
											"/>
				</g>
			</g>
			<rect x="101.786" y="222.793" fill="#895D3B" width="1.135" height="7.123"/>
			<rect x="98.09" y="229.754" fill="#80CFED" width="8.524" height="1.742"/>
			<path fill="#6BBD64" d="M106.221,222.543c0,0-0.344,1.287-1.358,1.906s-2.315,0.336-2.315,0.336s0.344-1.285,1.358-1.904
				S106.221,222.543,106.221,222.543"/>
			<path fill="#6BBD64" d="M106.221,225.01c0,0-0.344,1.287-1.358,1.906s-2.315,0.338-2.315,0.338s0.344-1.287,1.358-1.906
				S106.221,225.01,106.221,225.01"/>
			<path fill="#6BBD64" d="M104.313,219.141c0,0,0.476,1.244,0.017,2.34s-1.678,1.631-1.678,1.631s-0.476-1.242-0.018-2.34
				C103.093,219.676,104.313,219.141,104.313,219.141"/>
			<path fill="#6BBD64" d="M102.348,227.865c0,0-1.29,0.328-2.326-0.256c-1.035-0.582-1.424-1.855-1.424-1.855
				s1.29-0.328,2.326,0.256C101.959,226.592,102.348,227.865,102.348,227.865"/>
			<path fill="#6BBD64" d="M102.348,224.166c0,0-1.29,0.33-2.326-0.254c-1.035-0.584-1.424-1.857-1.424-1.857
				s1.29-0.326,2.326,0.256C101.959,222.893,102.348,224.166,102.348,224.166"/>
			<path fill="#404041" d="M80.17,250.514h10.235c0-2.584-1.917-4.715-4.406-5.061c-0.146-6.352-3.837-9.26-7.279-9.26
				c-3.514,0-7.294,3.018-7.294,9.641v34.576h-3.441v12.789h6.011v-2.182h-3.828v-8.424h5.045v-2.184h-2.336v-34.576
				c0-5.627,3.029-8.189,5.844-8.189c1.501,0,2.906,0.697,3.957,1.967c1.172,1.414,1.812,3.432,1.873,5.844
				C82.074,245.814,80.17,247.939,80.17,250.514"/>
			<rect x="152.442" y="242.248" fill="#29B373" width="25.498" height="13.76"/>
			<rect x="152.442" y="242.248" fill="#404041" width="25.498" height="1.064"/>
			<rect x="151.958" y="251.793" fill="#ED4036" width="13.233" height="13.762"/>
			<rect x="151.958" y="251.793" fill="#404041" width="13.233" height="1.066"/>
			<path fill="#F3F3F3" d="M113.478,274.867h-0.12v-0.836c0-0.328-0.265-0.592-0.591-0.592h-2.485c-0.327,0-0.592,0.264-0.592,0.592
				v0.836h-6.001c-0.691,0-1.252,0.561-1.252,1.254v5.023c0,0.691,0.561,1.254,1.252,1.254h9.789c0.691,0,1.252-0.563,1.252-1.254
				v-5.023C114.729,275.428,114.169,274.867,113.478,274.867"/>
			<rect x="102.437" y="276.428" fill="#404041" width="12.293" height="1.754"/>
			<path fill="#464052" d="M112.843,279.07c0,1.387-1.124,2.51-2.511,2.51c-1.386,0-2.509-1.123-2.509-2.51
				c0-1.385,1.123-2.51,2.509-2.51C111.719,276.561,112.843,277.686,112.843,279.07"/>
			<path fill="#8DCBBD" d="M112.398,279.07c0,1.143-0.924,2.066-2.066,2.066c-1.141,0-2.066-0.924-2.066-2.066
				c0-1.141,0.926-2.066,2.066-2.066C111.475,277.004,112.398,277.93,112.398,279.07"/>
			<path fill="#F3F3F3" d="M110.332,277.34c-0.954,0-1.73,0.777-1.73,1.73c0,0.043,0.035,0.076,0.077,0.076s0.076-0.033,0.076-0.076
				c0-0.869,0.708-1.576,1.577-1.576c0.042,0,0.077-0.035,0.077-0.076C110.409,277.375,110.374,277.34,110.332,277.34"/>
			<rect x="110.265" y="274.006" fill="#464052" width="2.518" height="0.463"/>
			<g>
				<g>
					<defs>
						<rect id="SVGID_103_" x="109.689" y="274.754" width="3.668" height="0.113"/>
					</defs>
					<clipPath id="SVGID_32_">
						<use xlink:href="#SVGID_103_"  overflow="visible"/>
					</clipPath>
					<rect x="109.689" y="274.754" clip-path="url(#SVGID_32_)" fill="#BEBDBE" width="3.668" height="0.113"/>
				</g>
			</g>
			<path fill="#464052" d="M104.459,280.35H103.7c-0.071,0-0.13,0.059-0.13,0.131v0.758c0,0.072,0.059,0.131,0.13,0.131h0.759
				c0.071,0,0.13-0.059,0.13-0.131v-0.758C104.589,280.408,104.53,280.35,104.459,280.35"/>
			<rect x="113.938" y="311.701" fill="#618EC9" width="2.843" height="25.279"/>
			<g opacity="0.7">
				<g>
					<defs>
						<rect id="SVGID_105_" x="113.938" y="311.701" width="2.843" height="1.523"/>
					</defs>
					<clipPath id="SVGID_34_">
						<use xlink:href="#SVGID_105_"  overflow="visible"/>
					</clipPath>
					<rect x="113.938" y="311.701" clip-path="url(#SVGID_34_)" fill="#7D67A0" width="2.843" height="1.523"/>
				</g>
			</g>
			<rect x="130.62" y="311.701" fill="#618EC9" width="2.843" height="25.279"/>
			<g opacity="0.7">
				<g>
					<defs>
						<rect id="SVGID_107_" x="130.62" y="311.701" width="2.843" height="1.523"/>
					</defs>
					<clipPath id="SVGID_36_">
						<use xlink:href="#SVGID_107_"  overflow="visible"/>
					</clipPath>
					<rect x="130.62" y="311.701" clip-path="url(#SVGID_36_)" fill="#7D67A0" width="2.843" height="1.523"/>
				</g>
			</g>
			<rect x="112.308" y="325.736" fill="#618EC9" width="18.313" height="2.297"/>
			<g opacity="0.5">
				<g>
					<defs>
						<rect id="SVGID_109_" x="112.308" y="325.736" width="18.313" height="2.297"/>
					</defs>
					<clipPath id="SVGID_38_">
						<use xlink:href="#SVGID_109_"  overflow="visible"/>
					</clipPath>
					<rect x="112.308" y="325.736" clip-path="url(#SVGID_38_)" fill="#7D67A0" width="18.313" height="2.297"/>
				</g>
			</g>
			<rect x="109.464" y="311.701" fill="#618EC9" width="2.844" height="25.279"/>
			<g opacity="0.7">
				<g>
					<defs>
						<rect id="SVGID_111_" x="109.464" y="311.701" width="2.844" height="1.523"/>
					</defs>
					<clipPath id="SVGID_40_">
						<use xlink:href="#SVGID_111_"  overflow="visible"/>
					</clipPath>
					<rect x="109.464" y="311.701" clip-path="url(#SVGID_40_)" fill="#7D67A0" width="2.844" height="1.523"/>
				</g>
			</g>
			<rect x="126.146" y="311.701" fill="#618EC9" width="2.844" height="25.279"/>
			<g opacity="0.7">
				<g>
					<defs>
						<rect id="SVGID_113_" x="126.146" y="311.701" width="2.844" height="1.523"/>
					</defs>
					<clipPath id="SVGID_42_">
						<use xlink:href="#SVGID_113_"  overflow="visible"/>
					</clipPath>
					<rect x="126.146" y="311.701" clip-path="url(#SVGID_42_)" fill="#7D67A0" width="2.844" height="1.523"/>
				</g>
			</g>
			<rect x="108.681" y="309.145" fill="#FFFFFF" width="26.111" height="2.557"/>
			<path fill="#618EC9" d="M137.957,305.422h-1.955c-4.208,0-7.62-3.412-7.62-7.621l-1.25-15.051c0-2.898-2.351-5.248-5.249-5.248
				h-12.997c-2.9,0-5.25,2.35-5.25,5.248v21.762c0,2.898,2.35,5.248,5.25,5.248h29.071c1.198,0,2.169-0.971,2.169-2.168
				C140.126,306.393,139.155,305.422,137.957,305.422"/>
		</g>
		<rect x="60" y="70" fill="#EF8260" width="120" height="20"/>
		<g>
			<text transform="matrix(1 0 0 1 91.3174 84.248)" fill="#FFFFFF" font-family="'Rubik-Bold'" font-size="12">ГРАФИКА</text>
		</g>
	</g>
</g>
<g id="Слой_1" display="none" opacity="0.75">
</g>
</svg>
