<?xml version="1.0" encoding="utf-8"?>
<!-- Generator: Adobe Illustrator 16.0.0, SVG Export Plug-In . SVG Version: 6.00 Build 0)  -->
<!DOCTYPE svg PUBLIC "-//W3C//DTD SVG 1.1//EN" "http://www.w3.org/Graphics/SVG/1.1/DTD/svg11.dtd">
<svg version="1.1" xmlns="http://www.w3.org/2000/svg" xmlns:xlink="http://www.w3.org/1999/xlink" x="0px" y="0px" width="240px"
	 height="390px" viewBox="0 0 240 390" enable-background="new 0 0 240 390" xml:space="preserve">
<g id="Слой_2">
	<g>
		<rect fill="#B0E07D" width="240" height="390"/>
		<g>
			<path fill="#FFFFFF" d="M117.544,209.48v-3.096H58.925v28.225h3.096v-0.008h52.417v0.008h3.095v-0.008h0.012v-3.098h-0.012
				V209.48H117.544z M114.438,231.504H62.021V209.48h52.417V231.504z"/>
			<polygon fill="#EB6166" points="108.209,231.504 103.293,231.504 101.995,226.256 109.506,226.256 			"/>
			<g>
				<g>
					<defs>
						<rect id="SVGID_61_" x="102.293" y="227.455" width="6.917" height="1.168"/>
					</defs>
					<clipPath id="SVGID_2_">
						<use xlink:href="#SVGID_61_"  overflow="visible"/>
					</clipPath>
					<polygon clip-path="url(#SVGID_2_)" fill="#EB6166" points="102.292,227.455 102.58,228.623 108.922,228.623 109.21,227.455 
											"/>
				</g>
			</g>
			<rect x="105.184" y="219.133" fill="#895D3B" width="1.135" height="7.121"/>
			<rect x="101.488" y="226.094" fill="#EB6166" width="8.525" height="1.742"/>
			<path fill="#6BBD64" d="M106.171,221.094l1.012,0.352c0.449,0.156,0.938-0.082,1.095-0.529c0.155-0.447-0.081-0.938-0.529-1.094
				l-0.324-0.113c-0.448-0.154-0.938,0.082-1.094,0.529l-0.24,0.689C106.066,220.994,106.103,221.07,106.171,221.094
				 M103.982,223.502l-0.324,0.113c-0.447,0.154-0.685,0.645-0.529,1.092c0.156,0.449,0.646,0.686,1.094,0.531l1.014-0.354
				c0.068-0.023,0.104-0.098,0.08-0.164l-0.24-0.689C104.921,223.582,104.431,223.346,103.982,223.502 M104.249,218.266
				l-0.324,0.113c-0.448,0.154-0.686,0.645-0.53,1.092c0.157,0.449,0.646,0.688,1.094,0.531l1.014-0.354
				c0.068-0.023,0.104-0.098,0.08-0.164l-0.24-0.689C105.187,218.346,104.697,218.109,104.249,218.266 M107.998,222.5l-0.277-0.203
				c-0.381-0.281-0.92-0.201-1.201,0.18l-0.433,0.588c-0.043,0.057-0.03,0.139,0.027,0.182l0.863,0.637
				c0.382,0.281,0.919,0.199,1.201-0.182S108.379,222.781,107.998,222.5"/>
			<rect x="66.382" y="213.955" fill="#7FC042" width="4.356" height="17.549"/>
			<rect x="67.135" y="217.264" fill="#E5E6E7" width="2.85" height="3.738"/>
			<rect x="67.135" y="222.012" fill="#E5E6E7" width="2.85" height="0.719"/>
			<g>
				<g>
					<defs>
						<rect id="SVGID_63_" x="66.382" y="230.883" width="4.356" height="0.621"/>
					</defs>
					<clipPath id="SVGID_4_">
						<use xlink:href="#SVGID_63_"  overflow="visible"/>
					</clipPath>
					<rect x="66.382" y="230.883" clip-path="url(#SVGID_4_)" fill="#7FC042" width="4.356" height="0.621"/>
				</g>
			</g>
			<rect x="70.738" y="213.955" fill="#805C9D" width="4.356" height="17.549"/>
			<rect x="71.491" y="217.264" fill="#E5E6E7" width="2.85" height="3.738"/>
			<rect x="71.491" y="222.012" fill="#E5E6E7" width="2.85" height="0.719"/>
			<g>
				<g>
					<defs>
						<rect id="SVGID_65_" x="70.738" y="230.883" width="4.355" height="0.621"/>
					</defs>
					<clipPath id="SVGID_6_">
						<use xlink:href="#SVGID_65_"  overflow="visible"/>
					</clipPath>
					<rect x="70.738" y="230.883" clip-path="url(#SVGID_6_)" fill="#EB6166" width="4.356" height="0.621"/>
				</g>
			</g>
			<g>
				<g>
					<defs>
						<rect id="SVGID_67_" x="56.105" y="334.932" width="131.9" height="2.488"/>
					</defs>
					<clipPath id="SVGID_8_">
						<use xlink:href="#SVGID_67_"  overflow="visible"/>
					</clipPath>
					<rect x="56.105" y="334.932" clip-path="url(#SVGID_8_)" fill="#B0E0EC" width="131.9" height="2.488"/>
				</g>
			</g>
			<rect x="56.105" y="289.738" fill="#FFFFFF" width="131.9" height="5.381"/>
			<polygon fill="#BABCBE" points="183.749,297.76 60.361,297.76 56.105,295.119 188.006,295.119 			"/>
			<rect x="60.473" y="297.76" fill="#BABCBE" width="6.169" height="39.66"/>
			<rect x="177.399" y="297.76" fill="#BABCBE" width="6.169" height="39.66"/>
			<g opacity="0.8">
				<g>
					<defs>
						<rect id="SVGID_69_" x="177.399" y="297.76" width="6.169" height="2.021"/>
					</defs>
					<clipPath id="SVGID_10_">
						<use xlink:href="#SVGID_69_"  overflow="visible"/>
					</clipPath>
					<rect x="177.399" y="297.76" clip-path="url(#SVGID_10_)" fill="#6D6E70" width="6.169" height="2.021"/>
				</g>
			</g>
			<g opacity="0.8">
				<g>
					<defs>
						<rect id="SVGID_71_" x="60.473" y="297.76" width="6.169" height="2.021"/>
					</defs>
					<clipPath id="SVGID_12_">
						<use xlink:href="#SVGID_71_"  overflow="visible"/>
					</clipPath>
					<rect x="60.473" y="297.76" clip-path="url(#SVGID_12_)" fill="#6D6E70" width="6.169" height="2.021"/>
				</g>
			</g>
			<path fill="#EF693B" d="M168.804,217.416c0,6.904-5.599,12.502-12.503,12.502c-6.905,0-12.502-5.598-12.502-12.502
				s5.597-12.502,12.502-12.502C163.205,204.914,168.804,210.512,168.804,217.416"/>
			<path fill="#618EC9" d="M168.804,217.416c0,6.904-5.599,12.502-12.503,12.502c-6.905,0-12.502-5.598-12.502-12.502
				s5.597-12.502,12.502-12.502C163.205,204.914,168.804,210.512,168.804,217.416"/>
			<path fill="#FFFFFF" d="M156.301,203.945c-7.428,0-13.469,6.043-13.469,13.471s6.041,13.471,13.469,13.471
				c7.427,0,13.47-6.043,13.47-13.471S163.728,203.945,156.301,203.945 M156.301,228.951c-6.36,0-11.535-5.174-11.535-11.535
				s5.175-11.535,11.535-11.535s11.535,5.174,11.535,11.535S162.661,228.951,156.301,228.951"/>
			<path fill="#FFFFFF" d="M156.301,203.945c-7.428,0-13.469,6.043-13.469,13.471s6.041,13.471,13.469,13.471
				c7.427,0,13.47-6.043,13.47-13.471S163.728,203.945,156.301,203.945 M156.301,228.951c-6.36,0-11.535-5.174-11.535-11.535
				s5.175-11.535,11.535-11.535s11.535,5.174,11.535,11.535S162.661,228.951,156.301,228.951"/>
			<rect x="155.806" y="207.182" fill="#FFFFFF" width="0.99" height="1.439"/>
			<rect x="165.096" y="216.922" fill="#FFFFFF" width="1.439" height="0.99"/>
			<rect x="155.806" y="226.211" fill="#FFFFFF" width="0.991" height="1.439"/>
			<rect x="146.066" y="216.922" fill="#FFFFFF" width="1.439" height="0.99"/>
			<path fill="#FFFFFF" d="M157.072,217.416c0,0.426-0.346,0.771-0.771,0.771s-0.771-0.346-0.771-0.771s0.345-0.77,0.771-0.77
				S157.072,216.99,157.072,217.416"/>
			<path fill="#FFFFFF" d="M156.301,210.385c-0.157,0-0.284,0.127-0.284,0.283c0,0.09,0.045,0.168,0.11,0.219v6.529h0.349v-6.529
				c0.064-0.051,0.109-0.129,0.109-0.219C156.585,210.512,156.458,210.385,156.301,210.385"/>
			<path fill="#FFFFFF" d="M160.93,217.133c-0.09,0-0.168,0.043-0.219,0.109h-4.41v0.35h4.41c0.051,0.064,0.129,0.109,0.219,0.109
				c0.156,0,0.283-0.127,0.283-0.285C161.213,217.26,161.086,217.133,160.93,217.133"/>
			<path fill="#404041" d="M165.783,279.035l-0.126,0.467c2.847,0.773,3.809,3.457,3.499,5.771
				c-0.191,1.432-0.938,2.943-2.185,3.564h-14.75v-0.334h-2.134v0.334h-1.327v0.877h18.592v-0.539
				c1.179-0.674,2.047-2.066,2.283-3.838C169.973,282.814,168.913,279.887,165.783,279.035"/>
			<rect x="85.521" y="252.441" fill="#E5E6E7" width="12.969" height="13.053"/>
			<path fill="#404041" d="M90.418,261.012c0.852-0.498,1.267-0.748,1.267-1.725c0-1.059-0.484-1.543-1.641-1.543
				c-1.155,0-1.599,0.484-1.626,1.646h0.962c0.021-0.656,0.145-0.857,0.65-0.857c0.512,0,0.664,0.207,0.664,0.803
				c0,0.527-0.117,0.602-0.989,1.156c-0.685,0.436-1.363,0.988-1.363,2.188h3.343v-0.852h-2.118
				C89.719,261.488,89.83,261.357,90.418,261.012 M95.117,260.846v-3.094H94.1c-0.803,0.961-1.432,1.986-1.924,3.037v0.83h1.973
				v1.061h0.969v-1.061h0.554v-0.773H95.117z M94.148,260.846h-1.197c0.339-0.686,0.74-1.322,1.211-1.945L94.148,260.846z"/>
			<path fill="#404041" d="M92.285,245.592c0.051-0.063,0.086-0.141,0.086-0.229c0-0.201-0.163-0.365-0.365-0.365
				c-0.201,0-0.365,0.164-0.365,0.365c0,0.088,0.034,0.166,0.086,0.229l-4.034,7.018l0.224,0.129l4.036-7.02
				c0.019,0.002,0.034,0.01,0.054,0.01s0.037-0.008,0.055-0.01l4.036,7.02l0.224-0.129L92.285,245.592z"/>
			<rect x="85.521" y="252.441" fill="#404041" width="12.969" height="2.582"/>
			<rect x="87.718" y="252.441" fill="#FFFFFF" width="0.687" height="2.082"/>
			<rect x="95.609" y="252.441" fill="#FFFFFF" width="0.686" height="2.082"/>
			
				<rect x="159.641" y="276.4" transform="matrix(0.9565 -0.2918 0.2918 0.9565 -74.366 59.5069)" fill="#EE9CC2" width="5.409" height="5.409"/>
			
				<rect x="160.116" y="277.821" transform="matrix(0.9565 -0.2919 0.2919 0.9565 -74.0774 59.4168)" fill="#FAE3ED" width="3.941" height="0.292"/>
			
				<rect x="160.499" y="279.074" transform="matrix(0.9566 -0.2914 0.2914 0.9566 -74.3065 59.4537)" fill="#FAE3ED" width="3.942" height="0.292"/>
			
				<rect x="160.881" y="280.327" transform="matrix(0.9565 -0.2919 0.2919 0.9565 -74.7756 59.7491)" fill="#FAE3ED" width="3.941" height="0.292"/>
			
				<rect x="65.424" y="291.816" transform="matrix(0.7068 0.7074 -0.7074 0.7068 228.3093 38.15)" fill="#F08D6F" width="5.409" height="5.407"/>
			
				<rect x="67.042" y="293.61" transform="matrix(0.707 0.7072 -0.7072 0.707 227.9756 37.2682)" fill="#FAE3ED" width="3.941" height="0.293"/>
			
				<rect x="66.115" y="294.536" transform="matrix(0.707 0.7072 -0.7072 0.707 228.3588 38.1949)" fill="#FAE3ED" width="3.941" height="0.293"/>
			
				<rect x="65.188" y="295.463" transform="matrix(0.7067 0.7075 -0.7075 0.7067 228.8325 39.1786)" fill="#FAE3ED" width="3.942" height="0.293"/>
			<polygon fill="#404041" points="54.073,287.707 54.073,295.119 56.105,295.119 56.105,289.738 66.173,289.738 66.173,287.707 			
				"/>
			<polygon fill="#404041" points="66.559,242.689 65.19,241.869 52.837,262.494 52.863,262.51 52.837,262.516 58.92,288.527 
				60.473,288.164 54.532,262.766 			"/>
			<path fill="#404041" d="M79.594,247.453L65.2,241.869l-0.967,1.59v12.344c0,0.197,0.212,0.324,0.388,0.232l15.01-7.949
				C79.895,247.947,79.871,247.563,79.594,247.453"/>
			
				<rect x="67.602" y="250.433" transform="matrix(0.9924 -0.1228 0.1228 0.9924 -30.5506 10.5485)" fill="#EE9CC2" width="5.408" height="5.408"/>
			
				<rect x="68.278" y="251.823" transform="matrix(0.9924 -0.1229 0.1229 0.9924 -30.4287 10.5413)" fill="#FAE3ED" width="3.942" height="0.293"/>
			
				<rect x="68.439" y="253.124" transform="matrix(0.9924 -0.1229 0.1229 0.9924 -30.5873 10.5709)" fill="#FAE3ED" width="3.942" height="0.293"/>
			
				<rect x="68.6" y="254.425" transform="matrix(0.9924 -0.1229 0.1229 0.9924 -30.7534 10.6036)" fill="#FAE3ED" width="3.941" height="0.293"/>
			<rect x="172.342" y="249.625" fill="#FFFFFF" width="25.444" height="20.563"/>
			<path fill="#6D6E70" d="M180.211,265.742c0,0.172-0.139,0.311-0.311,0.311c-0.171,0-0.31-0.139-0.31-0.311
				c0-0.17,0.139-0.311,0.31-0.311C180.072,265.432,180.211,265.572,180.211,265.742"/>
			<path fill="#6D6E70" d="M181.264,265.742c0,0.172-0.139,0.311-0.311,0.311c-0.171,0-0.31-0.139-0.31-0.311
				c0-0.17,0.139-0.311,0.31-0.311C181.125,265.432,181.264,265.572,181.264,265.742"/>
			<path fill="#6D6E70" d="M182.172,265.742c0,0.172-0.139,0.311-0.311,0.311c-0.171,0-0.311-0.139-0.311-0.311
				c0-0.17,0.14-0.311,0.311-0.311C182.033,265.432,182.172,265.572,182.172,265.742"/>
			<path fill="#6D6E70" d="M193.401,254.08h-6.601v6.352h6.601V254.08z M193.039,260.068h-5.875v-5.625h5.875V260.068z
				 M193.401,260.887h-6.601v6.35h6.601V260.887z M193.039,266.873h-5.875v-5.625h5.875V266.873z M175.566,268.115h18.996v-16.418
				h-18.996V268.115z M194.199,267.752h-18.271v-14.285h18.271V267.752z M194.199,253.104h-18.271v-1.043h18.271V253.104z
				 M185.245,256.436h-8.602v6.863h8.602V256.436z M184.883,262.938h-7.877v-6.139h7.877V262.938z M181.254,261.027
				c0.617,0,1.12-0.504,1.12-1.121s-0.503-1.121-1.12-1.121s-1.119,0.504-1.119,1.121S180.637,261.027,181.254,261.027
				 M181.254,258.889c0.562,0,1.019,0.457,1.019,1.018c0,0.563-0.457,1.018-1.019,1.018c-0.561,0-1.018-0.455-1.018-1.018
				C180.236,259.346,180.693,258.889,181.254,258.889 M185.063,254.262h-8.238v0.352h8.238V254.262z M180.875,259.283v1.244
				l1.079-0.621L180.875,259.283z"/>
			<polygon fill="#00ACED" points="172.206,253.559 172.252,253.064 171.775,253.193 171.8,252.68 171.343,252.824 174.843,248.711 
				174.734,249.17 175.29,249.092 175.239,249.6 175.707,249.447 			"/>
			<polygon fill="#00ACED" points="194.684,249.16 195.159,249.205 195.035,248.748 195.529,248.771 195.389,248.332 
				199.344,251.697 198.904,251.594 198.979,252.127 198.49,252.078 198.638,252.525 			"/>
			<path fill="#404041" d="M71.234,276.957v12.389c0,0.217,0.177,0.393,0.393,0.393h19.192c0.218,0,0.395-0.176,0.395-0.393v-12.389
				H71.234z"/>
			<rect x="73.652" y="279.375" fill="#58595B" width="15.143" height="7.945"/>
			<rect x="77.726" y="276.957" fill="#58595B" width="6.997" height="1.725"/>
			<path fill="#404041" d="M83.695,267.586h-4.943c-0.333,0-0.602,0.27-0.602,0.602v9.4c0,0.332,0.269,0.602,0.602,0.602h4.943
				c0.332,0,0.602-0.27,0.602-0.602v-9.4C84.297,267.855,84.027,267.586,83.695,267.586"/>
			<rect x="78.698" y="268.992" fill="#8DCBBD" width="5.052" height="7.408"/>
			<path fill="#F3F3F3" d="M82.326,268.574h-2.205c-0.043,0-0.077-0.035-0.077-0.076c0-0.043,0.034-0.076,0.077-0.076h2.205
				c0.043,0,0.078,0.033,0.078,0.076C82.404,268.539,82.369,268.574,82.326,268.574"/>
			<path fill="#F3F3F3" d="M81.549,277.152c0,0.18-0.146,0.324-0.325,0.324s-0.324-0.145-0.324-0.324s0.145-0.324,0.324-0.324
				S81.549,276.973,81.549,277.152"/>
			<path fill="#404041" d="M100.07,282.834L100.07,282.834v-0.66c0-0.303-0.245-0.547-0.547-0.547h-4.584
				c-0.301,0-0.547,0.244-0.547,0.547v7.012c0,0.301,0.246,0.547,0.547,0.547h4.584c0.302,0,0.547-0.246,0.547-0.547v-1.314
				c1.389,0,2.518-1.131,2.518-2.52S101.459,282.834,100.07,282.834 M100.07,287.266L100.07,287.266v-3.828
				c1.056,0,1.913,0.859,1.913,1.914S101.126,287.266,100.07,287.266"/>
			<path fill="#BABCBE" d="M95.58,280.727h0.484v-3.789H95.58V280.727z M96.908,279.678h0.483v-3.586h-0.483V279.678z
				 M98.484,280.744h0.484v-3.787h-0.484V280.744z"/>
			
				<rect x="174.841" y="278.838" transform="matrix(0.9807 -0.1954 0.1954 0.9807 -52.0675 39.7412)" fill="#BC6EAB" width="1.069" height="9.824"/>
			<polygon fill="#D4B792" points="173.885,279.051 174.215,278.031 174.934,278.826 			"/>
			<polygon fill="#404041" points="174.426,278.266 174.215,278.031 174.102,278.381 			"/>
			
				<rect x="178.617" y="278.941" transform="matrix(0.9493 0.3143 -0.3143 0.9493 98.2965 -41.9236)" fill="#EC685F" width="1.069" height="9.824"/>
			<polygon fill="#D4B792" points="180.181,279.031 180.973,278.309 181.203,279.355 			"/>
			<polygon fill="#404041" points="181.04,278.617 180.973,278.309 180.701,278.557 			"/>
			<path fill="#404041" d="M180.729,283.238h-6.546c-0.102,0-0.185,0.082-0.185,0.184v6.133c0,0.102,0.083,0.184,0.185,0.184h6.546
				c0.102,0,0.185-0.082,0.185-0.184v-6.133C180.913,283.32,180.83,283.238,180.729,283.238"/>
			<polygon fill="#FFFFFF" points="143.217,289.338 131.863,289.338 133.512,279.039 141.567,279.039 			"/>
			<g>
				<polygon fill="#BEBDBE" points="142.104,282.26 141.567,279.039 133.511,279.039 132.975,282.26 				"/>
				<rect x="132.975" y="279.039" fill="none" width="9.13" height="3.221"/>
			</g>
			<path fill="#404041" d="M164.473,244.896h-53.866c-1.243,0-2.253,1.008-2.253,2.252v31.229c0,1.244,1.01,2.252,2.253,2.252
				h53.866c1.243,0,2.252-1.008,2.252-2.252v-31.229C166.725,245.904,165.716,244.896,164.473,244.896"/>
			<rect x="110.932" y="247.238" fill="#E5E6E7" width="53.217" height="27.971"/>
			<rect x="115.301" y="254.723" fill="#EE565C" width="30.883" height="18.52"/>
			<polygon fill="#FFFFFF" points="130.24,262.154 133.405,263.982 130.24,265.811 			"/>
			<path fill="#FFFFFF" d="M131.352,260.693c-1.813,0-3.288,1.475-3.288,3.289s1.475,3.289,3.288,3.289
				c1.814,0,3.29-1.475,3.29-3.289S133.166,260.693,131.352,260.693 M131.352,266.973c-1.648,0-2.989-1.342-2.989-2.99
				s1.341-2.99,2.989-2.99c1.649,0,2.992,1.342,2.992,2.99S133.001,266.973,131.352,266.973"/>
			<rect x="115.301" y="272.686" fill="#6D6E70" width="30.883" height="0.557"/>
			<rect x="147.563" y="254.723" fill="#EE565C" width="3.81" height="3.811"/>
			<rect x="147.563" y="259.441" fill="#EE565C" width="3.81" height="3.811"/>
			<rect x="147.563" y="264.16" fill="#EE565C" width="3.81" height="3.811"/>
			<rect x="147.563" y="268.879" fill="#EE565C" width="3.81" height="3.809"/>
			<rect x="152.393" y="255.102" fill="#6D6E70" width="7.436" height="0.764"/>
			<rect x="152.393" y="256.184" fill="#6D6E70" width="7.436" height="0.383"/>
			<rect x="152.393" y="256.881" fill="#6D6E70" width="7.436" height="0.383"/>
			<rect x="152.393" y="259.994" fill="#6D6E70" width="7.436" height="0.762"/>
			<rect x="152.393" y="261.076" fill="#6D6E70" width="7.436" height="0.381"/>
			<rect x="152.393" y="261.773" fill="#6D6E70" width="7.436" height="0.383"/>
			<rect x="152.393" y="264.729" fill="#6D6E70" width="7.436" height="0.764"/>
			<rect x="152.393" y="265.811" fill="#6D6E70" width="7.436" height="0.381"/>
			<rect x="152.393" y="266.51" fill="#6D6E70" width="7.436" height="0.381"/>
			<rect x="152.393" y="269.273" fill="#6D6E70" width="7.436" height="0.762"/>
			<rect x="152.393" y="270.355" fill="#6D6E70" width="7.436" height="0.381"/>
			<rect x="152.393" y="271.053" fill="#6D6E70" width="7.436" height="0.381"/>
			<rect x="115.984" y="251.066" fill="#6D6E70" width="20.579" height="1.133"/>
			<rect x="110.932" y="247.238" fill="#EE565C" width="53.217" height="0.684"/>
			<path fill="#FFFFFF" d="M108.354,277.447v0.93c0,1.244,1.009,2.25,2.251,2.25h53.867c1.244,0,2.252-1.006,2.252-2.25v-0.93
				H108.354z"/>
			<g>
				<polygon fill="#BEBDBE" points="131.988,288.338 131.863,289.338 143.217,289.338 143.091,288.338 				"/>
				<rect x="131.863" y="288.338" fill="none" width="11.354" height="1"/>
			</g>
			<rect x="128.619" y="288.936" fill="#FFFFFF" width="17.841" height="0.803"/>
			<g>
				<rect x="128.619" y="289.549" fill="#BEBDBE" width="17.841" height="0.201"/>
				<rect x="128.619" y="289.549" fill="none" width="17.841" height="0.201"/>
			</g>
			<path fill="#404041" d="M138.544,279.039c0,0.553-0.45,1.004-1.004,1.004c-0.556,0-1.005-0.451-1.005-1.004
				c0-0.555,0.449-1.006,1.005-1.006C138.094,278.033,138.544,278.484,138.544,279.039"/>
			
				<rect x="180.865" y="292.414" transform="matrix(0.9566 -0.2915 0.2915 0.9566 -78.0601 66.3326)" fill="#EE9CC2" width="5.407" height="5.409"/>
			
				<rect x="181.34" y="293.834" transform="matrix(0.9565 -0.2919 0.2919 0.9565 -77.8274 66.3091)" fill="#FAE3ED" width="3.941" height="0.292"/>
			
				<rect x="181.722" y="295.088" transform="matrix(0.9565 -0.2918 0.2918 0.9565 -78.1602 66.4564)" fill="#FAE3ED" width="3.942" height="0.292"/>
			
				<rect x="182.105" y="296.34" transform="matrix(0.9565 -0.2919 0.2919 0.9565 -78.5256 66.6414)" fill="#FAE3ED" width="3.941" height="0.292"/>
			<path fill="#EE565C" d="M125.512,279.402h-18.918c-3.281,0-5.941,2.379-5.941,5.314v7.855c0,2.936,2.66,5.316,5.941,5.316h18.918
				c3.281,0,5.941-2.381,5.941-5.316v-7.855C131.453,281.781,128.793,279.402,125.512,279.402"/>
			<path fill="#EE565C" d="M133.004,310.084h-27.068c-2.283,0-4.134,1.588-4.134,3.547s1.851,3.549,4.134,3.549h27.068
				c2.284,0,4.135-1.59,4.135-3.549S135.288,310.084,133.004,310.084"/>
			<path fill="#404041" d="M117.85,300.523c0.201-0.043,0.355-0.213,0.355-0.426c0-0.248-0.2-0.447-0.445-0.447h-0.815v-2.438
				c0.657-0.328,1.114-1.002,1.114-1.789v-5.941c0-1.107-0.898-2.004-2.006-2.004s-2.005,0.896-2.005,2.004v5.941
				c0,0.787,0.456,1.459,1.113,1.789v2.438h-0.828c-0.246,0-0.445,0.199-0.445,0.447c0,0.213,0.153,0.383,0.355,0.426
				c-0.202,0.043-0.355,0.213-0.355,0.428s0.154,0.387,0.356,0.428c-0.202,0.043-0.356,0.213-0.356,0.428s0.153,0.387,0.355,0.428
				c-0.202,0.043-0.355,0.213-0.355,0.428s0.154,0.387,0.356,0.428c-0.202,0.043-0.356,0.213-0.356,0.428s0.153,0.385,0.355,0.428
				c-0.202,0.043-0.355,0.213-0.355,0.428s0.154,0.385,0.356,0.428c-0.202,0.043-0.356,0.213-0.356,0.428s0.153,0.385,0.355,0.428
				c-0.202,0.043-0.355,0.213-0.355,0.428s0.154,0.387,0.356,0.428c-0.202,0.043-0.356,0.213-0.356,0.428s0.153,0.385,0.355,0.428
				c-0.202,0.043-0.355,0.213-0.355,0.428c0,0.246,0.199,0.445,0.445,0.445h0.828v4.594c0,0.184-0.002,0.363-0.002,0.543
				c-0.016,1.482-0.029,3.016,1.058,4.111c0.553,0.561,1.343,0.938,2.405,1.154v7.824h-1.22v8.404h-6.233
				c-0.27,0-0.535,0.068-0.771,0.199l-3.725,2.066c-0.52,0.287-0.315,1.076,0.278,1.076h26.458c0.594,0,0.798-0.789,0.278-1.076
				l-3.724-2.066c-0.237-0.131-0.502-0.199-0.771-0.199h-6.234v-8.404h-1.218v-7.207h1.417c0.084,0.143,0.232,0.242,0.409,0.242
				h3.292c0.268,0,0.483-0.217,0.483-0.482c0-0.268-0.216-0.484-0.483-0.484h-3.292c-0.177,0-0.325,0.1-0.409,0.242h-1.417v-1.682
				h-0.545v-0.01c-1.904,0-3.154-0.287-3.714-0.852c-0.536-0.541-0.555-1.432-0.542-2.84c0.002-0.186,0.004-0.371,0.004-0.561
				v-4.594h0.815c0.245,0,0.445-0.199,0.445-0.445c0-0.215-0.154-0.385-0.355-0.428c0.201-0.043,0.355-0.213,0.355-0.428
				s-0.154-0.385-0.356-0.428c0.202-0.041,0.356-0.213,0.356-0.428s-0.154-0.385-0.355-0.428c0.201-0.043,0.355-0.213,0.355-0.428
				s-0.154-0.385-0.356-0.428c0.202-0.043,0.356-0.213,0.356-0.428s-0.154-0.385-0.355-0.428c0.201-0.043,0.355-0.213,0.355-0.428
				s-0.154-0.385-0.356-0.428c0.202-0.041,0.356-0.213,0.356-0.428s-0.154-0.385-0.355-0.428c0.201-0.041,0.355-0.213,0.355-0.428
				s-0.154-0.385-0.356-0.428c0.202-0.041,0.356-0.213,0.356-0.428S118.051,300.566,117.85,300.523"/>
		</g>
		<rect x="60" y="70" fill="#EE565C" width="120" height="20"/>
		<g>
			<text transform="matrix(1 0 0 1 79.7373 84.248)" fill="#FFFFFF" font-family="'Rubik-Bold'" font-size="12">ВЕБ-ДИЗАЙН</text>
		</g>
	</g>
</g>
<g id="Слой_1" display="none" opacity="0.75">
</g>
</svg>
