<?xml version="1.0" encoding="utf-8"?>
<!-- Generator: Adobe Illustrator 16.0.0, SVG Export Plug-In . SVG Version: 6.00 Build 0)  -->
<!DOCTYPE svg PUBLIC "-//W3C//DTD SVG 1.1//EN" "http://www.w3.org/Graphics/SVG/1.1/DTD/svg11.dtd">
<svg version="1.1" xmlns="http://www.w3.org/2000/svg" xmlns:xlink="http://www.w3.org/1999/xlink" x="0px" y="0px" width="240px"
	 height="390px" viewBox="0 0 240 390" enable-background="new 0 0 240 390" xml:space="preserve">
<g id="Слой_2">
	<g>
		<rect fill="#B0E0EC" width="240" height="390"/>
		<g>
			<g>
				<rect x="55.515" y="336.029" fill="#B0E0EC" width="131.899" height="2.488"/>
				<rect x="55.514" y="336.029" fill="none" width="131.9" height="2.488"/>
			</g>
			<rect x="62.954" y="289.492" fill="#C2986B" width="117.021" height="6.893"/>
			<rect x="65.802" y="296.166" fill="#C2986B" width="4.805" height="41.639"/>
			<rect x="65.803" y="296.166" fill="#C2986B" width="32.129" height="13.15"/>
			<rect x="72.483" y="298.16" fill="none" stroke="#A77C4F" stroke-miterlimit="10" width="23.675" height="9.162"/>
			<g>
				<rect x="65.803" y="296.385" fill="#C2986B" width="32.129" height="2.016"/>
				<rect x="65.803" y="296.385" fill="none" width="32.13" height="2.016"/>
			</g>
			<rect x="80.71" y="303.918" fill="#A77C4F" width="7.221" height="1"/>
			<rect x="83.517" y="303.918" fill="#754C28" width="1.608" height="1"/>
			<rect x="172.322" y="296.166" fill="#C2986B" width="4.804" height="41.639"/>
			<g>
				<rect x="62.954" y="295.289" fill="#C2986B" width="117.021" height="1.096"/>
				<rect x="62.954" y="295.289" fill="none" width="117.021" height="1.096"/>
			</g>
			<rect x="130.256" y="285.236" fill="#C33F4C" width="30.87" height="4.256"/>
			<polygon fill="#E64959" points="154.695,276.793 136.686,276.793 130.256,285.236 161.125,285.236 			"/>
			<rect x="136.733" y="274.074" fill="#C33F4C" width="17.915" height="2.719"/>
			<rect x="131.317" y="286.99" fill="#CFD1D2" width="28.747" height="1.324"/>
			<path fill="#CFD1D2" d="M135.266,283.143h-1.542c-0.087,0-0.157,0.07-0.157,0.156v0.684c0,0.086,0.07,0.156,0.157,0.156h1.542
				c0.086,0,0.156-0.07,0.156-0.156v-0.684C135.422,283.213,135.352,283.143,135.266,283.143"/>
			<path fill="#CFD1D2" d="M137.505,283.143h-1.542c-0.087,0-0.156,0.07-0.156,0.156v0.684c0,0.086,0.069,0.156,0.156,0.156h1.542
				c0.086,0,0.156-0.07,0.156-0.156v-0.684C137.661,283.213,137.591,283.143,137.505,283.143"/>
			<path fill="#CFD1D2" d="M139.744,283.143h-1.542c-0.087,0-0.157,0.07-0.157,0.156v0.684c0,0.086,0.07,0.156,0.157,0.156h1.542
				c0.086,0,0.156-0.07,0.156-0.156v-0.684C139.9,283.213,139.83,283.143,139.744,283.143"/>
			<path fill="#CFD1D2" d="M141.983,283.143h-1.542c-0.087,0-0.156,0.07-0.156,0.156v0.684c0,0.086,0.069,0.156,0.156,0.156h1.542
				c0.086,0,0.156-0.07,0.156-0.156v-0.684C142.14,283.213,142.069,283.143,141.983,283.143"/>
			<path fill="#CFD1D2" d="M144.223,283.143h-1.541c-0.088,0-0.158,0.07-0.158,0.156v0.684c0,0.086,0.07,0.156,0.158,0.156h1.541
				c0.086,0,0.156-0.07,0.156-0.156v-0.684C144.379,283.213,144.309,283.143,144.223,283.143"/>
			<path fill="#CFD1D2" d="M146.462,283.143h-1.542c-0.087,0-0.156,0.07-0.156,0.156v0.684c0,0.086,0.069,0.156,0.156,0.156h1.542
				c0.086,0,0.156-0.07,0.156-0.156v-0.684C146.618,283.213,146.548,283.143,146.462,283.143"/>
			<path fill="#CFD1D2" d="M148.701,283.143h-1.542c-0.087,0-0.157,0.07-0.157,0.156v0.684c0,0.086,0.07,0.156,0.157,0.156h1.542
				c0.086,0,0.156-0.07,0.156-0.156v-0.684C148.857,283.213,148.787,283.143,148.701,283.143"/>
			<path fill="#CFD1D2" d="M150.94,283.143h-1.542c-0.086,0-0.156,0.07-0.156,0.156v0.684c0,0.086,0.07,0.156,0.156,0.156h1.542
				c0.086,0,0.156-0.07,0.156-0.156v-0.684C151.097,283.213,151.026,283.143,150.94,283.143"/>
			<path fill="#CFD1D2" d="M153.18,283.143h-1.541c-0.088,0-0.158,0.07-0.158,0.156v0.684c0,0.086,0.07,0.156,0.158,0.156h1.541
				c0.087,0,0.157-0.07,0.157-0.156v-0.684C153.337,283.213,153.267,283.143,153.18,283.143"/>
			<path fill="#CFD1D2" d="M155.419,283.143h-1.542c-0.086,0-0.156,0.07-0.156,0.156v0.684c0,0.086,0.07,0.156,0.156,0.156h1.542
				c0.087,0,0.157-0.07,0.157-0.156v-0.684C155.576,283.213,155.506,283.143,155.419,283.143"/>
			<path fill="#CFD1D2" d="M157.658,283.143h-1.542c-0.087,0-0.157,0.07-0.157,0.156v0.684c0,0.086,0.07,0.156,0.157,0.156h1.542
				c0.087,0,0.157-0.07,0.157-0.156v-0.684C157.815,283.213,157.745,283.143,157.658,283.143"/>
			<g>
				<rect x="133.566" y="284.139" fill="#E64959" width="1.855" height="0.16"/>
				<rect x="133.566" y="284.139" fill="none" width="1.855" height="0.16"/>
			</g>
			<g>
				<rect x="135.807" y="284.139" fill="#E64959" width="1.854" height="0.16"/>
				<rect x="135.807" y="284.139" fill="none" width="1.854" height="0.16"/>
			</g>
			<g>
				<rect x="138.045" y="284.139" fill="#E64959" width="1.855" height="0.16"/>
				<rect x="138.045" y="284.139" fill="none" width="1.855" height="0.16"/>
			</g>
			<g>
				<rect x="140.285" y="284.139" fill="#E64959" width="1.854" height="0.16"/>
				<rect x="140.285" y="284.139" fill="none" width="1.854" height="0.16"/>
			</g>
			<g>
				<rect x="142.523" y="284.139" fill="#E64959" width="1.855" height="0.16"/>
				<rect x="142.523" y="284.139" fill="none" width="1.855" height="0.16"/>
			</g>
			<g>
				<rect x="144.764" y="284.139" fill="#E64959" width="1.854" height="0.16"/>
				<rect x="144.764" y="284.139" fill="none" width="1.854" height="0.16"/>
			</g>
			<g>
				<rect x="147.002" y="284.139" fill="#E64959" width="1.855" height="0.16"/>
				<rect x="147.002" y="284.139" fill="none" width="1.855" height="0.16"/>
			</g>
			<g>
				<rect x="149.242" y="284.139" fill="#E64959" width="1.854" height="0.16"/>
				<rect x="149.242" y="284.139" fill="none" width="1.854" height="0.16"/>
			</g>
			<g>
				<rect x="151.48" y="284.139" fill="#E64959" width="1.856" height="0.16"/>
				<rect x="151.481" y="284.139" fill="none" width="1.854" height="0.16"/>
			</g>
			<g>
				<rect x="153.721" y="284.139" fill="#E64959" width="1.855" height="0.16"/>
				<rect x="153.721" y="284.139" fill="none" width="1.854" height="0.16"/>
			</g>
			<g>
				<rect x="155.959" y="284.139" fill="#E64959" width="1.856" height="0.16"/>
				<rect x="155.96" y="284.139" fill="none" width="1.854" height="0.16"/>
			</g>
			<path fill="#CFD1D2" d="M136.385,281.428h-1.542c-0.086,0-0.156,0.072-0.156,0.158v0.684c0,0.086,0.07,0.156,0.156,0.156h1.542
				c0.087,0,0.157-0.07,0.157-0.156v-0.684C136.542,281.5,136.472,281.428,136.385,281.428"/>
			<path fill="#CFD1D2" d="M138.624,281.428h-1.542c-0.086,0-0.156,0.072-0.156,0.158v0.684c0,0.086,0.07,0.156,0.156,0.156h1.542
				c0.087,0,0.157-0.07,0.157-0.156v-0.684C138.781,281.5,138.711,281.428,138.624,281.428"/>
			<path fill="#CFD1D2" d="M140.863,281.428h-1.542c-0.086,0-0.156,0.072-0.156,0.158v0.684c0,0.086,0.07,0.156,0.156,0.156h1.542
				c0.087,0,0.157-0.07,0.157-0.156v-0.684C141.021,281.5,140.95,281.428,140.863,281.428"/>
			<path fill="#CFD1D2" d="M143.104,281.428h-1.543c-0.086,0-0.156,0.072-0.156,0.158v0.684c0,0.086,0.07,0.156,0.156,0.156h1.543
				c0.086,0,0.156-0.07,0.156-0.156v-0.684C143.26,281.5,143.189,281.428,143.104,281.428"/>
			<path fill="#CFD1D2" d="M145.342,281.428H143.8c-0.086,0-0.156,0.072-0.156,0.158v0.684c0,0.086,0.07,0.156,0.156,0.156h1.542
				c0.087,0,0.156-0.07,0.156-0.156v-0.684C145.498,281.5,145.429,281.428,145.342,281.428"/>
			<path fill="#CFD1D2" d="M147.582,281.428h-1.543c-0.086,0-0.156,0.072-0.156,0.158v0.684c0,0.086,0.07,0.156,0.156,0.156h1.543
				c0.086,0,0.156-0.07,0.156-0.156v-0.684C147.738,281.5,147.668,281.428,147.582,281.428"/>
			<path fill="#CFD1D2" d="M149.82,281.428h-1.542c-0.086,0-0.156,0.072-0.156,0.158v0.684c0,0.086,0.07,0.156,0.156,0.156h1.542
				c0.087,0,0.157-0.07,0.157-0.156v-0.684C149.978,281.5,149.907,281.428,149.82,281.428"/>
			<path fill="#CFD1D2" d="M152.061,281.428h-1.543c-0.086,0-0.156,0.072-0.156,0.158v0.684c0,0.086,0.07,0.156,0.156,0.156h1.543
				c0.086,0,0.156-0.07,0.156-0.156v-0.684C152.217,281.5,152.146,281.428,152.061,281.428"/>
			<path fill="#CFD1D2" d="M154.299,281.428h-1.542c-0.086,0-0.155,0.072-0.155,0.158v0.684c0,0.086,0.069,0.156,0.155,0.156h1.542
				c0.088,0,0.157-0.07,0.157-0.156v-0.684C154.456,281.5,154.387,281.428,154.299,281.428"/>
			<path fill="#CFD1D2" d="M156.538,281.428h-1.541c-0.087,0-0.156,0.072-0.156,0.158v0.684c0,0.086,0.069,0.156,0.156,0.156h1.541
				c0.087,0,0.157-0.07,0.157-0.156v-0.684C156.695,281.5,156.625,281.428,156.538,281.428"/>
			<g>
				<rect x="134.687" y="282.426" fill="#E64959" width="1.855" height="0.16"/>
				<rect x="134.687" y="282.426" fill="none" width="1.854" height="0.16"/>
			</g>
			<g>
				<rect x="136.926" y="282.426" fill="#E64959" width="1.855" height="0.16"/>
				<rect x="136.926" y="282.426" fill="none" width="1.855" height="0.16"/>
			</g>
			<g>
				<rect x="139.165" y="282.426" fill="#E64959" width="1.855" height="0.16"/>
				<rect x="139.165" y="282.426" fill="none" width="1.855" height="0.16"/>
			</g>
			<g>
				<rect x="141.404" y="282.426" fill="#E64959" width="1.855" height="0.16"/>
				<rect x="141.404" y="282.426" fill="none" width="1.855" height="0.16"/>
			</g>
			<g>
				<rect x="143.644" y="282.426" fill="#E64959" width="1.854" height="0.16"/>
				<rect x="143.644" y="282.426" fill="none" width="1.854" height="0.16"/>
			</g>
			<g>
				<rect x="145.883" y="282.426" fill="#E64959" width="1.855" height="0.16"/>
				<rect x="145.883" y="282.426" fill="none" width="1.855" height="0.16"/>
			</g>
			<g>
				<rect x="148.122" y="282.426" fill="#E64959" width="1.855" height="0.16"/>
				<rect x="148.122" y="282.426" fill="none" width="1.855" height="0.16"/>
			</g>
			<g>
				<rect x="150.361" y="282.426" fill="#E64959" width="1.855" height="0.16"/>
				<rect x="150.361" y="282.426" fill="none" width="1.855" height="0.16"/>
			</g>
			<g>
				<rect x="152.602" y="282.426" fill="#E64959" width="1.855" height="0.16"/>
				<rect x="152.601" y="282.426" fill="none" width="1.856" height="0.16"/>
			</g>
			<g>
				<rect x="154.84" y="282.426" fill="#E64959" width="1.855" height="0.16"/>
				<rect x="154.84" y="282.426" fill="none" width="1.855" height="0.16"/>
			</g>
			<path fill="#CFD1D2" d="M137.408,279.77h-1.542c-0.086,0-0.156,0.07-0.156,0.156v0.684c0,0.086,0.07,0.156,0.156,0.156h1.542
				c0.087,0,0.157-0.07,0.157-0.156v-0.684C137.565,279.84,137.495,279.77,137.408,279.77"/>
			<path fill="#CFD1D2" d="M139.647,279.77h-1.542c-0.086,0-0.156,0.07-0.156,0.156v0.684c0,0.086,0.07,0.156,0.156,0.156h1.542
				c0.087,0,0.157-0.07,0.157-0.156v-0.684C139.805,279.84,139.734,279.77,139.647,279.77"/>
			<path fill="#CFD1D2" d="M141.888,279.77h-1.542c-0.087,0-0.157,0.07-0.157,0.156v0.684c0,0.086,0.07,0.156,0.157,0.156h1.542
				c0.086,0,0.156-0.07,0.156-0.156v-0.684C142.044,279.84,141.974,279.77,141.888,279.77"/>
			<path fill="#CFD1D2" d="M144.127,279.77h-1.543c-0.086,0-0.156,0.07-0.156,0.156v0.684c0,0.086,0.07,0.156,0.156,0.156h1.543
				c0.086,0,0.156-0.07,0.156-0.156v-0.684C144.283,279.84,144.213,279.77,144.127,279.77"/>
			<path fill="#CFD1D2" d="M146.366,279.77h-1.543c-0.086,0-0.156,0.07-0.156,0.156v0.684c0,0.086,0.07,0.156,0.156,0.156h1.543
				c0.086,0,0.156-0.07,0.156-0.156v-0.684C146.522,279.84,146.452,279.77,146.366,279.77"/>
			<path fill="#CFD1D2" d="M148.605,279.77h-1.543c-0.086,0-0.156,0.07-0.156,0.156v0.684c0,0.086,0.07,0.156,0.156,0.156h1.543
				c0.086,0,0.156-0.07,0.156-0.156v-0.684C148.762,279.84,148.691,279.77,148.605,279.77"/>
			<path fill="#CFD1D2" d="M150.845,279.77h-1.542c-0.086,0-0.156,0.07-0.156,0.156v0.684c0,0.086,0.07,0.156,0.156,0.156h1.542
				c0.087,0,0.156-0.07,0.156-0.156v-0.684C151.001,279.84,150.932,279.77,150.845,279.77"/>
			<path fill="#CFD1D2" d="M153.084,279.77h-1.542c-0.087,0-0.157,0.07-0.157,0.156v0.684c0,0.086,0.07,0.156,0.157,0.156h1.542
				c0.087,0,0.156-0.07,0.156-0.156v-0.684C153.24,279.84,153.171,279.77,153.084,279.77"/>
			<path fill="#CFD1D2" d="M155.323,279.77h-1.542c-0.086,0-0.156,0.07-0.156,0.156v0.684c0,0.086,0.07,0.156,0.156,0.156h1.542
				c0.087,0,0.156-0.07,0.156-0.156v-0.684C155.479,279.84,155.41,279.77,155.323,279.77"/>
			<g>
				<rect x="135.71" y="280.766" fill="#E64959" width="1.855" height="0.16"/>
				<rect x="135.71" y="280.766" fill="none" width="1.854" height="0.16"/>
			</g>
			<g>
				<rect x="137.949" y="280.766" fill="#E64959" width="1.855" height="0.16"/>
				<rect x="137.949" y="280.766" fill="none" width="1.855" height="0.16"/>
			</g>
			<g>
				<rect x="140.188" y="280.766" fill="#E64959" width="1.855" height="0.16"/>
				<rect x="140.188" y="280.766" fill="none" width="1.854" height="0.16"/>
			</g>
			<g>
				<rect x="142.428" y="280.766" fill="#E64959" width="1.855" height="0.16"/>
				<rect x="142.428" y="280.766" fill="none" width="1.855" height="0.16"/>
			</g>
			<g>
				<rect x="144.667" y="280.766" fill="#E64959" width="1.855" height="0.16"/>
				<rect x="144.667" y="280.766" fill="none" width="1.854" height="0.16"/>
			</g>
			<g>
				<rect x="146.906" y="280.766" fill="#E64959" width="1.855" height="0.16"/>
				<rect x="146.906" y="280.766" fill="none" width="1.855" height="0.16"/>
			</g>
			<g>
				<rect x="149.146" y="280.766" fill="#E64959" width="1.854" height="0.16"/>
				<rect x="149.146" y="280.766" fill="none" width="1.854" height="0.16"/>
			</g>
			<g>
				<rect x="151.385" y="280.766" fill="#E64959" width="1.855" height="0.16"/>
				<rect x="151.385" y="280.766" fill="none" width="1.855" height="0.16"/>
			</g>
			<g>
				<rect x="153.625" y="280.766" fill="#E64959" width="1.854" height="0.16"/>
				<rect x="153.625" y="280.766" fill="none" width="1.854" height="0.16"/>
			</g>
			<path fill="#CFD1D2" d="M138.815,278.27h-1.541c-0.087,0-0.156,0.07-0.156,0.156v0.684c0,0.086,0.069,0.156,0.156,0.156h1.541
				c0.087,0,0.157-0.07,0.157-0.156v-0.684C138.973,278.34,138.902,278.27,138.815,278.27"/>
			<path fill="#CFD1D2" d="M141.056,278.27h-1.542c-0.087,0-0.156,0.07-0.156,0.156v0.684c0,0.086,0.069,0.156,0.156,0.156h1.542
				c0.087,0,0.156-0.07,0.156-0.156v-0.684C141.212,278.34,141.143,278.27,141.056,278.27"/>
			<path fill="#CFD1D2" d="M143.295,278.27h-1.542c-0.087,0-0.156,0.07-0.156,0.156v0.684c0,0.086,0.069,0.156,0.156,0.156h1.542
				c0.086,0,0.156-0.07,0.156-0.156v-0.684C143.451,278.34,143.381,278.27,143.295,278.27"/>
			<path fill="#CFD1D2" d="M145.534,278.27h-1.542c-0.087,0-0.156,0.07-0.156,0.156v0.684c0,0.086,0.069,0.156,0.156,0.156h1.542
				c0.087,0,0.156-0.07,0.156-0.156v-0.684C145.69,278.34,145.621,278.27,145.534,278.27"/>
			<path fill="#CFD1D2" d="M147.773,278.27h-1.542c-0.087,0-0.157,0.07-0.157,0.156v0.684c0,0.086,0.07,0.156,0.157,0.156h1.542
				c0.086,0,0.156-0.07,0.156-0.156v-0.684C147.93,278.34,147.859,278.27,147.773,278.27"/>
			<path fill="#CFD1D2" d="M150.013,278.27h-1.541c-0.088,0-0.157,0.07-0.157,0.156v0.684c0,0.086,0.069,0.156,0.157,0.156h1.541
				c0.086,0,0.156-0.07,0.156-0.156v-0.684C150.169,278.34,150.099,278.27,150.013,278.27"/>
			<path fill="#CFD1D2" d="M152.252,278.27h-1.542c-0.087,0-0.156,0.07-0.156,0.156v0.684c0,0.086,0.069,0.156,0.156,0.156h1.542
				c0.086,0,0.157-0.07,0.157-0.156v-0.684C152.409,278.34,152.338,278.27,152.252,278.27"/>
			<path fill="#CFD1D2" d="M154.491,278.27h-1.542c-0.086,0-0.156,0.07-0.156,0.156v0.684c0,0.086,0.07,0.156,0.156,0.156h1.542
				c0.087,0,0.157-0.07,0.157-0.156v-0.684C154.648,278.34,154.578,278.27,154.491,278.27"/>
			<g>
				<rect x="137.118" y="279.283" fill="#E64959" width="1.854" height="0.16"/>
				<rect x="137.117" y="279.283" fill="none" width="1.855" height="0.16"/>
			</g>
			<g>
				<rect x="139.357" y="279.283" fill="#E64959" width="1.854" height="0.16"/>
				<rect x="139.356" y="279.283" fill="none" width="1.856" height="0.16"/>
			</g>
			<g>
				<rect x="141.597" y="279.283" fill="#E64959" width="1.854" height="0.16"/>
				<rect x="141.596" y="279.283" fill="none" width="1.855" height="0.16"/>
			</g>
			<g>
				<rect x="143.836" y="279.283" fill="#E64959" width="1.854" height="0.16"/>
				<rect x="143.835" y="279.283" fill="none" width="1.856" height="0.16"/>
			</g>
			<g>
				<rect x="146.074" y="279.283" fill="#E64959" width="1.855" height="0.16"/>
				<rect x="146.075" y="279.283" fill="none" width="1.855" height="0.16"/>
			</g>
			<g>
				<rect x="148.314" y="279.283" fill="#E64959" width="1.854" height="0.16"/>
				<rect x="148.314" y="279.283" fill="none" width="1.855" height="0.16"/>
			</g>
			<g>
				<rect x="150.554" y="279.283" fill="#E64959" width="1.855" height="0.16"/>
				<rect x="150.554" y="279.283" fill="none" width="1.855" height="0.16"/>
			</g>
			<g>
				<rect x="152.793" y="279.283" fill="#E64959" width="1.855" height="0.16"/>
				<rect x="152.793" y="279.283" fill="none" width="1.855" height="0.16"/>
			</g>
			<polygon fill="#E64959" points="155.491,272.215 155.491,273.047 154.968,273.047 154.968,272.094 135.255,272.094 
				135.255,273.047 134.731,273.047 134.731,272.215 134.235,272.215 134.235,274.385 134.731,274.385 134.731,273.703 
				135.255,273.703 135.255,274.766 154.968,274.766 154.968,273.703 155.491,273.703 155.491,274.385 155.986,274.385 
				155.986,272.215 			"/>
			<g>
				<rect x="138.408" y="272.094" fill="#E64959" width="14.668" height="2.672"/>
				<rect x="138.408" y="272.094" fill="none" width="14.668" height="2.672"/>
			</g>
			<rect x="138.877" y="262.541" fill="#FFF7E2" width="13.725" height="12.225"/>
			<rect x="142.38" y="264.484" fill="#58595B" width="6.718" height="0.518"/>
			<rect x="140.333" y="265.584" fill="#58595B" width="10.813" height="0.26"/>
			<rect x="140.333" y="266.361" fill="#58595B" width="10.813" height="0.26"/>
			<rect x="140.333" y="267.139" fill="#58595B" width="10.813" height="0.26"/>
			<rect x="140.333" y="267.916" fill="#58595B" width="10.813" height="0.258"/>
			<rect x="140.333" y="268.693" fill="#58595B" width="10.813" height="0.26"/>
			<rect x="140.333" y="269.471" fill="#58595B" width="10.813" height="0.26"/>
			<rect x="140.333" y="270.248" fill="#58595B" width="10.813" height="0.26"/>
			<rect x="140.333" y="271.025" fill="#58595B" width="10.813" height="0.26"/>
			<rect x="140.333" y="271.801" fill="#58595B" width="10.813" height="0.26"/>
			<rect x="140.333" y="272.58" fill="#58595B" width="10.813" height="0.258"/>
			<g>
				<rect x="131.317" y="288.324" fill="#E64959" width="28.747" height="0.27"/>
				<rect x="131.317" y="288.324" fill="none" width="28.747" height="0.27"/>
			</g>
			<g>
				<rect x="130.256" y="289.203" fill="#E64959" width="30.87" height="0.26"/>
				<rect x="130.256" y="289.203" fill="none" width="30.87" height="0.26"/>
			</g>
			<rect x="125.777" y="227.422" fill="#C2986B" width="55.822" height="3.83"/>
			<path fill="#7279B3" d="M178.447,205.262h-4.926c-0.041,0-0.075,0.035-0.075,0.076v22.008c0,0.043,0.034,0.076,0.075,0.076h4.926
				c0.042,0,0.076-0.033,0.076-0.076v-22.008C178.523,205.297,178.489,205.262,178.447,205.262"/>
			<rect x="175.135" y="209.842" fill="#CFD1D2" width="1.838" height="12.863"/>
			<rect x="173.748" y="207.861" fill="#CFD1D2" width="4.353" height="0.303"/>
			<rect x="173.791" y="224.482" fill="#CFD1D2" width="4.352" height="0.303"/>
			<path fill="#9D1F63" d="M172.193,205.262h-4.82c-0.07,0-0.129,0.059-0.129,0.129v21.902c0,0.072,0.059,0.129,0.129,0.129h4.82
				c0.07,0,0.129-0.057,0.129-0.129v-21.902C172.322,205.32,172.264,205.262,172.193,205.262"/>
			<rect x="168.933" y="209.842" fill="#CFD1D2" width="1.839" height="12.863"/>
			<rect x="167.547" y="207.861" fill="#CFD1D2" width="4.352" height="0.303"/>
			<rect x="167.588" y="224.482" fill="#CFD1D2" width="4.353" height="0.303"/>
			<path fill="#F0F0F1" d="M110.72,219.152H81.597c-3.121,0-5.66,2.539-5.66,5.66v12.879c0,3.121,2.539,5.658,5.66,5.658h29.123
				c3.12,0,5.659-2.537,5.659-5.658v-12.879C116.379,221.691,113.84,219.152,110.72,219.152 M114.445,237.691
				c0,2.055-1.672,3.725-3.726,3.725H81.597c-2.054,0-3.726-1.67-3.726-3.725v-12.879c0-2.055,1.672-3.725,3.726-3.725h29.123
				c2.054,0,3.726,1.67,3.726,3.725V237.691z"/>
			<path fill="#F9C579" d="M110.72,221.088H81.596c-2.053,0-3.725,1.67-3.725,3.725v12.879c0,2.055,1.672,3.725,3.725,3.725h29.124
				c2.054,0,3.726-1.67,3.726-3.725v-12.879C114.445,222.758,112.773,221.088,110.72,221.088"/>
			<path fill="#716558" d="M107.32,231.252l-6.805,7.332l-3.29-4.199l-4.461,4.461l-4.834-6.314l-9.779,6.574
				c0.559,1.354,1.892,2.313,3.445,2.313h29.123c1.89,0,3.452-1.416,3.69-3.242L107.32,231.252z"/>
			<path fill="#EF805B" d="M108.207,225.246c0,1.395-1.13,2.525-2.524,2.525c-1.394,0-2.524-1.131-2.524-2.525
				s1.131-2.523,2.524-2.523C107.077,222.723,108.207,223.852,108.207,225.246"/>
			<path fill="#FFFFFF" d="M89.822,225.793h-2.781c-0.442,0-0.813,0.291-0.939,0.695h-1.44c-0.546,0-0.988,0.441-0.988,0.988
				s0.442,0.99,0.988,0.99h2.781c0.443,0,0.813-0.295,0.939-0.695h1.44c0.546,0,0.989-0.443,0.989-0.99
				S90.368,225.793,89.822,225.793"/>
			<path fill="#FFFFFF" d="M102.124,227.008h-2.074c0.009-0.053,0.016-0.105,0.016-0.16c0-0.547-0.442-0.99-0.989-0.99h-2.78
				c-0.443,0-0.813,0.293-0.94,0.695h-1.439c-0.547,0-0.99,0.443-0.99,0.988c0,0.549,0.443,0.99,0.99,0.99h2.781
				c0.442,0,0.813-0.293,0.939-0.693h0.734c-0.009,0.051-0.017,0.104-0.017,0.158c0,0.547,0.442,0.99,0.989,0.99h2.78
				c0.548,0,0.99-0.443,0.99-0.99C103.114,227.451,102.672,227.008,102.124,227.008"/>
			<path fill="#58595B" d="M114.274,263.42v-7.465c0.3,0,0.542-0.242,0.542-0.543c0-0.299-0.242-0.543-0.542-0.543h-3.275
				c-0.3,0-0.542,0.244-0.542,0.543c0,0.301,0.242,0.543,0.542,0.543v7.465c-1.45,0.494-2.526,2.338-2.526,4.537v20.244
				c0,0.713,0.376,1.291,0.84,1.291h6.648c0.465,0,0.84-0.578,0.84-1.291v-20.244C116.801,265.758,115.725,263.914,114.274,263.42"
				/>
			<rect x="108.473" y="271.025" fill="#FFF7E2" width="8.328" height="12.615"/>
			
				<rect x="108.961" y="273.508" transform="matrix(0.9629 -0.2699 0.2699 0.9629 -69.7484 40.573)" fill="#90528F" width="7.351" height="0.724"/>
			<path fill="#90528F" d="M114.63,278.768c0,1.102-0.893,1.992-1.993,1.992s-1.992-0.891-1.992-1.992s0.892-1.992,1.992-1.992
				S114.63,277.666,114.63,278.768"/>
			<path fill="#C3628F" d="M84.32,272.604c-1.196,0-2.301-0.484-3.111-1.365c-0.796-0.865-1.188-1.984-1.105-3.154l0.201-0.771
				c1.15-0.107,3.171-0.268,4.852-0.268c1.195,0,1.792,0.082,2.082,0.152c0.35,0.084,0.725,0.146,1.117,0.186l0.182,0.701
				c0.082,1.17-0.309,2.289-1.104,3.154C86.622,272.119,85.518,272.604,84.32,272.604"/>
			<g opacity="0.49">
				<path fill="#F0F0F1" d="M89.266,267.744l-1.406-5.414h-7.077l-1.406,5.414c-0.226,2.697,1.743,5.035,4.363,5.34v5.857h-1.954
					c-0.431,0-0.778,0.35-0.778,0.777h6.628c0-0.428-0.349-0.777-0.778-0.777h-1.954v-5.857
					C87.522,272.779,89.491,270.441,89.266,267.744"/>
				<rect x="79.358" y="262.33" fill="none" width="9.925" height="17.389"/>
			</g>
			<polygon fill="#7D4A66" points="146.474,241.436 146.474,247.533 148.016,247.533 148.016,242.977 172.339,242.977 
				172.339,288.693 173.686,288.693 173.686,241.436 			"/>
			<rect x="166.05" y="287.652" fill="#7D4A66" width="13.925" height="1.84"/>
			<g>
				<rect x="166.05" y="289.182" fill="#7D4A66" width="13.925" height="0.307"/>
				<rect x="166.051" y="289.182" fill="none" width="13.924" height="0.307"/>
			</g>
			<rect x="139.869" y="246.352" fill="#7D4A66" width="14.75" height="1.441"/>
			<polygon fill="#7D4A66" points="132.89,254.148 161.6,254.148 154.62,247.275 139.869,247.275 			"/>
			<g>
				<rect x="139.869" y="247.072" fill="#7D4A66" width="14.75" height="0.203"/>
				<rect x="139.869" y="247.072" fill="none" width="14.75" height="0.203"/>
			</g>
			<path fill="#58595B" d="M128.078,219.855v7.162c0,0.219,0.176,0.395,0.393,0.395h19.192c0.218,0,0.394-0.176,0.394-0.395v-7.162
				c0-0.217-0.176-0.395-0.394-0.395h-19.192C128.254,219.461,128.078,219.639,128.078,219.855"/>
			<rect x="130.193" y="221.209" fill="#BABCBE" width="15.748" height="4.605"/>
			<rect x="134.736" y="226.205" fill="#A5A7AA" width="6.662" height="0.666"/>
			<path fill="#E5E6E7" d="M140.539,215.936h-4.943c-0.333,0-0.602,0.27-0.602,0.602v9.4c0,0.332,0.269,0.602,0.602,0.602h4.943
				c0.332,0,0.602-0.27,0.602-0.602v-9.4C141.141,216.205,140.871,215.936,140.539,215.936"/>
			<rect x="135.542" y="217.342" fill="#8DCBBD" width="5.051" height="7.406"/>
			<path fill="#A5A7AA" d="M139.17,216.924h-2.205c-0.044,0-0.077-0.035-0.077-0.076c0-0.043,0.033-0.078,0.077-0.078h2.205
				c0.043,0,0.078,0.035,0.078,0.078C139.248,216.889,139.213,216.924,139.17,216.924"/>
			<path fill="#A5A7AA" d="M138.393,225.502c0,0.18-0.146,0.324-0.326,0.324c-0.178,0-0.323-0.145-0.323-0.324
				s0.146-0.324,0.323-0.324C138.246,225.178,138.393,225.322,138.393,225.502"/>
			
				<rect x="128.361" y="232.511" transform="matrix(0.9971 0.0767 -0.0767 0.9971 18.4842 -9.4119)" fill="#EF5A28" width="6.798" height="6.797"/>
			
				<rect x="129.502" y="234.274" transform="matrix(0.997 0.0769 -0.0769 0.997 18.4188 -9.4541)" fill="#FAE3ED" width="4.953" height="0.368"/>
			
				<rect x="129.376" y="235.915" transform="matrix(0.9971 0.0765 -0.0765 0.9971 18.4444 -9.3932)" fill="#FAE3ED" width="4.954" height="0.368"/>
			
				<rect x="129.25" y="237.559" transform="matrix(0.997 0.0769 -0.0769 0.997 18.6668 -9.4232)" fill="#FAE3ED" width="4.954" height="0.366"/>
			<polygon fill="#F9AE40" points="134.206,229.338 134.275,229.934 134.806,229.662 134.904,230.275 135.409,229.988 
				132.301,235.727 132.313,235.158 131.678,235.391 131.611,234.777 131.098,235.076 			"/>
			
				<rect x="160.223" y="232.232" transform="matrix(0.9641 -0.2655 0.2655 0.9641 -56.6853 51.8952)" fill="#EF5A28" width="6.798" height="6.798"/>
			
				<rect x="160.86" y="234.008" transform="matrix(0.9642 -0.2653 0.2653 0.9642 -56.2846 51.7335)" fill="#FAE3ED" width="4.954" height="0.367"/>
			
				<rect x="161.298" y="235.596" transform="matrix(0.9641 -0.2654 0.2654 0.9641 -56.6999 51.9179)" fill="#FAE3ED" width="4.953" height="0.367"/>
			
				<rect x="161.734" y="237.184" transform="matrix(0.9642 -0.2653 0.2653 0.9642 -57.0959 52.0792)" fill="#FAE3ED" width="4.954" height="0.367"/>
			<polygon fill="#F9AE40" points="161.028,229.457 161.487,229.844 161.688,229.281 162.181,229.66 162.352,229.107 
				164.021,235.416 163.643,234.992 163.337,235.596 162.869,235.195 162.699,235.766 			"/>
			<path fill="#FFF7E2" d="M75.929,289.01h17.134v-4.146H75.929c-1.146,0-2.073,0.928-2.073,2.074
				C73.855,288.082,74.783,289.01,75.929,289.01"/>
			<path fill="#007E7E" d="M93.548,289.527H76.022c-1.399,0-2.538-1.137-2.538-2.537s1.139-2.539,2.538-2.539h17.525v0.725H76.022
				c-0.999,0-1.813,0.814-1.813,1.814s0.814,1.813,1.813,1.813h17.525V289.527z"/>
			<rect x="75.826" y="285.188" fill="#E0509B" width="0.196" height="3.615"/>
			<path fill="#FFF7E2" d="M90.103,279.906H72.969v4.146h17.134c1.145,0,2.073-0.928,2.073-2.074
				C92.176,280.834,91.247,279.906,90.103,279.906"/>
			<path fill="#007E7E" d="M72.483,279.389h17.524c1.4,0,2.539,1.139,2.539,2.539c0,1.398-1.139,2.539-2.539,2.539H72.483v-0.727
				h17.524c1,0,1.813-0.813,1.813-1.813s-0.813-1.814-1.813-1.814H72.483V279.389z"/>
			<rect x="89.854" y="280.119" fill="#E0509B" width="0.196" height="3.615"/>
			<rect x="116.085" y="307.85" fill="#FFF7E2" width="2.651" height="31.215"/>
			<rect x="105.977" y="283.932" fill="#EF8462" width="20.216" height="4.568"/>
			<rect x="105.977" y="291.895" fill="#EF8462" width="20.216" height="4.568"/>
			<rect x="105.977" y="299.859" fill="#EF8462" width="20.216" height="4.568"/>
			<rect x="105.977" y="307.85" fill="#EF8462" width="33.104" height="4.566"/>
			<rect x="103.354" y="281.174" fill="#FFF7E2" width="2.622" height="57.891"/>
			<rect x="126.192" y="281.174" fill="#FFF7E2" width="2.623" height="57.891"/>
			<rect x="136.43" y="307.85" fill="#FFF7E2" width="2.651" height="31.215"/>
			<g>
				<rect x="105.977" y="283.93" fill="#EF8462" width="0.523" height="4.545"/>
				<rect x="105.978" y="283.932" fill="none" width="0.522" height="4.543"/>
			</g>
			<g>
				<rect x="125.669" y="283.93" fill="#EF8462" width="0.523" height="4.545"/>
				<rect x="125.67" y="283.932" fill="none" width="0.522" height="4.543"/>
			</g>
			<g>
				<rect x="105.977" y="291.895" fill="#EF8462" width="0.523" height="4.578"/>
				<rect x="105.978" y="291.895" fill="none" width="0.522" height="4.578"/>
			</g>
			<g>
				<rect x="125.669" y="291.895" fill="#EF8462" width="0.523" height="4.578"/>
				<rect x="125.67" y="291.895" fill="none" width="0.522" height="4.578"/>
			</g>
			<g>
				<rect x="105.977" y="299.842" fill="#EF8462" width="0.523" height="4.586"/>
				<rect x="105.978" y="299.842" fill="none" width="0.522" height="4.586"/>
			</g>
			<g>
				<rect x="125.669" y="299.842" fill="#EF8462" width="0.523" height="4.586"/>
				<rect x="125.67" y="299.842" fill="none" width="0.522" height="4.586"/>
			</g>
			<g>
				<rect x="105.977" y="307.863" fill="#EF8462" width="0.523" height="4.553"/>
				<rect x="105.978" y="307.863" fill="none" width="0.522" height="4.553"/>
			</g>
			<g>
				<rect x="125.669" y="307.863" fill="#EF8462" width="0.523" height="4.553"/>
				<rect x="125.67" y="307.863" fill="none" width="0.522" height="4.553"/>
			</g>
			<g>
				<rect x="135.907" y="307.863" fill="#EF8462" width="0.522" height="4.553"/>
				<rect x="135.907" y="307.863" fill="none" width="0.522" height="4.553"/>
			</g>
			<g>
				<rect x="128.815" y="307.863" fill="#EF8462" width="0.522" height="4.553"/>
				<rect x="128.814" y="307.863" fill="none" width="0.523" height="4.553"/>
			</g>
			<g opacity="0.63">
				<rect x="116.085" y="312.416" fill="#A5A7AA" width="2.651" height="1.035"/>
				<rect x="116.085" y="312.416" fill="none" width="2.651" height="1.035"/>
			</g>
		</g>
		<rect x="60" y="70" fill="#5962AB" width="120" height="20"/>
		<g>
			<text transform="matrix(1 0 0 1 87.0879 84.248)" fill="#FFFFFF" font-family="'Rubik-Bold'" font-size="12">КОПИРАЙТ</text>
		</g>
	</g>
</g>
<g id="Слой_1" display="none" opacity="0.75">
</g>
</svg>
