<?xml version="1.0" encoding="utf-8"?>
<!-- Generator: Adobe Illustrator 16.0.0, SVG Export Plug-In . SVG Version: 6.00 Build 0)  -->
<!DOCTYPE svg PUBLIC "-//W3C//DTD SVG 1.1//EN" "http://www.w3.org/Graphics/SVG/1.1/DTD/svg11.dtd">
<svg version="1.1" xmlns="http://www.w3.org/2000/svg" xmlns:xlink="http://www.w3.org/1999/xlink" x="0px" y="0px" width="240px"
	 height="390px" viewBox="0 0 240 390" enable-background="new 0 0 240 390" xml:space="preserve">
<g id="Слой_2">
	<g>
		<rect fill="#FAF7CD" width="240" height="390"/>
		<g>
			<g>
				<rect x="52.759" y="336.27" fill="#F9CCCE" width="136.594" height="2.49"/>
				<rect x="52.76" y="336.27" fill="none" width="136.593" height="2.488"/>
			</g>
			<polygon fill="#404041" points="55.806,289.375 55.806,337.975 59.746,337.975 59.746,296.023 183.867,296.023 183.867,337.975 
				187.807,337.975 187.807,289.375 			"/>
			<rect x="55.806" y="288.443" fill="#26A8DF" width="132.002" height="0.932"/>
			<polygon fill="#F3F3F3" points="135.525,288.045 124.271,288.045 125.905,277.836 133.891,277.836 			"/>
			<g>
				<polygon fill="#BEBDBE" points="134.423,281.029 133.891,277.836 125.906,277.836 125.373,281.029 				"/>
				<rect x="125.373" y="277.836" fill="none" width="9.05" height="3.193"/>
			</g>
			<path fill="#404041" d="M156.597,243.992H103.2c-1.233,0-2.232,0.998-2.232,2.23v30.959c0,1.23,0.999,2.23,2.232,2.23h53.396
				c1.232,0,2.232-1,2.232-2.23v-30.959C158.829,244.99,157.829,243.992,156.597,243.992"/>
			<rect x="103.521" y="246.313" fill="#58595B" width="52.754" height="27.729"/>
			<rect x="105.248" y="247.73" fill="#6D6E70" width="9.376" height="24.893"/>
			<rect x="116.213" y="247.73" fill="#6D6E70" width="38.646" height="24.893"/>
			<path fill="#F3F3F3" d="M100.968,276.26v0.922c0,1.23,0.999,2.23,2.232,2.23h53.396c1.232,0,2.232-1,2.232-2.23v-0.922H100.968z"
				/>
			<g>
				<polygon fill="#BEBDBE" points="124.396,287.27 124.271,288.045 135.526,288.045 135.401,287.27 				"/>
				<rect x="124.271" y="287.27" fill="none" width="11.254" height="0.775"/>
			</g>
			<rect x="121.057" y="287.648" fill="#F3F3F3" width="17.684" height="0.795"/>
			<rect x="106.189" y="249.48" fill="#E5E6E7" width="7.678" height="0.596"/>
			<rect x="118.239" y="249.48" fill="#E5E6E7" width="2.046" height="0.596"/>
			<rect x="116.828" y="249.48" fill="#E5E6E7" width="0.505" height="0.596"/>
			<rect x="118.238" y="250.887" fill="#E5E6E7" width="8.896" height="0.596"/>
			<rect x="116.828" y="250.887" fill="#E5E6E7" width="0.505" height="0.596"/>
			<rect x="118.238" y="252.293" fill="#E5E6E7" width="7.231" height="0.596"/>
			<rect x="116.828" y="252.293" fill="#E5E6E7" width="0.505" height="0.596"/>
			<rect x="118.238" y="253.701" fill="#E5E6E7" width="10.866" height="0.596"/>
			<rect x="116.828" y="253.701" fill="#E5E6E7" width="0.505" height="0.596"/>
			<rect x="118.238" y="255.107" fill="#E5E6E7" width="13.671" height="0.596"/>
			<rect x="116.828" y="255.107" fill="#E5E6E7" width="0.505" height="0.596"/>
			<rect x="116.828" y="256.516" fill="#E5E6E7" width="0.505" height="0.594"/>
			<rect x="116.828" y="257.922" fill="#E5E6E7" width="0.505" height="0.596"/>
			<rect x="118.239" y="259.328" fill="#E5E6E7" width="17.097" height="0.598"/>
			<rect x="116.828" y="259.328" fill="#E5E6E7" width="0.505" height="0.598"/>
			<rect x="118.238" y="260.734" fill="#E5E6E7" width="11.865" height="0.598"/>
			<rect x="116.828" y="260.734" fill="#E5E6E7" width="0.505" height="0.598"/>
			<rect x="118.238" y="262.143" fill="#E5E6E7" width="9.461" height="0.596"/>
			<rect x="116.828" y="262.143" fill="#E5E6E7" width="0.505" height="0.596"/>
			<rect x="118.238" y="263.549" fill="#E5E6E7" width="13.477" height="0.596"/>
			<rect x="116.828" y="263.549" fill="#E5E6E7" width="0.505" height="0.596"/>
			<rect x="118.238" y="264.957" fill="#E5E6E7" width="11.224" height="0.596"/>
			<rect x="116.828" y="264.957" fill="#E5E6E7" width="0.505" height="0.596"/>
			<rect x="118.238" y="266.363" fill="#E5E6E7" width="22.538" height="0.596"/>
			<rect x="116.828" y="266.363" fill="#E5E6E7" width="0.505" height="0.596"/>
			<rect x="118.238" y="267.77" fill="#E5E6E7" width="4.091" height="0.598"/>
			<rect x="116.828" y="267.77" fill="#E5E6E7" width="0.505" height="0.598"/>
			<rect x="118.238" y="269.176" fill="#E5E6E7" width="8.549" height="0.596"/>
			<rect x="116.828" y="269.176" fill="#E5E6E7" width="0.505" height="0.596"/>
			<rect x="118.238" y="270.584" fill="#E5E6E7" width="0.633" height="0.596"/>
			<rect x="116.828" y="270.584" fill="#E5E6E7" width="0.505" height="0.596"/>
			<rect x="106.189" y="250.887" fill="#E5E6E7" width="7.678" height="0.596"/>
			<rect x="106.189" y="252.293" fill="#E5E6E7" width="7.678" height="0.596"/>
			<rect x="106.189" y="253.701" fill="#E5E6E7" width="7.678" height="0.596"/>
			<rect x="106.189" y="255.107" fill="#E5E6E7" width="7.678" height="0.596"/>
			<rect x="106.189" y="256.516" fill="#E5E6E7" width="7.678" height="0.594"/>
			<rect x="106.189" y="257.922" fill="#E5E6E7" width="7.678" height="0.596"/>
			<rect x="106.189" y="259.328" fill="#E5E6E7" width="7.678" height="0.598"/>
			<rect x="106.189" y="260.734" fill="#E5E6E7" width="7.678" height="0.598"/>
			<rect x="106.189" y="262.143" fill="#E5E6E7" width="7.678" height="0.596"/>
			<rect x="106.189" y="263.549" fill="#E5E6E7" width="7.678" height="0.596"/>
			<rect x="106.189" y="264.957" fill="#E5E6E7" width="7.678" height="0.596"/>
			<rect x="106.189" y="266.363" fill="#E5E6E7" width="7.678" height="0.596"/>
			<rect x="106.189" y="267.77" fill="#E5E6E7" width="7.678" height="0.598"/>
			<rect x="106.189" y="269.176" fill="#E5E6E7" width="7.678" height="0.596"/>
			<rect x="106.189" y="270.584" fill="#E5E6E7" width="7.678" height="0.596"/>
			<path fill="#404041" d="M131.157,277.85c0,0.555-0.449,1.004-1.005,1.004c-0.555,0-1.004-0.449-1.004-1.004
				s0.449-1.004,1.004-1.004C130.708,276.846,131.157,277.295,131.157,277.85"/>
			<path fill="#404041" d="M174.736,265.451h-31.815c-1.185,0-2.145,0.959-2.145,2.145v18.848h36.104v-18.848
				C176.881,266.41,175.921,265.451,174.736,265.451"/>
			<path fill="#58595B" d="M174.736,266.92h-31.815c-0.372,0-0.675,0.303-0.675,0.676v17.377h33.166v-17.377
				C175.412,267.223,175.108,266.92,174.736,266.92"/>
			<polygon fill="#E5E6E7" points="152.932,274.674 147.925,276.742 152.932,278.795 152.932,280.455 145.857,277.443 
				145.857,276.037 152.932,273.014 			"/>
			<polygon fill="#E5E6E7" points="160.055,270.68 161.63,270.68 158.677,281.213 157.129,281.213 			"/>
			<polygon fill="#E5E6E7" points="165.811,278.795 170.817,276.727 165.811,274.674 165.811,273.014 172.887,276.037 
				172.887,277.432 165.811,280.455 			"/>
			<path fill="#F3F3F3" d="M138.65,286.443c0,1.105,0.896,2,2.002,2h36.353c1.105,0,2.002-0.895,2.002-2H138.65z"/>
			<g>
				<rect x="140.775" y="286.061" fill="#464052" width="36.105" height="0.383"/>
				<rect x="140.775" y="286.061" fill="none" width="36.105" height="0.383"/>
			</g>
			<g>
				<path fill="#BEBDBE" d="M162.497,287.012h-7.337c-0.314,0-0.569-0.256-0.569-0.568h8.476
					C163.066,286.756,162.812,287.012,162.497,287.012"/>
				<rect x="154.592" y="286.443" fill="none" width="8.475" height="0.568"/>
			</g>
			<path fill="#404041" d="M99.578,251.186H54.417c-0.48,0-0.869,0.389-0.869,0.869v27.941c0,0.48,0.389,0.869,0.869,0.869H74.52
				v6.891h-9.006v0.727h22.969v-0.727h-9.006v-6.891h20.102c0.48,0,0.87-0.389,0.87-0.869v-27.941
				C100.448,251.574,100.059,251.186,99.578,251.186"/>
			<rect x="55.534" y="253.469" fill="#E5E6E7" width="42.929" height="24.336"/>
			<rect x="56.563" y="256.414" fill="#6D6E70" width="5.714" height="17.68"/>
			<rect x="63.247" y="256.414" fill="#6D6E70" width="23.558" height="17.68"/>
			<rect x="57.138" y="257.656" fill="#E5E6E7" width="4.679" height="0.424"/>
			<rect x="64.481" y="257.656" fill="#E5E6E7" width="1.248" height="0.424"/>
			<rect x="63.622" y="257.656" fill="#E5E6E7" width="0.308" height="0.424"/>
			<rect x="64.481" y="258.656" fill="#E5E6E7" width="5.424" height="0.424"/>
			<rect x="63.622" y="258.656" fill="#E5E6E7" width="0.308" height="0.424"/>
			<rect x="64.481" y="259.654" fill="#E5E6E7" width="4.408" height="0.424"/>
			<rect x="63.622" y="259.654" fill="#E5E6E7" width="0.308" height="0.424"/>
			<rect x="64.481" y="260.654" fill="#E5E6E7" width="6.624" height="0.424"/>
			<rect x="63.622" y="260.654" fill="#E5E6E7" width="0.308" height="0.424"/>
			<rect x="64.482" y="261.652" fill="#E5E6E7" width="8.333" height="0.424"/>
			<rect x="63.622" y="261.652" fill="#E5E6E7" width="0.308" height="0.424"/>
			<rect x="63.622" y="262.652" fill="#E5E6E7" width="0.308" height="0.424"/>
			<rect x="63.622" y="263.652" fill="#E5E6E7" width="0.308" height="0.424"/>
			<rect x="64.481" y="264.65" fill="#E5E6E7" width="10.422" height="0.424"/>
			<rect x="63.622" y="264.65" fill="#E5E6E7" width="0.308" height="0.424"/>
			<rect x="64.481" y="265.65" fill="#E5E6E7" width="7.233" height="0.424"/>
			<rect x="63.622" y="265.65" fill="#E5E6E7" width="0.308" height="0.424"/>
			<rect x="64.481" y="266.648" fill="#E5E6E7" width="5.768" height="0.426"/>
			<rect x="63.622" y="266.648" fill="#E5E6E7" width="0.308" height="0.426"/>
			<rect x="64.481" y="267.648" fill="#E5E6E7" width="8.215" height="0.424"/>
			<rect x="63.622" y="267.648" fill="#E5E6E7" width="0.308" height="0.424"/>
			<rect x="64.482" y="268.648" fill="#E5E6E7" width="6.842" height="0.424"/>
			<rect x="63.622" y="268.648" fill="#E5E6E7" width="0.308" height="0.424"/>
			<rect x="64.481" y="269.646" fill="#E5E6E7" width="13.739" height="0.424"/>
			<rect x="63.622" y="269.646" fill="#E5E6E7" width="0.308" height="0.424"/>
			<rect x="64.481" y="270.646" fill="#E5E6E7" width="2.494" height="0.424"/>
			<rect x="63.622" y="270.646" fill="#E5E6E7" width="0.308" height="0.424"/>
			<rect x="64.481" y="271.645" fill="#E5E6E7" width="5.211" height="0.424"/>
			<rect x="63.622" y="271.645" fill="#E5E6E7" width="0.308" height="0.424"/>
			<rect x="64.481" y="272.645" fill="#E5E6E7" width="0.386" height="0.424"/>
			<rect x="63.622" y="272.645" fill="#E5E6E7" width="0.308" height="0.424"/>
			<rect x="57.138" y="258.656" fill="#E5E6E7" width="4.679" height="0.424"/>
			<rect x="57.138" y="259.654" fill="#E5E6E7" width="4.679" height="0.424"/>
			<rect x="57.138" y="260.654" fill="#E5E6E7" width="4.679" height="0.424"/>
			<rect x="57.138" y="261.652" fill="#E5E6E7" width="4.679" height="0.424"/>
			<rect x="57.138" y="262.652" fill="#E5E6E7" width="4.679" height="0.424"/>
			<rect x="57.138" y="263.652" fill="#E5E6E7" width="4.679" height="0.424"/>
			<rect x="57.138" y="264.65" fill="#E5E6E7" width="4.679" height="0.424"/>
			<rect x="57.138" y="265.65" fill="#E5E6E7" width="4.679" height="0.424"/>
			<rect x="57.138" y="266.648" fill="#E5E6E7" width="4.679" height="0.426"/>
			<rect x="57.138" y="267.648" fill="#E5E6E7" width="4.679" height="0.424"/>
			<rect x="57.138" y="268.648" fill="#E5E6E7" width="4.679" height="0.424"/>
			<rect x="57.138" y="269.646" fill="#E5E6E7" width="4.679" height="0.424"/>
			<rect x="57.138" y="270.646" fill="#E5E6E7" width="4.679" height="0.424"/>
			<rect x="57.138" y="271.645" fill="#E5E6E7" width="4.679" height="0.424"/>
			<rect x="57.138" y="272.645" fill="#E5E6E7" width="4.679" height="0.424"/>
			<rect x="76.998" y="260.215" fill="#404041" width="18.06" height="9.719"/>
			<rect x="79.422" y="262.746" fill="#E5E6E7" width="1.246" height="0.422"/>
			<rect x="79.42" y="263.744" fill="#E5E6E7" width="5.424" height="0.424"/>
			<rect x="76.998" y="260.865" fill="#E5E6E7" width="18.06" height="0.422"/>
			<rect x="79.422" y="264.744" fill="#E5E6E7" width="4.407" height="0.424"/>
			<rect x="79.422" y="265.742" fill="#E5E6E7" width="6.623" height="0.424"/>
			<rect x="79.422" y="266.742" fill="#E5E6E7" width="8.332" height="0.424"/>
			<path fill="#404041" d="M186.076,281.547L186.076,281.547v-0.662c0-0.301-0.244-0.547-0.546-0.547h-4.585
				c-0.301,0-0.547,0.246-0.547,0.547v7.012c0,0.303,0.246,0.547,0.547,0.547h4.585c0.302,0,0.546-0.244,0.546-0.547v-1.314
				c1.39,0,2.519-1.129,2.519-2.518S187.466,281.547,186.076,281.547 M186.076,285.979L186.076,285.979v-3.828
				c1.057,0,1.914,0.857,1.914,1.914C187.99,285.119,187.133,285.979,186.076,285.979"/>
			<path fill="#BABCBE" d="M181.587,279.439h0.483v-3.789h-0.483V279.439z M182.914,278.391h0.483v-3.586h-0.483V278.391z
				 M184.49,279.459h0.483v-3.787h-0.483V279.459z"/>
			<path fill="#404041" d="M98.373,286.371c1.565,0.352,2.728,1.162,2.984,1.334c0.257,0.174,0.18,0.738-0.358,0.738h-5.184
				c-0.216,0-0.392-0.146-0.392-0.324C95.424,286.846,96.808,286.02,98.373,286.371"/>
			<g>
				<path fill="#BEBDBE" d="M95.455,288.242h5.968c-0.077,0.115-0.215,0.201-0.424,0.201h-5.184
					C95.652,288.443,95.514,288.361,95.455,288.242"/>
				<rect x="95.455" y="288.242" fill="none" width="5.968" height="0.201"/>
			</g>
			<rect x="55.973" y="227.865" fill="#404041" width="62.898" height="5.547"/>
			<path fill="#FFF7E2" d="M111.75,221.477c0,3.07-2.488,5.561-5.561,5.561c-3.07,0-5.56-2.49-5.56-5.561
				c0-3.072,2.489-5.561,5.56-5.561C109.262,215.916,111.75,218.404,111.75,221.477"/>
			<path fill="#404041" d="M106.501,221.477c0,0.172-0.14,0.311-0.312,0.311c-0.171,0-0.311-0.139-0.311-0.311
				s0.14-0.313,0.311-0.313C106.361,221.164,106.501,221.305,106.501,221.477"/>
			<path fill="#404041" d="M99.182,216.982c-0.609,0.947-0.334,2.211,0.615,2.818l2.205-3.436
				C101.054,215.758,99.791,216.033,99.182,216.982 M113.198,216.982c-0.608-0.949-1.871-1.225-2.82-0.617l2.206,3.436
				C113.532,219.193,113.807,217.93,113.198,216.982 M112.148,221.523c0-3.285-2.674-5.957-5.959-5.957s-5.957,2.672-5.957,5.957
				c0,1.734,0.745,3.299,1.932,4.389l-0.6,1.309c-0.051,0.113-0.008,0.25,0.102,0.311c0.116,0.066,0.264,0.025,0.329-0.092
				l0.641-1.137c0.993,0.74,2.224,1.18,3.554,1.18c1.332,0,2.562-0.439,3.555-1.18l0.641,1.137c0.062,0.109,0.196,0.154,0.311,0.102
				c0.121-0.055,0.176-0.197,0.119-0.32l-0.598-1.309C111.403,224.822,112.148,223.258,112.148,221.523 M106.189,226.656
				c-2.829,0-5.131-2.303-5.131-5.133s2.302-5.131,5.131-5.131c2.831,0,5.133,2.301,5.133,5.131S109.021,226.656,106.189,226.656"/>
			<rect x="106.1" y="216.754" fill="#404041" width="0.181" height="0.773"/>
			<rect x="106.1" y="218.01" fill="#404041" width="0.181" height="3.406"/>
			
				<rect x="106.992" y="220.96" transform="matrix(0.5843 -0.8115 0.8115 0.5843 -135.7175 179.2216)" fill="#404041" width="0.181" height="2.254"/>
			<rect x="110.139" y="221.385" fill="#404041" width="0.774" height="0.182"/>
			<rect x="106.1" y="225.426" fill="#404041" width="0.181" height="0.773"/>
			<rect x="101.468" y="221.385" fill="#404041" width="0.774" height="0.182"/>
			<path fill="#91B462" d="M70.199,202.559h-8.941c-0.146,0-0.264,0.119-0.264,0.266V227.6c0,0.146,0.118,0.266,0.264,0.266h8.941
				c0.146,0,0.265-0.119,0.265-0.266v-24.775C70.464,202.678,70.346,202.559,70.199,202.559"/>
			<rect x="62.315" y="205.385" fill="#FFF7E2" width="6.827" height="6.4"/>
			<path fill="#EF5A28" d="M77.975,208.584H70.71c-0.136,0-0.246,0.111-0.246,0.246v18.787c0,0.137,0.11,0.248,0.246,0.248h7.265
				c0.137,0,0.246-0.111,0.246-0.248V208.83C78.221,208.695,78.111,208.584,77.975,208.584"/>
			<path fill="#FFF7E2" d="M75.441,225.1c0,0.607-0.492,1.1-1.1,1.1c-0.606,0-1.099-0.492-1.099-1.1s0.492-1.1,1.099-1.1
				C74.949,224,75.441,224.492,75.441,225.1"/>
			<rect x="71.144" y="210.174" fill="#FFF7E2" width="6.397" height="12.646"/>
			<path fill="#A5A7AA" d="M116.91,279.412H99.873c-1.875,0-3.354,1.592-3.218,3.461l1.388,19.111
				c0.123,1.686,1.527,2.992,3.219,2.992h14.26c1.691,0,3.096-1.307,3.218-2.992l1.39-19.111
				C120.264,281.004,118.784,279.412,116.91,279.412"/>
			<path fill="#A5A7AA" d="M133.256,310.143h-24.309c-1.393,0-2.523,1.309-2.523,2.922s1.131,2.92,2.523,2.92h24.309
				c1.395,0,2.524-1.307,2.524-2.92S134.65,310.143,133.256,310.143"/>
			<path fill="#58595B" d="M124.408,336.602V325.91h-1.107v-3.457h4.08c1.336,0,1.482,0.475,1.482,1.482v1.637
				c0,0.268,0.217,0.484,0.483,0.484c0.269,0,0.484-0.217,0.484-0.484v-1.637c0-1.141-0.278-2.449-2.45-2.449h-4.08v-0.861
				c0.035,0,0.07,0.002,0.107,0.002v-0.375c3.125-0.504,5.902-2.049,7.967-4.268h-14.633c-3.4-1.957-6.693-6.08-6.884-14.658
				c1.24-0.57,2.102-1.82,2.102-3.275v-11.713c0-1.992-1.615-3.607-3.607-3.607s-3.607,1.615-3.607,3.607v11.713
				c0,1.498,0.912,2.781,2.209,3.326c0.146,6.27,1.948,11.273,5.075,14.607h-1.07c2.06,2.213,4.828,3.754,7.943,4.264v5.662h-1.108
				v10.691h-7.178v2.504h20.972v-2.504H124.408z"/>
		</g>
		<g>
			<rect x="60" y="70" fill="#7A9E67" width="120" height="20"/>
			<g>
				<text transform="matrix(1 0 0 1 79.5762 84.248)" fill="#FFFFFF" font-family="'Rubik-Bold'" font-size="12">РАЗРАБОТКА</text>
			</g>
		</g>
	</g>
</g>
<g id="Слой_1" display="none" opacity="0.75">
</g>
</svg>
