<?xml version="1.0" encoding="utf-8"?>
<!-- Generator: Adobe Illustrator 16.0.0, SVG Export Plug-In . SVG Version: 6.00 Build 0)  -->
<!DOCTYPE svg PUBLIC "-//W3C//DTD SVG 1.1//EN" "http://www.w3.org/Graphics/SVG/1.1/DTD/svg11.dtd">
<svg version="1.1" xmlns="http://www.w3.org/2000/svg" xmlns:xlink="http://www.w3.org/1999/xlink" x="0px" y="0px" width="40px"
	 height="40px" viewBox="0 0 40 40" enable-background="new 0 0 40 40" xml:space="preserve">
<g id="Слой_2">
	<g>
		<g>
			<path fill="#F15A29" d="M19.992,0C8.958,0,0,8.959,0,19.992C0,31.041,8.958,40,19.992,40C31.039,40,40,31.041,40,19.992
				C40,8.945,31.039,0,19.992,0L19.992,0z M25.166,19.992h-3.28V31.99h-4.492V19.992h-3.003v-4.125l3.003-0.01l-0.017-2.432
				c0-3.367,0.917-5.428,4.898-5.428h3.307v4.135h-2.074c-1.538,0-1.622,0.584-1.622,1.66v2.064h3.724L25.166,19.992z
				 M25.166,19.992"/>
		</g>
	</g>
</g>
<g id="Слой_1" display="none" opacity="0.75">
</g>
</svg>
