<?xml version="1.0" encoding="utf-8"?>
<!-- Generator: Adobe Illustrator 16.0.0, SVG Export Plug-In . SVG Version: 6.00 Build 0)  -->
<!DOCTYPE svg PUBLIC "-//W3C//DTD SVG 1.1//EN" "http://www.w3.org/Graphics/SVG/1.1/DTD/svg11.dtd">
<svg version="1.1" xmlns="http://www.w3.org/2000/svg" xmlns:xlink="http://www.w3.org/1999/xlink" x="0px" y="0px" width="40px"
	 height="40px" viewBox="0 0 40 40" enable-background="new 0 0 40 40" xml:space="preserve">
<g id="Слой_2">
	<g>
		<g>
			<path fill="#F97A58" d="M19.997,24.004c2.208,0,4.005-1.795,4.005-4.004c0-0.869-0.284-1.676-0.756-2.332
				c-0.726-1.008-1.913-1.67-3.249-1.67c-1.334,0-2.519,0.656-3.247,1.67c-0.475,0.656-0.753,1.463-0.759,2.332
				C15.991,22.209,17.789,24.004,19.997,24.004L19.997,24.004z M19.997,24.004"/>
			<path fill="#F97A58" d="M28.739,15.104v-3.855h-0.503l-3.354,0.012l0.017,3.854L28.739,15.104z M28.739,15.104"/>
			<path fill="#F97A58" d="M19.997,0C8.974,0,0,8.975,0,20c0,11.027,8.974,20,19.997,20C31.023,40,40,31.027,40,20
				C40,8.975,31.023,0,19.997,0L19.997,0z M31.372,17.668v9.313c0,2.424-1.972,4.395-4.398,4.395H13.021
				c-2.425,0-4.396-1.971-4.396-4.395V13.025c0-2.428,1.972-4.398,4.396-4.398h13.953c2.427,0,4.398,1.971,4.398,4.398V17.668z
				 M31.372,17.668"/>
			<path fill="#F97A58" d="M26.221,20c0,3.428-2.789,6.221-6.224,6.221c-3.431,0-6.219-2.793-6.219-6.221
				c0-0.822,0.163-1.613,0.456-2.332H10.84v9.313c0,1.205,0.975,2.176,2.181,2.176h13.953c1.206,0,2.179-0.971,2.179-2.176v-9.313
				H25.76C26.051,18.387,26.221,19.178,26.221,20L26.221,20z M26.221,20"/>
		</g>
	</g>
</g>
<g id="Слой_1" display="none" opacity="0.75">
</g>
</svg>
