<?xml version="1.0" encoding="utf-8"?>
<!-- Generator: Adobe Illustrator 16.0.0, SVG Export Plug-In . SVG Version: 6.00 Build 0)  -->
<!DOCTYPE svg PUBLIC "-//W3C//DTD SVG 1.1//EN" "http://www.w3.org/Graphics/SVG/1.1/DTD/svg11.dtd">
<svg version="1.1" xmlns="http://www.w3.org/2000/svg" xmlns:xlink="http://www.w3.org/1999/xlink" x="0px" y="0px" width="40px"
	 height="40px" viewBox="0 0 40 40" enable-background="new 0 0 40 40" xml:space="preserve">
<g id="Слой_2">
	<g>
		<path fill-rule="evenodd" clip-rule="evenodd" fill="#F15A29" d="M22.031,17.115v-0.047c-0.006,0.016-0.02,0.029-0.024,0.047
			H22.031z"/>
		<path fill-rule="evenodd" clip-rule="evenodd" fill="#F15A29" d="M20.001,0C8.955,0,0,8.953,0,20.002C0,31.047,8.955,40,20.001,40
			S40,31.047,40,20.002C40,8.953,31.047,0,20.001,0z M14.991,28.775h-4.533V15.133h4.533V28.775z M12.723,13.275h-0.028
			c-1.522,0-2.507-1.053-2.507-2.357c0-1.342,1.015-2.359,2.566-2.359c1.554,0,2.505,1.018,2.536,2.359
			C15.29,12.223,14.307,13.275,12.723,13.275z M31.344,28.775h-4.536v-7.301c0-1.836-0.653-3.082-2.296-3.082
			c-1.254,0-1.995,0.844-2.326,1.656c-0.118,0.293-0.155,0.703-0.155,1.107v7.619h-4.532c0,0,0.062-12.361,0-13.641h4.533v1.934
			c0.605-0.93,1.679-2.254,4.088-2.254c2.991,0,5.225,1.949,5.225,6.141V28.775z"/>
	</g>
</g>
<g id="Слой_1" display="none" opacity="0.75">
</g>
</svg>
