<?xml version="1.0" encoding="utf-8"?>
<!-- Generator: Adobe Illustrator 16.0.0, SVG Export Plug-In . SVG Version: 6.00 Build 0)  -->
<!DOCTYPE svg PUBLIC "-//W3C//DTD SVG 1.1//EN" "http://www.w3.org/Graphics/SVG/1.1/DTD/svg11.dtd">
<svg version="1.1" xmlns="http://www.w3.org/2000/svg" xmlns:xlink="http://www.w3.org/1999/xlink" x="0px" y="0px" width="300px"
	 height="60px" viewBox="0 0 300 60" enable-background="new 0 0 300 60" xml:space="preserve">
<g id="Слой_2">
	<g>
		<g opacity="0.5">
			<path d="M6.64,20.058c3.588,0,6.506,2.919,6.506,6.507v13.278c0,3.587-2.918,6.506-6.506,6.506s-6.507-2.919-6.507-6.506V26.564
				C0.133,22.977,3.052,20.058,6.64,20.058 M29.213,42.744c-4.162,0-7.549-3.387-7.549-7.549c0-4.163,3.387-7.549,7.549-7.549
				c0.65,0,1.275-0.114,1.858-0.315v-0.767c0-3.588-2.919-6.507-6.507-6.507c-3.587,0-6.506,2.919-6.506,6.507v26.557
				c0,3.588,2.919,6.506,6.506,6.506c3.588,0,6.507-2.918,6.507-6.506V42.656C30.458,42.71,29.84,42.744,29.213,42.744z
				 M13.278,8.64C13.278,4.973,10.305,2,6.64,2C2.987,2,0,4.986,0,8.64c0,3.65,2.987,6.638,6.64,6.638
				C10.305,15.277,13.278,12.305,13.278,8.64z M29.213,2H10.229c2.355,1.279,3.959,3.775,3.959,6.64c0,2.862-1.604,5.36-3.959,6.638
				h18.984c3.666,0,6.639,2.975,6.639,6.64c0,3.667-2.973,6.639-6.639,6.639c-3.668,0-6.64,2.974-6.64,6.64s2.972,6.639,6.64,6.639
				c10.999,0,19.917-8.917,19.917-19.917C49.13,10.918,40.212,2,29.213,2z"/>
			<path d="M209.528,29.982c0,2.076-0.26,3.957-0.78,5.645c-0.519,1.688-1.298,3.13-2.335,4.322
				c-1.039,1.195-2.337,2.109-3.894,2.744c-1.559,0.638-3.375,0.954-5.452,0.954h-1.79c-1.194,0-2.13-0.375-2.803-1.128
				c-0.676-0.752-1.014-1.648-1.014-2.686c0-1.039,0.338-1.929,1.014-2.668c0.673-0.739,1.608-1.11,2.803-1.11h1.129
				c0.908,0,1.713-0.091,2.414-0.272c0.699-0.182,1.29-0.486,1.771-0.915c0.48-0.427,0.843-1.006,1.09-1.731
				c0.248-0.729,0.37-1.624,0.37-2.688V19.859c0-1.195,0.37-2.116,1.109-2.768c0.741-0.646,1.616-0.971,2.628-0.971
				s1.889,0.324,2.629,0.971c0.74,0.651,1.11,1.572,1.11,2.768V29.982z"/>
			<path d="M79.69,40.027c0,1.246-0.377,2.188-1.129,2.822c-0.754,0.637-1.636,0.955-2.647,0.955c-1.039,0-1.928-0.318-2.667-0.955
				c-0.74-0.635-1.11-1.576-1.11-2.822V19.859c0-1.195,0.37-2.116,1.11-2.768c0.739-0.646,1.628-0.971,2.667-0.971
				c1.012,0,1.894,0.324,2.647,0.971c0.752,0.651,1.129,1.572,1.129,2.768V40.027z"/>
			<path d="M95.889,40.027c0,1.246-0.377,2.188-1.129,2.822c-0.754,0.637-1.649,0.955-2.688,0.955c-1.012,0-1.889-0.318-2.629-0.955
				c-0.74-0.635-1.108-1.576-1.108-2.822V23.869h-2.648c-1.194,0-2.121-0.375-2.784-1.125c-0.662-0.748-0.993-1.639-0.993-2.672
				c0-1.035,0.331-1.924,0.993-2.674c0.663-0.748,1.59-1.123,2.784-1.123h12.772c1.192,0,2.127,0.375,2.802,1.123
				c0.675,0.75,1.014,1.639,1.014,2.674c0,1.033-0.339,1.924-1.014,2.672c-0.675,0.75-1.609,1.125-2.802,1.125h-2.57V40.027z"/>
			<path d="M123.399,39.91c0,2.596-1.252,3.895-3.758,3.895c-2.531,0-3.796-1.271-3.796-3.816V20.053c0-2.543,1.22-3.816,3.66-3.816
				h7.709c1.637,0,3.057,0.209,4.264,0.624c1.208,0.415,2.2,1.006,2.979,1.771c0.779,0.767,1.356,1.695,1.733,2.783
				c0.376,1.091,0.564,2.313,0.564,3.661c0,1.245-0.176,2.409-0.526,3.485c-0.35,1.076-0.85,2.006-1.498,2.784
				c-0.65,0.778-1.441,1.396-2.375,1.851c-0.935,0.453-1.999,0.68-3.192,0.68h-1.325c-1.245,0-2.116-0.291-2.608-0.875
				c-0.493-0.585-0.739-1.369-0.739-2.357c0-0.985,0.271-1.713,0.816-2.181c0.546-0.466,1.233-0.7,2.064-0.7h0.622
				c0.649,0,1.155-0.169,1.52-0.506c0.362-0.338,0.545-0.857,0.545-1.557c0-0.779-0.222-1.344-0.666-1.695
				c-0.444-0.35-1.071-0.524-1.88-0.524h-4.112V39.91z"/>
			<path d="M147.813,33.292c-0.131-0.208-0.26-0.532-0.39-0.975c-0.13-0.44-0.182-0.921-0.155-1.44c0-0.986,0.259-1.771,0.779-2.354
				c0.518-0.585,1.231-0.877,2.141-0.877h0.544c0.649,0,1.17-0.182,1.559-0.546c0.39-0.362,0.585-0.934,0.585-1.712
				c0-0.702-0.196-1.193-0.589-1.479c-0.391-0.287-0.994-0.429-1.802-0.429h-4.112v16.275c0,2.597-1.254,3.893-3.758,3.893
				c-2.531,0-3.796-1.271-3.796-3.813V20.053c0-2.543,1.22-3.816,3.659-3.816h8.178c1.608,0,2.998,0.24,4.166,0.721
				s2.128,1.109,2.881,1.889c0.753,0.778,1.311,1.668,1.674,2.668c0.364,0.999,0.545,2.018,0.545,3.055
				c0,1.869-0.446,3.453-1.342,4.751c-0.896,1.3-1.98,2.206-3.251,2.726l3.62,5.686c0.492,0.883,0.74,1.662,0.74,2.337
				c0,0.544-0.117,1.05-0.351,1.517c-0.233,0.469-0.546,0.864-0.936,1.188c-0.389,0.325-0.83,0.579-1.323,0.759
				c-0.493,0.183-0.987,0.273-1.479,0.273c-0.598,0-1.188-0.157-1.772-0.468c-0.584-0.312-1.058-0.804-1.421-1.479L147.813,33.292z"
				/>
			<path d="M162.064,29.942c0-1.946,0.361-3.763,1.088-5.45c0.725-1.688,1.723-3.166,2.993-4.439
				c1.271-1.271,2.749-2.271,4.434-2.999c1.685-0.726,3.5-1.089,5.444-1.089c1.943,0,3.765,0.363,5.462,1.089
				c1.698,0.728,3.177,1.728,4.433,2.999c1.258,1.273,2.256,2.752,2.994,4.439s1.108,3.504,1.108,5.45
				c0,1.947-0.37,3.765-1.108,5.452s-1.736,3.167-2.994,4.439c-1.256,1.271-2.734,2.271-4.433,2.997
				c-1.697,0.728-3.519,1.09-5.462,1.09c-1.944,0-3.76-0.362-5.444-1.09c-1.685-0.726-3.163-1.726-4.434-2.997
				c-1.271-1.272-2.269-2.752-2.993-4.439C162.426,33.707,162.064,31.89,162.064,29.942z M169.734,30.04
				c0,0.879,0.169,1.702,0.506,2.466c0.337,0.763,0.792,1.43,1.363,1.998c0.57,0.57,1.24,1.016,2.005,1.34
				c0.765,0.322,1.59,0.484,2.473,0.484s1.707-0.162,2.474-0.484c0.765-0.324,1.44-0.77,2.023-1.34
				c0.585-0.568,1.045-1.235,1.383-1.998c0.337-0.764,0.506-1.587,0.506-2.466c0-0.88-0.169-1.708-0.506-2.485
				c-0.338-0.776-0.798-1.449-1.383-2.018c-0.583-0.568-1.259-1.022-2.023-1.357c-0.767-0.336-1.591-0.506-2.474-0.506
				s-1.708,0.17-2.473,0.506c-0.765,0.335-1.435,0.789-2.005,1.357c-0.571,0.568-1.026,1.241-1.363,2.018
				C169.903,28.332,169.734,29.16,169.734,30.04z"/>
			<path d="M216.205,43.647c-2.506,0-3.758-1.269-3.758-3.81V20.086c0-2.539,1.252-3.811,3.758-3.811h12.87
				c1.193,0,2.12,0.375,2.783,1.123c0.661,0.75,0.993,1.639,0.993,2.674c0,1.033-0.332,1.924-0.993,2.672
				c-0.663,0.75-1.59,1.125-2.783,1.125h-9.074v2.609h7.554c1.091,0,1.94,0.344,2.551,1.031c0.609,0.688,0.917,1.498,0.917,2.433
				s-0.308,1.747-0.917,2.435c-0.61,0.688-1.46,1.031-2.551,1.031h-7.554v2.647h9.074c1.193,0,2.12,0.371,2.783,1.11
				c0.661,0.739,0.993,1.629,0.993,2.668c0,1.037-0.332,1.934-0.993,2.686c-0.663,0.753-1.59,1.128-2.783,1.128H216.205z"/>
			<path d="M248.932,23.946c-1.063,0-1.986,0.169-2.764,0.506c-0.778,0.339-1.436,0.786-1.968,1.343
				c-0.531,0.559-0.928,1.201-1.188,1.93c-0.258,0.727-0.389,1.465-0.389,2.218c0,0.778,0.131,1.537,0.389,2.278
				c0.26,0.74,0.656,1.389,1.188,1.948c0.532,0.556,1.189,1.012,1.968,1.36c0.777,0.352,1.686,0.526,2.726,0.526h2.804
				c0.648,0,1.207,0.11,1.673,0.331c0.468,0.221,0.858,0.506,1.17,0.856c0.311,0.351,0.545,0.754,0.7,1.208
				c0.155,0.453,0.232,0.914,0.232,1.383c0,1.012-0.311,1.9-0.933,2.666c-0.623,0.767-1.571,1.147-2.843,1.147h-2.766
				c-2.258,0-4.244-0.381-5.957-1.147c-1.714-0.766-3.135-1.783-4.264-3.056s-1.979-2.714-2.55-4.323
				c-0.572-1.608-0.857-3.271-0.857-4.984c0-1.713,0.293-3.406,0.877-5.082c0.584-1.673,1.473-3.158,2.666-4.457
				c1.194-1.299,2.673-2.349,4.44-3.154c1.764-0.803,3.84-1.207,6.229-1.207h2.182c0.623,0,1.174,0.111,1.655,0.332
				c0.479,0.221,0.881,0.513,1.205,0.875c0.326,0.364,0.571,0.773,0.741,1.227c0.168,0.454,0.253,0.929,0.253,1.422
				c0,0.494-0.085,0.973-0.253,1.441c-0.17,0.466-0.415,0.875-0.741,1.226c-0.324,0.35-0.726,0.638-1.205,0.856
				c-0.481,0.221-1.032,0.331-1.655,0.331H248.932z"/>
			<path d="M271.166,40.027c0,1.246-0.377,2.188-1.13,2.822c-0.753,0.637-1.648,0.955-2.688,0.955c-1.012,0-1.888-0.318-2.628-0.955
				c-0.738-0.635-1.109-1.576-1.109-2.822V23.869h-2.646c-1.196,0-2.123-0.375-2.784-1.125c-0.662-0.748-0.994-1.639-0.994-2.672
				c0-1.035,0.332-1.924,0.994-2.674c0.661-0.748,1.588-1.123,2.784-1.123h12.771c1.193,0,2.129,0.375,2.804,1.123
				c0.675,0.75,1.012,1.639,1.012,2.674c0,1.033-0.337,1.924-1.012,2.672c-0.675,0.75-1.61,1.125-2.804,1.125h-2.569V40.027z"/>
			<path d="M299.706,34.927c0,5.815-2.849,8.721-8.544,8.721h-7.529c-0.625,0-1.171-0.108-1.639-0.331
				c-0.469-0.219-0.858-0.506-1.171-0.854c-0.312-0.352-0.547-0.754-0.702-1.211c-0.154-0.451-0.234-0.926-0.234-1.418
				c0-0.469,0.08-0.93,0.234-1.383c0.155-0.454,0.396-0.857,0.72-1.208c0.325-0.351,0.726-0.636,1.208-0.856
				c0.479-0.221,1.031-0.331,1.655-0.331h7.864c0.52,0,0.9-0.149,1.148-0.448c0.246-0.298,0.371-0.616,0.371-0.955
				c0-0.36-0.125-0.699-0.371-1.012c-0.248-0.311-0.629-0.467-1.148-0.467h-3.894c-2.673,0-4.686-0.652-6.035-1.961
				c-1.351-1.308-2.026-3.359-2.026-6.158c0-5.852,2.869-8.779,8.606-8.779h6.074c0.648,0,1.221,0.111,1.713,0.328
				c0.494,0.221,0.909,0.505,1.247,0.854c0.336,0.349,0.59,0.75,0.759,1.201s0.253,0.912,0.253,1.375
				c0,0.466-0.084,0.931-0.253,1.395c-0.169,0.465-0.423,0.879-0.759,1.24c-0.338,0.361-0.76,0.653-1.266,0.872
				c-0.508,0.219-1.084,0.329-1.733,0.329h-6.54c-0.521,0-0.896,0.149-1.131,0.445c-0.232,0.301-0.351,0.631-0.351,0.996
				c0,0.337,0.118,0.653,0.351,0.953c0.236,0.299,0.613,0.447,1.136,0.447h3.902c2.734,0,4.766,0.662,6.093,1.986
				C299.043,30.02,299.706,32.097,299.706,34.927z"/>
			<path d="M75.537,56.692l2.208-4.274c0.044-0.088,0.104-0.168,0.181-0.241c0.076-0.072,0.176-0.11,0.301-0.11h0.416
				c0.08,0,0.148,0.029,0.207,0.088s0.087,0.127,0.087,0.208v7.063c0,0.081-0.028,0.149-0.087,0.209
				c-0.059,0.059-0.127,0.088-0.207,0.088h-0.448c-0.08,0-0.149-0.029-0.207-0.088c-0.06-0.06-0.089-0.128-0.089-0.209v-5.183
				l-1.705,3.291c-0.059,0.11-0.12,0.196-0.186,0.257c-0.066,0.063-0.153,0.094-0.264,0.094h-0.415c-0.11,0-0.196-0.031-0.263-0.094
				c-0.066-0.061-0.127-0.146-0.186-0.257l-1.706-3.291v5.183c0,0.081-0.029,0.149-0.087,0.209c-0.06,0.059-0.129,0.088-0.208,0.088
				h-0.448c-0.08,0-0.149-0.029-0.208-0.088c-0.059-0.06-0.087-0.128-0.087-0.209v-7.063c0-0.081,0.028-0.149,0.087-0.208
				s0.128-0.088,0.208-0.088h0.415c0.124,0,0.225,0.038,0.3,0.11c0.077,0.073,0.138,0.153,0.182,0.241L75.537,56.692z"/>
			<path d="M80.993,59.723c-0.08,0-0.149-0.029-0.208-0.088c-0.059-0.06-0.087-0.128-0.087-0.209v-5.095
				c0-0.08,0.028-0.15,0.087-0.209c0.059-0.058,0.128-0.087,0.208-0.087h0.405c0.079,0,0.148,0.029,0.207,0.087
				c0.059,0.059,0.088,0.129,0.088,0.209v1.104h1.181c0.35,0,0.669,0.051,0.957,0.152c0.287,0.103,0.536,0.246,0.742,0.432
				c0.21,0.188,0.371,0.413,0.487,0.68c0.117,0.266,0.175,0.558,0.175,0.881c0,0.32-0.058,0.613-0.175,0.879
				c-0.116,0.266-0.277,0.492-0.487,0.677c-0.206,0.188-0.455,0.331-0.742,0.434c-0.288,0.102-0.607,0.153-0.957,0.153H80.993z
				 M84.253,57.58c0-0.221-0.04-0.406-0.116-0.559c-0.077-0.154-0.183-0.277-0.316-0.373c-0.135-0.096-0.298-0.164-0.487-0.206
				c-0.189-0.046-0.394-0.066-0.611-0.066h-1.028v2.405h1.028c0.218,0,0.422-0.022,0.611-0.064c0.189-0.045,0.353-0.115,0.487-0.208
				c0.134-0.095,0.239-0.22,0.316-0.373C84.213,57.982,84.253,57.797,84.253,57.58z M86.778,59.426c0,0.081-0.03,0.149-0.088,0.209
				c-0.06,0.059-0.128,0.088-0.208,0.088h-0.404c-0.081,0-0.149-0.029-0.208-0.088c-0.059-0.06-0.088-0.128-0.088-0.209v-5.095
				c0-0.08,0.029-0.15,0.088-0.209c0.059-0.058,0.127-0.087,0.208-0.087h0.404c0.08,0,0.148,0.029,0.208,0.087
				c0.058,0.059,0.088,0.129,0.088,0.209V59.426z"/>
			<path d="M91.818,57.261c0.03,0.292,0.094,0.54,0.191,0.744c0.099,0.204,0.22,0.371,0.36,0.504
				c0.144,0.131,0.302,0.228,0.477,0.289c0.175,0.063,0.354,0.093,0.536,0.093c0.35,0,0.648-0.065,0.896-0.196
				c0.247-0.132,0.44-0.35,0.579-0.656c0.051-0.118,0.104-0.196,0.159-0.235c0.055-0.04,0.121-0.061,0.202-0.061h0.328
				c0.079,0,0.151,0.029,0.214,0.088c0.061,0.058,0.088,0.129,0.082,0.208c-0.008,0.175-0.064,0.366-0.17,0.573
				c-0.106,0.208-0.263,0.401-0.471,0.58c-0.208,0.178-0.463,0.33-0.766,0.454c-0.302,0.123-0.654,0.186-1.055,0.186
				c-0.401,0-0.756-0.065-1.066-0.196c-0.311-0.133-0.572-0.31-0.787-0.535c-0.215-0.227-0.383-0.493-0.504-0.801
				c-0.12-0.307-0.187-0.633-0.202-0.983c-0.007-0.114-0.012-0.261-0.015-0.431c-0.006-0.172,0.001-0.319,0.015-0.442
				c0.029-0.351,0.104-0.679,0.225-0.985s0.286-0.572,0.497-0.799c0.212-0.226,0.471-0.404,0.776-0.536
				c0.307-0.131,0.66-0.195,1.062-0.195c0.4,0,0.753,0.062,1.055,0.186c0.303,0.125,0.558,0.276,0.766,0.454
				c0.208,0.179,0.364,0.372,0.471,0.58c0.105,0.207,0.162,0.398,0.17,0.572c0.006,0.082-0.021,0.149-0.082,0.209
				c-0.063,0.059-0.135,0.088-0.214,0.088H95.22c-0.081,0-0.147-0.021-0.202-0.061c-0.055-0.039-0.108-0.119-0.159-0.236
				c-0.139-0.305-0.332-0.523-0.579-0.655c-0.248-0.131-0.547-0.197-0.896-0.197c-0.183,0-0.363,0.032-0.541,0.093
				c-0.18,0.063-0.34,0.159-0.482,0.29c-0.143,0.132-0.262,0.3-0.359,0.504c-0.1,0.204-0.16,0.452-0.182,0.743
				C91.796,56.766,91.796,57.021,91.818,57.261z"/>
			<path d="M99.484,53.927c0.394,0,0.742,0.061,1.049,0.181c0.307,0.121,0.568,0.286,0.788,0.496
				c0.218,0.212,0.391,0.469,0.519,0.772c0.129,0.302,0.207,0.631,0.235,0.989c0.008,0.064,0.011,0.144,0.011,0.234s0,0.186,0,0.285
				c0,0.098,0,0.193,0,0.283c0,0.093-0.003,0.166-0.011,0.225c-0.036,0.364-0.116,0.697-0.24,0.995
				c-0.125,0.298-0.296,0.555-0.514,0.765c-0.22,0.211-0.481,0.379-0.788,0.498c-0.307,0.121-0.655,0.181-1.049,0.181
				c-0.395,0-0.743-0.06-1.05-0.181c-0.307-0.119-0.568-0.287-0.787-0.498c-0.219-0.21-0.393-0.467-0.521-0.765
				c-0.127-0.298-0.205-0.631-0.234-0.995c-0.008-0.059-0.013-0.132-0.017-0.225c-0.004-0.09-0.006-0.186-0.006-0.283
				c0-0.1,0.002-0.194,0.006-0.285s0.009-0.17,0.017-0.234c0.029-0.358,0.107-0.688,0.234-0.989
				c0.128-0.304,0.302-0.561,0.521-0.772c0.219-0.21,0.48-0.375,0.787-0.496C98.741,53.987,99.09,53.927,99.484,53.927z
				 M101.08,57.338c0.016-0.123,0.021-0.274,0.021-0.453c0-0.18-0.006-0.334-0.021-0.465c-0.021-0.219-0.069-0.423-0.142-0.612
				c-0.073-0.189-0.176-0.354-0.307-0.492c-0.131-0.14-0.291-0.247-0.481-0.329c-0.188-0.08-0.412-0.12-0.666-0.12
				c-0.256,0-0.478,0.04-0.667,0.12c-0.19,0.082-0.351,0.189-0.481,0.329c-0.131,0.138-0.233,0.303-0.307,0.492
				c-0.072,0.189-0.12,0.394-0.142,0.612c-0.015,0.131-0.021,0.285-0.021,0.465c0,0.179,0.007,0.33,0.021,0.453
				c0.021,0.219,0.069,0.423,0.142,0.612c0.073,0.189,0.176,0.353,0.307,0.492s0.291,0.248,0.481,0.329
				c0.189,0.08,0.411,0.119,0.667,0.119c0.254,0,0.479-0.039,0.666-0.119c0.19-0.081,0.351-0.189,0.481-0.329
				s0.233-0.303,0.307-0.492C101.011,57.761,101.059,57.557,101.08,57.338z"/>
			<path d="M104.077,58.373c0.124,0.23,0.3,0.373,0.53,0.432c0.229,0.057,0.489,0.086,0.782,0.086c0.181,0,0.352-0.012,0.508-0.037
				c0.156-0.026,0.294-0.068,0.411-0.126c0.116-0.06,0.21-0.14,0.278-0.241s0.103-0.226,0.103-0.371
				c0-0.277-0.116-0.478-0.349-0.596c-0.233-0.121-0.522-0.182-0.864-0.182h-0.854c-0.079,0-0.149-0.029-0.207-0.087
				c-0.059-0.059-0.087-0.127-0.087-0.208v-0.351c0-0.079,0.028-0.149,0.087-0.208c0.058-0.057,0.128-0.088,0.207-0.088h0.865
				c0.307,0,0.565-0.063,0.781-0.189c0.215-0.127,0.322-0.318,0.322-0.574c0-0.27-0.116-0.465-0.35-0.586
				c-0.233-0.12-0.519-0.181-0.853-0.181c-0.329,0-0.583,0.05-0.767,0.147c-0.182,0.098-0.327,0.262-0.438,0.487
				c-0.036,0.079-0.084,0.149-0.146,0.208s-0.134,0.086-0.214,0.086h-0.328c-0.08,0-0.149-0.027-0.212-0.086
				s-0.091-0.129-0.083-0.208c0.007-0.196,0.061-0.392,0.159-0.579c0.098-0.191,0.238-0.36,0.42-0.51
				c0.183-0.148,0.408-0.268,0.679-0.354c0.269-0.087,0.578-0.131,0.93-0.131c0.306,0,0.593,0.034,0.857,0.104
				c0.267,0.069,0.498,0.175,0.694,0.317c0.197,0.142,0.354,0.318,0.47,0.529c0.117,0.213,0.176,0.463,0.176,0.756
				c0,0.256-0.046,0.48-0.138,0.677c-0.091,0.197-0.216,0.368-0.376,0.515c0.188,0.139,0.338,0.312,0.448,0.52
				c0.109,0.207,0.164,0.465,0.164,0.771c0,0.32-0.061,0.589-0.18,0.809c-0.121,0.218-0.285,0.396-0.494,0.53
				c-0.206,0.134-0.451,0.231-0.731,0.29c-0.28,0.057-0.577,0.087-0.891,0.087c-0.388,0-0.721-0.04-1.001-0.12
				c-0.281-0.079-0.516-0.186-0.705-0.32c-0.19-0.134-0.334-0.29-0.433-0.467c-0.098-0.178-0.15-0.361-0.158-0.551
				c-0.008-0.078,0.021-0.146,0.082-0.205c0.063-0.057,0.134-0.086,0.214-0.086h0.327c0.081,0,0.146,0.02,0.198,0.061
				C103.964,58.18,104.019,58.258,104.077,58.373z"/>
			<path d="M109.577,54.331c0-0.08,0.027-0.15,0.082-0.209c0.054-0.058,0.122-0.087,0.202-0.087h3.051
				c0.08,0,0.149,0.029,0.208,0.087c0.058,0.059,0.087,0.129,0.087,0.209v4.45l0.207,0.012c0.081,0,0.149,0.028,0.209,0.087
				c0.059,0.058,0.087,0.127,0.087,0.208v1.543c0,0.079-0.028,0.148-0.087,0.206c-0.06,0.059-0.128,0.088-0.209,0.088h-0.402
				c-0.081,0-0.149-0.029-0.208-0.088c-0.06-0.058-0.089-0.127-0.089-0.208v-0.906h-3.235v0.906c0,0.081-0.03,0.15-0.089,0.208
				c-0.059,0.059-0.128,0.088-0.207,0.088h-0.404c-0.081,0-0.149-0.029-0.209-0.088c-0.058-0.058-0.087-0.127-0.087-0.208v-1.552
				c0-0.081,0.029-0.149,0.087-0.208c0.06-0.059,0.128-0.088,0.209-0.088h0.251c0.116,0,0.211-0.029,0.284-0.087
				c0.072-0.059,0.13-0.138,0.169-0.242c0.04-0.101,0.066-0.216,0.077-0.343c0.011-0.129,0.017-0.265,0.017-0.411V54.331z
				 M112.212,54.977h-1.64v2.896c0,0.402-0.069,0.704-0.208,0.908h1.848V54.977z"/>
			<path d="M114.639,58.289c0-0.293,0.06-0.547,0.176-0.766s0.277-0.404,0.48-0.557c0.204-0.153,0.444-0.277,0.718-0.371
				c0.272-0.096,0.563-0.168,0.868-0.22l1.542-0.252v-0.142c0-0.373-0.122-0.65-0.366-0.836c-0.243-0.188-0.548-0.28-0.913-0.28
				c-0.32,0-0.563,0.06-0.728,0.175c-0.163,0.117-0.303,0.256-0.421,0.416c-0.044,0.059-0.091,0.099-0.142,0.121
				c-0.051,0.021-0.121,0.031-0.207,0.031h-0.329c-0.08,0-0.151-0.029-0.214-0.086c-0.062-0.059-0.088-0.129-0.081-0.208
				c0.014-0.161,0.079-0.324,0.191-0.493c0.112-0.168,0.267-0.316,0.458-0.448c0.194-0.131,0.417-0.237,0.668-0.322
				c0.252-0.084,0.52-0.125,0.804-0.125c0.328,0,0.632,0.046,0.913,0.142s0.521,0.234,0.723,0.416
				c0.199,0.182,0.356,0.408,0.469,0.678c0.113,0.271,0.17,0.578,0.17,0.93v3.334c0,0.081-0.028,0.149-0.087,0.209
				c-0.059,0.059-0.129,0.088-0.208,0.088h-0.404c-0.081,0-0.149-0.029-0.208-0.088c-0.059-0.06-0.088-0.128-0.088-0.209v-0.447
				c-0.065,0.139-0.168,0.262-0.306,0.365c-0.139,0.106-0.298,0.197-0.476,0.268c-0.179,0.074-0.364,0.129-0.558,0.166
				c-0.194,0.035-0.373,0.054-0.542,0.054c-0.285,0-0.545-0.04-0.782-0.12c-0.236-0.079-0.437-0.188-0.601-0.323
				c-0.164-0.134-0.291-0.296-0.383-0.485S114.639,58.509,114.639,58.289z M116.652,58.891c0.262,0,0.502-0.039,0.722-0.119
				c0.219-0.081,0.406-0.192,0.563-0.336c0.157-0.141,0.276-0.31,0.361-0.508c0.083-0.195,0.125-0.415,0.125-0.654v-0.274
				l-1.289,0.208c-0.46,0.073-0.824,0.189-1.095,0.35c-0.27,0.161-0.405,0.367-0.405,0.623c0,0.081,0.019,0.16,0.056,0.241
				c0.036,0.079,0.095,0.156,0.175,0.229s0.185,0.131,0.312,0.175C116.304,58.869,116.463,58.891,116.652,58.891z"/>
			<path d="M120.752,56.332c0.028-0.335,0.109-0.649,0.24-0.939c0.132-0.293,0.304-0.548,0.516-0.767
				c0.21-0.22,0.464-0.389,0.759-0.514c0.296-0.124,0.625-0.186,0.989-0.186c0.394,0,0.746,0.063,1.056,0.19
				c0.311,0.128,0.573,0.312,0.793,0.553c0.218,0.24,0.386,0.533,0.503,0.875c0.116,0.344,0.175,0.725,0.175,1.147v0.296
				c0,0.079-0.029,0.15-0.087,0.208c-0.06,0.058-0.129,0.087-0.209,0.087h-3.762v0.066c0.016,0.495,0.167,0.876,0.455,1.143
				c0.288,0.265,0.646,0.398,1.076,0.398c0.401,0,0.702-0.055,0.903-0.169c0.2-0.114,0.363-0.239,0.486-0.377
				c0.058-0.06,0.108-0.099,0.153-0.122c0.044-0.021,0.108-0.031,0.197-0.031h0.326c0.081,0,0.153,0.028,0.22,0.086
				c0.065,0.061,0.091,0.129,0.077,0.209c-0.022,0.131-0.085,0.275-0.187,0.432c-0.103,0.157-0.251,0.303-0.442,0.438
				c-0.194,0.135-0.434,0.248-0.722,0.341c-0.289,0.089-0.625,0.135-1.013,0.135c-0.364,0-0.693-0.064-0.983-0.191
				c-0.292-0.128-0.546-0.302-0.76-0.524c-0.216-0.224-0.389-0.484-0.521-0.787c-0.131-0.303-0.212-0.634-0.24-0.99
				C120.716,57.002,120.716,56.668,120.752,56.332z M121.725,56.365h3.074v-0.033c0-0.443-0.142-0.801-0.422-1.066
				s-0.655-0.399-1.121-0.399c-0.211,0-0.408,0.035-0.59,0.104c-0.182,0.07-0.344,0.168-0.482,0.295
				c-0.137,0.127-0.247,0.283-0.326,0.465c-0.082,0.182-0.125,0.383-0.133,0.602V56.365z"/>
			<path d="M129.904,57.534l1.739-3.28c0.021-0.043,0.063-0.09,0.126-0.142c0.063-0.051,0.155-0.077,0.279-0.077h0.36
				c0.08,0,0.148,0.029,0.207,0.087c0.06,0.059,0.089,0.129,0.089,0.209v5.095c0,0.081-0.029,0.149-0.089,0.209
				c-0.059,0.059-0.127,0.088-0.207,0.088h-0.404c-0.08,0-0.151-0.029-0.208-0.088c-0.059-0.06-0.087-0.128-0.087-0.209v-3.289
				l-1.291,2.383c-0.036,0.066-0.083,0.127-0.138,0.185c-0.054,0.059-0.136,0.089-0.244,0.089h-0.264
				c-0.108,0-0.191-0.03-0.246-0.089c-0.055-0.058-0.101-0.118-0.137-0.185l-1.29-2.383v3.289c0,0.081-0.028,0.149-0.087,0.209
				c-0.059,0.059-0.128,0.088-0.209,0.088H127.4c-0.08,0-0.148-0.029-0.207-0.088c-0.059-0.06-0.089-0.128-0.089-0.209v-5.095
				c0-0.08,0.03-0.15,0.089-0.209c0.059-0.058,0.127-0.087,0.207-0.087h0.361c0.124,0,0.217,0.026,0.278,0.077
				c0.063,0.052,0.104,0.099,0.127,0.142L129.904,57.534z"/>
			<path d="M141.387,59.723c-0.081,0-0.149-0.029-0.208-0.088c-0.059-0.06-0.088-0.128-0.088-0.209v-3.662l-3.183,3.838
				c-0.059,0.08-0.138,0.121-0.24,0.121h-0.371c-0.08,0-0.147-0.029-0.202-0.088c-0.055-0.06-0.083-0.128-0.083-0.209v-5.095
				c0-0.08,0.029-0.15,0.088-0.209c0.059-0.058,0.127-0.087,0.208-0.087h0.404c0.081,0,0.149,0.029,0.208,0.087
				c0.059,0.059,0.089,0.129,0.089,0.209v3.696l3.181-3.871c0.036-0.037,0.07-0.065,0.104-0.088
				c0.033-0.023,0.078-0.033,0.138-0.033h0.359c0.081,0,0.15,0.029,0.209,0.087c0.058,0.059,0.087,0.129,0.087,0.209v5.095
				c0,0.081-0.029,0.149-0.087,0.209c-0.059,0.059-0.128,0.088-0.209,0.088H141.387z"/>
			<path d="M148.506,54.035c0.079,0,0.148,0.029,0.207,0.087c0.059,0.059,0.087,0.129,0.087,0.209v5.095
				c0,0.081-0.028,0.149-0.087,0.209c-0.059,0.059-0.128,0.088-0.207,0.088H148.1c-0.08,0-0.148-0.029-0.207-0.088
				c-0.059-0.06-0.087-0.128-0.087-0.209v-2.131h-3.084v2.131c0,0.081-0.029,0.149-0.087,0.209
				c-0.059,0.059-0.129,0.088-0.209,0.088h-0.404c-0.08,0-0.148-0.026-0.207-0.083c-0.059-0.056-0.089-0.126-0.089-0.214v-5.095
				c0-0.08,0.03-0.15,0.089-0.209c0.059-0.058,0.127-0.087,0.207-0.087h0.404c0.08,0,0.15,0.029,0.209,0.087
				c0.058,0.059,0.087,0.129,0.087,0.209v2.022h3.084v-2.022c0-0.08,0.028-0.15,0.087-0.209c0.059-0.058,0.127-0.087,0.207-0.087
				H148.506z"/>
			<path d="M154.857,54.035c0.081,0,0.149,0.029,0.209,0.087c0.059,0.059,0.088,0.129,0.088,0.209v0.35
				c0,0.081-0.029,0.149-0.088,0.208c-0.06,0.059-0.128,0.088-0.209,0.088h-1.891v4.449c0,0.081-0.03,0.149-0.089,0.209
				c-0.059,0.059-0.127,0.088-0.206,0.088h-0.406c-0.079,0-0.148-0.029-0.208-0.088c-0.057-0.06-0.087-0.128-0.087-0.209v-4.449
				h-1.892c-0.08,0-0.149-0.029-0.207-0.088c-0.059-0.059-0.088-0.127-0.088-0.208v-0.35c0-0.08,0.029-0.15,0.088-0.209
				c0.058-0.058,0.127-0.087,0.207-0.087H154.857z"/>
			<path d="M155.744,56.332c0.029-0.335,0.109-0.649,0.24-0.939c0.131-0.293,0.303-0.548,0.514-0.767
				c0.212-0.22,0.465-0.389,0.761-0.514c0.295-0.124,0.624-0.186,0.989-0.186c0.394,0,0.746,0.063,1.056,0.19
				s0.573,0.312,0.793,0.553c0.218,0.24,0.385,0.533,0.503,0.875c0.116,0.344,0.175,0.725,0.175,1.147v0.296
				c0,0.079-0.029,0.15-0.088,0.208c-0.06,0.058-0.128,0.087-0.208,0.087h-3.762v0.066c0.016,0.495,0.167,0.876,0.455,1.143
				c0.288,0.265,0.645,0.398,1.076,0.398c0.401,0,0.701-0.055,0.903-0.169c0.199-0.114,0.362-0.239,0.484-0.377
				c0.06-0.06,0.11-0.099,0.153-0.122c0.045-0.021,0.11-0.031,0.199-0.031h0.326c0.081,0,0.153,0.028,0.22,0.086
				c0.065,0.061,0.09,0.129,0.075,0.209c-0.021,0.131-0.083,0.275-0.184,0.432c-0.104,0.157-0.252,0.303-0.444,0.438
				c-0.194,0.135-0.434,0.248-0.722,0.341c-0.288,0.089-0.625,0.135-1.012,0.135c-0.365,0-0.692-0.064-0.983-0.191
				c-0.292-0.128-0.545-0.302-0.761-0.524c-0.215-0.224-0.389-0.484-0.52-0.787s-0.211-0.634-0.24-0.99
				C155.708,57.002,155.708,56.668,155.744,56.332z M156.717,56.365h3.072v-0.033c0-0.443-0.14-0.801-0.42-1.066
				s-0.654-0.399-1.121-0.399c-0.212,0-0.407,0.035-0.591,0.104c-0.181,0.07-0.343,0.168-0.48,0.295s-0.247,0.283-0.327,0.465
				c-0.081,0.182-0.125,0.383-0.133,0.602V56.365z"/>
			<path d="M164.788,59.831c-0.453,0-0.814-0.079-1.083-0.235c-0.271-0.158-0.475-0.327-0.612-0.508v2.416
				c0,0.08-0.03,0.15-0.088,0.208c-0.058,0.059-0.128,0.087-0.208,0.087h-0.404c-0.081,0-0.15-0.028-0.207-0.087
				c-0.059-0.058-0.088-0.128-0.088-0.208v-7.173c0-0.08,0.029-0.15,0.088-0.209c0.057-0.058,0.126-0.087,0.207-0.087h0.404
				c0.08,0,0.15,0.029,0.208,0.087c0.058,0.059,0.088,0.129,0.088,0.209v0.339c0.145-0.197,0.353-0.369,0.622-0.519
				c0.269-0.149,0.627-0.225,1.073-0.225c0.342,0,0.661,0.061,0.955,0.181c0.296,0.121,0.554,0.293,0.772,0.519
				c0.218,0.226,0.393,0.5,0.525,0.821c0.13,0.32,0.206,0.681,0.229,1.082c0.007,0.109,0.01,0.228,0.01,0.355
				c0,0.126-0.003,0.245-0.01,0.354c-0.023,0.402-0.1,0.764-0.229,1.083c-0.133,0.323-0.308,0.593-0.525,0.814
				c-0.219,0.224-0.477,0.396-0.772,0.515C165.449,59.771,165.13,59.831,164.788,59.831z M163.093,56.408
				c-0.009,0.109-0.012,0.254-0.012,0.432c0,0.18,0.003,0.322,0.012,0.434c0.021,0.516,0.176,0.916,0.464,1.197
				c0.288,0.279,0.662,0.42,1.12,0.42c0.481,0,0.861-0.152,1.138-0.459c0.277-0.306,0.431-0.721,0.459-1.247
				c0.008-0.204,0.008-0.407,0-0.612c-0.028-0.525-0.182-0.939-0.459-1.246c-0.276-0.307-0.656-0.46-1.138-0.46
				c-0.451,0-0.823,0.14-1.113,0.416C163.271,55.56,163.114,55.935,163.093,56.408z"/>
			<path d="M173.414,54.035c0.08,0,0.15,0.029,0.207,0.087c0.06,0.059,0.088,0.129,0.088,0.209v5.095
				c0,0.081-0.028,0.149-0.088,0.209c-0.057,0.059-0.127,0.088-0.207,0.088h-0.404c-0.08,0-0.15-0.029-0.208-0.088
				c-0.059-0.06-0.088-0.128-0.088-0.209v-2.131h-3.082v2.131c0,0.081-0.03,0.149-0.089,0.209c-0.059,0.059-0.127,0.088-0.206,0.088
				h-0.405c-0.082,0-0.15-0.026-0.208-0.083c-0.059-0.056-0.088-0.126-0.088-0.214v-5.095c0-0.08,0.029-0.15,0.088-0.209
				c0.058-0.058,0.126-0.087,0.208-0.087h0.405c0.079,0,0.147,0.029,0.206,0.087c0.059,0.059,0.089,0.129,0.089,0.209v2.022h3.082
				v-2.022c0-0.08,0.029-0.15,0.088-0.209c0.058-0.058,0.128-0.087,0.208-0.087H173.414z"/>
			<path d="M175.087,56.332c0.03-0.335,0.111-0.649,0.242-0.939c0.131-0.293,0.302-0.548,0.513-0.767
				c0.211-0.22,0.466-0.389,0.76-0.514c0.296-0.124,0.626-0.186,0.99-0.186c0.395,0,0.745,0.063,1.056,0.19
				c0.31,0.128,0.574,0.312,0.793,0.553c0.219,0.24,0.386,0.533,0.503,0.875c0.117,0.344,0.176,0.725,0.176,1.147v0.296
				c0,0.079-0.03,0.15-0.089,0.208c-0.058,0.058-0.127,0.087-0.208,0.087h-3.762v0.066c0.016,0.495,0.166,0.876,0.454,1.143
				c0.288,0.265,0.647,0.398,1.077,0.398c0.401,0,0.702-0.055,0.902-0.169s0.362-0.239,0.486-0.377
				c0.059-0.06,0.109-0.099,0.154-0.122c0.043-0.021,0.108-0.031,0.195-0.031h0.329c0.079,0,0.153,0.028,0.219,0.086
				c0.065,0.061,0.091,0.129,0.076,0.209c-0.021,0.131-0.084,0.275-0.187,0.432c-0.101,0.157-0.25,0.303-0.442,0.438
				s-0.434,0.248-0.723,0.341c-0.287,0.089-0.624,0.135-1.011,0.135c-0.364,0-0.692-0.064-0.984-0.191
				c-0.291-0.128-0.545-0.302-0.76-0.524c-0.215-0.224-0.388-0.484-0.519-0.787s-0.212-0.634-0.242-0.99
				C175.051,57.002,175.051,56.668,175.087,56.332z M176.061,56.365h3.074v-0.033c0-0.443-0.141-0.801-0.423-1.066
				c-0.28-0.266-0.653-0.399-1.12-0.399c-0.211,0-0.408,0.035-0.59,0.104c-0.184,0.07-0.344,0.168-0.481,0.295
				c-0.14,0.127-0.248,0.283-0.329,0.465c-0.079,0.182-0.123,0.383-0.131,0.602V56.365z"/>
			<path d="M185.771,54.035c0.079,0,0.148,0.029,0.207,0.087c0.06,0.059,0.087,0.129,0.087,0.209v0.35
				c0,0.081-0.027,0.149-0.087,0.208c-0.059,0.059-0.128,0.088-0.207,0.088h-1.894v4.449c0,0.081-0.028,0.149-0.086,0.209
				c-0.059,0.059-0.127,0.088-0.208,0.088h-0.405c-0.079,0-0.149-0.029-0.208-0.088c-0.058-0.06-0.086-0.128-0.086-0.209v-4.449
				h-1.894c-0.079,0-0.148-0.029-0.206-0.088c-0.059-0.059-0.088-0.127-0.088-0.208v-0.35c0-0.08,0.029-0.15,0.088-0.209
				c0.058-0.058,0.127-0.087,0.206-0.087H185.771z"/>
			<path d="M193.109,52.035c0,0.254-0.058,0.487-0.172,0.7c-0.111,0.21-0.254,0.416-0.425,0.616
				c-0.172,0.202-0.361,0.406-0.568,0.613c-0.208,0.207-0.411,0.436-0.608,0.684c0.184-0.045,0.385-0.066,0.602-0.066
				c0.365,0,0.701,0.059,1.006,0.176c0.307,0.116,0.571,0.287,0.794,0.514c0.223,0.226,0.394,0.5,0.519,0.824
				c0.125,0.326,0.186,0.695,0.186,1.111c0,0.387-0.061,0.742-0.186,1.066s-0.296,0.602-0.519,0.83
				c-0.223,0.23-0.487,0.408-0.794,0.536c-0.305,0.127-0.641,0.191-1.006,0.191c-0.364,0-0.699-0.064-1.006-0.191
				c-0.305-0.128-0.57-0.306-0.792-0.536c-0.223-0.229-0.396-0.506-0.521-0.83c-0.123-0.324-0.186-0.68-0.186-1.066
				c0-0.561,0.065-1.052,0.197-1.471s0.297-0.785,0.497-1.1c0.201-0.313,0.417-0.586,0.646-0.82c0.23-0.232,0.445-0.448,0.646-0.644
				c0.2-0.198,0.366-0.386,0.498-0.564c0.131-0.179,0.196-0.369,0.196-0.573c0-0.08,0.029-0.149,0.088-0.209
				c0.058-0.059,0.126-0.087,0.207-0.087h0.404c0.081,0,0.15,0.028,0.208,0.087C193.079,51.886,193.109,51.955,193.109,52.035z
				 M191.938,55.523c-0.51,0-0.889,0.154-1.137,0.465c-0.248,0.309-0.372,0.715-0.372,1.219s0.124,0.91,0.372,1.219
				c0.248,0.311,0.627,0.465,1.137,0.465c0.511,0,0.891-0.154,1.138-0.465c0.248-0.309,0.373-0.715,0.373-1.219
				s-0.125-0.91-0.373-1.219C192.828,55.678,192.448,55.523,191.938,55.523z"/>
			<path d="M200.15,59.723c-0.08,0-0.148-0.029-0.207-0.088c-0.059-0.06-0.089-0.128-0.089-0.209v-3.662l-3.182,3.838
				c-0.058,0.08-0.138,0.121-0.24,0.121h-0.372c-0.08,0-0.147-0.029-0.201-0.088c-0.056-0.06-0.083-0.128-0.083-0.209v-5.095
				c0-0.08,0.029-0.15,0.088-0.209c0.06-0.058,0.128-0.087,0.208-0.087h0.403c0.081,0,0.149,0.029,0.209,0.087
				c0.059,0.059,0.088,0.129,0.088,0.209v3.696l3.181-3.871c0.036-0.037,0.072-0.065,0.104-0.088
				c0.033-0.023,0.078-0.033,0.139-0.033h0.36c0.08,0,0.149,0.029,0.208,0.087c0.057,0.059,0.087,0.129,0.087,0.209v5.095
				c0,0.081-0.03,0.149-0.087,0.209c-0.059,0.059-0.128,0.088-0.208,0.088H200.15z"/>
			<path d="M203.102,58.373c0.125,0.23,0.301,0.373,0.53,0.432c0.23,0.057,0.492,0.086,0.784,0.086c0.182,0,0.352-0.012,0.508-0.037
				c0.156-0.026,0.293-0.068,0.41-0.126c0.116-0.06,0.209-0.14,0.279-0.241c0.068-0.102,0.104-0.226,0.104-0.371
				c0-0.277-0.117-0.478-0.351-0.596c-0.233-0.121-0.521-0.182-0.863-0.182h-0.854c-0.08,0-0.149-0.029-0.207-0.087
				c-0.059-0.059-0.087-0.127-0.087-0.208v-0.351c0-0.079,0.028-0.149,0.087-0.208c0.058-0.057,0.127-0.088,0.207-0.088h0.863
				c0.307,0,0.567-0.063,0.782-0.189c0.216-0.127,0.323-0.318,0.323-0.574c0-0.27-0.117-0.465-0.349-0.586
				c-0.234-0.12-0.52-0.181-0.854-0.181c-0.329,0-0.584,0.05-0.767,0.147s-0.328,0.262-0.437,0.487
				c-0.037,0.079-0.087,0.149-0.148,0.208s-0.133,0.086-0.213,0.086h-0.328c-0.081,0-0.151-0.027-0.213-0.086
				c-0.063-0.059-0.09-0.129-0.081-0.208c0.006-0.196,0.06-0.392,0.157-0.579c0.099-0.191,0.239-0.36,0.421-0.51
				c0.182-0.148,0.408-0.268,0.68-0.354c0.268-0.087,0.578-0.131,0.929-0.131c0.306,0,0.591,0.034,0.857,0.104
				c0.266,0.069,0.498,0.175,0.695,0.317c0.196,0.142,0.353,0.318,0.47,0.529c0.116,0.213,0.175,0.463,0.175,0.756
				c0,0.256-0.046,0.48-0.137,0.677c-0.091,0.197-0.217,0.368-0.377,0.515c0.188,0.139,0.339,0.312,0.448,0.52
				c0.108,0.207,0.165,0.465,0.165,0.771c0,0.32-0.061,0.589-0.182,0.809c-0.12,0.218-0.284,0.396-0.492,0.53
				c-0.207,0.134-0.451,0.231-0.731,0.29c-0.281,0.057-0.579,0.087-0.892,0.087c-0.388,0-0.722-0.04-1.002-0.12
				c-0.279-0.079-0.515-0.186-0.705-0.32c-0.189-0.134-0.333-0.29-0.432-0.467c-0.099-0.178-0.151-0.361-0.158-0.551
				c-0.008-0.078,0.021-0.146,0.082-0.205c0.062-0.057,0.133-0.086,0.213-0.086h0.328c0.08,0,0.146,0.02,0.196,0.061
				C202.989,58.18,203.045,58.258,203.102,58.373z"/>
			<path d="M212.879,54.035c0.08,0,0.149,0.029,0.208,0.087c0.059,0.059,0.087,0.129,0.087,0.209v5.095
				c0,0.081-0.028,0.149-0.087,0.209c-0.059,0.059-0.128,0.088-0.208,0.088h-0.404c-0.081,0-0.15-0.029-0.208-0.088
				c-0.059-0.06-0.087-0.128-0.087-0.209v-2.131h-3.084v2.131c0,0.081-0.029,0.149-0.088,0.209
				c-0.059,0.059-0.128,0.088-0.209,0.088h-0.403c-0.08,0-0.149-0.026-0.207-0.083c-0.061-0.056-0.089-0.126-0.089-0.214v-5.095
				c0-0.08,0.028-0.15,0.089-0.209c0.058-0.058,0.127-0.087,0.207-0.087h0.403c0.081,0,0.15,0.029,0.209,0.087
				c0.059,0.059,0.088,0.129,0.088,0.209v2.022h3.084v-2.022c0-0.08,0.028-0.15,0.087-0.209c0.058-0.058,0.127-0.087,0.208-0.087
				H212.879z"/>
			<path d="M214.553,56.332c0.029-0.335,0.108-0.649,0.239-0.939c0.131-0.293,0.303-0.548,0.515-0.767
				c0.211-0.22,0.464-0.389,0.76-0.514c0.296-0.124,0.625-0.186,0.989-0.186c0.394,0,0.746,0.063,1.056,0.19
				s0.574,0.312,0.793,0.553c0.218,0.24,0.386,0.533,0.502,0.875c0.117,0.344,0.176,0.725,0.176,1.147v0.296
				c0,0.079-0.028,0.15-0.088,0.208s-0.128,0.087-0.207,0.087h-3.762v0.066c0.014,0.495,0.166,0.876,0.454,1.143
				c0.288,0.265,0.646,0.398,1.076,0.398c0.4,0,0.702-0.055,0.902-0.169s0.364-0.239,0.486-0.377c0.06-0.06,0.109-0.099,0.153-0.122
				c0.044-0.021,0.109-0.031,0.197-0.031h0.327c0.081,0,0.153,0.028,0.219,0.086c0.065,0.061,0.092,0.129,0.077,0.209
				c-0.021,0.131-0.084,0.275-0.186,0.432c-0.104,0.157-0.251,0.303-0.442,0.438c-0.194,0.135-0.435,0.248-0.722,0.341
				c-0.289,0.089-0.626,0.135-1.013,0.135c-0.364,0-0.692-0.064-0.983-0.191c-0.292-0.128-0.545-0.302-0.76-0.524
				c-0.216-0.224-0.39-0.484-0.521-0.787s-0.21-0.634-0.239-0.99C214.516,57.002,214.516,56.668,214.553,56.332z M215.525,56.365
				h3.072v-0.033c0-0.443-0.141-0.801-0.421-1.066s-0.655-0.399-1.121-0.399c-0.211,0-0.407,0.035-0.591,0.104
				c-0.181,0.07-0.342,0.168-0.481,0.295c-0.139,0.127-0.247,0.283-0.326,0.465c-0.081,0.182-0.124,0.383-0.132,0.602V56.365z"/>
			<path d="M221.637,57.261c0.029,0.292,0.094,0.54,0.193,0.744c0.098,0.204,0.217,0.371,0.359,0.504
				c0.143,0.131,0.302,0.228,0.476,0.289c0.175,0.063,0.354,0.093,0.536,0.093c0.35,0,0.648-0.065,0.896-0.196
				c0.248-0.132,0.44-0.35,0.579-0.656c0.052-0.118,0.104-0.196,0.159-0.235c0.055-0.04,0.122-0.061,0.202-0.061h0.327
				c0.081,0,0.151,0.029,0.214,0.088c0.063,0.058,0.089,0.129,0.082,0.208c-0.007,0.175-0.063,0.366-0.169,0.573
				c-0.105,0.208-0.263,0.401-0.469,0.58c-0.209,0.178-0.464,0.33-0.767,0.454c-0.303,0.123-0.655,0.186-1.056,0.186
				c-0.402,0-0.757-0.065-1.065-0.196c-0.31-0.133-0.573-0.31-0.788-0.535c-0.216-0.227-0.383-0.493-0.503-0.801
				c-0.121-0.307-0.188-0.633-0.202-0.983c-0.008-0.114-0.014-0.261-0.017-0.431c-0.004-0.172,0.002-0.319,0.017-0.442
				c0.029-0.351,0.104-0.679,0.224-0.985c0.121-0.307,0.286-0.572,0.498-0.799c0.21-0.226,0.471-0.404,0.776-0.536
				c0.306-0.131,0.658-0.195,1.061-0.195c0.4,0,0.753,0.062,1.056,0.186c0.303,0.125,0.558,0.276,0.767,0.454
				c0.206,0.179,0.363,0.372,0.469,0.58c0.105,0.207,0.162,0.398,0.169,0.572c0.007,0.082-0.02,0.149-0.082,0.209
				c-0.063,0.059-0.133,0.088-0.214,0.088h-0.327c-0.08,0-0.147-0.021-0.202-0.061c-0.055-0.039-0.107-0.119-0.159-0.236
				c-0.139-0.305-0.331-0.523-0.579-0.655c-0.248-0.131-0.547-0.197-0.896-0.197c-0.182,0-0.362,0.032-0.541,0.093
				c-0.18,0.063-0.34,0.159-0.481,0.29c-0.143,0.132-0.263,0.3-0.361,0.504s-0.159,0.452-0.181,0.743
				C221.616,56.766,221.616,57.021,221.637,57.261z"/>
		</g>
		<g>
			<g>
				<path fill="#FFFFFF" d="M6.64,18.058c3.588,0,6.506,2.919,6.506,6.507v13.278c0,3.587-2.918,6.506-6.506,6.506
					s-6.507-2.919-6.507-6.506V24.564C0.133,20.977,3.052,18.058,6.64,18.058 M29.213,40.744c-4.162,0-7.549-3.387-7.549-7.549
					c0-4.163,3.387-7.549,7.549-7.549c0.65,0,1.275-0.114,1.858-0.315v-0.767c0-3.588-2.919-6.507-6.507-6.507
					c-3.587,0-6.506,2.919-6.506,6.507v26.557c0,3.588,2.919,6.506,6.506,6.506c3.588,0,6.507-2.918,6.507-6.506V40.656
					C30.458,40.71,29.84,40.744,29.213,40.744z M13.278,6.64C13.278,2.973,10.305,0,6.64,0C2.987,0,0,2.986,0,6.64
					c0,3.65,2.987,6.638,6.64,6.638C10.305,13.277,13.278,10.305,13.278,6.64z M29.213,0H10.229c2.355,1.279,3.959,3.775,3.959,6.64
					c0,2.862-1.604,5.36-3.959,6.638h18.984c3.666,0,6.639,2.975,6.639,6.64c0,3.667-2.973,6.639-6.639,6.639
					c-3.668,0-6.64,2.974-6.64,6.64s2.972,6.639,6.64,6.639c10.999,0,19.917-8.917,19.917-19.917C49.13,8.918,40.212,0,29.213,0z"/>
				<g>
					<g>
						<path fill="#FFFFFF" d="M209.528,27.982c0,2.076-0.26,3.957-0.78,5.645c-0.519,1.688-1.298,3.13-2.335,4.322
							c-1.039,1.195-2.337,2.109-3.894,2.744c-1.559,0.638-3.375,0.954-5.452,0.954h-1.79c-1.194,0-2.13-0.375-2.803-1.128
							c-0.676-0.752-1.014-1.648-1.014-2.686c0-1.039,0.338-1.929,1.014-2.668c0.673-0.739,1.608-1.11,2.803-1.11h1.129
							c0.908,0,1.713-0.091,2.414-0.272c0.699-0.182,1.29-0.486,1.771-0.915c0.48-0.427,0.843-1.006,1.09-1.731
							c0.248-0.729,0.37-1.624,0.37-2.688V17.859c0-1.195,0.37-2.116,1.109-2.768c0.741-0.646,1.616-0.971,2.628-0.971
							s1.889,0.324,2.629,0.971c0.74,0.651,1.11,1.572,1.11,2.768V27.982z"/>
					</g>
					<g>
						<g>
							<path fill="#FFFFFF" d="M79.69,38.027c0,1.246-0.377,2.188-1.129,2.822c-0.754,0.637-1.636,0.955-2.647,0.955
								c-1.039,0-1.928-0.318-2.667-0.955c-0.74-0.635-1.11-1.576-1.11-2.822V17.859c0-1.195,0.37-2.116,1.11-2.768
								c0.739-0.646,1.628-0.971,2.667-0.971c1.012,0,1.894,0.324,2.647,0.971c0.752,0.651,1.129,1.572,1.129,2.768V38.027z"/>
						</g>
						<g>
							<path fill="#FFFFFF" d="M95.889,38.027c0,1.246-0.377,2.188-1.129,2.822c-0.754,0.637-1.649,0.955-2.688,0.955
								c-1.012,0-1.889-0.318-2.629-0.955c-0.74-0.635-1.108-1.576-1.108-2.822V21.869h-2.648c-1.194,0-2.121-0.375-2.784-1.125
								c-0.662-0.748-0.993-1.639-0.993-2.672c0-1.035,0.331-1.924,0.993-2.674c0.663-0.748,1.59-1.123,2.784-1.123h12.772
								c1.192,0,2.127,0.375,2.802,1.123c0.675,0.75,1.014,1.639,1.014,2.674c0,1.033-0.339,1.924-1.014,2.672
								c-0.675,0.75-1.609,1.125-2.802,1.125h-2.57V38.027z"/>
						</g>
						<g>
							<path fill="#FFFFFF" d="M123.399,37.91c0,2.596-1.252,3.895-3.758,3.895c-2.531,0-3.796-1.271-3.796-3.816V18.053
								c0-2.543,1.22-3.816,3.66-3.816h7.709c1.637,0,3.057,0.209,4.264,0.624c1.208,0.415,2.2,1.006,2.979,1.771
								c0.779,0.767,1.356,1.695,1.733,2.783c0.376,1.091,0.564,2.313,0.564,3.661c0,1.245-0.176,2.409-0.526,3.485
								c-0.35,1.076-0.85,2.006-1.498,2.784c-0.65,0.778-1.441,1.396-2.375,1.851c-0.935,0.453-1.999,0.68-3.192,0.68h-1.325
								c-1.245,0-2.116-0.291-2.608-0.875c-0.493-0.585-0.739-1.369-0.739-2.357c0-0.985,0.271-1.713,0.816-2.181
								c0.546-0.466,1.233-0.7,2.064-0.7h0.622c0.649,0,1.155-0.169,1.52-0.506c0.362-0.338,0.545-0.857,0.545-1.557
								c0-0.779-0.222-1.344-0.666-1.695c-0.444-0.35-1.071-0.524-1.88-0.524h-4.112V37.91z"/>
						</g>
						<g>
							<path fill="#FFFFFF" d="M147.813,31.292c-0.131-0.208-0.26-0.532-0.39-0.975c-0.13-0.44-0.182-0.921-0.155-1.44
								c0-0.986,0.259-1.771,0.779-2.354c0.518-0.585,1.231-0.877,2.141-0.877h0.544c0.649,0,1.17-0.182,1.559-0.546
								c0.39-0.362,0.585-0.934,0.585-1.712c0-0.702-0.196-1.193-0.589-1.479c-0.391-0.287-0.994-0.429-1.802-0.429h-4.112v16.275
								c0,2.597-1.254,3.893-3.758,3.893c-2.531,0-3.796-1.271-3.796-3.813V18.053c0-2.543,1.22-3.816,3.659-3.816h8.178
								c1.608,0,2.998,0.24,4.166,0.721s2.128,1.109,2.881,1.889c0.753,0.778,1.311,1.668,1.674,2.668
								c0.364,0.999,0.545,2.018,0.545,3.055c0,1.869-0.446,3.453-1.342,4.751c-0.896,1.3-1.98,2.206-3.251,2.726l3.62,5.686
								c0.492,0.883,0.74,1.662,0.74,2.337c0,0.544-0.117,1.05-0.351,1.517c-0.233,0.469-0.546,0.864-0.936,1.188
								c-0.389,0.325-0.83,0.579-1.323,0.759c-0.493,0.183-0.987,0.273-1.479,0.273c-0.598,0-1.188-0.157-1.772-0.468
								c-0.584-0.312-1.058-0.804-1.421-1.479L147.813,31.292z"/>
						</g>
						<g>
							<path fill="#FFFFFF" d="M162.064,27.942c0-1.946,0.361-3.763,1.088-5.45c0.725-1.688,1.723-3.166,2.993-4.439
								c1.271-1.271,2.749-2.271,4.434-2.999c1.685-0.726,3.5-1.089,5.444-1.089c1.943,0,3.765,0.363,5.462,1.089
								c1.698,0.728,3.177,1.728,4.433,2.999c1.258,1.273,2.256,2.752,2.994,4.439s1.108,3.504,1.108,5.45
								c0,1.947-0.37,3.765-1.108,5.452s-1.736,3.167-2.994,4.439c-1.256,1.271-2.734,2.271-4.433,2.997
								c-1.697,0.728-3.519,1.09-5.462,1.09c-1.944,0-3.76-0.362-5.444-1.09c-1.685-0.726-3.163-1.726-4.434-2.997
								c-1.271-1.272-2.269-2.752-2.993-4.439C162.426,31.707,162.064,29.89,162.064,27.942z M169.734,28.04
								c0,0.879,0.169,1.702,0.506,2.466c0.337,0.763,0.792,1.43,1.363,1.998c0.57,0.57,1.24,1.016,2.005,1.34
								c0.765,0.322,1.59,0.484,2.473,0.484s1.707-0.162,2.474-0.484c0.765-0.324,1.44-0.77,2.023-1.34
								c0.585-0.568,1.045-1.235,1.383-1.998c0.337-0.764,0.506-1.587,0.506-2.466c0-0.88-0.169-1.708-0.506-2.485
								c-0.338-0.776-0.798-1.449-1.383-2.018c-0.583-0.568-1.259-1.022-2.023-1.357c-0.767-0.336-1.591-0.506-2.474-0.506
								s-1.708,0.17-2.473,0.506c-0.765,0.335-1.435,0.789-2.005,1.357c-0.571,0.568-1.026,1.241-1.363,2.018
								C169.903,26.332,169.734,27.16,169.734,28.04z"/>
						</g>
						<g>
							<path fill="#FFFFFF" d="M216.205,41.647c-2.506,0-3.758-1.269-3.758-3.81V18.086c0-2.539,1.252-3.811,3.758-3.811h12.87
								c1.193,0,2.12,0.375,2.783,1.123c0.661,0.75,0.993,1.639,0.993,2.674c0,1.033-0.332,1.924-0.993,2.672
								c-0.663,0.75-1.59,1.125-2.783,1.125h-9.074v2.609h7.554c1.091,0,1.94,0.344,2.551,1.031
								c0.609,0.688,0.917,1.498,0.917,2.433s-0.308,1.747-0.917,2.435c-0.61,0.688-1.46,1.031-2.551,1.031h-7.554v2.647h9.074
								c1.193,0,2.12,0.371,2.783,1.11c0.661,0.739,0.993,1.629,0.993,2.668c0,1.037-0.332,1.934-0.993,2.686
								c-0.663,0.753-1.59,1.128-2.783,1.128H216.205z"/>
						</g>
						<g>
							<path fill="#FFFFFF" d="M248.932,21.946c-1.063,0-1.986,0.169-2.764,0.506c-0.778,0.339-1.436,0.786-1.968,1.343
								c-0.531,0.559-0.928,1.201-1.188,1.93c-0.258,0.727-0.389,1.465-0.389,2.218c0,0.778,0.131,1.537,0.389,2.278
								c0.26,0.74,0.656,1.389,1.188,1.948c0.532,0.556,1.189,1.012,1.968,1.36c0.777,0.352,1.686,0.526,2.726,0.526h2.804
								c0.648,0,1.207,0.11,1.673,0.331c0.468,0.221,0.858,0.506,1.17,0.856c0.311,0.351,0.545,0.754,0.7,1.208
								c0.155,0.453,0.232,0.914,0.232,1.383c0,1.012-0.311,1.9-0.933,2.666c-0.623,0.767-1.571,1.147-2.843,1.147h-2.766
								c-2.258,0-4.244-0.381-5.957-1.147c-1.714-0.766-3.135-1.783-4.264-3.056s-1.979-2.714-2.55-4.323
								c-0.572-1.608-0.857-3.271-0.857-4.984c0-1.713,0.293-3.406,0.877-5.082c0.584-1.673,1.473-3.158,2.666-4.457
								c1.194-1.299,2.673-2.349,4.44-3.154c1.764-0.803,3.84-1.207,6.229-1.207h2.182c0.623,0,1.174,0.111,1.655,0.332
								c0.479,0.221,0.881,0.513,1.205,0.875c0.326,0.364,0.571,0.773,0.741,1.227c0.168,0.454,0.253,0.929,0.253,1.422
								c0,0.494-0.085,0.973-0.253,1.441c-0.17,0.466-0.415,0.875-0.741,1.226c-0.324,0.35-0.726,0.638-1.205,0.856
								c-0.481,0.221-1.032,0.331-1.655,0.331H248.932z"/>
						</g>
						<g>
							<path fill="#FFFFFF" d="M271.166,38.027c0,1.246-0.377,2.188-1.13,2.822c-0.753,0.637-1.648,0.955-2.688,0.955
								c-1.012,0-1.888-0.318-2.628-0.955c-0.738-0.635-1.109-1.576-1.109-2.822V21.869h-2.646c-1.196,0-2.123-0.375-2.784-1.125
								c-0.662-0.748-0.994-1.639-0.994-2.672c0-1.035,0.332-1.924,0.994-2.674c0.661-0.748,1.588-1.123,2.784-1.123h12.771
								c1.193,0,2.129,0.375,2.804,1.123c0.675,0.75,1.012,1.639,1.012,2.674c0,1.033-0.337,1.924-1.012,2.672
								c-0.675,0.75-1.61,1.125-2.804,1.125h-2.569V38.027z"/>
						</g>
						<g>
							<path fill="#FFFFFF" d="M299.706,32.927c0,5.815-2.849,8.721-8.544,8.721h-7.529c-0.625,0-1.171-0.108-1.639-0.331
								c-0.469-0.219-0.858-0.506-1.171-0.854c-0.312-0.352-0.547-0.754-0.702-1.211c-0.154-0.451-0.234-0.926-0.234-1.418
								c0-0.469,0.08-0.93,0.234-1.383c0.155-0.454,0.396-0.857,0.72-1.208c0.325-0.351,0.726-0.636,1.208-0.856
								c0.479-0.221,1.031-0.331,1.655-0.331h7.864c0.52,0,0.9-0.149,1.148-0.448c0.246-0.298,0.371-0.616,0.371-0.955
								c0-0.36-0.125-0.699-0.371-1.012c-0.248-0.311-0.629-0.467-1.148-0.467h-3.894c-2.673,0-4.686-0.652-6.035-1.961
								c-1.351-1.308-2.026-3.359-2.026-6.158c0-5.852,2.869-8.779,8.606-8.779h6.074c0.648,0,1.221,0.111,1.713,0.328
								c0.494,0.221,0.909,0.505,1.247,0.854c0.336,0.349,0.59,0.75,0.759,1.201s0.253,0.912,0.253,1.375
								c0,0.466-0.084,0.931-0.253,1.395c-0.169,0.465-0.423,0.879-0.759,1.24c-0.338,0.361-0.76,0.653-1.266,0.872
								c-0.508,0.219-1.084,0.329-1.733,0.329h-6.54c-0.521,0-0.896,0.149-1.131,0.445c-0.232,0.301-0.351,0.631-0.351,0.996
								c0,0.337,0.118,0.653,0.351,0.953c0.236,0.299,0.613,0.447,1.136,0.447h3.902c2.734,0,4.766,0.662,6.093,1.986
								C299.043,28.02,299.706,30.097,299.706,32.927z"/>
						</g>
					</g>
				</g>
				<g>
					<g>
						<path fill="#FFFFFF" d="M75.537,54.692l2.208-4.274c0.044-0.088,0.104-0.168,0.181-0.241c0.076-0.072,0.176-0.11,0.301-0.11
							h0.416c0.08,0,0.148,0.029,0.207,0.088s0.087,0.127,0.087,0.208v7.063c0,0.081-0.028,0.149-0.087,0.209
							c-0.059,0.059-0.127,0.088-0.207,0.088h-0.448c-0.08,0-0.149-0.029-0.207-0.088c-0.06-0.06-0.089-0.128-0.089-0.209v-5.183
							l-1.705,3.291c-0.059,0.11-0.12,0.196-0.186,0.257c-0.066,0.063-0.153,0.094-0.264,0.094h-0.415
							c-0.11,0-0.196-0.031-0.263-0.094c-0.066-0.061-0.127-0.146-0.186-0.257l-1.706-3.291v5.183c0,0.081-0.029,0.149-0.087,0.209
							c-0.06,0.059-0.129,0.088-0.208,0.088h-0.448c-0.08,0-0.149-0.029-0.208-0.088c-0.059-0.06-0.087-0.128-0.087-0.209v-7.063
							c0-0.081,0.028-0.149,0.087-0.208s0.128-0.088,0.208-0.088h0.415c0.124,0,0.225,0.038,0.3,0.11
							c0.077,0.073,0.138,0.153,0.182,0.241L75.537,54.692z"/>
					</g>
					<g>
						<path fill="#FFFFFF" d="M80.993,57.723c-0.08,0-0.149-0.029-0.208-0.088c-0.059-0.06-0.087-0.128-0.087-0.209v-5.095
							c0-0.08,0.028-0.15,0.087-0.209c0.059-0.058,0.128-0.087,0.208-0.087h0.405c0.079,0,0.148,0.029,0.207,0.087
							c0.059,0.059,0.088,0.129,0.088,0.209v1.104h1.181c0.35,0,0.669,0.051,0.957,0.152c0.287,0.103,0.536,0.246,0.742,0.432
							c0.21,0.188,0.371,0.413,0.487,0.68c0.117,0.266,0.175,0.558,0.175,0.881c0,0.32-0.058,0.613-0.175,0.879
							c-0.116,0.266-0.277,0.492-0.487,0.677c-0.206,0.188-0.455,0.331-0.742,0.434c-0.288,0.102-0.607,0.153-0.957,0.153H80.993z
							 M84.253,55.58c0-0.221-0.04-0.406-0.116-0.559c-0.077-0.154-0.183-0.277-0.316-0.373c-0.135-0.096-0.298-0.164-0.487-0.206
							c-0.189-0.046-0.394-0.066-0.611-0.066h-1.028v2.405h1.028c0.218,0,0.422-0.022,0.611-0.064
							c0.189-0.045,0.353-0.115,0.487-0.208c0.134-0.095,0.239-0.22,0.316-0.373C84.213,55.982,84.253,55.797,84.253,55.58z
							 M86.778,57.426c0,0.081-0.03,0.149-0.088,0.209c-0.06,0.059-0.128,0.088-0.208,0.088h-0.404
							c-0.081,0-0.149-0.029-0.208-0.088c-0.059-0.06-0.088-0.128-0.088-0.209v-5.095c0-0.08,0.029-0.15,0.088-0.209
							c0.059-0.058,0.127-0.087,0.208-0.087h0.404c0.08,0,0.148,0.029,0.208,0.087c0.058,0.059,0.088,0.129,0.088,0.209V57.426z"/>
					</g>
					<g>
						<path fill="#FFFFFF" d="M91.818,55.261c0.03,0.292,0.094,0.54,0.191,0.744c0.099,0.204,0.22,0.371,0.36,0.504
							c0.144,0.131,0.302,0.228,0.477,0.289c0.175,0.063,0.354,0.093,0.536,0.093c0.35,0,0.648-0.065,0.896-0.196
							c0.247-0.132,0.44-0.35,0.579-0.656c0.051-0.118,0.104-0.196,0.159-0.235c0.055-0.04,0.121-0.061,0.202-0.061h0.328
							c0.079,0,0.151,0.029,0.214,0.088c0.061,0.058,0.088,0.129,0.082,0.208c-0.008,0.175-0.064,0.366-0.17,0.573
							c-0.106,0.208-0.263,0.401-0.471,0.58c-0.208,0.178-0.463,0.33-0.766,0.454c-0.302,0.123-0.654,0.186-1.055,0.186
							c-0.401,0-0.756-0.065-1.066-0.196c-0.311-0.133-0.572-0.31-0.787-0.535c-0.215-0.227-0.383-0.493-0.504-0.801
							c-0.12-0.307-0.187-0.633-0.202-0.983c-0.007-0.114-0.012-0.261-0.015-0.431c-0.006-0.172,0.001-0.319,0.015-0.442
							c0.029-0.351,0.104-0.679,0.225-0.985s0.286-0.572,0.497-0.799c0.212-0.226,0.471-0.404,0.776-0.536
							c0.307-0.131,0.66-0.195,1.062-0.195c0.4,0,0.753,0.062,1.055,0.186c0.303,0.125,0.558,0.276,0.766,0.454
							c0.208,0.179,0.364,0.372,0.471,0.58c0.105,0.207,0.162,0.398,0.17,0.572c0.006,0.082-0.021,0.149-0.082,0.209
							c-0.063,0.059-0.135,0.088-0.214,0.088H95.22c-0.081,0-0.147-0.021-0.202-0.061c-0.055-0.039-0.108-0.119-0.159-0.236
							c-0.139-0.305-0.332-0.523-0.579-0.655c-0.248-0.131-0.547-0.197-0.896-0.197c-0.183,0-0.363,0.032-0.541,0.093
							c-0.18,0.063-0.34,0.159-0.482,0.29c-0.143,0.132-0.262,0.3-0.359,0.504c-0.1,0.204-0.16,0.452-0.182,0.743
							C91.796,54.766,91.796,55.021,91.818,55.261z"/>
					</g>
					<g>
						<path fill="#FFFFFF" d="M99.484,51.927c0.394,0,0.742,0.061,1.049,0.181c0.307,0.121,0.568,0.286,0.788,0.496
							c0.218,0.212,0.391,0.469,0.519,0.772c0.129,0.302,0.207,0.631,0.235,0.989c0.008,0.064,0.011,0.144,0.011,0.234
							s0,0.186,0,0.285c0,0.098,0,0.193,0,0.283c0,0.093-0.003,0.166-0.011,0.225c-0.036,0.364-0.116,0.697-0.24,0.995
							c-0.125,0.298-0.296,0.555-0.514,0.765c-0.22,0.211-0.481,0.379-0.788,0.498c-0.307,0.121-0.655,0.181-1.049,0.181
							c-0.395,0-0.743-0.06-1.05-0.181c-0.307-0.119-0.568-0.287-0.787-0.498c-0.219-0.21-0.393-0.467-0.521-0.765
							c-0.127-0.298-0.205-0.631-0.234-0.995c-0.008-0.059-0.013-0.132-0.017-0.225c-0.004-0.09-0.006-0.186-0.006-0.283
							c0-0.1,0.002-0.194,0.006-0.285s0.009-0.17,0.017-0.234c0.029-0.358,0.107-0.688,0.234-0.989
							c0.128-0.304,0.302-0.561,0.521-0.772c0.219-0.21,0.48-0.375,0.787-0.496C98.741,51.987,99.09,51.927,99.484,51.927z
							 M101.08,55.338c0.016-0.123,0.021-0.274,0.021-0.453c0-0.18-0.006-0.334-0.021-0.465c-0.021-0.219-0.069-0.423-0.142-0.612
							c-0.073-0.189-0.176-0.354-0.307-0.492c-0.131-0.14-0.291-0.247-0.481-0.329c-0.188-0.08-0.412-0.12-0.666-0.12
							c-0.256,0-0.478,0.04-0.667,0.12c-0.19,0.082-0.351,0.189-0.481,0.329c-0.131,0.138-0.233,0.303-0.307,0.492
							c-0.072,0.189-0.12,0.394-0.142,0.612c-0.015,0.131-0.021,0.285-0.021,0.465c0,0.179,0.007,0.33,0.021,0.453
							c0.021,0.219,0.069,0.423,0.142,0.612c0.073,0.189,0.176,0.353,0.307,0.492s0.291,0.248,0.481,0.329
							c0.189,0.08,0.411,0.119,0.667,0.119c0.254,0,0.479-0.039,0.666-0.119c0.19-0.081,0.351-0.189,0.481-0.329
							s0.233-0.303,0.307-0.492C101.011,55.761,101.059,55.557,101.08,55.338z"/>
					</g>
					<g>
						<path fill="#FFFFFF" d="M104.077,56.373c0.124,0.23,0.3,0.373,0.53,0.432c0.229,0.057,0.489,0.086,0.782,0.086
							c0.181,0,0.352-0.012,0.508-0.037c0.156-0.026,0.294-0.068,0.411-0.126c0.116-0.06,0.21-0.14,0.278-0.241
							s0.103-0.226,0.103-0.371c0-0.277-0.116-0.478-0.349-0.596c-0.233-0.121-0.522-0.182-0.864-0.182h-0.854
							c-0.079,0-0.149-0.029-0.207-0.087c-0.059-0.059-0.087-0.127-0.087-0.208v-0.351c0-0.079,0.028-0.149,0.087-0.208
							c0.058-0.057,0.128-0.088,0.207-0.088h0.865c0.307,0,0.565-0.063,0.781-0.189c0.215-0.127,0.322-0.318,0.322-0.574
							c0-0.27-0.116-0.465-0.35-0.586c-0.233-0.12-0.519-0.181-0.853-0.181c-0.329,0-0.583,0.05-0.767,0.147
							c-0.182,0.098-0.327,0.262-0.438,0.487c-0.036,0.079-0.084,0.149-0.146,0.208s-0.134,0.086-0.214,0.086h-0.328
							c-0.08,0-0.149-0.027-0.212-0.086s-0.091-0.129-0.083-0.208c0.007-0.196,0.061-0.392,0.159-0.579
							c0.098-0.191,0.238-0.36,0.42-0.51c0.183-0.148,0.408-0.268,0.679-0.354c0.269-0.087,0.578-0.131,0.93-0.131
							c0.306,0,0.593,0.034,0.857,0.104c0.267,0.069,0.498,0.175,0.694,0.317c0.197,0.142,0.354,0.318,0.47,0.529
							c0.117,0.213,0.176,0.463,0.176,0.756c0,0.256-0.046,0.48-0.138,0.677c-0.091,0.197-0.216,0.368-0.376,0.515
							c0.188,0.139,0.338,0.312,0.448,0.52c0.109,0.207,0.164,0.465,0.164,0.771c0,0.32-0.061,0.589-0.18,0.809
							c-0.121,0.218-0.285,0.396-0.494,0.53c-0.206,0.134-0.451,0.231-0.731,0.29c-0.28,0.057-0.577,0.087-0.891,0.087
							c-0.388,0-0.721-0.04-1.001-0.12c-0.281-0.079-0.516-0.186-0.705-0.32c-0.19-0.134-0.334-0.29-0.433-0.467
							c-0.098-0.178-0.15-0.361-0.158-0.551c-0.008-0.078,0.021-0.146,0.082-0.205c0.063-0.057,0.134-0.086,0.214-0.086h0.327
							c0.081,0,0.146,0.02,0.198,0.061C103.964,56.18,104.019,56.258,104.077,56.373z"/>
					</g>
					<g>
						<path fill="#FFFFFF" d="M109.577,52.331c0-0.08,0.027-0.15,0.082-0.209c0.054-0.058,0.122-0.087,0.202-0.087h3.051
							c0.08,0,0.149,0.029,0.208,0.087c0.058,0.059,0.087,0.129,0.087,0.209v4.45l0.207,0.012c0.081,0,0.149,0.028,0.209,0.087
							c0.059,0.058,0.087,0.127,0.087,0.208v1.543c0,0.079-0.028,0.148-0.087,0.206c-0.06,0.059-0.128,0.088-0.209,0.088h-0.402
							c-0.081,0-0.149-0.029-0.208-0.088c-0.06-0.058-0.089-0.127-0.089-0.208v-0.906h-3.235v0.906c0,0.081-0.03,0.15-0.089,0.208
							c-0.059,0.059-0.128,0.088-0.207,0.088h-0.404c-0.081,0-0.149-0.029-0.209-0.088c-0.058-0.058-0.087-0.127-0.087-0.208v-1.552
							c0-0.081,0.029-0.149,0.087-0.208c0.06-0.059,0.128-0.088,0.209-0.088h0.251c0.116,0,0.211-0.029,0.284-0.087
							c0.072-0.059,0.13-0.138,0.169-0.242c0.04-0.101,0.066-0.216,0.077-0.343c0.011-0.129,0.017-0.265,0.017-0.411V52.331z
							 M112.212,52.977h-1.64v2.896c0,0.402-0.069,0.704-0.208,0.908h1.848V52.977z"/>
					</g>
					<g>
						<path fill="#FFFFFF" d="M114.639,56.289c0-0.293,0.06-0.547,0.176-0.766s0.277-0.404,0.48-0.557
							c0.204-0.153,0.444-0.277,0.718-0.371c0.272-0.096,0.563-0.168,0.868-0.22l1.542-0.252v-0.142c0-0.373-0.122-0.65-0.366-0.836
							c-0.243-0.188-0.548-0.28-0.913-0.28c-0.32,0-0.563,0.06-0.728,0.175c-0.163,0.117-0.303,0.256-0.421,0.416
							c-0.044,0.059-0.091,0.099-0.142,0.121c-0.051,0.021-0.121,0.031-0.207,0.031h-0.329c-0.08,0-0.151-0.029-0.214-0.086
							c-0.062-0.059-0.088-0.129-0.081-0.208c0.014-0.161,0.079-0.324,0.191-0.493c0.112-0.168,0.267-0.316,0.458-0.448
							c0.194-0.131,0.417-0.237,0.668-0.322c0.252-0.084,0.52-0.125,0.804-0.125c0.328,0,0.632,0.046,0.913,0.142
							s0.521,0.234,0.723,0.416c0.199,0.182,0.356,0.408,0.469,0.678c0.113,0.271,0.17,0.578,0.17,0.93v3.334
							c0,0.081-0.028,0.149-0.087,0.209c-0.059,0.059-0.129,0.088-0.208,0.088h-0.404c-0.081,0-0.149-0.029-0.208-0.088
							c-0.059-0.06-0.088-0.128-0.088-0.209v-0.447c-0.065,0.139-0.168,0.262-0.306,0.365c-0.139,0.106-0.298,0.197-0.476,0.268
							c-0.179,0.074-0.364,0.129-0.558,0.166c-0.194,0.035-0.373,0.054-0.542,0.054c-0.285,0-0.545-0.04-0.782-0.12
							c-0.236-0.079-0.437-0.188-0.601-0.323c-0.164-0.134-0.291-0.296-0.383-0.485S114.639,56.509,114.639,56.289z M116.652,56.891
							c0.262,0,0.502-0.039,0.722-0.119c0.219-0.081,0.406-0.192,0.563-0.336c0.157-0.141,0.276-0.31,0.361-0.508
							c0.083-0.195,0.125-0.415,0.125-0.654v-0.274l-1.289,0.208c-0.46,0.073-0.824,0.189-1.095,0.35
							c-0.27,0.161-0.405,0.367-0.405,0.623c0,0.081,0.019,0.16,0.056,0.241c0.036,0.079,0.095,0.156,0.175,0.229
							s0.185,0.131,0.312,0.175C116.304,56.869,116.463,56.891,116.652,56.891z"/>
					</g>
					<g>
						<path fill="#FFFFFF" d="M120.752,54.332c0.028-0.335,0.109-0.649,0.24-0.939c0.132-0.293,0.304-0.548,0.516-0.767
							c0.21-0.22,0.464-0.389,0.759-0.514c0.296-0.124,0.625-0.186,0.989-0.186c0.394,0,0.746,0.063,1.056,0.19
							c0.311,0.128,0.573,0.312,0.793,0.553c0.218,0.24,0.386,0.533,0.503,0.875c0.116,0.344,0.175,0.725,0.175,1.147v0.296
							c0,0.079-0.029,0.15-0.087,0.208c-0.06,0.058-0.129,0.087-0.209,0.087h-3.762v0.066c0.016,0.495,0.167,0.876,0.455,1.143
							c0.288,0.265,0.646,0.398,1.076,0.398c0.401,0,0.702-0.055,0.903-0.169c0.2-0.114,0.363-0.239,0.486-0.377
							c0.058-0.06,0.108-0.099,0.153-0.122c0.044-0.021,0.108-0.031,0.197-0.031h0.326c0.081,0,0.153,0.028,0.22,0.086
							c0.065,0.061,0.091,0.129,0.077,0.209c-0.022,0.131-0.085,0.275-0.187,0.432c-0.103,0.157-0.251,0.303-0.442,0.438
							c-0.194,0.135-0.434,0.248-0.722,0.341c-0.289,0.089-0.625,0.135-1.013,0.135c-0.364,0-0.693-0.064-0.983-0.191
							c-0.292-0.128-0.546-0.302-0.76-0.524c-0.216-0.224-0.389-0.484-0.521-0.787c-0.131-0.303-0.212-0.634-0.24-0.99
							C120.716,55.002,120.716,54.668,120.752,54.332z M121.725,54.365h3.074v-0.033c0-0.443-0.142-0.801-0.422-1.066
							s-0.655-0.399-1.121-0.399c-0.211,0-0.408,0.035-0.59,0.104c-0.182,0.07-0.344,0.168-0.482,0.295
							c-0.137,0.127-0.247,0.283-0.326,0.465c-0.082,0.182-0.125,0.383-0.133,0.602V54.365z"/>
					</g>
					<g>
						<path fill="#FFFFFF" d="M129.904,55.534l1.739-3.28c0.021-0.043,0.063-0.09,0.126-0.142c0.063-0.051,0.155-0.077,0.279-0.077
							h0.36c0.08,0,0.148,0.029,0.207,0.087c0.06,0.059,0.089,0.129,0.089,0.209v5.095c0,0.081-0.029,0.149-0.089,0.209
							c-0.059,0.059-0.127,0.088-0.207,0.088h-0.404c-0.08,0-0.151-0.029-0.208-0.088c-0.059-0.06-0.087-0.128-0.087-0.209v-3.289
							l-1.291,2.383c-0.036,0.066-0.083,0.127-0.138,0.185c-0.054,0.059-0.136,0.089-0.244,0.089h-0.264
							c-0.108,0-0.191-0.03-0.246-0.089c-0.055-0.058-0.101-0.118-0.137-0.185l-1.29-2.383v3.289c0,0.081-0.028,0.149-0.087,0.209
							c-0.059,0.059-0.128,0.088-0.209,0.088H127.4c-0.08,0-0.148-0.029-0.207-0.088c-0.059-0.06-0.089-0.128-0.089-0.209v-5.095
							c0-0.08,0.03-0.15,0.089-0.209c0.059-0.058,0.127-0.087,0.207-0.087h0.361c0.124,0,0.217,0.026,0.278,0.077
							c0.063,0.052,0.104,0.099,0.127,0.142L129.904,55.534z"/>
					</g>
					<g>
						<path fill="#FFFFFF" d="M141.387,57.723c-0.081,0-0.149-0.029-0.208-0.088c-0.059-0.06-0.088-0.128-0.088-0.209v-3.662
							l-3.183,3.838c-0.059,0.08-0.138,0.121-0.24,0.121h-0.371c-0.08,0-0.147-0.029-0.202-0.088
							c-0.055-0.06-0.083-0.128-0.083-0.209v-5.095c0-0.08,0.029-0.15,0.088-0.209c0.059-0.058,0.127-0.087,0.208-0.087h0.404
							c0.081,0,0.149,0.029,0.208,0.087c0.059,0.059,0.089,0.129,0.089,0.209v3.696l3.181-3.871c0.036-0.037,0.07-0.065,0.104-0.088
							c0.033-0.023,0.078-0.033,0.138-0.033h0.359c0.081,0,0.15,0.029,0.209,0.087c0.058,0.059,0.087,0.129,0.087,0.209v5.095
							c0,0.081-0.029,0.149-0.087,0.209c-0.059,0.059-0.128,0.088-0.209,0.088H141.387z"/>
					</g>
					<g>
						<path fill="#FFFFFF" d="M148.506,52.035c0.079,0,0.148,0.029,0.207,0.087c0.059,0.059,0.087,0.129,0.087,0.209v5.095
							c0,0.081-0.028,0.149-0.087,0.209c-0.059,0.059-0.128,0.088-0.207,0.088H148.1c-0.08,0-0.148-0.029-0.207-0.088
							c-0.059-0.06-0.087-0.128-0.087-0.209v-2.131h-3.084v2.131c0,0.081-0.029,0.149-0.087,0.209
							c-0.059,0.059-0.129,0.088-0.209,0.088h-0.404c-0.08,0-0.148-0.026-0.207-0.083c-0.059-0.056-0.089-0.126-0.089-0.214v-5.095
							c0-0.08,0.03-0.15,0.089-0.209c0.059-0.058,0.127-0.087,0.207-0.087h0.404c0.08,0,0.15,0.029,0.209,0.087
							c0.058,0.059,0.087,0.129,0.087,0.209v2.022h3.084v-2.022c0-0.08,0.028-0.15,0.087-0.209c0.059-0.058,0.127-0.087,0.207-0.087
							H148.506z"/>
					</g>
					<g>
						<path fill="#FFFFFF" d="M154.857,52.035c0.081,0,0.149,0.029,0.209,0.087c0.059,0.059,0.088,0.129,0.088,0.209v0.35
							c0,0.081-0.029,0.149-0.088,0.208c-0.06,0.059-0.128,0.088-0.209,0.088h-1.891v4.449c0,0.081-0.03,0.149-0.089,0.209
							c-0.059,0.059-0.127,0.088-0.206,0.088h-0.406c-0.079,0-0.148-0.029-0.208-0.088c-0.057-0.06-0.087-0.128-0.087-0.209v-4.449
							h-1.892c-0.08,0-0.149-0.029-0.207-0.088c-0.059-0.059-0.088-0.127-0.088-0.208v-0.35c0-0.08,0.029-0.15,0.088-0.209
							c0.058-0.058,0.127-0.087,0.207-0.087H154.857z"/>
					</g>
					<g>
						<path fill="#FFFFFF" d="M155.744,54.332c0.029-0.335,0.109-0.649,0.24-0.939c0.131-0.293,0.303-0.548,0.514-0.767
							c0.212-0.22,0.465-0.389,0.761-0.514c0.295-0.124,0.624-0.186,0.989-0.186c0.394,0,0.746,0.063,1.056,0.19
							s0.573,0.312,0.793,0.553c0.218,0.24,0.385,0.533,0.503,0.875c0.116,0.344,0.175,0.725,0.175,1.147v0.296
							c0,0.079-0.029,0.15-0.088,0.208c-0.06,0.058-0.128,0.087-0.208,0.087h-3.762v0.066c0.016,0.495,0.167,0.876,0.455,1.143
							c0.288,0.265,0.645,0.398,1.076,0.398c0.401,0,0.701-0.055,0.903-0.169c0.199-0.114,0.362-0.239,0.484-0.377
							c0.06-0.06,0.11-0.099,0.153-0.122c0.045-0.021,0.11-0.031,0.199-0.031h0.326c0.081,0,0.153,0.028,0.22,0.086
							c0.065,0.061,0.09,0.129,0.075,0.209c-0.021,0.131-0.083,0.275-0.184,0.432c-0.104,0.157-0.252,0.303-0.444,0.438
							c-0.194,0.135-0.434,0.248-0.722,0.341c-0.288,0.089-0.625,0.135-1.012,0.135c-0.365,0-0.692-0.064-0.983-0.191
							c-0.292-0.128-0.545-0.302-0.761-0.524c-0.215-0.224-0.389-0.484-0.52-0.787s-0.211-0.634-0.24-0.99
							C155.708,55.002,155.708,54.668,155.744,54.332z M156.717,54.365h3.072v-0.033c0-0.443-0.14-0.801-0.42-1.066
							s-0.654-0.399-1.121-0.399c-0.212,0-0.407,0.035-0.591,0.104c-0.181,0.07-0.343,0.168-0.48,0.295s-0.247,0.283-0.327,0.465
							c-0.081,0.182-0.125,0.383-0.133,0.602V54.365z"/>
					</g>
					<g>
						<path fill="#FFFFFF" d="M164.788,57.831c-0.453,0-0.814-0.079-1.083-0.235c-0.271-0.158-0.475-0.327-0.612-0.508v2.416
							c0,0.08-0.03,0.15-0.088,0.208c-0.058,0.059-0.128,0.087-0.208,0.087h-0.404c-0.081,0-0.15-0.028-0.207-0.087
							c-0.059-0.058-0.088-0.128-0.088-0.208v-7.173c0-0.08,0.029-0.15,0.088-0.209c0.057-0.058,0.126-0.087,0.207-0.087h0.404
							c0.08,0,0.15,0.029,0.208,0.087c0.058,0.059,0.088,0.129,0.088,0.209v0.339c0.145-0.197,0.353-0.369,0.622-0.519
							c0.269-0.149,0.627-0.225,1.073-0.225c0.342,0,0.661,0.061,0.955,0.181c0.296,0.121,0.554,0.293,0.772,0.519
							c0.218,0.226,0.393,0.5,0.525,0.821c0.13,0.32,0.206,0.681,0.229,1.082c0.007,0.109,0.01,0.228,0.01,0.355
							c0,0.126-0.003,0.245-0.01,0.354c-0.023,0.402-0.1,0.764-0.229,1.083c-0.133,0.323-0.308,0.593-0.525,0.814
							c-0.219,0.224-0.477,0.396-0.772,0.515C165.449,57.771,165.13,57.831,164.788,57.831z M163.093,54.408
							c-0.009,0.109-0.012,0.254-0.012,0.432c0,0.18,0.003,0.322,0.012,0.434c0.021,0.516,0.176,0.916,0.464,1.197
							c0.288,0.279,0.662,0.42,1.12,0.42c0.481,0,0.861-0.152,1.138-0.459c0.277-0.306,0.431-0.721,0.459-1.247
							c0.008-0.204,0.008-0.407,0-0.612c-0.028-0.525-0.182-0.939-0.459-1.246c-0.276-0.307-0.656-0.46-1.138-0.46
							c-0.451,0-0.823,0.14-1.113,0.416C163.271,53.56,163.114,53.935,163.093,54.408z"/>
					</g>
					<g>
						<path fill="#FFFFFF" d="M173.414,52.035c0.08,0,0.15,0.029,0.207,0.087c0.06,0.059,0.088,0.129,0.088,0.209v5.095
							c0,0.081-0.028,0.149-0.088,0.209c-0.057,0.059-0.127,0.088-0.207,0.088h-0.404c-0.08,0-0.15-0.029-0.208-0.088
							c-0.059-0.06-0.088-0.128-0.088-0.209v-2.131h-3.082v2.131c0,0.081-0.03,0.149-0.089,0.209
							c-0.059,0.059-0.127,0.088-0.206,0.088h-0.405c-0.082,0-0.15-0.026-0.208-0.083c-0.059-0.056-0.088-0.126-0.088-0.214v-5.095
							c0-0.08,0.029-0.15,0.088-0.209c0.058-0.058,0.126-0.087,0.208-0.087h0.405c0.079,0,0.147,0.029,0.206,0.087
							c0.059,0.059,0.089,0.129,0.089,0.209v2.022h3.082v-2.022c0-0.08,0.029-0.15,0.088-0.209c0.058-0.058,0.128-0.087,0.208-0.087
							H173.414z"/>
					</g>
					<g>
						<path fill="#FFFFFF" d="M175.087,54.332c0.03-0.335,0.111-0.649,0.242-0.939c0.131-0.293,0.302-0.548,0.513-0.767
							c0.211-0.22,0.466-0.389,0.76-0.514c0.296-0.124,0.626-0.186,0.99-0.186c0.395,0,0.745,0.063,1.056,0.19
							c0.31,0.128,0.574,0.312,0.793,0.553c0.219,0.24,0.386,0.533,0.503,0.875c0.117,0.344,0.176,0.725,0.176,1.147v0.296
							c0,0.079-0.03,0.15-0.089,0.208c-0.058,0.058-0.127,0.087-0.208,0.087h-3.762v0.066c0.016,0.495,0.166,0.876,0.454,1.143
							c0.288,0.265,0.647,0.398,1.077,0.398c0.401,0,0.702-0.055,0.902-0.169s0.362-0.239,0.486-0.377
							c0.059-0.06,0.109-0.099,0.154-0.122c0.043-0.021,0.108-0.031,0.195-0.031h0.329c0.079,0,0.153,0.028,0.219,0.086
							c0.065,0.061,0.091,0.129,0.076,0.209c-0.021,0.131-0.084,0.275-0.187,0.432c-0.101,0.157-0.25,0.303-0.442,0.438
							s-0.434,0.248-0.723,0.341c-0.287,0.089-0.624,0.135-1.011,0.135c-0.364,0-0.692-0.064-0.984-0.191
							c-0.291-0.128-0.545-0.302-0.76-0.524c-0.215-0.224-0.388-0.484-0.519-0.787s-0.212-0.634-0.242-0.99
							C175.051,55.002,175.051,54.668,175.087,54.332z M176.061,54.365h3.074v-0.033c0-0.443-0.141-0.801-0.423-1.066
							c-0.28-0.266-0.653-0.399-1.12-0.399c-0.211,0-0.408,0.035-0.59,0.104c-0.184,0.07-0.344,0.168-0.481,0.295
							c-0.14,0.127-0.248,0.283-0.329,0.465c-0.079,0.182-0.123,0.383-0.131,0.602V54.365z"/>
					</g>
					<g>
						<path fill="#FFFFFF" d="M185.771,52.035c0.079,0,0.148,0.029,0.207,0.087c0.06,0.059,0.087,0.129,0.087,0.209v0.35
							c0,0.081-0.027,0.149-0.087,0.208c-0.059,0.059-0.128,0.088-0.207,0.088h-1.894v4.449c0,0.081-0.028,0.149-0.086,0.209
							c-0.059,0.059-0.127,0.088-0.208,0.088h-0.405c-0.079,0-0.149-0.029-0.208-0.088c-0.058-0.06-0.086-0.128-0.086-0.209v-4.449
							h-1.894c-0.079,0-0.148-0.029-0.206-0.088c-0.059-0.059-0.088-0.127-0.088-0.208v-0.35c0-0.08,0.029-0.15,0.088-0.209
							c0.058-0.058,0.127-0.087,0.206-0.087H185.771z"/>
					</g>
					<g>
						<path fill="#FFFFFF" d="M193.109,50.035c0,0.254-0.058,0.487-0.172,0.7c-0.111,0.21-0.254,0.416-0.425,0.616
							c-0.172,0.202-0.361,0.406-0.568,0.613c-0.208,0.207-0.411,0.436-0.608,0.684c0.184-0.045,0.385-0.066,0.602-0.066
							c0.365,0,0.701,0.059,1.006,0.176c0.307,0.116,0.571,0.287,0.794,0.514c0.223,0.226,0.394,0.5,0.519,0.824
							c0.125,0.326,0.186,0.695,0.186,1.111c0,0.387-0.061,0.742-0.186,1.066s-0.296,0.602-0.519,0.83
							c-0.223,0.23-0.487,0.408-0.794,0.536c-0.305,0.127-0.641,0.191-1.006,0.191c-0.364,0-0.699-0.064-1.006-0.191
							c-0.305-0.128-0.57-0.306-0.792-0.536c-0.223-0.229-0.396-0.506-0.521-0.83c-0.123-0.324-0.186-0.68-0.186-1.066
							c0-0.561,0.065-1.052,0.197-1.471s0.297-0.785,0.497-1.1c0.201-0.313,0.417-0.586,0.646-0.82
							c0.23-0.232,0.445-0.448,0.646-0.644c0.2-0.198,0.366-0.386,0.498-0.564c0.131-0.179,0.196-0.369,0.196-0.573
							c0-0.08,0.029-0.149,0.088-0.209c0.058-0.059,0.126-0.087,0.207-0.087h0.404c0.081,0,0.15,0.028,0.208,0.087
							C193.079,49.886,193.109,49.955,193.109,50.035z M191.938,53.523c-0.51,0-0.889,0.154-1.137,0.465
							c-0.248,0.309-0.372,0.715-0.372,1.219s0.124,0.91,0.372,1.219c0.248,0.311,0.627,0.465,1.137,0.465
							c0.511,0,0.891-0.154,1.138-0.465c0.248-0.309,0.373-0.715,0.373-1.219s-0.125-0.91-0.373-1.219
							C192.828,53.678,192.448,53.523,191.938,53.523z"/>
					</g>
					<g>
						<path fill="#FFFFFF" d="M200.15,57.723c-0.08,0-0.148-0.029-0.207-0.088c-0.059-0.06-0.089-0.128-0.089-0.209v-3.662
							l-3.182,3.838c-0.058,0.08-0.138,0.121-0.24,0.121h-0.372c-0.08,0-0.147-0.029-0.201-0.088
							c-0.056-0.06-0.083-0.128-0.083-0.209v-5.095c0-0.08,0.029-0.15,0.088-0.209c0.06-0.058,0.128-0.087,0.208-0.087h0.403
							c0.081,0,0.149,0.029,0.209,0.087c0.059,0.059,0.088,0.129,0.088,0.209v3.696l3.181-3.871
							c0.036-0.037,0.072-0.065,0.104-0.088c0.033-0.023,0.078-0.033,0.139-0.033h0.36c0.08,0,0.149,0.029,0.208,0.087
							c0.057,0.059,0.087,0.129,0.087,0.209v5.095c0,0.081-0.03,0.149-0.087,0.209c-0.059,0.059-0.128,0.088-0.208,0.088H200.15z"/>
					</g>
					<g>
						<path fill="#FFFFFF" d="M203.102,56.373c0.125,0.23,0.301,0.373,0.53,0.432c0.23,0.057,0.492,0.086,0.784,0.086
							c0.182,0,0.352-0.012,0.508-0.037c0.156-0.026,0.293-0.068,0.41-0.126c0.116-0.06,0.209-0.14,0.279-0.241
							c0.068-0.102,0.104-0.226,0.104-0.371c0-0.277-0.117-0.478-0.351-0.596c-0.233-0.121-0.521-0.182-0.863-0.182h-0.854
							c-0.08,0-0.149-0.029-0.207-0.087c-0.059-0.059-0.087-0.127-0.087-0.208v-0.351c0-0.079,0.028-0.149,0.087-0.208
							c0.058-0.057,0.127-0.088,0.207-0.088h0.863c0.307,0,0.567-0.063,0.782-0.189c0.216-0.127,0.323-0.318,0.323-0.574
							c0-0.27-0.117-0.465-0.349-0.586c-0.234-0.12-0.52-0.181-0.854-0.181c-0.329,0-0.584,0.05-0.767,0.147
							s-0.328,0.262-0.437,0.487c-0.037,0.079-0.087,0.149-0.148,0.208s-0.133,0.086-0.213,0.086h-0.328
							c-0.081,0-0.151-0.027-0.213-0.086c-0.063-0.059-0.09-0.129-0.081-0.208c0.006-0.196,0.06-0.392,0.157-0.579
							c0.099-0.191,0.239-0.36,0.421-0.51c0.182-0.148,0.408-0.268,0.68-0.354c0.268-0.087,0.578-0.131,0.929-0.131
							c0.306,0,0.591,0.034,0.857,0.104c0.266,0.069,0.498,0.175,0.695,0.317c0.196,0.142,0.353,0.318,0.47,0.529
							c0.116,0.213,0.175,0.463,0.175,0.756c0,0.256-0.046,0.48-0.137,0.677c-0.091,0.197-0.217,0.368-0.377,0.515
							c0.188,0.139,0.339,0.312,0.448,0.52c0.108,0.207,0.165,0.465,0.165,0.771c0,0.32-0.061,0.589-0.182,0.809
							c-0.12,0.218-0.284,0.396-0.492,0.53c-0.207,0.134-0.451,0.231-0.731,0.29c-0.281,0.057-0.579,0.087-0.892,0.087
							c-0.388,0-0.722-0.04-1.002-0.12c-0.279-0.079-0.515-0.186-0.705-0.32c-0.189-0.134-0.333-0.29-0.432-0.467
							c-0.099-0.178-0.151-0.361-0.158-0.551c-0.008-0.078,0.021-0.146,0.082-0.205c0.062-0.057,0.133-0.086,0.213-0.086h0.328
							c0.08,0,0.146,0.02,0.196,0.061C202.989,56.18,203.045,56.258,203.102,56.373z"/>
					</g>
					<g>
						<path fill="#FFFFFF" d="M212.879,52.035c0.08,0,0.149,0.029,0.208,0.087c0.059,0.059,0.087,0.129,0.087,0.209v5.095
							c0,0.081-0.028,0.149-0.087,0.209c-0.059,0.059-0.128,0.088-0.208,0.088h-0.404c-0.081,0-0.15-0.029-0.208-0.088
							c-0.059-0.06-0.087-0.128-0.087-0.209v-2.131h-3.084v2.131c0,0.081-0.029,0.149-0.088,0.209
							c-0.059,0.059-0.128,0.088-0.209,0.088h-0.403c-0.08,0-0.149-0.026-0.207-0.083c-0.061-0.056-0.089-0.126-0.089-0.214v-5.095
							c0-0.08,0.028-0.15,0.089-0.209c0.058-0.058,0.127-0.087,0.207-0.087h0.403c0.081,0,0.15,0.029,0.209,0.087
							c0.059,0.059,0.088,0.129,0.088,0.209v2.022h3.084v-2.022c0-0.08,0.028-0.15,0.087-0.209c0.058-0.058,0.127-0.087,0.208-0.087
							H212.879z"/>
					</g>
					<g>
						<path fill="#FFFFFF" d="M214.553,54.332c0.029-0.335,0.108-0.649,0.239-0.939c0.131-0.293,0.303-0.548,0.515-0.767
							c0.211-0.22,0.464-0.389,0.76-0.514c0.296-0.124,0.625-0.186,0.989-0.186c0.394,0,0.746,0.063,1.056,0.19
							s0.574,0.312,0.793,0.553c0.218,0.24,0.386,0.533,0.502,0.875c0.117,0.344,0.176,0.725,0.176,1.147v0.296
							c0,0.079-0.028,0.15-0.088,0.208s-0.128,0.087-0.207,0.087h-3.762v0.066c0.014,0.495,0.166,0.876,0.454,1.143
							c0.288,0.265,0.646,0.398,1.076,0.398c0.4,0,0.702-0.055,0.902-0.169s0.364-0.239,0.486-0.377
							c0.06-0.06,0.109-0.099,0.153-0.122c0.044-0.021,0.109-0.031,0.197-0.031h0.327c0.081,0,0.153,0.028,0.219,0.086
							c0.065,0.061,0.092,0.129,0.077,0.209c-0.021,0.131-0.084,0.275-0.186,0.432c-0.104,0.157-0.251,0.303-0.442,0.438
							c-0.194,0.135-0.435,0.248-0.722,0.341c-0.289,0.089-0.626,0.135-1.013,0.135c-0.364,0-0.692-0.064-0.983-0.191
							c-0.292-0.128-0.545-0.302-0.76-0.524c-0.216-0.224-0.39-0.484-0.521-0.787s-0.21-0.634-0.239-0.99
							C214.516,55.002,214.516,54.668,214.553,54.332z M215.525,54.365h3.072v-0.033c0-0.443-0.141-0.801-0.421-1.066
							s-0.655-0.399-1.121-0.399c-0.211,0-0.407,0.035-0.591,0.104c-0.181,0.07-0.342,0.168-0.481,0.295
							c-0.139,0.127-0.247,0.283-0.326,0.465c-0.081,0.182-0.124,0.383-0.132,0.602V54.365z"/>
					</g>
					<g>
						<path fill="#FFFFFF" d="M221.637,55.261c0.029,0.292,0.094,0.54,0.193,0.744c0.098,0.204,0.217,0.371,0.359,0.504
							c0.143,0.131,0.302,0.228,0.476,0.289c0.175,0.063,0.354,0.093,0.536,0.093c0.35,0,0.648-0.065,0.896-0.196
							c0.248-0.132,0.44-0.35,0.579-0.656c0.052-0.118,0.104-0.196,0.159-0.235c0.055-0.04,0.122-0.061,0.202-0.061h0.327
							c0.081,0,0.151,0.029,0.214,0.088c0.063,0.058,0.089,0.129,0.082,0.208c-0.007,0.175-0.063,0.366-0.169,0.573
							c-0.105,0.208-0.263,0.401-0.469,0.58c-0.209,0.178-0.464,0.33-0.767,0.454c-0.303,0.123-0.655,0.186-1.056,0.186
							c-0.402,0-0.757-0.065-1.065-0.196c-0.31-0.133-0.573-0.31-0.788-0.535c-0.216-0.227-0.383-0.493-0.503-0.801
							c-0.121-0.307-0.188-0.633-0.202-0.983c-0.008-0.114-0.014-0.261-0.017-0.431c-0.004-0.172,0.002-0.319,0.017-0.442
							c0.029-0.351,0.104-0.679,0.224-0.985c0.121-0.307,0.286-0.572,0.498-0.799c0.21-0.226,0.471-0.404,0.776-0.536
							c0.306-0.131,0.658-0.195,1.061-0.195c0.4,0,0.753,0.062,1.056,0.186c0.303,0.125,0.558,0.276,0.767,0.454
							c0.206,0.179,0.363,0.372,0.469,0.58c0.105,0.207,0.162,0.398,0.169,0.572c0.007,0.082-0.02,0.149-0.082,0.209
							c-0.063,0.059-0.133,0.088-0.214,0.088h-0.327c-0.08,0-0.147-0.021-0.202-0.061c-0.055-0.039-0.107-0.119-0.159-0.236
							c-0.139-0.305-0.331-0.523-0.579-0.655c-0.248-0.131-0.547-0.197-0.896-0.197c-0.182,0-0.362,0.032-0.541,0.093
							c-0.18,0.063-0.34,0.159-0.481,0.29c-0.143,0.132-0.263,0.3-0.361,0.504s-0.159,0.452-0.181,0.743
							C221.616,54.766,221.616,55.021,221.637,55.261z"/>
					</g>
				</g>
			</g>
		</g>
	</g>
</g>
<g id="Слой_1" display="none" opacity="0.75">
</g>
</svg>
