<?xml version="1.0" encoding="utf-8"?>
<!-- Generator: Adobe Illustrator 16.0.0, SVG Export Plug-In . SVG Version: 6.00 Build 0)  -->
<!DOCTYPE svg PUBLIC "-//W3C//DTD SVG 1.1//EN" "http://www.w3.org/Graphics/SVG/1.1/DTD/svg11.dtd">
<svg version="1.1" xmlns="http://www.w3.org/2000/svg" xmlns:xlink="http://www.w3.org/1999/xlink" x="0px" y="0px" width="40px"
	 height="40px" viewBox="0 0 40 40" enable-background="new 0 0 40 40" xml:space="preserve">
<g id="Слой_2">
	<g>
		<g>
			<path fill="#F97A58" d="M19.998,0C8.971,0,0,8.975,0,20c0,11.027,8.971,20,19.998,20C31.027,40,40,31.027,40,20
				C40,8.975,31.027,0,19.998,0L19.998,0z M28.922,15.424c0.008,0.199,0.013,0.4,0.013,0.6c0,6.084-4.632,13.092-13.099,13.092
				c-2.6,0-5.018-0.758-7.058-2.068c0.36,0.045,0.728,0.068,1.1,0.068c2.158,0,4.14-0.736,5.719-1.971
				c-2.015-0.039-3.714-1.367-4.3-3.201c0.279,0.057,0.567,0.084,0.865,0.084c0.416,0,0.828-0.055,1.211-0.16
				c-2.102-0.42-3.693-2.279-3.693-4.51c0-0.021,0-0.041,0.006-0.061c0.617,0.348,1.328,0.551,2.082,0.574
				c-1.233-0.82-2.049-2.232-2.049-3.83c0-0.844,0.229-1.631,0.623-2.314c2.268,2.787,5.664,4.619,9.486,4.811
				c-0.079-0.336-0.116-0.686-0.116-1.049c0-2.541,2.059-4.602,4.602-4.602c1.323,0,2.52,0.559,3.357,1.449
				c1.053-0.203,2.037-0.584,2.928-1.117c-0.347,1.08-1.075,1.979-2.025,2.553c0.932-0.113,1.82-0.359,2.644-0.727
				C30.602,13.967,29.82,14.777,28.922,15.424L28.922,15.424z M28.922,15.424"/>
		</g>
	</g>
</g>
<g id="Слой_1" display="none" opacity="0.75">
</g>
</svg>
