<?xml version="1.0" encoding="utf-8"?>
<!-- Generator: Adobe Illustrator 16.0.0, SVG Export Plug-In . SVG Version: 6.00 Build 0)  -->
<!DOCTYPE svg PUBLIC "-//W3C//DTD SVG 1.1//EN" "http://www.w3.org/Graphics/SVG/1.1/DTD/svg11.dtd">
<svg version="1.1" xmlns="http://www.w3.org/2000/svg" xmlns:xlink="http://www.w3.org/1999/xlink" x="0px" y="0px" width="40px"
	 height="40px" viewBox="0 0 40 40" enable-background="new 0 0 40 40" xml:space="preserve">
<g id="Слой_2">
	<g>
		<path fill-rule="evenodd" clip-rule="evenodd" fill="#F97A58" d="M20.001,0C8.955,0,0,8.953,0,20.002C0,31.047,8.955,40,20.001,40
			S40,31.047,40,20.002C40,8.953,31.047,0,20.001,0L20.001,0z M30.146,22.162c0.934,0.912,1.918,1.77,2.756,2.771
			c0.368,0.445,0.719,0.906,0.986,1.424c0.379,0.736,0.035,1.545-0.622,1.588l-4.1-0.002c-1.058,0.088-1.9-0.336-2.61-1.061
			c-0.566-0.578-1.091-1.193-1.637-1.789c-0.226-0.246-0.458-0.475-0.737-0.654c-0.56-0.365-1.046-0.254-1.366,0.33
			c-0.324,0.592-0.398,1.252-0.43,1.912c-0.045,0.965-0.336,1.219-1.306,1.262c-2.072,0.098-4.039-0.217-5.865-1.262
			c-1.608-0.92-2.859-2.221-3.945-3.693c-2.115-2.867-3.736-6.018-5.193-9.256c-0.328-0.73-0.089-1.123,0.718-1.137
			c1.337-0.025,2.673-0.023,4.013-0.002c0.543,0.012,0.903,0.322,1.112,0.834c0.723,1.777,1.607,3.471,2.72,5.039
			c0.294,0.418,0.597,0.836,1.025,1.129c0.477,0.326,0.837,0.219,1.063-0.311c0.142-0.336,0.204-0.699,0.236-1.059
			c0.105-1.236,0.119-2.471-0.066-3.703c-0.114-0.77-0.548-1.268-1.315-1.414c-0.392-0.074-0.333-0.219-0.144-0.443
			c0.329-0.385,0.641-0.625,1.257-0.625h4.632c0.729,0.145,0.892,0.471,0.99,1.205l0.005,5.145
			c-0.009,0.283,0.142,1.127,0.652,1.314c0.41,0.135,0.679-0.191,0.926-0.453c1.109-1.176,1.9-2.568,2.608-4.008
			c0.313-0.635,0.582-1.291,0.845-1.949c0.193-0.486,0.497-0.727,1.046-0.717l4.458,0.006c0.132,0,0.267,0.002,0.394,0.023
			c0.751,0.127,0.957,0.449,0.726,1.184c-0.364,1.15-1.076,2.109-1.772,3.072c-0.743,1.029-1.538,2.023-2.275,3.059
			C29.251,20.867,29.305,21.342,30.146,22.162L30.146,22.162z M30.146,22.162"/>
	</g>
</g>
<g id="Слой_1" display="none" opacity="0.75">
</g>
</svg>
