<?xml version="1.0" encoding="utf-8"?>
<!-- Generator: Adobe Illustrator 16.0.0, SVG Export Plug-In . SVG Version: 6.00 Build 0)  -->
<!DOCTYPE svg PUBLIC "-//W3C//DTD SVG 1.1//EN" "http://www.w3.org/Graphics/SVG/1.1/DTD/svg11.dtd">
<svg version="1.1" xmlns="http://www.w3.org/2000/svg" xmlns:xlink="http://www.w3.org/1999/xlink" x="0px" y="0px" width="140px"
	 height="140px" viewBox="0 0 140 140" enable-background="new 0 0 140 140" xml:space="preserve">
<g id="Слой_2">
	<g opacity="0.15">
		<path fill="#FFFFFF" d="M100.664,48.531c0-7.372-5.977-13.349-13.352-13.349c-0.048,0-0.096,0.006-0.143,0.006
			c0-0.047,0.006-0.095,0.006-0.145c0.002-7.371-5.975-13.348-13.349-13.348c-5.06,0-9.46,2.814-11.724,6.963
			c-0.534-0.064-1.074-0.107-1.625-0.107c-7.373,0-13.352,5.977-13.352,13.348c0,0.552,0.044,1.094,0.109,1.627
			c-4.148,2.265-6.964,6.664-6.964,11.725c0,7.371,5.978,13.35,13.351,13.35c0.048,0,0.096-0.007,0.144-0.008
			c0,0.049-0.007,0.096-0.007,0.145c0,7.372,5.977,13.35,13.35,13.35c5.059,0,9.459-2.815,11.725-6.965
			c0.533,0.064,1.073,0.108,1.625,0.108c7.373,0,13.35-5.976,13.35-13.349c0-0.552-0.045-1.092-0.109-1.626
			C97.848,57.991,100.664,53.591,100.664,48.531z M56.236,42.112l2.139-1.275l0.164-2.483c0.012-0.195,0.136-0.37,0.318-0.444
			c0.063-0.025,0.131-0.039,0.197-0.039c0.123,0,0.246,0.042,0.341,0.128l1.873,1.642l2.4-0.609
			c0.034-0.008,0.069-0.016,0.104-0.016c0.01-0.003,0.022-0.003,0.035-0.003c0,0,0.001,0,0.003,0c0.284,0,0.515,0.232,0.515,0.519
			c0,0.086-0.021,0.166-0.059,0.239l-0.967,2.251l1.329,2.104c0.105,0.167,0.106,0.379,0.003,0.546
			c-0.095,0.155-0.262,0.249-0.441,0.249c-0.016,0-0.031,0-0.047-0.002l-2.479-0.227l-1.594,1.913
			c-0.098,0.118-0.245,0.186-0.396,0.186c-0.039,0-0.082-0.005-0.121-0.014c-0.191-0.046-0.34-0.196-0.385-0.39l-0.549-2.426
			l-2.313-0.923c-0.184-0.073-0.31-0.246-0.322-0.44C55.969,42.399,56.067,42.211,56.236,42.112z M62.408,54.717
			c0.104,0.162,0.104,0.366,0.005,0.53c-0.092,0.151-0.256,0.242-0.432,0.242c-0.015,0-0.028,0-0.042-0.001l-1.678-0.136
			l-1.094,1.309c-0.096,0.116-0.239,0.181-0.387,0.181c-0.04,0-0.08-0.005-0.12-0.014c-0.187-0.046-0.333-0.194-0.373-0.384
			l-0.353-1.629l-1.549-0.605c-0.18-0.068-0.304-0.234-0.319-0.428c-0.017-0.191,0.077-0.376,0.243-0.475l1.46-0.881l0.128-1.685
			c0.015-0.189,0.135-0.356,0.314-0.429c0.061-0.023,0.124-0.037,0.188-0.037c0.12,0,0.239,0.043,0.333,0.125l1.248,1.093
			l1.623-0.428c0.034-0.011,0.07-0.017,0.107-0.019c0.01,0,0.021,0,0.032,0c0.001,0,0.003,0,0.005,0
			c0.277,0,0.502,0.226,0.502,0.504c0,0.085-0.021,0.165-0.059,0.236l-0.666,1.52L62.408,54.717z M69.665,68.705
			c-6.443,0-12.22-3.603-15.076-9.403c-0.264-0.532-0.122-1.177,0.337-1.551c0.234-0.191,0.521-0.286,0.807-0.286
			c0.275,0,0.551,0.087,0.779,0.265c2.021,1.564,4.429,2.39,6.965,2.39c6.287,0,11.402-5.112,11.402-11.399
			c0-4.998-3.345-9.487-8.131-10.918c-0.568-0.171-0.945-0.711-0.907-1.303c0.037-0.592,0.478-1.08,1.063-1.177
			c0.992-0.165,1.896-0.245,2.761-0.245c9.272,0,16.813,7.543,16.813,16.814S78.938,68.705,69.665,68.705z M71.566,49.976
			c0.096,0.156,0.096,0.352,0.003,0.509c-0.09,0.147-0.249,0.237-0.421,0.237c-0.01,0-0.021-0.001-0.031-0.001l-1.092-0.071
			l-0.727,0.866c-0.095,0.112-0.232,0.175-0.376,0.175c-0.039,0-0.081-0.006-0.12-0.016c-0.182-0.047-0.322-0.192-0.359-0.378
			l-0.211-1.04l-0.984-0.371c-0.175-0.066-0.297-0.227-0.314-0.411c-0.017-0.188,0.072-0.366,0.232-0.464l0.965-0.59l0.1-1.103
			c0.018-0.182,0.135-0.341,0.306-0.409c0.06-0.023,0.122-0.035,0.183-0.035c0.116,0,0.23,0.04,0.32,0.121l0.792,0.689l1.06-0.295
			c0.043-0.013,0.087-0.018,0.131-0.018c0.141,0,0.276,0.061,0.371,0.17c0.125,0.145,0.154,0.346,0.076,0.521l-0.457,1.015
			L71.566,49.976z"/>
		<g>
			<g>
				<path fill="#FFFFFF" d="M13.533,97.336c0-1.606,1.332-2.903,3.008-2.903c1.674,0,3.006,1.297,3.006,2.903v15.343h7.381
					c1.435,0,2.562,1.229,2.562,2.663c0,1.47-1.127,2.666-2.562,2.666H16.541c-1.676,0-3.008-1.3-3.008-2.905V97.336z"/>
				<path fill="#FFFFFF" d="M33.757,109.466c1.742-0.819,4.032-1.128,5.774-1.299v-0.24c0-0.546-0.068-0.99-0.307-1.297
					c-0.239-0.342-0.684-0.515-1.367-0.515c-0.922,0-1.777,0.309-2.426,0.582c-0.616,0.239-1.025,0.444-1.675,0.444
					c-1.093,0-1.981-0.887-1.981-1.982c0-1.297,0.957-1.914,2.187-2.393c1.4-0.545,3.075-0.818,4.545-0.818
					c1.604,0,3.759,0.307,5.158,1.811c0.89,0.956,1.402,2.188,1.402,4.136v7.791c0,1.469-1.3,2.663-2.768,2.663
					c-0.923,0-1.743-0.41-2.255-1.094c-1.333,0.889-2.53,1.094-4,1.094c-2.903,0-4.987-2.017-4.987-4.953
					C31.058,111.413,32.186,110.216,33.757,109.466z M39.531,113.941v-2.255c-0.615,0.033-1.332,0.067-1.981,0.274
					c-0.685,0.204-1.23,0.614-1.23,1.263c0,0.821,0.616,1.23,1.538,1.23C38.336,114.454,38.951,114.319,39.531,113.941z"/>
				<path fill="#FFFFFF" d="M56.813,97.336c0-1.606,1.332-2.903,3.006-2.903c1.676,0,3.008,1.297,3.008,2.903v15.343h7.381
					c1.436,0,2.561,1.229,2.561,2.663c0,1.47-1.125,2.666-2.561,2.666H59.818c-1.674,0-3.006-1.3-3.006-2.905V97.336z"/>
				<path fill="#FFFFFF" d="M74.714,104.611c0-1.468,1.229-2.663,2.765-2.663c1.54,0,2.771,1.195,2.771,2.663v6.358
					c0,0.614,0.101,1.195,0.342,1.673c0.375,0.718,1.059,1.195,2.186,1.195s1.812-0.478,2.188-1.195
					c0.238-0.478,0.342-1.059,0.342-1.673v-6.358c0-1.468,1.23-2.663,2.768-2.663c1.536,0,2.767,1.195,2.767,2.663v6.527
					c0,2.052-0.546,3.623-1.503,4.751c-1.436,1.707-3.759,2.459-6.561,2.459c-2.8,0-5.127-0.752-6.561-2.459
					c-0.955-1.128-1.503-2.699-1.503-4.751V104.611z"/>
				<path fill="#FFFFFF" d="M105.357,109.567c0-0.785,0-1.775-0.513-2.426c-0.306-0.376-0.853-0.649-1.606-0.649
					c-1.161,0-1.879,0.513-2.321,1.263c-0.446,0.686-0.651,1.813-0.651,2.768v5.163c0,1.469-1.297,2.663-2.767,2.663
					c-1.536,0-2.768-1.194-2.768-2.663v-11.074c0-1.468,1.231-2.663,2.768-2.663c1.163,0,2.152,0.717,2.562,1.707
					c0.41-0.41,1.026-0.818,1.607-1.092c0.785-0.377,1.741-0.615,2.801-0.615c1.71,0,3.418,0.443,4.648,1.571
					c1.059,0.99,1.777,2.53,1.777,4.818v7.348c0,1.469-1.298,2.663-2.77,2.663c-1.537,0-2.768-1.194-2.768-2.663V109.567z"/>
				<path fill="#FFFFFF" d="M116.424,109.466c1.744-0.819,4.033-1.128,5.775-1.299v-0.24c0-0.546-0.069-0.99-0.307-1.297
					c-0.24-0.342-0.686-0.515-1.369-0.515c-0.922,0-1.777,0.309-2.425,0.582c-0.614,0.239-1.026,0.444-1.675,0.444
					c-1.092,0-1.98-0.887-1.98-1.982c0-1.297,0.955-1.914,2.186-2.393c1.402-0.545,3.076-0.818,4.545-0.818
					c1.607,0,3.76,0.307,5.158,1.811c0.89,0.956,1.402,2.188,1.402,4.136v7.791c0,1.469-1.299,2.663-2.768,2.663
					c-0.922,0-1.742-0.41-2.256-1.094c-1.332,0.889-2.527,1.094-3.996,1.094c-2.904,0-4.99-2.017-4.99-4.953
					C113.725,111.413,114.852,110.216,116.424,109.466z M122.199,113.941v-2.255c-0.615,0.033-1.333,0.067-1.981,0.274
					c-0.683,0.204-1.231,0.614-1.231,1.263c0,0.821,0.615,1.23,1.537,1.23C121.002,114.454,121.617,114.319,122.199,113.941z"/>
			</g>
		</g>
	</g>
</g>
<g id="Слой_1" display="none" opacity="0.75">
</g>
</svg>
