<?xml version="1.0" encoding="utf-8"?>
<!-- Generator: Adobe Illustrator 16.0.0, SVG Export Plug-In . SVG Version: 6.00 Build 0)  -->
<!DOCTYPE svg PUBLIC "-//W3C//DTD SVG 1.1//EN" "http://www.w3.org/Graphics/SVG/1.1/DTD/svg11.dtd">
<svg version="1.1" xmlns="http://www.w3.org/2000/svg" xmlns:xlink="http://www.w3.org/1999/xlink" x="0px" y="0px" width="140px"
	 height="140px" viewBox="0 0 140 140" enable-background="new 0 0 140 140" xml:space="preserve">
<g id="Слой_2">
	<g opacity="0.15">
		<path fill-rule="evenodd" clip-rule="evenodd" fill="#FFFFFF" d="M140,46.041h-11.516l-3.52,13.754l-3.729-13.754H96.334v47.918
			h24.367l4.158-13.434l4.159,13.434H140l-8.316-24.745L140,46.041L140,46.041z M107.48,54.771v9.488h7.854v9.127h-7.854v11.644
			h5.088l6.098-15.881l-5.771-14.378H107.48L107.48,54.771z"/>
		<path fill-rule="evenodd" clip-rule="evenodd" fill="#FFFFFF" d="M96.334,52.331l-6.291-6.29h-15.04v6.251l-6.318-6.251H57.392
			l-6.793,6.251l-6.318-6.251H25.497v6.251l-6.318-6.251H0v47.918h19.681l5.816-5.755v5.755H36.41V74.315h4.465v19.644h10.614
			v-5.755l5.82,5.755h11.783l4.521-4.564l3.287,4.564h19.433v-8.928H83.237l13.097-24.555V52.331z M15.577,85.328h-4.464V74.315
			h4.464V85.328z M15.577,65.783h-4.464V54.771h4.464V65.783z M25.945,73.947l-5.67-4.464l5.67-4.939V73.947z M40.875,65.783H36.41
			V54.771h4.465V65.783z M50.318,73.947l-4.541-3.574l4.541-3.957V73.947z M65.678,85.328h-4.464c0-10.187,0-20.372,0-30.557h4.464
			C65.678,64.956,65.678,75.142,65.678,85.328z M76.491,74.315V54.771h10.614L76.491,74.315z"/>
	</g>
</g>
<g id="Слой_1" display="none" opacity="0.75">
</g>
</svg>
