<?xml version="1.0" encoding="utf-8"?>
<!-- Generator: Adobe Illustrator 16.0.0, SVG Export Plug-In . SVG Version: 6.00 Build 0)  -->
<!DOCTYPE svg PUBLIC "-//W3C//DTD SVG 1.1//EN" "http://www.w3.org/Graphics/SVG/1.1/DTD/svg11.dtd">
<svg version="1.1" xmlns="http://www.w3.org/2000/svg" xmlns:xlink="http://www.w3.org/1999/xlink" x="0px" y="0px" width="140px"
	 height="140px" viewBox="0 0 140 140" enable-background="new 0 0 140 140" xml:space="preserve">
<g id="Слой_2">
	<path opacity="0.15" fill="#FFFFFF" d="M111.727,81.462c-3.758,10.006-13.385,17.142-24.704,17.142
		c-2.014,0-3.969-0.241-5.851-0.675c6.258-6.766,10.114-15.789,10.114-25.734c0-0.148-0.021-0.293-0.022-0.441H84.15h-4.432H40.682
		v11.77H77.16c-4.243,8.907-13.304,15.081-23.828,15.081c-14.585,0-26.41-11.825-26.41-26.409c0-14.585,11.825-26.409,26.41-26.409
		c10.986,0,20.4,6.711,24.379,16.257h12.16c-1.637-5.897-4.664-11.213-8.696-15.584c1.881-0.432,3.834-0.673,5.848-0.673
		c10.987,0,20.401,6.713,24.38,16.259h12.161c-4.444-16.026-19.102-27.805-36.541-27.805c-6.058,0-11.766,1.449-16.839,3.981
		c-5.078-2.531-10.789-3.981-16.852-3.981c-20.962,0-37.955,16.993-37.955,37.955c0,20.961,16.993,37.954,37.955,37.954
		c6.059,0,11.766-1.455,16.848-3.982c5.078,2.527,10.785,3.982,16.843,3.982c17.759,0,32.624-12.213,36.767-28.686H111.727z"/>
</g>
<g id="Слой_1" display="none" opacity="0.75">
</g>
</svg>
