<?xml version="1.0" encoding="utf-8"?>
<!-- Generator: Adobe Illustrator 16.0.0, SVG Export Plug-In . SVG Version: 6.00 Build 0)  -->
<!DOCTYPE svg PUBLIC "-//W3C//DTD SVG 1.1//EN" "http://www.w3.org/Graphics/SVG/1.1/DTD/svg11.dtd">
<svg version="1.1" xmlns="http://www.w3.org/2000/svg" xmlns:xlink="http://www.w3.org/1999/xlink" x="0px" y="0px" width="140px"
	 height="140px" viewBox="0 0 140 140" enable-background="new 0 0 140 140" xml:space="preserve">
<g id="Слой_2">
	<g opacity="0.15">
		<g>
			<path fill="#FFFFFF" d="M9.73,70.231c0.151,0.017,0.307,0.034,0.468,0.051c0.16,0.017,0.315,0.034,0.468,0.05
				c1.146,0.188,2.194,0.638,3.146,1.352c0.953,0.714,1.43,1.717,1.43,3.009c0,1.497-0.666,2.649-1.998,3.457
				s-3.235,1.21-5.715,1.21H0.071v-0.484h1.972V62.86H0.071v-0.51h5.007l1.694-0.025c0.421,0.017,0.888,0.038,1.403,0.063
				c0.514,0.026,1.041,0.081,1.579,0.166c1.146,0.187,2.195,0.565,3.148,1.135c0.951,0.57,1.429,1.475,1.429,2.716
				c0,1.021-0.363,1.807-1.088,2.359c-0.725,0.553-1.525,0.957-2.401,1.211c-0.187,0.068-0.372,0.124-0.558,0.166
				c-0.185,0.042-0.37,0.081-0.555,0.115V70.231z M5.685,62.86v7.319c1.364,0.018,2.541-0.136,3.527-0.458
				c0.986-0.323,1.479-1.317,1.479-2.984c0-1.802-0.46-2.894-1.379-3.277c-0.918-0.382-2.128-0.574-3.628-0.574V62.86z
				 M5.685,78.876c1.551,0.017,2.865-0.17,3.944-0.563s1.617-1.544,1.617-3.454c0-1.569-0.345-2.665-1.035-3.287
				c-0.691-0.623-1.787-0.935-3.287-0.935H5.685V78.876z"/>
			<path fill="#FFFFFF" d="M15.819,79.361v-0.484h1.972V62.86h-1.972v-0.51h14.158l0.077,4.845h-0.48
				c-0.034-1.342-0.439-2.397-1.215-3.163c-0.775-0.765-1.812-1.147-3.109-1.147l-3.742-0.025v7.294
				c1.518,0.018,2.643-0.123,3.376-0.421c0.732-0.297,1.101-1.288,1.101-2.971l0.505-0.026v7.676h-0.455
				c0-1.087-0.283-1.98-0.847-2.678c-0.565-0.697-1.429-1.046-2.592-1.046h-1.088v8.187h3.59c1.552,0.017,2.795-0.314,3.729-0.995
				c0.937-0.679,1.404-1.87,1.404-3.57c0-0.034,0-0.068,0-0.102c0-0.034,0-0.068,0-0.102s-0.005-0.068-0.013-0.102
				c-0.01-0.034-0.013-0.068-0.013-0.102l0.48-0.026v5.483H15.819z"/>
			<path fill="#FFFFFF" d="M67.952,62.351c2.848,0.017,5.128,0.787,6.839,2.308c1.71,1.521,2.566,3.549,2.566,6.082
				c0,1.446-0.291,2.802-0.872,4.068c-0.581,1.267-1.378,2.275-2.39,3.022c-0.758,0.562-1.627,0.956-2.604,1.186
				c-0.978,0.229-2.233,0.344-3.768,0.344h-7.989v-0.484h1.973V62.86h-1.973v-0.51H67.952z M65.448,78.876h1.897
				c2.696,0.017,4.373-0.757,5.031-2.321c0.656-1.564,0.985-3.494,0.985-5.789c0-2.075-0.282-3.907-0.847-5.497
				c-0.565-1.59-2.103-2.385-4.615-2.385l-2.452-0.025V78.876z"/>
			<path fill="#FFFFFF" d="M94.79,79.45c-0.446,0.144-0.915,0.234-1.403,0.268c-0.051,0-0.105,0-0.164,0c-0.06,0-0.114,0-0.165,0
				c-1.062,0-1.85-0.306-2.363-0.918c-0.515-0.612-0.797-1.572-0.847-2.882c-0.085-1.666-0.324-2.954-0.721-3.864
				c-0.396-0.909-1.563-1.365-3.502-1.365H84.36v8.187h2.074v0.484h-7.712v-0.484h1.972V62.86h-1.972v-0.51
				c0.641,0.017,1.285,0.021,1.934,0.012c0.649-0.008,1.294-0.021,1.935-0.038s1.285-0.03,1.935-0.039
				c0.648-0.008,1.293-0.012,1.934-0.012c0.404,0,0.847,0.012,1.327,0.038s0.966,0.082,1.454,0.166
				c1.146,0.188,2.203,0.579,3.174,1.173c0.969,0.595,1.453,1.547,1.453,2.856c0,1.055-0.389,1.858-1.163,2.411
				c-0.775,0.553-1.627,0.949-2.554,1.186c-0.303,0.068-0.606,0.127-0.91,0.179c-0.304,0.05-0.591,0.093-0.859,0.127
				c0.96,0.085,1.761,0.242,2.402,0.472c0.64,0.23,1.18,0.557,1.617,0.982c0.051,0.052,0.097,0.098,0.14,0.141
				c0.042,0.042,0.088,0.089,0.14,0.14c0.336,0.391,0.568,0.842,0.695,1.352c0.126,0.51,0.214,1.335,0.265,2.475
				c0,0.068,0,0.149,0,0.242s0.008,0.19,0.024,0.292c0,0.12,0,0.239,0,0.357c0,0.119,0.01,0.239,0.026,0.357
				c0.017,0.408,0.101,0.782,0.253,1.122c0.151,0.341,0.438,0.51,0.859,0.51c0.033,0,0.063,0,0.088,0c0.025,0,0.055,0,0.09,0
				c0.1-0.017,0.21-0.051,0.328-0.102c0.117-0.052,0.252-0.127,0.404-0.23l0.201,0.307C95.611,79.097,95.236,79.306,94.79,79.45z
				 M88.355,69.695c1.028-0.34,1.542-1.487,1.542-3.443c0-1.309-0.274-2.231-0.821-2.767c-0.549-0.536-1.496-0.804-2.845-0.804
				c-0.253,0-0.535,0.014-0.847,0.039c-0.313,0.026-0.653,0.056-1.024,0.09v7.37C85.996,70.197,87.327,70.036,88.355,69.695z"/>
			<path fill="#FFFFFF" d="M96.801,79.361v-0.484h1.972V62.86h-1.972v-0.51h14.157l0.077,4.845h-0.481
				c-0.034-1.342-0.438-2.397-1.214-3.163c-0.775-0.765-1.812-1.147-3.109-1.147l-3.742-0.025v7.294
				c1.518,0.018,2.643-0.123,3.376-0.421c0.732-0.297,1.099-1.288,1.099-2.971l0.507-0.026v7.676h-0.455
				c0-1.087-0.282-1.98-0.847-2.678c-0.565-0.697-1.43-1.046-2.592-1.046h-1.088v8.187h3.591c1.55,0.017,2.793-0.314,3.729-0.995
				c0.936-0.679,1.402-1.87,1.402-3.57c0-0.034,0-0.068,0-0.102c0-0.034,0-0.068,0-0.102s-0.004-0.068-0.013-0.102
				c-0.008-0.034-0.013-0.068-0.013-0.102l0.48-0.026v5.483H96.801z"/>
			<path fill="#FFFFFF" d="M125.016,67.808h-0.505c-0.253-1.336-0.831-2.559-1.732-3.667s-2.103-1.663-3.603-1.663
				c-0.978,0-1.805,0.275-2.478,0.825c-0.675,0.551-1.013,1.215-1.013,1.994c0,0.83,0.262,1.452,0.784,1.866
				c0.522,0.415,1.458,0.767,2.807,1.054c0.22,0.052,0.435,0.098,0.646,0.141s0.425,0.081,0.645,0.115
				c0.202,0.051,0.408,0.098,0.619,0.14c0.211,0.043,0.426,0.081,0.645,0.115c1.35,0.34,2.402,0.953,3.161,1.836
				s1.138,2.041,1.138,3.469c0,1.683-0.549,3.06-1.645,4.131c-1.095,1.071-2.494,1.607-4.196,1.607c-0.052,0-0.097,0-0.139,0
				c-0.043,0-0.081,0-0.114,0c-0.572-0.034-1.134-0.124-1.682-0.268c-0.548-0.144-1.049-0.31-1.504-0.497
				c-0.489-0.187-0.91-0.361-1.264-0.522c-0.354-0.161-0.591-0.242-0.709-0.242c-0.202,0-0.337,0.055-0.404,0.165
				c-0.068,0.111-0.126,0.227-0.177,0.345v0.025V78.8c-0.017,0.068-0.043,0.136-0.076,0.204s-0.075,0.127-0.126,0.178
				c0,0.018,0,0.03,0,0.039c0,0.008,0,0.021,0,0.038c-0.017,0.018-0.025,0.035-0.025,0.051c0,0.017,0,0.034,0,0.051h-0.43
				l-0.127-6.426h0.48c0.051,0.204,0.102,0.404,0.152,0.6c0.05,0.195,0.108,0.386,0.177,0.573c0.455,1.292,1.167,2.478,2.136,3.558
				c0.97,1.08,2.188,1.619,3.654,1.619c1.112,0,2.014-0.305,2.705-0.916s1.037-1.417,1.037-2.419c0-1.223-0.477-2.042-1.429-2.458
				c-0.953-0.415-2.019-0.75-3.199-1.005c-0.05-0.017-0.101-0.03-0.151-0.038c-0.051-0.009-0.102-0.022-0.152-0.039
				c-0.724-0.17-1.432-0.361-2.123-0.572c-0.691-0.212-1.273-0.531-1.744-0.956c-0.49-0.424-0.852-0.934-1.087-1.528
				c-0.237-0.594-0.38-1.205-0.431-1.833c-0.017-0.085-0.025-0.174-0.025-0.268c0-0.093,0-0.182,0-0.267
				c0-1.443,0.515-2.64,1.543-3.591c1.028-0.951,2.316-1.426,3.867-1.426c0.591,0,1.134,0.072,1.632,0.216
				c0.496,0.145,0.956,0.302,1.378,0.472c0.42,0.17,0.797,0.327,1.125,0.471c0.329,0.145,0.611,0.217,0.847,0.217
				c0.236,0,0.396-0.067,0.48-0.203c0.084-0.137,0.135-0.392,0.151-0.766l0.48-0.025V67.808z"/>
			<path fill="#FFFFFF" d="M138.816,67.808h-0.506c-0.252-1.336-0.83-2.559-1.731-3.667s-2.103-1.663-3.604-1.663
				c-0.978,0-1.803,0.275-2.478,0.825c-0.674,0.551-1.011,1.215-1.011,1.994c0,0.83,0.261,1.452,0.783,1.866
				c0.523,0.415,1.458,0.767,2.807,1.054c0.219,0.052,0.435,0.098,0.646,0.141c0.21,0.042,0.424,0.081,0.645,0.115
				c0.201,0.051,0.408,0.098,0.619,0.14c0.211,0.043,0.425,0.081,0.645,0.115c1.349,0.34,2.402,0.953,3.16,1.836
				c0.759,0.884,1.138,2.041,1.138,3.469c0,1.683-0.547,3.06-1.644,4.131c-1.096,1.071-2.494,1.607-4.197,1.607
				c-0.05,0-0.097,0-0.138,0c-0.043,0-0.08,0-0.114,0c-0.573-0.034-1.134-0.124-1.682-0.268c-0.547-0.144-1.049-0.31-1.504-0.497
				c-0.489-0.187-0.91-0.361-1.265-0.522c-0.354-0.161-0.591-0.242-0.707-0.242c-0.203,0-0.338,0.055-0.405,0.165
				c-0.067,0.111-0.126,0.227-0.177,0.345v0.025V78.8c-0.017,0.068-0.042,0.136-0.075,0.204c-0.034,0.068-0.077,0.127-0.127,0.178
				c0,0.018,0,0.03,0,0.039c0,0.008,0,0.021,0,0.038c-0.018,0.018-0.025,0.035-0.025,0.051c0,0.017,0,0.034,0,0.051h-0.43
				l-0.127-6.426h0.48c0.051,0.204,0.102,0.404,0.151,0.6c0.051,0.195,0.11,0.386,0.177,0.573c0.456,1.292,1.168,2.478,2.137,3.558
				c0.97,1.08,2.188,1.619,3.654,1.619c1.112,0,2.014-0.305,2.705-0.916s1.036-1.417,1.036-2.419c0-1.223-0.476-2.042-1.429-2.458
				c-0.951-0.415-2.018-0.75-3.197-1.005c-0.052-0.017-0.102-0.03-0.152-0.038c-0.051-0.009-0.102-0.022-0.151-0.039
				c-0.726-0.17-1.434-0.361-2.124-0.572c-0.691-0.212-1.272-0.531-1.744-0.956c-0.49-0.424-0.852-0.934-1.088-1.528
				c-0.236-0.594-0.379-1.205-0.43-1.833c-0.018-0.085-0.025-0.174-0.025-0.268c0-0.093,0-0.182,0-0.267
				c0-1.443,0.514-2.64,1.543-3.591c1.027-0.951,2.317-1.426,3.868-1.426c0.589,0,1.134,0.072,1.631,0.216
				c0.497,0.145,0.956,0.302,1.377,0.472c0.422,0.17,0.797,0.327,1.126,0.471c0.328,0.145,0.611,0.217,0.847,0.217
				c0.236,0,0.396-0.067,0.479-0.203c0.085-0.137,0.136-0.392,0.152-0.766l0.48-0.025V67.808z"/>
		</g>
		<g>
			<path fill="#FFFFFF" d="M46.079,56.385c-4.919,0-9.257,2.512-11.821,6.334c0.021-0.01,0.037-0.025,0.058-0.034
				c0.481-0.212,0.99-0.217,1.526-0.015c0.915,0.337,1.553,0.914,1.913,1.731c0.356,0.811,0.575,2.466,0.655,4.968
				c0.092,1.137,0.057,3.005-0.104,5.604c0.174-1.035,0.382-2.304,0.623-3.807c0.347-2.443,0.597-4.196,0.749-5.258
				c0.219-1.885,0.607-2.95,1.166-3.197c0.579-0.301,1.154-0.308,1.729-0.022c0.215,0.116,0.394,0.429,0.537,0.94
				c0.186,0.42,0.297,1.667,0.334,3.741c0.017,0.887,0.009,3.209-0.025,6.964c0.286-1.713,0.581-3.467,0.885-5.262
				c0.373-2.117,0.703-3.522,0.99-4.215c0.091-0.332,0.308-0.628,0.649-0.888c1.161-0.512,1.979-0.233,2.45,0.837
				c0.3,0.68,0.323,3.481,0.072,8.4c-0.031,0.653-0.037,1.167-0.018,1.542l0.178,0.031c0.352-0.155,0.667-0.514,0.95-1.075
				c0,0,0.729-1.62,1.175-3.063c0.424-2.111,1.023-3.573,1.64-3.845c0.513-0.226,0.931-0.228,1.257-0.006
				c0.424,0.361,0.418,2.17-0.018,5.429l0.041,0.092l0.086,0.071c0.713-0.515,1.29-1.608,1.73-3.281
				c0.089-0.294,0.157-0.927,0.204-1.897l1.788-0.788c0.126-0.046,0.189,0.017,0.192,0.189c-0.085,1.443-0.135,3.4-0.15,5.87
				c-0.144,0.794-0.241,2.023-0.292,3.688c0.763,0.157,1.161,0.274,1.194,0.351c-0.188,0.813-0.299,1.227-0.329,1.24
				c-0.038,0.017-0.392-0.083-1.063-0.299c-0.164,0.912-0.482,1.929-0.956,3.049c-0.189,0.398-0.388,0.75-0.593,1.068
				c2.974-2.638,4.859-6.492,4.859-10.799C60.342,62.826,53.956,56.385,46.079,56.385z"/>
			<path fill="#FFFFFF" d="M50.889,82.899c-0.478-0.876-0.386-1.994,0.275-3.353c0.851-1.361,1.714-2.225,2.588-2.591
				c0.874-0.368,1.318-0.554,1.335-0.562c0.131-1.171,0.207-2.655,0.227-4.453c-0.476,0.721-0.896,1.354-1.259,1.896
				c-0.259,0.406-0.676,0.735-1.248,0.988c-0.306,0.135-0.635-0.031-0.985-0.496c-0.196-0.343-0.264-0.824-0.199-1.445
				c0.024-0.586,0.091-1.578,0.195-2.976l-0.098,0.017c0,0.032,0.005,0.062-0.001,0.096c-0.002,0.009-0.005,0.02-0.006,0.028
				c-0.003,0.029-0.011,0.059-0.02,0.09c-0.188,0.933-0.633,2.132-1.47,4.043c-0.494,1.131-1.058,1.927-1.896,2.533
				c-0.926,0.59-1.658,0.607-2.195,0.05c-0.206-0.301-0.302-0.798-0.286-1.489c0.003-0.466,0.062-1.401,0.175-2.801
				c-0.005-1.421,0.037-3.229,0.129-5.424l-0.063-0.519l-0.02-0.046c-0.13,0.185-0.346,0.937-0.649,2.257
				c-0.551,3.181-1.102,6.198-1.651,9.051c-0.046,0.787-0.134,1.208-0.264,1.266l-0.138,0.061c-1.041-0.061-1.813-0.159-2.319-0.292
				l-0.041-0.092c0.058-2.79,0.053-6.365-0.016-10.725c0.022-1.626-0.028-2.406-0.155-2.341c-0.502,2.922-0.953,6.042-1.353,9.357
				c-0.172,1.29-0.385,3.208-0.64,5.758c-0.066,0.285-0.172,0.459-0.316,0.523c-1.058-0.018-1.904-0.156-2.538-0.415l-0.061-0.138
				c0.128-0.786,0.188-2.474,0.179-5.062c0.044-1.972,0.001-4.472-0.129-7.5l-0.211-2.097c-0.355-1.531-1.095-2.173-2.218-1.925
				c-0.065,0.029-0.13,0.071-0.193,0.123c-0.977,1.948-1.539,4.144-1.539,6.477c0,7.945,6.386,14.388,14.264,14.388
				c2.332,0,4.526-0.576,6.469-1.576C51.846,83.662,51.289,83.438,50.889,82.899z"/>
			<path fill="#FFFFFF" d="M54.658,79.649c0.249-1.259,0.335-1.973,0.262-2.141c-0.063-0.018-0.229,0.019-0.499,0.111
				c-1.047,0.461-1.752,1.264-2.114,2.41c-0.109,0.705-0.053,1.246,0.168,1.624c0.314,0.445,0.652,0.588,1.011,0.431
				C53.944,81.881,54.335,81.069,54.658,79.649z"/>
		</g>
	</g>
</g>
<g id="Слой_1" display="none" opacity="0.75">
</g>
</svg>
