<?xml version="1.0" encoding="utf-8"?>
<!-- Generator: Adobe Illustrator 16.0.0, SVG Export Plug-In . SVG Version: 6.00 Build 0)  -->
<!DOCTYPE svg PUBLIC "-//W3C//DTD SVG 1.1//EN" "http://www.w3.org/Graphics/SVG/1.1/DTD/svg11.dtd">
<svg version="1.1" xmlns="http://www.w3.org/2000/svg" xmlns:xlink="http://www.w3.org/1999/xlink" x="0px" y="0px" width="140px"
	 height="140px" viewBox="0 0 140 140" enable-background="new 0 0 140 140" xml:space="preserve">
<g id="Слой_2">
	<g opacity="0.15">
		<g>
			<path fill="#FFFFFF" d="M39.81,105.318c0,0.3-0.177,0.449-0.53,0.449h-5.446v17.985c0,0.146-0.048,0.274-0.144,0.388
				c-0.094,0.113-0.21,0.17-0.346,0.17h-1.539c-0.137,0-0.254-0.054-0.354-0.164c-0.102-0.107-0.15-0.239-0.15-0.394v-17.985h-5.432
				c-0.373,0-0.559-0.149-0.559-0.449v-1.226c0-0.136,0.055-0.254,0.163-0.354c0.109-0.1,0.24-0.149,0.396-0.149h13.41
				c0.354,0,0.53,0.168,0.53,0.503V105.318z"/>
			<path fill="#FFFFFF" d="M44.807,105.958c0,0.155-0.054,0.286-0.164,0.396c-0.108,0.108-0.24,0.163-0.395,0.163h-1.415
				c-0.155,0-0.286-0.055-0.396-0.163c-0.109-0.109-0.163-0.24-0.163-0.396v-2.219c0-0.153,0.054-0.286,0.163-0.395
				c0.109-0.109,0.24-0.163,0.396-0.163h1.415c0.154,0,0.286,0.054,0.395,0.163c0.11,0.108,0.164,0.241,0.164,0.395V105.958z
				 M44.753,123.753c0,0.154-0.056,0.286-0.163,0.394c-0.109,0.11-0.241,0.164-0.396,0.164H42.86c-0.155,0-0.286-0.054-0.396-0.164
				c-0.108-0.107-0.164-0.239-0.164-0.394v-14.214c0-0.154,0.056-0.286,0.164-0.395c0.109-0.109,0.24-0.164,0.396-0.164h1.333
				c0.155,0,0.287,0.055,0.396,0.164c0.107,0.108,0.163,0.24,0.163,0.395V123.753z"/>
			<path fill="#FFFFFF" d="M67.338,123.753c0,0.154-0.054,0.286-0.162,0.394c-0.109,0.11-0.241,0.164-0.396,0.164h-1.333
				c-0.155,0-0.287-0.054-0.396-0.164c-0.109-0.107-0.163-0.239-0.163-0.394v-9.87c0-1.988-0.85-2.982-2.547-2.982
				c-0.861,0-1.946,0.25-3.254,0.749c0.163,0.618,0.246,1.344,0.246,2.178v9.926c0,0.146-0.049,0.274-0.143,0.388
				c-0.097,0.113-0.217,0.17-0.361,0.17h-1.471c-0.318,0-0.477-0.186-0.477-0.558v-9.926c0-1.025-0.139-1.77-0.415-2.231
				c-0.277-0.465-0.855-0.695-1.736-0.695c-0.825,0-1.96,0.363-3.403,1.09v11.763c0,0.146-0.048,0.274-0.143,0.388
				c-0.096,0.113-0.211,0.17-0.348,0.17h-1.483c-0.318,0-0.477-0.186-0.477-0.558v-14.214c0-0.163,0.052-0.297,0.156-0.401
				s0.229-0.157,0.374-0.157h1.402c0.146,0,0.268,0.053,0.368,0.157c0.1,0.104,0.149,0.238,0.149,0.401v0.518
				c1.406-0.871,2.764-1.307,4.071-1.307c1.216,0,2.146,0.381,2.79,1.143c1.625-0.762,3.168-1.143,4.629-1.143
				c3.014,0,4.52,1.711,4.52,5.133V123.753z"/>
			<path fill="#FFFFFF" d="M73.941,105.958c0,0.155-0.054,0.286-0.163,0.396c-0.108,0.108-0.24,0.163-0.396,0.163h-1.414
				c-0.155,0-0.287-0.055-0.396-0.163c-0.109-0.109-0.163-0.24-0.163-0.396v-2.219c0-0.153,0.054-0.286,0.163-0.395
				c0.108-0.109,0.24-0.163,0.396-0.163h1.414c0.155,0,0.287,0.054,0.396,0.163c0.109,0.108,0.163,0.241,0.163,0.395V105.958z
				 M73.888,123.753c0,0.154-0.055,0.286-0.164,0.394c-0.108,0.11-0.24,0.164-0.395,0.164h-1.334c-0.154,0-0.286-0.054-0.396-0.164
				c-0.109-0.107-0.163-0.239-0.163-0.394v-14.214c0-0.154,0.054-0.286,0.163-0.395c0.109-0.109,0.241-0.164,0.396-0.164h1.334
				c0.154,0,0.286,0.055,0.395,0.164c0.109,0.108,0.164,0.24,0.164,0.395V123.753z"/>
			<path fill="#FFFFFF" d="M86.045,104.625c0,0.281-0.168,0.421-0.503,0.421h-1.335c-0.69,0-1.146,0.136-1.368,0.409
				c-0.223,0.272-0.333,0.775-0.333,1.511v2.015h2.927c0.354,0,0.53,0.164,0.53,0.49v1.09c0,0.317-0.177,0.477-0.53,0.477h-2.927
				v12.716c0,0.146-0.055,0.274-0.164,0.388c-0.108,0.113-0.231,0.17-0.367,0.17h-1.361c-0.154,0-0.286-0.057-0.396-0.17
				c-0.108-0.113-0.163-0.242-0.163-0.388v-12.716l-2.723-0.3c-0.154-0.019-0.279-0.075-0.375-0.17
				c-0.095-0.096-0.143-0.207-0.143-0.334v-0.763c0-0.326,0.177-0.49,0.531-0.49h2.709v-2.015c0-1.425,0.324-2.427,0.974-3.009
				c0.648-0.58,1.622-0.871,2.921-0.871c1.396,0,2.096,0.209,2.096,0.626V104.625z"/>
			<path fill="#FFFFFF" d="M99.673,117.708c0,2.124-0.544,3.787-1.634,4.989c-1.089,1.203-2.618,1.804-4.587,1.804
				c-1.97,0-3.495-0.599-4.575-1.797s-1.619-2.863-1.619-4.996v-2.124c0-2.098,0.53-3.756,1.592-4.977
				c1.063-1.221,2.596-1.83,4.603-1.83c1.969,0,3.498,0.601,4.587,1.804c1.09,1.202,1.634,2.87,1.634,5.003V117.708z
				 M97.223,117.708v-2.124c0-3.104-1.257-4.656-3.771-4.656c-2.487,0-3.731,1.553-3.731,4.656v2.124
				c0,3.104,1.244,4.656,3.731,4.656c1.233,0,2.171-0.397,2.812-1.192C96.903,120.379,97.223,119.224,97.223,117.708z"/>
			<path fill="#FFFFFF" d="M114.69,123.753c0,0.154-0.054,0.286-0.163,0.394c-0.109,0.11-0.236,0.164-0.382,0.164h-1.348
				c-0.155,0-0.286-0.054-0.396-0.164c-0.108-0.107-0.163-0.239-0.163-0.394v-9.177c0-1.307-0.225-2.246-0.673-2.817
				c-0.449-0.572-1.246-0.858-2.391-0.858c-1.061,0-2.318,0.363-3.771,1.09v11.763c0,0.146-0.054,0.274-0.163,0.388
				c-0.108,0.113-0.235,0.17-0.381,0.17h-1.375c-0.137,0-0.259-0.054-0.367-0.164c-0.109-0.107-0.163-0.239-0.163-0.394v-14.214
				c0-0.163,0.052-0.297,0.156-0.401s0.229-0.157,0.374-0.157h1.402c0.146,0,0.268,0.053,0.367,0.157
				c0.101,0.104,0.149,0.238,0.149,0.401v0.518c1.49-0.854,2.969-1.279,4.439-1.279c3.23,0,4.847,1.933,4.847,5.799V123.753z"/>
		</g>
		<g>
			<g>
				<path fill="#FFFFFF" d="M70.463,52.06c0.848-2.435,1.311-5.05,1.311-7.773c0-2.723-0.463-5.337-1.311-7.772
					c-0.848,2.435-1.309,5.049-1.309,7.772C69.154,47.01,69.615,49.625,70.463,52.06z"/>
				<path fill="#FFFFFF" d="M70.463,31.044c0.848-2.435,1.311-5.05,1.311-7.772c0-2.724-0.463-5.339-1.311-7.773
					c-0.848,2.434-1.309,5.049-1.309,7.773C69.154,25.994,69.615,28.609,70.463,31.044z"/>
				<path fill="#FFFFFF" d="M70.463,94.09c0.848-2.434,1.311-5.049,1.311-7.772c0-2.723-0.463-5.338-1.311-7.772
					c-0.848,2.435-1.309,5.05-1.309,7.772C69.154,89.041,69.615,91.656,70.463,94.09z"/>
				<path fill="#FFFFFF" d="M70.463,73.075c0.848-2.435,1.311-5.05,1.311-7.773c0-2.723-0.463-5.337-1.311-7.772
					c-0.848,2.435-1.309,5.049-1.309,7.772C69.154,68.025,69.615,70.641,70.463,73.075z"/>
				<path fill="#FFFFFF" d="M68.095,53.427c-1.685-1.952-3.718-3.66-6.076-5.021s-4.854-2.269-7.387-2.752
					c1.685,1.951,3.719,3.658,6.077,5.021C63.067,52.036,65.563,52.944,68.095,53.427z"/>
				<path fill="#FFFFFF" d="M86.295,63.936c-1.685-1.952-3.719-3.66-6.077-5.021c-2.358-1.363-4.854-2.27-7.386-2.753
					c1.686,1.951,3.719,3.658,6.076,5.021C81.268,62.544,83.763,63.452,86.295,63.936z"/>
				<path fill="#FFFFFF" d="M72.832,53.427c1.684-1.952,3.718-3.66,6.076-5.021s4.854-2.269,7.387-2.752
					c-1.685,1.951-3.719,3.658-6.077,5.021C77.859,52.036,75.363,52.944,72.832,53.427z"/>
				<path fill="#FFFFFF" d="M54.632,63.936c1.685-1.952,3.718-3.66,6.077-5.021c2.357-1.363,4.854-2.27,7.386-2.753
					c-1.685,1.951-3.719,3.658-6.077,5.021C59.659,62.544,57.164,63.452,54.632,63.936z"/>
				<path fill="#FFFFFF" d="M68.095,32.411c-1.685-1.951-3.718-3.659-6.076-5.021s-4.854-2.269-7.387-2.752
					c1.685,1.951,3.719,3.658,6.077,5.021C63.067,31.021,65.563,31.927,68.095,32.411z"/>
				<path fill="#FFFFFF" d="M86.295,42.919c-1.685-1.952-3.719-3.66-6.077-5.02c-2.358-1.363-4.854-2.27-7.386-2.753
					c1.686,1.951,3.719,3.658,6.076,5.021C81.268,41.528,83.763,42.436,86.295,42.919z"/>
				<path fill="#FFFFFF" d="M72.832,32.411c1.684-1.951,3.718-3.659,6.076-5.021s4.854-2.269,7.387-2.752
					c-1.685,1.951-3.719,3.658-6.077,5.021C77.859,31.021,75.363,31.927,72.832,32.411z"/>
				<path fill="#FFFFFF" d="M54.632,42.919c1.685-1.952,3.718-3.66,6.077-5.02c2.357-1.363,4.854-2.27,7.386-2.753
					c-1.685,1.951-3.719,3.658-6.077,5.021C59.659,41.528,57.164,42.436,54.632,42.919z"/>
				<path fill="#FFFFFF" d="M68.095,74.442c-1.685-1.951-3.718-3.659-6.076-5.021s-4.854-2.27-7.387-2.752
					c1.685,1.951,3.719,3.659,6.077,5.021C63.067,73.052,65.563,73.959,68.095,74.442z"/>
				<path fill="#FFFFFF" d="M86.295,84.951c-1.685-1.952-3.719-3.66-6.077-5.021s-4.854-2.269-7.386-2.752
					c1.686,1.951,3.719,3.659,6.076,5.021C81.268,83.559,83.763,84.467,86.295,84.951z"/>
				<path fill="#FFFFFF" d="M72.832,74.442c1.684-1.951,3.718-3.659,6.076-5.021s4.854-2.27,7.387-2.752
					c-1.685,1.951-3.719,3.659-6.077,5.021C77.859,73.052,75.363,73.959,72.832,74.442z"/>
				<path fill="#FFFFFF" d="M54.632,84.951c1.685-1.952,3.718-3.66,6.077-5.021c2.357-1.362,4.854-2.269,7.386-2.752
					c-1.685,1.951-3.719,3.659-6.077,5.021C59.659,83.559,57.164,84.467,54.632,84.951z"/>
				<path fill="#FFFFFF" d="M49.895,42.919c-1.684-1.951-3.718-3.66-6.076-5.02c-2.358-1.362-4.854-2.27-7.386-2.753
					c1.685,1.951,3.718,3.659,6.077,5.021C44.867,41.528,47.363,42.436,49.895,42.919z"/>
				<path fill="#FFFFFF" d="M104.494,74.443c-1.684-1.952-3.717-3.659-6.076-5.021c-2.357-1.362-4.854-2.27-7.386-2.752
					c1.685,1.95,3.719,3.658,6.076,5.02C99.468,73.052,101.963,73.959,104.494,74.443z"/>
				<path fill="#FFFFFF" d="M49.896,45.655c-2.532,0.482-5.028,1.389-7.386,2.751c-2.359,1.362-4.393,3.069-6.077,5.021
					c2.531-0.483,5.027-1.391,7.386-2.752C46.178,49.313,48.211,47.605,49.896,45.655z"/>
				<path fill="#FFFFFF" d="M52.264,41.552c-0.848-2.435-1.311-5.05-1.311-7.772c0-2.724,0.463-5.338,1.311-7.773
					c0.848,2.435,1.309,5.049,1.309,7.773C53.572,36.502,53.111,39.117,52.264,41.552z"/>
				<path fill="#FFFFFF" d="M52.264,62.567c-0.848-2.435-1.311-5.05-1.311-7.772c0-2.724,0.463-5.338,1.311-7.773
					c0.848,2.435,1.309,5.049,1.309,7.773C53.572,57.518,53.111,60.133,52.264,62.567z"/>
				<path fill="#FFFFFF" d="M104.494,56.162c-2.531,0.483-5.026,1.39-7.386,2.753c-2.357,1.36-4.392,3.068-6.076,5.021
					c2.532-0.484,5.028-1.392,7.386-2.753C100.777,59.82,102.811,58.113,104.494,56.162z"/>
				<path fill="#FFFFFF" d="M88.664,62.567c-0.849-2.435-1.311-5.05-1.311-7.772c0-2.724,0.462-5.338,1.311-7.773
					c0.847,2.435,1.309,5.049,1.309,7.773C89.973,57.518,89.511,60.133,88.664,62.567z"/>
				<path fill="#FFFFFF" d="M88.664,83.583c-0.849-2.435-1.311-5.05-1.311-7.773c0-2.723,0.462-5.338,1.311-7.772
					c0.847,2.435,1.309,5.05,1.309,7.772C89.973,78.533,89.511,81.148,88.664,83.583z"/>
				<path fill="#FFFFFF" d="M91.032,42.919c2.532-0.483,5.028-1.391,7.386-2.752c2.359-1.362,4.393-3.069,6.076-5.021
					c-2.531,0.483-5.027,1.39-7.386,2.752C94.75,39.26,92.717,40.968,91.032,42.919z"/>
				<path fill="#FFFFFF" d="M36.433,74.442c2.531-0.483,5.027-1.391,7.386-2.752c2.358-1.362,4.392-3.069,6.076-5.021
					c-2.531,0.482-5.027,1.39-7.385,2.752C40.15,70.784,38.117,72.491,36.433,74.442z"/>
				<path fill="#FFFFFF" d="M88.664,41.552c0.847-2.435,1.309-5.05,1.309-7.773c0-2.723-0.462-5.337-1.309-7.772
					c-0.848,2.435-1.31,5.049-1.31,7.772C87.354,36.502,87.816,39.117,88.664,41.552z"/>
				<path fill="#FFFFFF" d="M91.032,45.654c2.532,0.482,5.028,1.39,7.386,2.752c2.359,1.361,4.393,3.069,6.076,5.021
					c-2.531-0.483-5.026-1.391-7.386-2.753C94.75,49.313,92.717,47.604,91.032,45.654z"/>
				<path fill="#FFFFFF" d="M52.264,83.583c0.848-2.435,1.311-5.05,1.311-7.773c0-2.723-0.463-5.339-1.311-7.772
					c-0.848,2.435-1.31,5.05-1.31,7.772C50.954,78.533,51.416,81.148,52.264,83.583z"/>
				<path fill="#FFFFFF" d="M36.433,56.162c2.531,0.482,5.027,1.39,7.386,2.752c2.358,1.361,4.392,3.069,6.076,5.021
					c-2.531-0.483-5.027-1.392-7.385-2.752C40.15,59.82,38.117,58.113,36.433,56.162z"/>
			</g>
		</g>
	</g>
</g>
<g id="Слой_1" display="none" opacity="0.75">
</g>
</svg>
