<?xml version="1.0" encoding="utf-8"?>
<!-- Generator: Adobe Illustrator 16.0.0, SVG Export Plug-In . SVG Version: 6.00 Build 0)  -->
<!DOCTYPE svg PUBLIC "-//W3C//DTD SVG 1.1//EN" "http://www.w3.org/Graphics/SVG/1.1/DTD/svg11.dtd">
<svg version="1.1" xmlns="http://www.w3.org/2000/svg" xmlns:xlink="http://www.w3.org/1999/xlink" x="0px" y="0px" width="65px"
	 height="40px" viewBox="0 0 65 40" enable-background="new 0 0 65 40" xml:space="preserve">
<g id="Слой_2">
	<g>
		<g>
			<path fill="#D1D3D4" d="M26.276,33.126c-0.233,1.646-0.951,3.203-2.162,4.67C22.904,39.264,21.146,40,18.843,40H3.803
				c-1.041,0-1.931-0.382-2.683-1.147C0.369,38.094,0,37.181,0,36.125c0-0.47,0.057-0.886,0.169-1.234l11.41-29.255
				c0.46-1.171,1.237-2.405,2.335-3.7C15.008,0.645,16.71,0,19.017,0h7.776c1.041,0,1.932,0.382,2.682,1.144
				c0.746,0.763,1.122,1.672,1.122,2.733v0.349L26.276,33.126z M60.681,33.126c-0.235,1.646-0.951,3.203-2.162,4.67
				C57.309,39.264,55.55,40,53.248,40H38.207c-1.041,0-1.933-0.382-2.683-1.147c-0.75-0.759-1.126-1.672-1.126-2.728
				c0-0.47,0.062-0.886,0.174-1.234L45.983,5.636c0.459-1.171,1.238-2.405,2.336-3.7C49.411,0.645,51.114,0,53.421,0h7.775
				c1.041,0,1.932,0.382,2.683,1.144C64.626,1.906,65,2.815,65,3.877v0.349L60.681,33.126z"/>
		</g>
	</g>
</g>
<g id="Слой_1" display="none" opacity="0.75">
</g>
</svg>
