<?xml version="1.0" encoding="utf-8"?>
<!-- Generator: Adobe Illustrator 16.0.0, SVG Export Plug-In . SVG Version: 6.00 Build 0)  -->
<!DOCTYPE svg PUBLIC "-//W3C//DTD SVG 1.1//EN" "http://www.w3.org/Graphics/SVG/1.1/DTD/svg11.dtd">
<svg version="1.1" xmlns="http://www.w3.org/2000/svg" xmlns:xlink="http://www.w3.org/1999/xlink" x="0px" y="0px" width="65px"
	 height="40px" viewBox="0 0 65 40" enable-background="new 0 0 65 40" xml:space="preserve">
<g id="Слой_2">
	<g>
		<g>
			<path fill="#D1D3D4" d="M38.723,6.873c0.235-1.645,0.952-3.2,2.163-4.669C42.097,0.737,43.853,0,46.156,0h15.041
				c1.041,0,1.931,0.383,2.682,1.146C64.63,1.907,65,2.821,65,3.875c0,0.47-0.057,0.886-0.169,1.235l-11.41,29.256
				c-0.46,1.17-1.237,2.403-2.335,3.698C49.992,39.355,48.29,40,45.983,40h-7.776c-1.04,0-1.931-0.381-2.682-1.143
				c-0.745-0.765-1.121-1.673-1.121-2.732v-0.35L38.723,6.873z M4.32,6.873c0.233-1.645,0.951-3.2,2.161-4.669
				C7.691,0.737,9.45,0,11.752,0h15.041c1.041,0,1.933,0.383,2.682,1.146c0.751,0.761,1.127,1.675,1.127,2.729
				c0,0.47-0.063,0.886-0.174,1.235L19.017,34.366c-0.46,1.17-1.237,2.403-2.335,3.698C15.589,39.355,13.886,40,11.579,40H3.803
				c-1.04,0-1.931-0.381-2.682-1.143C0.376,38.093,0,37.185,0,36.125v-0.35L4.32,6.873z"/>
		</g>
	</g>
</g>
<g id="Слой_1" display="none" opacity="0.75">
</g>
</svg>
