<?xml version="1.0" encoding="utf-8"?>
<!-- Generator: Adobe Illustrator 16.0.0, SVG Export Plug-In . SVG Version: 6.00 Build 0)  -->
<!DOCTYPE svg PUBLIC "-//W3C//DTD SVG 1.1//EN" "http://www.w3.org/Graphics/SVG/1.1/DTD/svg11.dtd">
<svg version="1.1" xmlns="http://www.w3.org/2000/svg" xmlns:xlink="http://www.w3.org/1999/xlink" x="0px" y="0px" width="560px"
	 height="240px" viewBox="0 0 560 240" enable-background="new 0 0 560 240" xml:space="preserve">
<g id="Слой_2">
	<g>
		<defs>
			<rect id="SVGID_147_" width="560" height="240"/>
		</defs>
		<clipPath id="SVGID_2_">
			<use xlink:href="#SVGID_147_"  overflow="visible"/>
		</clipPath>
		<rect x="-128" y="-10" clip-path="url(#SVGID_2_)" fill="#90CD4C" width="816" height="264"/>
		<g clip-path="url(#SVGID_2_)">
			<path fill="#1FB224" d="M119.479,40.107c0.006-4.498-3.637-8.225-8.124-8.227l-71.403-0.084c-4.502-0.002-8.127,3.617-8.13,8.115
				l-0.061,103.533c-0.002,4.484,3.369,8.133,7.87,8.137L110,151.617v28.402c0-0.16-0.925-0.252-1.549-0.252
				c-1.674,0-3.081,0.609-4.265,1.625c-2.108-4.789-4.749-9.158-12.333-9.158c-9.198,0-13.526,7.148-13.526,14.689
				c0,0.316,0.028,0.629,0.051,0.938c-4.89,1.004-8.561,5.738-8.561,10.961c0,5.965,4.809,11.178,10.727,11.178h33.164
				c5.919,0,10.717-4.799,10.717-10.764c0-1.143-0.186-2.236-0.512-3.236H196v-1h1v-46.33V140h-77.579L119.479,40.107z"/>
			<path fill="#1FB224" d="M144.323,103.863c0.501,0,0.95-0.428,1.266-1.109l6.557-14.217c0.504-1.092,0.785-2.311,0.786-3.596
				c0.002-4.75-3.848-8.602-8.599-8.604s-8.603,3.848-8.604,8.598c-0.001,1.283,0.281,2.504,0.783,3.596l6.547,14.221
				C143.373,103.436,143.822,103.861,144.323,103.863z M139.169,84.938c0.002-2.85,2.314-5.16,5.163-5.16
				c2.85,0.002,5.159,2.314,5.159,5.164c-0.001,2.85-2.314,5.16-5.163,5.158C141.479,90.1,139.169,87.787,139.169,84.938z"/>
			<path fill="#1FB224" d="M528.939,170.055c-0.001-3.293-2.676-5.967-5.977-5.963l-76.005,0.045
				c-3.294,0.002-5.971,2.842-5.969,6.135L441.002,192H439v4h-38.99c-0.826-11-9.773-19.18-20.714-19.18S359.408,185,358.582,196
				H330h-30h-12.829c-2.513,0-4.537-0.551-6.033-2.113c-0.548-0.572-0.993-1.887-1.367-1.887h49.608c2,0,3.621-1.951,3.621-3.951
				V164h43.821c0.168,0,0.574-0.305,1.165-0.305c1.035,0,2.641,0.135,4.537-0.152c1.99,1.412,4.411,2.457,7.03,2.457h37.861
				c6.757,0,12.236-5.811,12.236-12.619c0-5.961-4.199-11.078-9.781-12.225c0.024-0.354,0.04-0.783,0.04-1.143
				c0-8.609-4.978-16.805-15.478-16.805c-6.778,0-10.137,3.025-12.433,6.977V109h60v26.479c0,2.621,1.854,5.521,4.484,5.521h27.5
				c2.626,0,5.016-2.898,5.016-5.521v-55.84c0-2.631-2.39-4.639-5.016-4.639H485V43.67V33h-1l0,0h-56v-1h-60v1h-3v76h1l0,0h32
				v23.271c-0.85-0.322-1.769-0.5-2.729-0.5c-4.283,0-7.754,3.496-7.754,7.811c0,0.457,0.041,0.902,0.114,1.334
				c-5.845,0.932-10.312,6.025-10.312,12.174c0,2.4,0.69,4.631,1.867,6.525c-1.369,0.074-2.241,0.189-2.271,0.188L376.881,160H333
				V47.291c0-2-1.621-3.291-3.621-3.291h-44.501c-0.959-3-2.989-5.531-7.297-5.531S271.321,41,270.439,44h-43.818
				c-2,0-3.621,1.291-3.621,3.291V128h-40.829c-2.513,0-4.537-0.715-6.033-2.277c-3.381-3.527-3.138-9.803-3.138-9.92V57.861
				c0-3.744-1.223-6.568-3.618-8.889c-4.927-4.77-12.914-4.303-13.218-4.303L119,44.732v2l37.205-0.063
				c0.072,0,7.347-0.205,11.529,3.846c1.896,1.836,2.819,4.301,2.819,7.354l-0.018,57.889c-0.014,0.299-0.299,7.627,3.812,11.93
				c1.98,2.072,4.607,3.313,7.823,3.313H223v57.049c0,2,1.621,3.951,3.621,3.951h50.289c0.561,1,1.336,2.709,2.428,3.852
				c1.98,2.074,4.617,3.148,7.833,3.148H300h30h28.57c0.715,11,9.708,19.412,20.726,19.412S399.307,210,400.021,199H439v2h2.008
				l0.013,21.686c0.002,3.303,2.685,5.877,5.975,5.875L523,228.475c3.301-0.002,5.973-2.682,5.971-5.986L528.939,170.055z
				 M277.581,41.576c1.974-0.006,3.122,0.424,3.798,2.424h-7.523C275.195,41,277.581,41.576,277.581,41.576z"/>
			<path fill="#1FB224" d="M70.128,176.256l-5.439-5.414c-0.806,1.26-1.873,2.332-3.128,3.145l5.438,5.412
				c0.869,0.865,2.273,0.861,3.136-0.008C70.999,178.525,70.996,177.119,70.128,176.256z"/>
			<path fill="#1FB224" d="M64.839,165.271c-0.012-4.898-3.994-8.861-8.892-8.85c-4.898,0.012-8.859,3.994-8.848,8.891
				c0.012,4.898,3.991,8.861,8.891,8.85C60.888,174.15,64.85,170.17,64.839,165.271z M55.984,171.945
				c-3.668,0.008-6.659-2.969-6.668-6.637s2.968-6.66,6.636-6.668c3.669-0.01,6.66,2.969,6.669,6.635
				C62.629,168.945,59.652,171.936,55.984,171.945z"/>
			<path fill="#1FB224" d="M50.795,165.305l1.479-0.004c-0.006-2.037,1.649-3.699,3.686-3.703l-0.002-1.479
				C53.104,160.125,50.788,162.451,50.795,165.305z"/>
			<circle fill="#1FB224" cx="198.604" cy="45.801" r="3.09"/>
			<path fill="#1FB224" d="M203.791,42.121c0.76,0.748,1.989,0.736,2.738-0.027c0.75-0.762,0.742-1.99-0.018-2.738l-0.624-0.613
				l-0.45-0.445c-3.847-3.781-9.962-3.873-13.927-0.209c-0.029,0.023-0.054,0.041-0.076,0.066l-0.138,0.131
				c-0.047,0.045-0.096,0.086-0.141,0.135l-0.739,0.775c-0.361,0.363-0.555,0.848-0.548,1.357c0.005,0.514,0.209,0.994,0.576,1.354
				c0.755,0.744,1.973,0.736,2.713-0.018l0.764-0.752c2.404-2.443,6.348-2.477,8.793-0.072L203.791,42.121z"/>
			<path fill="#1FB224" d="M188.382,37.125l0.905-0.92c5.097-4.898,13.186-4.936,18.324-0.055c0.008,0.006,0.015,0.016,0.021,0.025
				l1.17,1.148c0.693,0.684,1.81,0.668,2.494-0.027c0.687-0.697,0.681-1.814-0.013-2.496l-1.17-1.15
				c-0.029-0.029-0.064-0.049-0.096-0.076c-6.355-6.012-16.261-6.104-22.725-0.332c-0.101,0.068-0.197,0.145-0.286,0.234
				l-0.502,0.512c-0.006,0.002-0.007,0.006-0.01,0.008l-0.636,0.648c-0.681,0.691-0.669,1.811,0.026,2.496
				C186.582,37.824,187.702,37.818,188.382,37.125z"/>
		</g>
		<g opacity="0.4" clip-path="url(#SVGID_2_)">
			<path fill="#1FB224" d="M412.092,123.49h-11.473c-3.105,0-6.725-2.809-7.905-6.135c-1.095-3.084-2.379-6.152-3.815-9.123
				c-1.529-3.16-0.967-7.684,1.228-9.879l8.167-8.166c5.722-5.723,5.722-15.033,0-20.754l-13.256-13.256
				c-2.771-2.773-6.456-4.299-10.377-4.299c-3.92,0-7.604,1.525-10.377,4.299l-8.167,8.166c-1.311,1.311-3.494,2.094-5.839,2.094
				c-1.467,0-2.863-0.299-4.035-0.867c-2.973-1.438-6.047-2.725-9.136-3.824c-3.325-1.18-6.135-4.799-6.135-7.902V42.369
				c0-8.09-6.582-14.674-14.675-14.674h-18.751c-8.093,0-14.675,6.584-14.675,14.674v11.475c0,3.105-2.81,6.725-6.135,7.902
				c-3.086,1.096-6.158,2.379-9.127,3.814c-1.152,0.559-2.583,0.863-4.027,0.863c-2.354,0-4.543-0.783-5.857-2.098l-8.154-8.15
				c-2.771-2.771-6.457-4.299-10.378-4.299c-3.92,0-7.604,1.527-10.377,4.297l-13.27,13.262c-2.773,2.77-4.3,6.455-4.302,10.375
				c0,3.92,1.527,7.604,4.299,10.377l8.168,8.166c2.195,2.197,2.76,6.723,1.23,9.885c-1.434,2.967-2.717,6.033-3.811,9.119
				c-1.181,3.324-4.799,6.133-7.903,6.133h-11.473c-8.093,0-14.675,6.584-14.675,14.676v18.75c0,8.092,6.582,14.676,14.675,14.676
				h11.473c3.104,0,6.725,2.807,7.905,6.133c1.092,3.076,2.375,6.145,3.813,9.117c1.528,3.16,0.962,7.686-1.235,9.885l-8.168,8.166
				c-5.722,5.723-5.722,15.033,0,20.754l13.273,13.275c0.656,0.656,1.365,1.236,2.114,1.748h16.526
				c0.748-0.512,1.459-1.092,2.113-1.748l8.168-8.166c1.314-1.314,3.502-2.1,5.854-2.1c1.466,0,2.857,0.299,4.027,0.865
				c2.971,1.436,6.039,2.719,9.12,3.814c3.122,1.107,5.79,4.369,6.102,7.334h48.164c0.312-2.965,2.98-6.227,6.103-7.334
				c3.087-1.096,6.158-2.379,9.128-3.813c1.153-0.559,2.583-0.865,4.027-0.865c2.353,0,4.541,0.785,5.855,2.1l8.167,8.166
				c0.655,0.654,1.364,1.234,2.112,1.746h16.527c0.748-0.512,1.459-1.094,2.114-1.748l13.262-13.27
				c5.718-5.725,5.718-15.033-0.003-20.756l-8.16-8.164c-2.194-2.195-2.757-6.721-1.229-9.883c1.436-2.967,2.717-6.037,3.813-9.123
				c1.179-3.324,4.797-6.133,7.901-6.133h11.472c8.094,0,14.676-6.584,14.676-14.674v-18.752
				C426.766,130.072,420.182,123.49,412.092,123.49z M306.922,190.547c-23.713,0-43.006-19.293-43.006-43.006
				s19.293-43.006,43.006-43.006s43.005,19.291,43.005,43.006C349.927,171.254,330.635,190.547,306.922,190.547z"/>
			<path fill="#1FB224" d="M225.395-1.041h-5.744c-0.438,0-1.365-0.66-1.643-1.441c-0.576-1.625-1.254-3.244-2.012-4.809
				c-0.354-0.73-0.166-1.836,0.141-2.141l4.084-4.086c3.102-3.102,3.681-7.787,1.737-11.479h-98.295
				c-1.944,3.693-1.366,8.379,1.735,11.482l4.083,4.082c0.307,0.307,0.495,1.412,0.142,2.141c-0.758,1.566-1.435,3.186-2.012,4.811
				c-0.277,0.781-1.207,1.441-1.643,1.441h-5.746c-5.393,0-9.783,4.389-9.783,9.783v9.377c0,5.393,4.389,9.783,9.782,9.783h5.746
				c0.437,0,1.364,0.658,1.642,1.439c0.578,1.627,1.254,3.244,2.012,4.809c0.354,0.73,0.167,1.836-0.14,2.143l-4.085,4.084
				c-1.847,1.848-2.864,4.305-2.864,6.918s1.018,5.07,2.866,6.918l6.629,6.627c1.847,1.848,4.305,2.865,6.918,2.865
				s5.069-1.018,6.916-2.865l4.085-4.084c0.127-0.127,0.564-0.332,1.192-0.332c0.356,0,0.702,0.068,0.95,0.189
				c1.567,0.758,3.185,1.436,4.809,2.01c0.782,0.277,1.441,1.207,1.441,1.643v5.746c0,5.396,4.39,9.783,9.783,9.783h9.376
				c5.394,0,9.783-4.387,9.783-9.783V60.27c0-0.438,0.658-1.363,1.439-1.641c1.625-0.576,3.243-1.254,4.809-2.012
				c0.248-0.121,0.595-0.189,0.952-0.189c0.628,0,1.063,0.205,1.192,0.332l4.084,4.084c1.848,1.848,4.305,2.865,6.918,2.865
				s5.069-1.018,6.917-2.865l6.628-6.629c3.814-3.814,3.814-10.021,0-13.834l-4.082-4.084c-0.307-0.307-0.496-1.412-0.143-2.143
				c0.758-1.572,1.436-3.191,2.011-4.814c0.276-0.781,1.204-1.439,1.642-1.439h5.746c5.395,0,9.783-4.389,9.783-9.783V8.742
				C235.178,3.346,230.789-1.041,225.395-1.041z M172.81,32.486c-10.509,0-19.058-8.549-19.058-19.057
				c0-10.51,8.549-19.059,19.058-19.059c10.507,0,19.056,8.549,19.056,19.059C191.865,23.936,183.316,32.486,172.81,32.486z"/>
		</g>
		<g clip-path="url(#SVGID_2_)">
			<g>
				<path fill="#FFFFFF" d="M223,125v3h-42.829c-3.216,0-5.853-1.24-7.833-3.313c-4.11-4.303-3.835-11.549-3.821-11.848
					l-0.002-57.93c0-3.053-0.962-5.373-2.858-7.209C161.474,43.65,154.121,44,154.049,44H117v-2h37.008
					c0.304,0,8.447-0.633,13.374,4.137c2.396,2.32,3.618,4.98,3.618,8.725v57.941c0,0.117-0.243,6.393,3.138,9.92
					c1.496,1.563,3.521,2.277,6.033,2.277H223z"/>
			</g>
			<g>
				<path fill="#FFFFFF" d="M328,193v3h-42.829c-3.216,0-5.853-1.24-7.833-3.313c-4.11-4.303-3.835-11.549-3.821-11.848
					l-0.002-57.93c0-3.053-0.962-5.373-2.858-7.209c-4.183-4.051-11.535-3.701-11.607-3.701H224v-2h35.008
					c0.304,0,8.447-0.633,13.374,4.137c2.396,2.32,3.618,4.98,3.618,8.725v57.941c0,0.117-0.243,6.393,3.138,9.92
					c1.496,1.563,3.521,2.277,6.033,2.277H328z"/>
			</g>
			<g>
				<path fill="#FFFFFF" d="M375.986,160.695c3.185,0,11.711-0.732,17.784-6.395c4.171-3.891,6.229-9.52,6.229-16.4V105h-4v32.9
					c0,5.803-1.526,10.344-4.909,13.498c-6.25,5.828-16.073,5.412-16.175,5.404L374.881,157H319v4h55.821
					C374.989,161,375.396,160.695,375.986,160.695z"/>
			</g>
			<g>
				<path fill="#005C7B" d="M109.355,28.799l-71.403-0.043c-4.502-0.002-8.127,3.637-8.13,8.135l-0.061,103.545
					c-0.002,4.484,3.619,8.139,8.12,8.141l71.403,0.041c4.487,0.004,8.131-3.643,8.134-8.129l0.061-103.547
					C117.485,32.443,113.843,28.801,109.355,28.799z"/>
				<path fill="#FFFFFF" d="M73.59,145.549c-2.673-0.002-4.832-2.164-4.83-4.832c0.002-2.672,2.163-4.834,4.835-4.834
					c2.665,0.002,4.831,2.168,4.829,4.84C78.423,143.391,76.254,145.549,73.59,145.549z"/>
				<rect x="38.021" y="38.555" fill="#FFFFFF" width="71.207" height="93.096"/>
			</g>
			<rect x="365.534" y="29.018" fill="none" width="60.282" height="60.283"/>
			<g>
				<rect x="364" y="30" fill="#FFFFFF" width="119" height="76"/>
				<rect x="363.5" y="29.5" fill="none" stroke="#999999" stroke-width="3" stroke-miterlimit="10" width="119" height="76"/>
				<rect x="364" y="30" fill="#999999" width="119" height="11"/>
				<circle fill="#E52828" cx="371.022" cy="35.076" r="2.06"/>
				<circle fill="#FFD400" cx="377.3" cy="35.076" r="2.06"/>
				<circle fill="#6FB007" cx="383.578" cy="35.076" r="2.06"/>
				<rect x="389" y="34" fill="#FFFFFF" width="63" height="3"/>
				<rect x="454" y="34" fill="#FFFFFF" width="26" height="3"/>
				<rect x="377" y="53" fill="#B3EE61" width="5" height="35"/>
				<rect x="383" y="60" fill="#B3EE61" width="4" height="28"/>
				<rect x="389" y="57" fill="#B3EE61" width="5" height="31"/>
				<rect x="411" y="62" fill="#B3EE61" width="4" height="26"/>
				<rect x="416" y="52" fill="#B3EE61" width="5" height="36"/>
				<rect x="422" y="70" fill="#B3EE61" width="4" height="18"/>
				<rect x="394.27" y="70.422" fill="#00B2C4" width="4.709" height="17.135"/>
				<rect x="399.764" y="64.799" fill="#00B2C4" width="4.708" height="22.758"/>
				<rect x="405.256" y="76.701" fill="#00B2C4" width="4.709" height="10.855"/>
				<rect x="427.229" y="73.955" fill="#00B2C4" width="4.708" height="13.602"/>
				<rect x="432.723" y="78.924" fill="#00B2C4" width="4.709" height="8.633"/>
				<rect x="438.216" y="81.279" fill="#00B2C4" width="4.709" height="6.277"/>
				<line fill="none" stroke="#C2C4BE" stroke-miterlimit="10" x1="452" y1="51.5" x2="472" y2="51.5"/>
				<line fill="none" stroke="#C2C4BE" stroke-miterlimit="10" x1="452" y1="53.5" x2="472" y2="53.5"/>
				<line fill="none" stroke="#C2C4BE" stroke-miterlimit="10" x1="452" y1="57.5" x2="472" y2="57.5"/>
				<line fill="none" stroke="#C2C4BE" stroke-miterlimit="10" x1="452" y1="59.5" x2="472" y2="59.5"/>
				<line fill="none" stroke="#C2C4BE" stroke-miterlimit="10" x1="452" y1="61.5" x2="472" y2="61.5"/>
			</g>
			<g>
				<rect x="109" y="137" fill="#FFFFFF" width="86" height="55"/>
				<rect x="108.5" y="137.5" fill="none" stroke="#999999" stroke-width="3" stroke-miterlimit="10" width="86" height="55"/>
				<rect x="109" y="137" fill="#999999" width="86" height="9"/>
				<circle fill="#E52828" cx="114.938" cy="140.975" r="1.477"/>
				<circle fill="#FFD400" cx="119.438" cy="140.975" r="1.477"/>
				<circle fill="#6FB007" cx="123.94" cy="140.975" r="1.477"/>
				<rect x="127" y="140" fill="#FFFFFF" width="46" height="3"/>
				<rect x="174" y="140" fill="#FFFFFF" width="19" height="3"/>
				<line fill="none" stroke="#C2C4BE" stroke-miterlimit="10" x1="173" y1="152.5" x2="187" y2="152.5"/>
				<line fill="none" stroke="#C2C4BE" stroke-miterlimit="10" x1="173" y1="154.5" x2="187" y2="154.5"/>
				<line fill="none" stroke="#C2C4BE" stroke-miterlimit="10" x1="173" y1="156.5" x2="187" y2="156.5"/>
				<line fill="none" stroke="#C2C4BE" stroke-miterlimit="10" x1="173" y1="158.5" x2="187" y2="158.5"/>
				<line fill="none" stroke="#C2C4BE" stroke-miterlimit="10" x1="173" y1="160.5" x2="187" y2="160.5"/>
				<path fill="#005C7B" d="M136.771,166.975v-14.59h-0.002c-8.057,0-14.585,6.531-14.585,14.586c0,4.035,1.639,7.688,4.288,10.328
					l10.323-10.324H136.771z"/>
				<path fill="#005C7B" d="M127.7,179.039c2.64,2.629,6.278,4.258,10.298,4.258c8.054,0,14.583-6.527,14.585-14.58h-14.558
					L127.7,179.039z"/>
				<path fill="#00C0D1" d="M138.719,152.385v14.59h14.583v-0.004C153.302,158.918,146.772,152.389,138.719,152.385z"/>
			</g>
			<rect x="298" y="193" fill="#FFFFFF" width="141" height="3"/>
			<g>
				<path fill="#005C7B" d="M331,185.379c0,2-1.621,3.621-3.621,3.621H224.621c-2,0-3.621-1.621-3.621-3.621V44.621
					c0-2,1.621-3.621,3.621-3.621h102.758c2,0,3.621,1.621,3.621,3.621V185.379z"/>
				<rect x="229" y="50" fill="#FFFFFF" width="94" height="131"/>
				<path fill="#00C0D1" d="M283.73,45.891c0,0,0.302-10.752-8.149-10.752s-7.848,10.752-7.848,10.752h-14.185v13.883h44.065V45.891
					H283.73z M275.581,38.246c4.942-0.014,4.762,6.746,4.732,7.645l-9.336-0.037C270.715,37.779,275.581,38.246,275.581,38.246z"/>
				<g>
					<rect x="259" y="78" fill="#005C7B" width="51" height="2"/>
				</g>
				<g>
					<rect x="259" y="101" fill="#005C7B" width="51" height="2"/>
				</g>
				<g>
					<rect x="259" y="122" fill="#005C7B" width="51" height="2"/>
				</g>
				<g>
					<rect x="259" y="145" fill="#005C7B" width="51" height="2"/>
				</g>
				<path fill="#AFD648" d="M250.359,74.428l-5.379,4.518l-1.808-2.152c-0.498-0.596-1.385-0.672-1.979-0.174
					c-0.595,0.5-0.673,1.387-0.173,1.98l2.711,3.227c0.498,0.594,1.384,0.672,1.979,0.172l6.455-5.418
					c0.595-0.5,0.673-1.385,0.173-1.979C251.838,74.006,250.953,73.93,250.359,74.428z"/>
				<path fill="#AFD648" d="M250.359,97.367l-5.379,4.516l-1.808-2.152c-0.498-0.594-1.385-0.672-1.979-0.172
					c-0.595,0.498-0.673,1.385-0.173,1.979l2.711,3.227c0.498,0.596,1.384,0.674,1.979,0.174l6.455-5.42
					c0.595-0.498,0.673-1.383,0.173-1.979C251.838,96.945,250.953,96.867,250.359,97.367z"/>
				<path fill="#AFD648" d="M250.359,118.494l-5.379,4.516l-1.808-2.152c-0.498-0.594-1.385-0.672-1.979-0.172
					s-0.673,1.385-0.173,1.979l2.711,3.229c0.498,0.594,1.384,0.672,1.979,0.172l6.455-5.418c0.595-0.5,0.673-1.385,0.173-1.98
					C251.838,118.072,250.953,117.994,250.359,118.494z"/>
				<path fill="#AFD648" d="M250.237,139.895l-5.379,4.516l-1.808-2.15c-0.499-0.596-1.384-0.672-1.979-0.174
					c-0.596,0.5-0.672,1.387-0.173,1.979l2.711,3.229c0.498,0.596,1.384,0.672,1.979,0.172l6.454-5.418
					c0.595-0.5,0.672-1.385,0.172-1.979C251.718,139.473,250.832,139.395,250.237,139.895z"/>
			</g>
			<circle fill="#999999" cx="377.296" cy="194.285" r="20.796"/>
			<g>
				<path fill="#FFFFFF" d="M379.517,207.674l1.58,0.021c0.682,0.008,1.243-0.539,1.253-1.221l0.013-0.967
					c0.004-0.26,0.244-0.563,0.525-0.658c0.261-0.088,0.521-0.193,0.773-0.311c0.269-0.125,0.648-0.072,0.831,0.115l0.679,0.697
					c0.476,0.488,1.259,0.498,1.748,0.023l1.133-1.102c0.236-0.23,0.37-0.539,0.374-0.869c0.005-0.33-0.119-0.643-0.35-0.879
					l-0.679-0.697c-0.109-0.113-0.173-0.299-0.171-0.496c0.002-0.121,0.029-0.242,0.078-0.338c0.124-0.248,0.236-0.506,0.332-0.766
					c0.104-0.279,0.411-0.51,0.673-0.508l0.967,0.014c0.682,0.01,1.243-0.537,1.253-1.219l0.021-1.58
					c0.011-0.682-0.537-1.244-1.219-1.254l-0.967-0.012c-0.261-0.004-0.563-0.244-0.658-0.527c-0.089-0.26-0.193-0.52-0.312-0.771
					c-0.046-0.1-0.07-0.217-0.068-0.34c0.003-0.199,0.071-0.383,0.184-0.492l0.697-0.678c0.237-0.23,0.37-0.539,0.374-0.869
					c0.005-0.33-0.119-0.643-0.35-0.879l-1.103-1.135c-0.477-0.488-1.26-0.498-1.749-0.023l-0.697,0.68
					c-0.188,0.182-0.569,0.225-0.835,0.092c-0.248-0.125-0.505-0.236-0.763-0.332c-0.279-0.104-0.511-0.41-0.507-0.672l0.012-0.967
					c0.01-0.682-0.537-1.244-1.219-1.254l-1.58-0.021c-0.681-0.008-1.243,0.539-1.252,1.221l-0.014,0.967
					c-0.004,0.26-0.245,0.563-0.525,0.658c-0.262,0.088-0.521,0.193-0.772,0.311c-0.269,0.125-0.649,0.072-0.832-0.115l-0.679-0.697
					c-0.23-0.236-0.539-0.369-0.869-0.375c-0.33-0.004-0.643,0.121-0.879,0.352l-1.133,1.102c-0.236,0.23-0.368,0.539-0.373,0.869
					c-0.005,0.332,0.119,0.643,0.35,0.879l0.678,0.697c0.109,0.111,0.173,0.297,0.17,0.496c-0.002,0.121-0.029,0.242-0.077,0.338
					c-0.124,0.248-0.236,0.506-0.332,0.764c-0.104,0.279-0.411,0.512-0.673,0.51l-0.967-0.014c-0.682-0.01-1.243,0.537-1.253,1.219
					l-0.021,1.58c-0.009,0.682,0.538,1.244,1.22,1.252l0.967,0.014c0.261,0.004,0.563,0.244,0.658,0.525
					c0.089,0.262,0.194,0.523,0.312,0.775c0.047,0.1,0.07,0.217,0.068,0.34c-0.003,0.197-0.071,0.381-0.183,0.49l-0.697,0.678
					c-0.237,0.23-0.37,0.539-0.375,0.869c-0.004,0.33,0.121,0.643,0.351,0.879l1.102,1.133c0.476,0.488,1.26,0.498,1.748,0.023
					l0.698-0.678c0.188-0.184,0.568-0.225,0.833-0.094c0.249,0.125,0.506,0.236,0.765,0.332c0.279,0.104,0.511,0.412,0.507,0.674
					l-0.013,0.967C378.288,207.102,378.835,207.662,379.517,207.674z M376.821,197.539c0.027-1.998,1.674-3.602,3.672-3.574
					s3.601,1.674,3.573,3.672s-1.674,3.602-3.672,3.574S376.794,199.535,376.821,197.539z"/>
				<path fill="#FFFFFF" d="M370.996,189.797c0.063-0.027,0.155-0.012,0.181,0.016l0.339,0.348c0.317,0.326,0.84,0.334,1.166,0.018
					l0.565-0.551c0.158-0.154,0.246-0.359,0.25-0.58c0.003-0.221-0.08-0.428-0.233-0.586l-0.34-0.35
					c-0.011-0.01-0.027-0.047-0.026-0.1c0-0.031,0.007-0.061,0.018-0.08c0.065-0.133,0.124-0.268,0.174-0.404
					c0.024-0.064,0.104-0.119,0.141-0.119l0.483,0.008c0.455,0.006,0.829-0.359,0.836-0.814l0.011-0.789
					c0.006-0.455-0.358-0.828-0.813-0.836l-0.483-0.006c-0.037,0-0.114-0.057-0.137-0.123c-0.047-0.139-0.102-0.275-0.164-0.408
					c-0.01-0.02-0.016-0.049-0.016-0.08c0.001-0.053,0.02-0.09,0.029-0.1l0.349-0.34c0.158-0.152,0.247-0.359,0.25-0.58
					c0.003-0.219-0.08-0.428-0.233-0.586l-0.55-0.564c-0.154-0.158-0.36-0.246-0.58-0.25c-0.221-0.004-0.429,0.08-0.587,0.234
					l-0.349,0.338c-0.025,0.025-0.118,0.041-0.181,0.01c-0.131-0.066-0.266-0.125-0.402-0.176c-0.065-0.023-0.12-0.104-0.12-0.139
					l0.008-0.484c0.006-0.455-0.358-0.83-0.813-0.836l-0.789-0.01c-0.455-0.006-0.83,0.357-0.836,0.813l-0.007,0.484
					c-0.001,0.037-0.058,0.113-0.123,0.137c-0.138,0.047-0.274,0.102-0.407,0.164c-0.062,0.027-0.155,0.012-0.181-0.016l-0.34-0.348
					c-0.316-0.326-0.84-0.334-1.165-0.016l-0.566,0.551c-0.157,0.152-0.246,0.359-0.249,0.578c-0.002,0.221,0.08,0.43,0.234,0.586
					l0.339,0.35c0.011,0.012,0.026,0.047,0.025,0.1c0,0.031-0.006,0.061-0.017,0.08c-0.065,0.131-0.123,0.268-0.175,0.404
					c-0.023,0.064-0.103,0.119-0.14,0.119l-0.483-0.006c-0.455-0.008-0.83,0.357-0.836,0.813l-0.011,0.789
					c-0.006,0.455,0.358,0.83,0.813,0.836l0.484,0.006c0.037,0.002,0.114,0.059,0.137,0.123c0.046,0.139,0.102,0.275,0.164,0.408
					c0.01,0.021,0.015,0.051,0.015,0.08c-0.001,0.053-0.019,0.09-0.029,0.1l-0.349,0.34c-0.158,0.154-0.246,0.359-0.249,0.58
					c-0.004,0.221,0.079,0.428,0.232,0.586l0.552,0.564c0.316,0.326,0.84,0.334,1.165,0.018l0.349-0.34
					c0.026-0.025,0.12-0.041,0.181-0.01c0.131,0.066,0.267,0.125,0.402,0.176c0.066,0.023,0.121,0.104,0.12,0.139l-0.007,0.484
					c-0.006,0.455,0.358,0.83,0.813,0.836l0.79,0.01c0.455,0.006,0.829-0.357,0.836-0.813l0.006-0.484
					c0.001-0.037,0.058-0.113,0.123-0.137C370.727,189.914,370.863,189.859,370.996,189.797z M367.695,186.113
					c0.012-0.885,0.742-1.596,1.627-1.582c0.885,0.012,1.596,0.74,1.583,1.627c-0.013,0.885-0.742,1.596-1.627,1.584
					C368.394,187.729,367.682,187,367.695,186.113z"/>
			</g>
			<polygon fill="#00C0D1" points="95.751,105.09 95.751,107.85 51.584,107.85 51.584,63.684 54.345,63.684 54.345,105.09 			"/>
			<polygon fill="#AFD648" points="71.33,79.014 82.607,81.832 86.51,75.33 90.048,77.453 90.23,66.443 80.604,71.787 
				84.141,73.912 81.291,78.662 70.484,75.957 58.89,87.551 60.842,89.504 			"/>
			<polygon fill="#00C0D1" points="68.146,102.33 73.668,102.33 73.668,82.443 72.177,82.072 68.146,86.102 			"/>
			<polygon fill="#00C0D1" points="59.866,92.432 59.866,102.33 65.386,102.33 65.386,88.861 60.842,93.406 			"/>
			<polygon fill="#00C0D1" points="84.71,83.697 84.71,102.33 90.23,102.33 90.23,80.783 87.456,79.119 			"/>
			<polygon fill="#00C0D1" points="81.949,102.33 81.949,84.514 76.428,83.133 76.428,102.33 			"/>
			<path id="MobileMe_12_" fill="#005C7B" d="M67.825,195.441c0,5.965,4.801,10.801,10.719,10.801h33.164
				c5.919,0,10.717-4.836,10.717-10.801c0-5.385-3.913-9.848-9.032-10.664c0.064-0.379,0.101-0.768,0.101-1.168
				c0-3.779-3.041-6.842-6.792-6.842c-1.674,0-3.206,0.609-4.39,1.625c-2.108-4.789-4.812-9.158-12.396-9.158
				c-9.198,0-13.558,7.148-13.558,14.689c0,0.316,0.013,0.629,0.035,0.938C71.504,185.865,67.825,190.221,67.825,195.441z"/>
			<path id="MobileMe_10_" fill="#00B2C4" d="M437.651,150.09c0,6.809-5.479,12.33-12.236,12.33h-37.861
				c-6.757,0-12.234-5.521-12.234-12.33c0-6.148,4.467-11.242,10.312-12.174c-0.073-0.432-0.114-0.877-0.114-1.334
				c0-4.314,3.471-7.811,7.754-7.811c1.91,0,3.66,0.697,5.011,1.855c2.407-5.467,5.494-10.455,14.151-10.455
				c10.5,0,15.478,8.16,15.478,16.77c0,0.359-0.016,0.717-0.04,1.07C433.452,139.156,437.651,144.129,437.651,150.09z"/>
			<path fill="#FFFFFF" d="M397.573,139.219c0-2.252,1.825-4.076,4.076-4.076c2.252,0,4.076,1.824,4.076,4.076
				s-1.824,4.076-4.076,4.076C399.398,143.295,397.573,141.471,397.573,139.219z M403.609,148.426
				c-0.36-0.578-0.572-1.26-0.572-1.99c0-1.102,0.476-2.09,1.229-2.781c-0.289-0.051-0.585-0.082-0.888-0.082h-3.459
				c-2.877,0-5.218,2.342-5.218,5.219v4.23l0.011,0.066l0.291,0.092c2.365,0.738,4.46,1.053,6.251,1.125v-1.932
				C401.255,150.672,402.209,149.188,403.609,148.426z M412.907,143.295c2.251,0,4.076-1.824,4.076-4.076s-1.825-4.076-4.076-4.076
				c-2.25,0-4.076,1.824-4.076,4.076S410.657,143.295,412.907,143.295z M414.637,143.572h-3.459c-0.567,0-1.114,0.096-1.626,0.264
				c0.645,0.678,1.043,1.594,1.043,2.6c0,0.732-0.212,1.412-0.573,1.992c1.401,0.76,2.354,2.244,2.354,3.947v1.922
				c0.337,0.018,0.667,0.027,0.981,0.027c3.836,0,6.059-1.094,6.196-1.164l0.272-0.139l0.029,0.002v-4.232
				C419.855,145.914,417.514,143.572,414.637,143.572z M404.288,146.574c0,1.396,1.132,2.529,2.528,2.529s2.528-1.133,2.528-2.529
				c0-1.395-1.132-2.527-2.528-2.527S404.288,145.18,404.288,146.574z M407.889,149.275h-2.146c-1.784,0-3.237,1.453-3.237,3.238
				v2.623l0.007,0.041l0.181,0.057c1.703,0.533,3.184,0.711,4.402,0.711c2.378,0,3.758-0.68,3.843-0.723l0.169-0.086h0.018v-2.623
				C411.126,150.729,409.674,149.275,407.889,149.275z"/>
			<path fill="#FFFFFF" d="M104.354,192.373c0.174-4.855-3.624-8.936-8.481-9.109c-4.856-0.174-8.936,3.625-9.108,8.482
				c-0.174,4.855,3.623,8.936,8.48,9.109l1.1,0.039c0.605,0.021,1.117-0.455,1.139-1.061s-0.455-1.117-1.061-1.139l-1.099-0.039
				c-3.642-0.131-6.491-3.189-6.362-6.832c0.132-3.645,3.192-6.492,6.833-6.361c3.644,0.131,6.491,3.189,6.361,6.832l-0.118,3.299
				c-0.022,0.605-0.533,1.082-1.14,1.061c-0.604-0.021-1.08-0.533-1.06-1.139l0.118-3.299c0.087-2.428-1.813-4.469-4.241-4.555
				c-2.428-0.088-4.467,1.813-4.554,4.24c-0.087,2.426,1.813,4.469,4.24,4.555c0.824,0.029,1.598-0.184,2.269-0.555
				c0.17,1.605,1.487,2.891,3.149,2.949c1.821,0.066,3.352-1.359,3.417-3.18L104.354,192.373z M95.479,194.258
				c-1.216-0.043-2.163-1.063-2.12-2.277s1.062-2.164,2.277-2.119c1.215,0.043,2.164,1.061,2.12,2.277
				C97.714,193.354,96.694,194.301,95.479,194.258z"/>
			<path fill="#FFFFFF" d="M142.333,73.338c-4.751-0.002-8.603,3.848-8.604,8.598c-0.001,1.283,0.281,2.504,0.783,3.596
				l6.547,14.221c0.314,0.684,0.764,1.109,1.265,1.111c0.501,0,0.95-0.428,1.266-1.109l6.557-14.217
				c0.504-1.092,0.785-2.311,0.786-3.596C150.934,77.191,147.084,73.34,142.333,73.338z M142.328,87.1
				c-2.85,0-5.159-2.313-5.159-5.162c0.002-2.85,2.314-5.16,5.163-5.16c2.85,0.002,5.159,2.314,5.159,5.164
				C147.49,84.791,145.177,87.102,142.328,87.1z"/>
			<g>
				<g>
					<path fill="#00B2C4" d="M526.939,167.055l0.031,52.412c0.002,3.305-2.67,5.965-5.971,5.967l-76.005,0.045
						c-3.29,0.002-5.973-2.656-5.975-5.959l-0.031-52.412c-0.002-3.295,2.675-5.969,5.969-5.971l76.005-0.045
						C524.264,161.088,526.938,163.762,526.939,167.055z"/>
					<path fill="#FFFFFF" d="M441.243,193.309c0.001,1.961,1.588,3.547,3.547,3.545c1.96,0,3.548-1.588,3.548-3.549
						c-0.002-1.955-1.592-3.547-3.553-3.545C442.826,189.762,441.242,191.354,441.243,193.309z"/>
					
						<rect x="459.477" y="159.117" transform="matrix(-5.978782e-004 -1 1 -5.978782e-004 292.618 679.0095)" fill="#FFFFFF" width="52.268" height="68.333"/>
				</g>
				<rect x="437.069" y="189.156" fill="#00B2C4" width="3.258" height="8.691"/>
				<rect x="456" y="207" fill="#A0A0A0" width="60" height="5"/>
				<rect x="455" y="173" fill="#005C7B" width="62" height="9"/>
				<line fill="none" stroke="#A0A0A0" stroke-miterlimit="10" x1="516" y1="185.5" x2="497" y2="185.5"/>
				<line fill="none" stroke="#A0A0A0" stroke-miterlimit="10" x1="516" y1="187.5" x2="497" y2="187.5"/>
				<line fill="none" stroke="#A0A0A0" stroke-miterlimit="10" x1="516" y1="190.5" x2="497" y2="190.5"/>
				<line fill="none" stroke="#A0A0A0" stroke-miterlimit="10" x1="516" y1="192.5" x2="497" y2="192.5"/>
				<line fill="none" stroke="#A0A0A0" stroke-miterlimit="10" x1="516" y1="194.5" x2="497" y2="194.5"/>
				<line fill="none" stroke="#A0A0A0" stroke-miterlimit="10" x1="516" y1="196.5" x2="497" y2="196.5"/>
				<line fill="none" stroke="#A0A0A0" stroke-miterlimit="10" x1="516" y1="198.5" x2="497" y2="198.5"/>
				<line fill="none" stroke="#A0A0A0" stroke-miterlimit="10" x1="516" y1="200.5" x2="497" y2="200.5"/>
				<line fill="none" stroke="#A0A0A0" stroke-miterlimit="10" x1="516" y1="203.5" x2="497" y2="203.5"/>
				<line fill="none" stroke="#A0A0A0" stroke-miterlimit="10" x1="494" y1="185.5" x2="476" y2="185.5"/>
				<line fill="none" stroke="#A0A0A0" stroke-miterlimit="10" x1="494" y1="187.5" x2="476" y2="187.5"/>
				<line fill="none" stroke="#A0A0A0" stroke-miterlimit="10" x1="494" y1="190.5" x2="476" y2="190.5"/>
				<line fill="none" stroke="#A0A0A0" stroke-miterlimit="10" x1="494" y1="192.5" x2="476" y2="192.5"/>
				<line fill="none" stroke="#A0A0A0" stroke-miterlimit="10" x1="494" y1="194.5" x2="476" y2="194.5"/>
				<line fill="none" stroke="#A0A0A0" stroke-miterlimit="10" x1="494" y1="196.5" x2="476" y2="196.5"/>
				<line fill="none" stroke="#A0A0A0" stroke-miterlimit="10" x1="494" y1="198.5" x2="476" y2="198.5"/>
				<line fill="none" stroke="#A0A0A0" stroke-miterlimit="10" x1="494" y1="200.5" x2="476" y2="200.5"/>
				<line fill="none" stroke="#A0A0A0" stroke-miterlimit="10" x1="494" y1="203.5" x2="476" y2="203.5"/>
				<line fill="none" stroke="#A0A0A0" stroke-miterlimit="10" x1="474" y1="185.5" x2="456" y2="185.5"/>
				<line fill="none" stroke="#A0A0A0" stroke-miterlimit="10" x1="474" y1="187.5" x2="456" y2="187.5"/>
				<line fill="none" stroke="#A0A0A0" stroke-miterlimit="10" x1="474" y1="190.5" x2="456" y2="190.5"/>
				<line fill="none" stroke="#A0A0A0" stroke-miterlimit="10" x1="474" y1="192.5" x2="456" y2="192.5"/>
				<line fill="none" stroke="#A0A0A0" stroke-miterlimit="10" x1="474" y1="194.5" x2="456" y2="194.5"/>
				<line fill="none" stroke="#A0A0A0" stroke-miterlimit="10" x1="474" y1="196.5" x2="456" y2="196.5"/>
				<line fill="none" stroke="#A0A0A0" stroke-miterlimit="10" x1="474" y1="198.5" x2="456" y2="198.5"/>
				<line fill="none" stroke="#A0A0A0" stroke-miterlimit="10" x1="474" y1="200.5" x2="456" y2="200.5"/>
				<line fill="none" stroke="#A0A0A0" stroke-miterlimit="10" x1="474" y1="203.5" x2="456" y2="203.5"/>
			</g>
			<g>
				<path fill="#FFFFFF" d="M68.128,173.256l-5.439-5.414c-0.806,1.26-1.873,2.332-3.128,3.145l5.438,5.412
					c0.869,0.865,2.273,0.861,3.136-0.008C68.999,175.525,68.996,174.119,68.128,173.256z"/>
				<path fill="#FFFFFF" d="M62.839,162.271c-0.012-4.898-3.994-8.861-8.892-8.85c-4.898,0.012-8.859,3.994-8.848,8.891
					c0.012,4.898,3.991,8.861,8.891,8.85C58.888,171.15,62.85,167.17,62.839,162.271z M53.984,168.945
					c-3.668,0.008-6.659-2.969-6.668-6.637s2.968-6.66,6.636-6.668c3.669-0.01,6.66,2.969,6.669,6.635
					C60.629,165.945,57.652,168.936,53.984,168.945z"/>
				<path fill="#FFFFFF" d="M48.795,162.305l1.479-0.004c-0.006-2.037,1.649-3.699,3.686-3.703l-0.002-1.479
					C51.104,157.125,48.788,159.451,48.795,162.305z"/>
			</g>
			<g>
				<circle fill="#FFFFFF" cx="196.604" cy="42.801" r="3.09"/>
				<path fill="#FFFFFF" d="M189.156,35.42c0.045-0.049,0.094-0.09,0.141-0.135l0.138-0.131c0.022-0.025,0.047-0.043,0.076-0.066
					c3.965-3.664,10.08-3.572,13.927,0.209l0.45,0.445l0.624,0.613c0.76,0.748,0.768,1.977,0.018,2.738
					c-0.749,0.764-1.979,0.775-2.738,0.027l-1.076-1.057c-2.445-2.404-6.389-2.371-8.793,0.072l-0.764,0.752
					c-0.74,0.754-1.958,0.762-2.713,0.018c-0.367-0.359-0.571-0.84-0.576-1.354c-0.007-0.51,0.187-0.994,0.548-1.357L189.156,35.42z
					"/>
				<path fill="#FFFFFF" d="M183.86,31.645l0.636-0.648c0.003-0.002,0.004-0.006,0.01-0.008l0.502-0.512
					c0.089-0.09,0.186-0.166,0.286-0.234c6.464-5.771,16.369-5.68,22.725,0.332c0.031,0.027,0.066,0.047,0.096,0.076l1.17,1.15
					c0.693,0.682,0.699,1.799,0.013,2.496c-0.685,0.695-1.801,0.711-2.494,0.027l-1.17-1.148c-0.007-0.01-0.014-0.02-0.021-0.025
					c-5.139-4.881-13.228-4.844-18.324,0.055l-0.905,0.92c-0.68,0.693-1.8,0.699-2.495,0.016
					C183.191,33.455,183.18,32.336,183.86,31.645z"/>
			</g>
			<g>
				<path fill="#005C7B" d="M491.984,71.875h-27.5c-2.631,0-4.755,2.133-4.755,4.764v55.84c0,2.621,2.124,4.756,4.755,4.756h27.5
					c2.626,0,4.76-2.133,4.76-4.756v-55.84C496.742,74.008,494.61,71.875,491.984,71.875z"/>
				<rect x="463.296" y="79.91" fill="#FFFFFF" width="29.881" height="44.922"/>
				<polygon fill="#FFFFFF" points="484.61,76.709 471.86,76.709 471.86,75.318 484.613,75.318 484.613,76.709 				"/>
				<path fill="#FFFFFF" d="M490.066,76.072c0,0.674-0.549,1.219-1.219,1.219c-0.673,0-1.219-0.547-1.219-1.219
					c0-0.67,0.546-1.217,1.219-1.217C489.518,74.854,490.066,75.4,490.066,76.072z"/>
				<rect x="472.428" y="128.588" fill="#FFFFFF" width="11.611" height="3.572"/>
			</g>
			<g>
				<g>
					<path fill="#00B2C4" d="M478.247,105.732l-2.977-2.605l-8.511,7.295c0.309,0.287,0.727,0.467,1.187,0.467h20.602
						c0.458,0,0.874-0.18,1.182-0.467l-8.506-7.295L478.247,105.732z"/>
					<path fill="#00B2C4" d="M489.734,94.166c-0.309-0.287-0.725-0.465-1.187-0.465h-20.602c-0.459,0-0.875,0.18-1.185,0.469
						l11.485,9.844L489.734,94.166z"/>
					<polygon fill="#00B2C4" points="466.215,95.211 466.215,109.488 474.522,102.43 					"/>
					<polygon fill="#00B2C4" points="481.972,102.43 490.278,109.488 490.278,95.205 					"/>
				</g>
			</g>
		</g>
	</g>
</g>
<g id="Слой_1" display="none" opacity="0.75">
</g>
</svg>
