<?xml version="1.0" encoding="utf-8"?>
<!-- Generator: Adobe Illustrator 16.0.0, SVG Export Plug-In . SVG Version: 6.00 Build 0)  -->
<!DOCTYPE svg PUBLIC "-//W3C//DTD SVG 1.1//EN" "http://www.w3.org/Graphics/SVG/1.1/DTD/svg11.dtd">
<svg version="1.1" xmlns="http://www.w3.org/2000/svg" xmlns:xlink="http://www.w3.org/1999/xlink" x="0px" y="0px" width="560px"
	 height="240px" viewBox="0 0 560 240" enable-background="new 0 0 560 240" xml:space="preserve">
<g id="Слой_2">
	<g>
		<g>
			<defs>
				<rect id="SVGID_151_" width="560" height="240"/>
			</defs>
			<clipPath id="SVGID_2_">
				<use xlink:href="#SVGID_151_"  overflow="visible"/>
			</clipPath>
			<rect clip-path="url(#SVGID_2_)" fill="#FFB02A" width="560" height="240"/>
			<polygon clip-path="url(#SVGID_2_)" fill="#DA8622" points="281,66.836 402.67,86.748 434.509,187.883 470,182.025 
				438.047,260.682 364,206.676 396.237,197.9 359.336,116.002 234.67,97.5 27,0 143,0 			"/>
			<polygon clip-path="url(#SVGID_2_)" fill="#DA8622" points="392.717,18.148 487.119,33.662 511.822,112.164 539.36,107.635 
				514.568,168.672 457.115,126.773 482.128,119.967 453.497,56.422 356.77,41.939 103.64,-31.838 118.382,-57.83 			"/>
			<polygon clip-path="url(#SVGID_2_)" fill="#DA8622" points="125.717,134.148 220.119,149.662 244.822,228.164 272.36,223.635 
				247.568,284.672 190.115,242.773 215.128,235.967 186.497,172.422 89.77,157.939 -47.36,-29.838 -32.618,-55.83 			"/>
			<g clip-path="url(#SVGID_2_)">
				<path fill="#DA8622" d="M232.396,62H56.151C53.856,62,52,63.287,52,65.584v107.619v12.477c0,2.297,1.856,4.32,4.151,4.32h70.9
					l-4.817,18.486L115,209.297V212h62v-2.703l-7.401-0.811L164.619,190h67.776c2.296,0,4.604-2.023,4.604-4.32v-12.477V65.584
					C237,63.287,234.691,62,232.396,62z"/>
				<path fill="#DA8622" d="M435.079,72.342c-0.795,0-1.506,0.359-2.184,0.404c-0.47-0.049-0.946,0.254-1.428,0.254h-46.361
					c-7.708,0-13.956,6.293-13.955,14c0,7.707,6.247,14,13.955,14h39.849h6.513h3.611c7.692,0,13.817,5.887,13.817,13.582
					c0,7.293-5.896,12.91-12.896,13.518v-4.59c0-7.672-6.325-13.953-14-13.953c-7.676,0-14,6.281-14,13.953v65.123
					c0,7.672,6.324,13.955,14,13.955c7.675,0,14-6.283,14-13.955v-32.561c1,0,1.24-0.043,1.781-0.109
					c21.797-1.459,39.093-19.592,39.093-41.756C476.874,91.088,458.199,72.342,435.079,72.342z"/>
				<path fill="#DA8622" d="M385.001,109.555c-7.676,0-14.001,6.279-14.001,13.955V130h-40.478c-1.418-2-3.455-3.328-5.802-3.809
					c0.02-0.285,0.031-0.656,0.031-0.945c0-6.934-4.008-13.545-12.463-13.545c-6.972,0-9.457,3.996-11.396,8.396
					c-1.087-0.932-2.497-1.504-4.034-1.504c-3.449,0-6.245,2.813-6.245,6.285c0,0.369,0.033,0.891,0.093,1.236
					c-2.525,0.404-4.725,1.885-6.228,3.885H237v3h45.896c-0.314,1-0.494,2-0.494,3.076c0,5.482,4.412,9.924,9.853,9.924h30.49
					c5.44,0,9.854-4.441,9.854-9.924c0-1.076-0.179-2.076-0.494-3.076H371v18.42c0,7.676,6.325,13.955,14.001,13.955
					c7.675,0,13.999-6.279,13.999-13.955v-27.91C399,115.834,392.676,109.555,385.001,109.555z"/>
			</g>
			<g clip-path="url(#SVGID_2_)">
				<g>
					<g>
						<path fill-rule="evenodd" clip-rule="evenodd" fill="#005C7B" d="M48.993,170.203V62.584c0-2.297,1.863-4.158,4.158-4.158
							h176.244c2.296,0,4.159,1.861,4.159,4.158v107.619H48.993z"/>
						<path fill-rule="evenodd" clip-rule="evenodd" fill="#FFFFFF" d="M229.396,186.838H53.151c-2.295,0-4.158-1.861-4.158-4.158
							v-12.477h184.562v12.477C233.555,184.977,231.691,186.838,229.396,186.838z"/>
						<path fill-rule="evenodd" clip-rule="evenodd" fill="#FFFFFF" d="M111.9,208.586v-2.289l7.284-0.893l5.026-19.174h37.249
							l5.023,19.174l7.286,0.893v2.289H111.9z"/>
						<path fill-rule="evenodd" clip-rule="evenodd" fill="#FFFFFF" d="M227.836,65.703v97.221H54.713V65.703H227.836z"/>
						<path opacity="0.08" fill-rule="evenodd" clip-rule="evenodd" fill="#3D3D3D" d="M123.529,189.861l0.682-3.631h37.249
							l0.677,3.631H123.529z"/>
					</g>
				</g>
				<g>
					<polygon fill="#00C0D1" points="109.974,149.809 109.974,152.57 65.807,152.57 65.807,108.404 68.567,108.404 68.567,149.809 
											"/>
					<polygon fill="#FF0000" points="92.014,123.734 80.736,126.551 73.113,111.164 75.563,110.045 82.053,123.381 92.859,120.678 
						101.301,129.119 103.478,127.232 104.125,133.92 97.22,131.965 99.688,130.486 					"/>
					<polygon fill="#00C0D1" points="95.197,147.049 89.676,147.049 89.676,127.162 91.167,126.791 95.197,130.82 					"/>
					<polygon fill="#00C0D1" points="103.478,135.482 103.478,147.049 97.958,147.049 97.958,134.357 					"/>
					<polygon fill="#00C0D1" points="78.634,128.416 78.634,147.049 73.113,147.049 73.113,118.357 75.888,123.84 					"/>
					<polygon fill="#00C0D1" points="81.395,147.049 81.395,129.234 86.916,127.854 86.916,147.049 					"/>
					<rect x="133" y="117" fill="#B3EE61" width="5" height="35"/>
					<rect x="139" y="124" fill="#B3EE61" width="4" height="28"/>
					<rect x="145" y="121" fill="#B3EE61" width="5" height="31"/>
					<rect x="167" y="126" fill="#B3EE61" width="4" height="26"/>
					<rect x="172" y="116" fill="#B3EE61" width="5" height="36"/>
					<rect x="178" y="134" fill="#B3EE61" width="4" height="18"/>
					<rect x="150.344" y="134.465" fill="#FF5A19" width="4.709" height="17.135"/>
					<rect x="155.838" y="128.842" fill="#FF5A19" width="4.708" height="22.758"/>
					<rect x="162.33" y="140.744" fill="#FF5A19" width="4.709" height="10.855"/>
					<rect x="183.304" y="137.996" fill="#FF5A19" width="4.708" height="13.604"/>
					<rect x="188.797" y="142.967" fill="#FF5A19" width="4.709" height="8.633"/>
					<rect x="194.29" y="145.32" fill="#FF5A19" width="4.709" height="6.279"/>
					<line fill="none" stroke="#C2C4BE" stroke-miterlimit="10" x1="133" y1="96.5" x2="153" y2="96.5"/>
					<line fill="none" stroke="#C2C4BE" stroke-miterlimit="10" x1="133" y1="98.5" x2="153" y2="98.5"/>
					<line fill="none" stroke="#C2C4BE" stroke-miterlimit="10" x1="133" y1="102.5" x2="153" y2="102.5"/>
					<line fill="none" stroke="#C2C4BE" stroke-miterlimit="10" x1="133" y1="104.5" x2="153" y2="104.5"/>
					<line fill="none" stroke="#C2C4BE" stroke-miterlimit="10" x1="133" y1="106.5" x2="153" y2="106.5"/>
					<text transform="matrix(1 0 0 1 85.2129 85.6699)" fill="#FF0000" font-family="'Rubik-Regular'" font-size="12">ВСЁ ОЧЕНЬ ПЛОХО!</text>
					<rect x="234" y="127" fill="#FFFFFF" width="141" height="3"/>
					<g>
						
							<linearGradient id="SVGID_4_" gradientUnits="userSpaceOnUse" x1="405.3652" y1="153.0703" x2="433.2734" y2="153.0703" gradientTransform="matrix(1 0 0 1 -9.765625e-004 0.002)">
							<stop  offset="0" style="stop-color:#E10612"/>
							<stop  offset="1" style="stop-color:#E51E73"/>
						</linearGradient>
						<path fill="url(#SVGID_4_)" d="M433.272,185.633c0,7.672-6.279,13.955-13.954,13.955l0,0c-7.676,0-13.954-6.283-13.954-13.955
							V120.51c0-7.672,6.278-13.953,13.954-13.953l0,0c7.675,0,13.954,6.281,13.954,13.953V185.633z"/>
						<linearGradient id="SVGID_6_" gradientUnits="userSpaceOnUse" x1="368.1514" y1="111.207" x2="473.9424" y2="111.207">
							<stop  offset="0" style="stop-color:#E10612"/>
							<stop  offset="1" style="stop-color:#44195B"/>
						</linearGradient>
						<path fill="url(#SVGID_6_)" d="M473.942,111.207c0-23.119-18.743-41.865-41.863-41.865c-0.795,0-1.506,0.031-2.184,0.074
							c-0.47-0.047-0.946-0.074-1.428-0.074h-46.361c-7.676,0-13.955,6.279-13.955,13.957c0,7.674,6.279,13.955,13.955,13.955
							h39.849h6.513h3.611c7.692,0,13.954,6.258,13.954,13.953c0,7.697-6.262,13.953-13.954,13.953v0.064
							c-7.122,0.609-12.76,6.621-12.76,13.891c0,7.275,5.638,13.283,12.76,13.896v0.061c0.267,0,0.531-0.018,0.797-0.02
							c0.134,0.002,0.264,0.02,0.396,0.02c0.558,0,1.104-0.043,1.645-0.109C456.714,151.504,473.942,133.371,473.942,111.207z"/>
						<linearGradient id="SVGID_8_" gradientUnits="userSpaceOnUse" x1="368.1514" y1="83.2979" x2="396.0596" y2="83.2979">
							<stop  offset="0" style="stop-color:#F19001"/>
							<stop  offset="1" style="stop-color:#E10612"/>
						</linearGradient>
						<circle fill="url(#SVGID_8_)" cx="382.105" cy="83.299" r="13.954"/>
						<linearGradient id="SVGID_10_" gradientUnits="userSpaceOnUse" x1="368.1514" y1="134.4648" x2="396.0596" y2="134.4648">
							<stop  offset="0" style="stop-color:#F19001"/>
							<stop  offset="1" style="stop-color:#E10612"/>
						</linearGradient>
						<path fill="url(#SVGID_10_)" d="M396.06,148.42c0,7.676-6.278,13.955-13.953,13.955l0,0c-7.676,0-13.955-6.279-13.955-13.955
							v-27.91c0-7.676,6.279-13.955,13.955-13.955l0,0c7.675,0,13.953,6.279,13.953,13.955V148.42z"/>
					</g>
				</g>
				<g>
					<path id="MobileMe_2_" fill="#90CD4C" d="M329.599,132.752c0,5.482-4.414,9.93-9.854,9.93h-30.49
						c-5.44,0-9.853-4.447-9.853-9.93c0-4.951,3.598-9.053,8.305-9.805c-0.06-0.346-0.093-0.705-0.093-1.072
						c0-3.475,2.796-6.291,6.245-6.291c1.537,0,2.947,0.561,4.034,1.494c1.939-4.4,4.425-8.418,11.396-8.418
						c8.455,0,12.463,6.57,12.463,13.504c0,0.289-0.012,0.578-0.031,0.861C326.215,123.947,329.599,127.953,329.599,132.752z"/>
					<g>
						<path fill="#FFFFFF" d="M297.696,138.186l5.045-4.732c-1.108-0.762-2.041-1.758-2.733-2.914l-5.044,4.73
							c-0.805,0.756-0.847,2.02-0.092,2.824C295.625,138.898,296.892,138.939,297.696,138.186z"/>
						<path fill="#FFFFFF" d="M307.754,133.764c4.412,0.143,8.104-3.318,8.247-7.73c0.142-4.412-3.319-8.104-7.73-8.246
							c-4.413-0.143-8.104,3.318-8.247,7.73S303.343,133.621,307.754,133.764z M302.021,125.582
							c0.107-3.303,2.882-5.904,6.185-5.799c3.305,0.107,5.905,2.883,5.798,6.186c-0.106,3.305-2.88,5.904-6.185,5.799
							C304.515,131.66,301.915,128.885,302.021,125.582z"/>
						<path fill="#FFFFFF" d="M308.162,121.115l-0.043,1.33c1.836,0.061,3.281,1.602,3.222,3.438l1.331,0.043
							C312.754,123.355,310.732,121.199,308.162,121.115z"/>
					</g>
				</g>
			</g>
		</g>
	</g>
</g>
<g id="Слой_1" display="none" opacity="0.75">
</g>
</svg>
