<?xml version="1.0" encoding="utf-8"?>
<!-- Generator: Adobe Illustrator 16.0.0, SVG Export Plug-In . SVG Version: 6.00 Build 0)  -->
<!DOCTYPE svg PUBLIC "-//W3C//DTD SVG 1.1//EN" "http://www.w3.org/Graphics/SVG/1.1/DTD/svg11.dtd">
<svg version="1.1" xmlns="http://www.w3.org/2000/svg" xmlns:xlink="http://www.w3.org/1999/xlink" x="0px" y="0px" width="560px"
	 height="240px" viewBox="0 0 560 240" enable-background="new 0 0 560 240" xml:space="preserve">
<g id="Слой_2">
	<g>
		<defs>
			<rect id="SVGID_149_" width="560" height="240"/>
		</defs>
		<clipPath id="SVGID_2_">
			<use xlink:href="#SVGID_149_"  overflow="visible"/>
		</clipPath>
		<rect x="-93.361" y="-0.662" clip-path="url(#SVGID_2_)" fill="#00B2C4" width="755.917" height="250.119"/>
		<g clip-path="url(#SVGID_2_)">
			<path fill="#00949C" d="M41.719,81.168c-0.697,0.973-1.102,2.145-1.088,3.404c0.038,3.291,2.902,5.928,6.4,5.891
				c0.656-0.01,1.882-0.293,1.882-0.293c2.737,4.395,10.432,2.326,9.771,1.551c8.692,10.223,18.099,8.943,18.323,8.854
				c-3.705-0.883-5.7-3.904-7.256-7.596c1,0.334,2.086,0.514,3.224,0.498c3.081-0.035,5.772-1.459,7.304-3.578
				c0.913,0.322,1.916,0.494,2.968,0.482c4.206-0.047,7.581-3.033,7.54-6.666c-0.037-3.164-2.651-5.777-6.105-6.369
				c0.612-1.061,0.957-2.285,0.941-3.59c-0.045-3.953-3.36-7.123-7.405-7.076l-0.313,0.012c-0.793-1.73-2.94-2.955-5.453-2.926
				c-2.825,0.029-5.154,1.639-5.602,3.721c-0.487-0.057-0.987-0.088-1.497-0.08c-1.661,0.018-3.211,0.391-4.536,1.02
				c-1.026-1.66-2.87-2.758-4.962-2.732c-2.286,0.025-4.247,1.383-5.153,3.326c-1.223-0.744-2.676-1.168-4.233-1.152
				c-4.287,0.049-7.728,3.43-7.68,7.551C38.813,77.75,39.957,79.82,41.719,81.168z"/>
			<path fill="#00949C" d="M380.521,39.49c0.038,0.295,0.053,0.596,0.046,0.9c-0.058,2.186-1.966,4.053-4.139,5.049l-0.021,0.844
				c3.974,0.01,8.099-0.502,11.629-3.854c0.811,0.123,1.643,0.197,2.493,0.221c8.849,0.227,16.172-5.418,16.356-12.607
				c0.183-7.189-6.84-13.203-15.689-13.43c-8.849-0.225-16.171,5.42-16.355,12.607C374.735,33.307,376.959,37.012,380.521,39.49z"/>
			<path fill="#00949C" d="M107.245,130h32.059c3.061,0,5.696-3.281,5.696-6.34V58.568c0-3.066-2.636-4.568-5.696-4.568h-32.059
				c-3.066,0-5.245,1.502-5.245,4.568v65.092C102,126.717,104.179,130,107.245,130z"/>
			<path fill="#00949C" d="M536.91,98h-66.67c0.198-1,0.475-1,0.866-2h56.405c1.432,0,2.488-1.982,2.488-3.412V20.467
				c0-1.432-1.062-1.467-2.493-1.467h-104.51c-1.432,0-2.997,0.035-2.997,1.467v72.121c0,1.432,1.565,3.412,2.997,3.412h43.51
				c-0.381,1-0.671,1-0.89,2H411.09c-0.602,0-1.09-0.174-1.09,0.43v3.818c0,0.602,0.488,1.752,1.09,1.752H465v31.646
				c-0.757-0.125-1.545-0.207-2.391-0.207c-6.972,0-9.457,4.018-11.396,8.418c-1.087-0.934-2.497-1.494-4.034-1.494
				c-3.449,0-6.245,2.816-6.245,6.291c0,0.367,0.033,1.057,0.093,1.402c-3.644,0.584-6.614,2.943-7.774,6.943H417v-24.662V123h-1
				l0,0h-35V61.252c0-2.297-2.309-3.252-4.604-3.252H249V45h-76v47h1l0,0h22v64h-22.849c-1.061-7-7.117-12.771-14.452-12.771
				c-7.429,0-13.549,5.371-14.494,12.541c-2.039,0.082-9.521-0.047-14.506-4.695c-3.131-2.918-4.699-7.203-4.699-12.574V130h-3v8.5
				c0,6.371,1.709,11.441,5.568,15.043c5.623,5.24,13.317,5.783,16.266,5.783c0.127,0,0.243,0.002,0.352,0.002
				c0.887,7.234,7.039,13.168,14.514,13.168c7.469,0,13.619-5.496,14.511-12.496H196v8.871v12.477c0,2.297,1.856,4.652,4.151,4.652
				h26.383c-0.669,3-2.069,5.609-4.233,7.629c-5.785,5.393-14.955,4.695-15.049,4.688l-0.116-0.068l-16.255,0.039
				c-1.408-2.762-4.058-4.789-7.213-5.291c0.06-0.348,0.093-0.715,0.093-1.082c0-3.475-2.795-6.293-6.245-6.293
				c-1.537,0-2.947,0.557-4.034,1.49c-1.939-4.402-4.424-8.42-11.397-8.42c-8.455,0-12.463,6.572-12.463,13.504
				c0,0.289,0.012,0.578,0.032,0.863c-3.043,0.623-5.571,2.662-6.891,5.402l-12.8,0.055l0.018-31.268
				c0.002-3.488-2.835-6.32-6.323-6.324l-80.52-0.045c-3.498-0.004-6.331,2.828-6.333,6.316l-0.032,55.527
				c-0.002,3.498,2.827,6.318,6.325,6.32l80.52,0.047c3.488,0.002,6.329-2.814,6.332-6.316l0.012-20.961l11.869-0.025
				c-0.033,0.328-0.054,0.805-0.054,1.141c0,5.484,4.413,10.072,9.854,10.072h30.49c5.439,0,9.852-4.588,9.852-10.072
				c0-0.373-0.027-0.813-0.067-1.176l15.181-0.068c0.155,0.01,0.532,0.01,1.08,0.01c2.947,0,10.644-0.283,16.265-5.525
				c2.874-2.68,4.553-6.168,5.225-10.168h41.397l-4.817,18.32L259,204.965V208h62v-3.035l-7.401-0.561L310.409,193h38.563
				c0.813,1,1.771,2.182,2.908,3.242c5.623,5.242,13.631,5.6,16.578,5.6c0.548,0,0.898-0.102,1.055-0.111L475,201.873v11.533
				l13.566-11.504l3.037,0.006L476.1,215.654c0.598,0.553,1.408,1.346,2.298,1.346H518.1c0.884,0,1.685-0.262,2.279-0.814
				L504.91,203h0.108l0.591-3.701l-2.582-0.277l17.36-14.502c-0.597-0.557-1.398-0.52-2.288-0.52h-39.702
				c-0.885,0-1.688-0.166-2.282,0.395l17.305,14.574l-3.65-0.143L475,185.885v12.752l-105.498-0.449l-0.052,0.006
				c-0.094,0.008-9.163,0.912-14.946-4.48c-0.354-0.33-0.67-0.713-0.979-0.713H417v-33h15.73c0,0-0.009,0.066-0.009,0.133
				c0,5.482,4.412,9.867,9.853,9.867h30.49c5.44,0,9.854-4.715,9.854-10.197c0-4.801-3.384-8.941-7.878-9.863
				c0.02-0.283,0.031-0.641,0.031-0.93c0-4.553-1.739-8.635-5.317-11.119L469.753,104h67.157c0.602,0,1.09-1.15,1.09-1.752V98.43
				C538,97.826,537.512,98,536.91,98z M498.248,202.852l1.082-0.926l3.752,0.008l-4.834,4.23l-4.857-4.252l3.771,0.008
				L498.248,202.852z"/>
			<polygon fill="#00949C" points="521,213.406 521,185.877 504.99,199.801 			"/>
			<path fill="#00949C" d="M509.446,153.59c2.257,0.814,4.749-0.355,5.563-2.613l1.476-4.088c2.173-6.021-0.947-12.664-6.968-14.836
				c-6.02-2.174-12.663,0.945-14.836,6.965c-2.173,6.021,0.946,12.666,6.967,14.838l1.362,0.492
				c0.752,0.271,1.584-0.121,1.856-0.869c0.27-0.752-0.12-1.586-0.871-1.855l-1.362-0.492c-4.515-1.629-6.856-6.611-5.227-11.127
				s6.614-6.855,11.127-5.227c4.517,1.631,6.855,6.611,5.227,11.127l-1.477,4.09c-0.271,0.75-1.103,1.141-1.854,0.871
				c-0.751-0.271-1.142-1.104-0.872-1.855l1.475-4.088c1.087-3.01-0.475-6.334-3.482-7.42c-3.008-1.084-6.333,0.475-7.419,3.484
				c-1.085,3.006,0.476,6.334,3.484,7.42c1.021,0.367,2.077,0.412,3.069,0.217C506.252,150.705,507.386,152.848,509.446,153.59z
				 M504.6,145.68c-1.508-0.545-2.285-2.203-1.742-3.709c0.545-1.508,2.203-2.285,3.71-1.742c1.506,0.543,2.285,2.201,1.741,3.709
				C507.766,145.443,506.106,146.223,504.6,145.68z"/>
			<path fill="#00949C" d="M84.65,118.588c-4.286,8.445-7.536,0.023-7.536,0.023c-0.3,1.141-4.708,2.479-4.708,2.479
				c-1.287,0.496-1.832,1.238-1.832,1.238c-1.906,2.822-2.129,9.113-2.129,9.113c0.025,1.434,0.643,1.584,0.643,1.584
				c4.384,1.955,11.256,2.303,11.256,2.303c7.06,0.148,12.197-2.006,12.197-2.006c0.745-0.469,0.766-0.842,0.766-0.842
				c0.521-4.506-1.707-9.582-1.707-9.582c-0.672-1.488-4.756-2.773-4.756-2.773C84.665,119.357,84.65,118.588,84.65,118.588z"/>
			<path fill="#00949C" d="M75.585,113.254c0.084,0.539,0.31,0.773,0.447,0.873c0.327,2.715,2.664,5.529,4.784,5.529
				c2.437,0,4.753-2.959,5.113-5.529c0.138-0.098,0.363-0.334,0.445-0.871c0,0,0.521-1.861-0.169-1.662
				c0.241-0.717,1.036-3.514-0.507-5.25c0,0-0.722-0.988-2.479-1.51c-0.063-0.051-0.125-0.104-0.195-0.152
				c0,0,0.037,0.043,0.096,0.123c-0.101-0.029-0.206-0.055-0.311-0.08c-0.096-0.1-0.204-0.203-0.324-0.311
				c0,0,0.106,0.107,0.233,0.291c-0.048-0.012-0.091-0.021-0.139-0.031c-0.08-0.121-0.177-0.248-0.301-0.373
				c0,0,0.052,0.098,0.119,0.252c-0.323-0.238-0.975-0.789-0.975-1.404c0,0-0.405,0.191-0.644,0.537
				c0.093-0.285,0.25-0.551,0.506-0.77c0,0-0.268,0.139-0.515,0.434c-0.192,0.109-0.629,0.41-0.778,0.941l-0.139-0.072
				c0.069-0.15,0.164-0.311,0.295-0.469c0,0-0.19,0.17-0.355,0.439l-0.282-0.141c0.085-0.158,0.194-0.32,0.345-0.48
				c0,0-0.152,0.119-0.313,0.316c0.046-0.184,0.037-0.393-0.533,0.229c0,0-2.566,1.115-3.309,3.418c0,0-0.435,1.039,0.145,4.104
				C75.025,111.244,75.585,113.254,75.585,113.254z M80.695,103.451c-0.124,0.176-0.231,0.391-0.285,0.654l-0.088-0.033
				C80.391,103.85,80.508,103.637,80.695,103.451z"/>
		</g>
		<g opacity="0.3" clip-path="url(#SVGID_2_)">
			<g>
				<g>
					<path fill="#00949C" d="M502.936,250.338v1.271h4.061c11.208-11.213,22.42-22.422,33.628-33.627v-84.479
						c-2.628-2.627-5.256-5.254-7.885-7.883c4.494-7.627-5.562-15.42-11.823-9.156c-6.263,6.256,1.528,16.316,9.155,11.818
						c2.261,2.262,4.521,4.521,6.781,6.781v81.357C525.547,227.727,514.241,239.033,502.936,250.338z M526.248,125.563
						c-2.084,0-3.773-1.689-3.773-3.771c0-2.078,1.689-3.766,3.773-3.766c2.078,0,3.767,1.688,3.767,3.766
						C530.015,123.873,528.326,125.563,526.248,125.563z"/>
					<path fill="#00949C" d="M469.013,251.609h4.065c16.03-16.029,32.061-32.061,48.091-48.094
						c7.627,4.498,15.418-5.563,9.156-11.82c-6.259-6.262-16.318,1.531-11.821,9.156c-16.499,16.494-32.995,32.992-49.491,49.486
						V251.609z M524.998,193.256c2.078,0,3.766,1.688,3.766,3.768c0,2.082-1.688,3.771-3.766,3.771
						c-2.084,0-3.771-1.689-3.771-3.771C521.227,194.943,522.914,193.256,524.998,193.256z"/>
					<path fill="#00949C" d="M412.48,250.338v1.271h4.065c31.308-31.311,62.617-62.623,93.929-93.93V43.053
						c8.571-2.215,6.968-14.836-1.89-14.836c-8.85,0-10.455,12.621-1.883,14.836v37.691c-6.066-6.07-12.134-12.135-18.206-18.207
						v-0.004c4.494-7.629-5.563-15.414-11.82-9.158c-6.263,6.264,1.529,16.324,9.157,11.826
						c6.954,6.951,13.916,13.916,20.869,20.869v70.051C475.299,187.525,443.89,218.934,412.48,250.338z M504.818,35.754
						c0-2.082,1.689-3.766,3.767-3.766c2.085,0,3.772,1.684,3.772,3.766c0,2.084-1.688,3.768-3.772,3.768
						C506.508,39.521,504.818,37.838,504.818,35.754z M482.003,62.475c-2.077,0-3.766-1.684-3.766-3.768
						c0-2.082,1.688-3.766,3.766-3.766c2.084,0,3.771,1.684,3.771,3.766C485.774,60.791,484.087,62.475,482.003,62.475z"/>
					<path fill="#00949C" d="M435.097,251.609h4.062c16.027-16.029,32.059-32.061,48.089-48.094
						c7.628,4.498,15.418-5.563,9.16-11.82c-6.263-6.262-16.322,1.531-11.825,9.156c-16.495,16.494-32.99,32.992-49.485,49.486
						V251.609z M491.076,193.256c2.082,0,3.766,1.688,3.766,3.768c0,2.082-1.684,3.771-3.766,3.771
						c-2.084,0-3.767-1.689-3.767-3.771C487.31,194.943,488.992,193.256,491.076,193.256z"/>
					<path fill="#00949C" d="M386.102,250.338v1.271h14.719c25.241-25.244,50.487-50.486,75.732-75.73v-43.252
						c10.955-3.109,17.886-13.881,16.184-25.137c-1.7-11.258-11.508-19.498-22.895-19.227c-11.381,0.271-20.79,8.967-21.954,20.289
						c-1.171,11.328,6.271,21.758,17.358,24.342v38.299C438.864,197.578,412.48,223.961,386.102,250.338z M459.073,110.871
						c0-6.244,5.06-11.305,11.305-11.305s11.307,5.061,11.307,11.305c0,6.246-5.062,11.307-11.307,11.307
						S459.073,117.117,459.073,110.871z"/>
					<path fill="#00949C" d="M355.947,251.609h4.065c29.22-29.223,58.442-58.443,87.662-87.666
						c7.628,4.498,15.417-5.563,9.161-11.82c-6.263-6.262-16.324,1.529-11.825,9.158c-29.688,29.684-59.375,59.373-89.063,89.057
						V251.609z M451.502,153.684c2.084,0,3.769,1.688,3.769,3.768c0,2.082-1.685,3.771-3.769,3.771
						c-2.081,0-3.767-1.689-3.767-3.771C447.735,155.371,449.421,153.684,451.502,153.684z"/>
					<path fill="#00949C" d="M310.725,186.271v65.338h3.767v-63.777c31.409-31.41,62.813-62.814,94.223-94.223V23.971
						c8.571-2.217,6.971-14.838-1.884-14.838c-8.855,0-10.46,12.621-1.884,14.838v68.078
						C373.538,123.459,342.128,154.861,310.725,186.271z M403.06,16.67c0-2.082,1.687-3.766,3.771-3.766
						c2.078,0,3.767,1.684,3.767,3.766c0,2.084-1.688,3.768-3.767,3.768C404.746,20.438,403.06,18.754,403.06,16.67z"/>
					<path fill="#00949C" d="M303.185,182.5v69.109h3.768v-67.545c30.15-30.154,60.306-60.307,90.455-90.455V39.043
						c8.572-2.211,6.967-14.834-1.883-14.834c-8.855,0-10.459,12.623-1.89,14.834v53.006
						C363.486,122.199,333.336,152.35,303.185,182.5z M391.752,31.748c0-2.084,1.689-3.771,3.772-3.771
						c2.078,0,3.768,1.688,3.768,3.771c0,2.08-1.689,3.768-3.768,3.768C393.441,35.516,391.752,33.828,391.752,31.748z"/>
					<path fill="#00949C" d="M333.336,251.609h15.077v-32.715c2.974-2.975,5.947-5.947,8.926-8.926
						c13.078,7.711,29.849,4.492,39.147-7.508c9.297-12.002,8.221-29.047-2.518-39.785c-10.733-10.734-27.779-11.811-39.782-2.518
						c-12.001,9.297-15.218,26.074-7.506,39.152c-4.45,4.443-8.895,8.895-13.345,13.34V251.609z M372.651,168.92
						c8.327,0,15.077,6.75,15.077,15.078c0,8.322-6.75,15.072-15.077,15.072c-8.329,0-15.077-6.75-15.077-15.072
						C357.574,175.67,364.322,168.92,372.651,168.92z"/>
					<path fill="#00949C" d="M291.881,182.5v69.109h3.766v-67.545c30.15-30.154,60.301-60.307,90.455-90.455V54.121
						c8.572-2.217,6.967-14.838-1.888-14.838c-8.855,0-10.456,12.621-1.883,14.838v37.928
						C352.18,122.199,322.03,152.35,291.881,182.5z M380.447,46.82c0-2.082,1.688-3.768,3.767-3.768
						c2.082,0,3.771,1.686,3.771,3.768c0,2.084-1.689,3.771-3.771,3.771C382.136,50.592,380.447,48.904,380.447,46.82z"/>
					<path fill="#00949C" d="M284.34,178.732v72.877h3.769v-71.318c11.31-11.305,22.616-22.611,33.922-33.916v-33.92
						c3.513-3.518,7.033-7.035,10.548-10.549c7.626,4.494,15.419-5.563,9.16-11.824c-6.263-6.264-16.322,1.527-11.824,9.156
						c-2.629,2.627-5.255,5.254-7.884,7.883V24.689c8.57-2.217,6.97-14.838-1.884-14.838c-8.855,0-10.459,12.621-1.889,14.838V46.82
						c-2.628-2.627-5.252-5.256-7.883-7.883c4.497-7.629-5.563-15.418-11.82-9.158c-6.263,6.26,1.528,16.318,9.155,11.82
						c3.519,3.52,7.034,7.033,10.548,10.553v92.658C306.952,156.121,295.646,167.426,284.34,178.732z M336.407,91.641
						c2.082,0,3.767,1.689,3.767,3.771c0,2.078-1.685,3.768-3.767,3.768c-2.084,0-3.768-1.689-3.768-3.768
						C332.64,93.33,334.323,91.641,336.407,91.641z M316.374,17.389c0-2.084,1.688-3.768,3.772-3.768
						c2.078,0,3.767,1.684,3.767,3.768c0,2.082-1.688,3.768-3.767,3.768C318.063,21.156,316.374,19.471,316.374,17.389z
						 M303.88,38.879c-2.077,0-3.767-1.688-3.767-3.771c0-2.078,1.689-3.766,3.767-3.766c2.085,0,3.771,1.688,3.771,3.766
						C307.651,37.191,305.965,38.879,303.88,38.879z"/>
					<path fill="#00949C" d="M261.729,136.08v115.529h18.845V136.08c18.376-4.746,30.354-22.418,27.966-41.244
						c-2.394-18.826-18.41-32.938-37.386-32.938c-18.984,0-35.001,14.111-37.394,32.938
						C231.371,113.662,243.35,131.334,261.729,136.08z M271.153,80.744c10.403,0,18.842,8.434,18.842,18.844
						c0,10.404-8.438,18.844-18.842,18.844c-10.411,0-18.847-8.439-18.847-18.844C252.307,89.178,260.742,80.744,271.153,80.744z"/>
					<path fill="#00949C" d="M212.73,54.121v60.539c12.565,12.564,25.129,25.125,37.688,37.689v99.26h3.771v-100.82
						c-12.564-12.564-25.124-25.123-37.688-37.689V54.121c8.571-2.217,6.972-14.838-1.885-14.838
						C205.764,39.283,204.158,51.904,212.73,54.121z M214.617,43.053c2.08,0,3.768,1.686,3.768,3.768
						c0,2.084-1.688,3.771-3.768,3.771c-2.081,0-3.771-1.688-3.771-3.771C210.846,44.738,212.536,43.053,214.617,43.053z"/>
					<path fill="#00949C" d="M201.425,84.271v30.389c12.563,12.564,25.129,25.125,37.689,37.689v99.26h3.771v-100.82
						c-12.564-12.564-25.13-25.123-37.688-37.689V84.271c8.571-2.213,6.967-14.834-1.888-14.834
						C194.457,69.438,192.854,82.059,201.425,84.271z M203.309,73.205c2.083,0,3.771,1.688,3.771,3.766
						c0,2.084-1.688,3.773-3.771,3.773c-2.079,0-3.768-1.689-3.768-3.773C199.541,74.893,201.229,73.205,203.309,73.205z"/>
					<path fill="#00949C" d="M178.813,53.482v65.863c13.819,13.818,27.639,27.637,41.457,41.457v90.807h11.305v-95.488
						c-13.819-13.824-27.637-27.643-41.456-41.461V53.748c11.089-2.584,18.525-13.012,17.36-24.34
						c-1.166-11.328-10.574-20.02-21.955-20.289c-11.387-0.271-21.194,7.963-22.896,19.227
						C160.926,39.602,167.857,50.371,178.813,53.482z M184.986,20.422c6.244,0,11.307,5.059,11.307,11.305
						c0,6.244-5.063,11.305-11.307,11.305c-6.246,0-11.306-5.061-11.306-11.305C173.681,25.48,178.74,20.422,184.986,20.422z"/>
					<path fill="#00949C" d="M167.507,108.447v26.617c13.818,13.824,27.638,27.641,41.456,41.461v75.084h3.768v-76.645
						c-13.819-13.822-27.637-27.641-41.456-41.461v-25.057c8.576-2.215,6.971-14.838-1.883-14.838
						C160.537,93.609,158.932,106.232,167.507,108.447z M169.392,97.381c2.082,0,3.767,1.684,3.767,3.766
						c0,2.08-1.685,3.768-3.767,3.768c-2.083,0-3.768-1.688-3.768-3.768C165.624,99.064,167.309,97.381,169.392,97.381z"/>
					<rect x="190.118" y="239.033" fill="#00949C" width="11.307" height="7.537"/>
					<rect x="190.118" y="231.492" fill="#00949C" width="11.307" height="3.773"/>
					<path fill="#00949C" d="M152.431,205.115v46.494h11.306v-46.229c11.092-2.584,18.528-13.012,17.363-24.34
						c-1.169-11.324-10.574-20.018-21.959-20.289c-11.382-0.27-21.193,7.969-22.896,19.227
						C134.543,191.24,141.474,202.004,152.431,205.115z M158.604,172.053c6.243,0,11.307,5.063,11.307,11.305
						c0,6.246-5.063,11.309-11.307,11.309c-6.244,0-11.307-5.063-11.307-11.309C147.297,177.115,152.359,172.053,158.604,172.053z"
						/>
					<rect x="167.507" y="239.033" fill="#00949C" width="11.306" height="7.537"/>
					<rect x="167.507" y="231.492" fill="#00949C" width="11.306" height="3.773"/>
					<rect x="167.507" y="223.961" fill="#00949C" width="11.306" height="3.766"/>
					<path fill="#00949C" d="M107.201,129.738v121.871h3.772V131.297c13.819-13.818,27.637-27.637,41.457-41.455V63.219
						c8.575-2.215,6.971-14.838-1.884-14.838s-10.46,12.623-1.884,14.838v25.059C134.844,102.1,121.026,115.918,107.201,129.738z
						 M146.779,55.92c0-2.08,1.684-3.768,3.768-3.768c2.083,0,3.767,1.688,3.767,3.768c0,2.084-1.684,3.771-3.767,3.771
						C148.463,59.691,146.779,58.004,146.779,55.92z"/>
					<rect x="137.356" y="235.266" fill="#00949C" width="11.307" height="3.768"/>
					<rect x="137.356" y="227.727" fill="#00949C" width="11.307" height="3.766"/>
					<rect x="137.356" y="220.189" fill="#00949C" width="11.307" height="3.771"/>
					<path fill="#00949C" d="M88.363,251.609h11.305V104.268c3.155-3.156,6.315-6.316,9.471-9.471
						c9.81,5.783,22.391,3.373,29.361-5.633c6.976-9.002,6.165-21.783-1.887-29.836c-8.055-8.053-20.835-8.863-29.836-1.889
						c-9.001,6.971-11.417,19.553-5.635,29.361c-4.259,4.264-8.521,8.523-12.779,12.787V251.609z M120.622,64.012
						c6.245,0,11.311,5.061,11.311,11.307c0,6.244-5.065,11.305-11.311,11.305c-6.244,0-11.306-5.061-11.306-11.305
						C109.316,69.072,114.378,64.012,120.622,64.012z"/>
					<path fill="#00949C" d="M122.28,174.965v76.645h3.767v-76.645c8.576-2.215,6.973-14.838-1.884-14.838
						C115.309,160.127,113.709,172.75,122.28,174.965z M124.163,163.895c2.082,0,3.772,1.688,3.772,3.771
						c0,2.08-1.69,3.766-3.772,3.766c-2.078,0-3.768-1.686-3.768-3.766C120.396,165.582,122.085,163.895,124.163,163.895z"/>
					<path fill="#00949C" d="M66.504,67.984c3.517,3.518,7.033,7.033,10.549,10.553v173.072h3.771V31.748
						c8.57-2.215,6.967-14.838-1.884-14.838c-8.855,0-10.46,12.623-1.888,14.838v41.457c-2.63-2.629-5.257-5.258-7.885-7.885
						c4.498-7.627-5.562-15.418-11.82-9.162C51.085,62.422,58.877,72.482,66.504,67.984z M75.17,24.449
						c0-2.084,1.688-3.771,3.771-3.771c2.078,0,3.767,1.688,3.767,3.771c0,2.078-1.688,3.768-3.767,3.768
						C76.857,28.217,75.17,26.527,75.17,24.449z M62.675,57.725c2.084,0,3.771,1.684,3.771,3.766c0,2.084-1.688,3.771-3.771,3.771
						c-2.078,0-3.767-1.688-3.767-3.771C58.908,59.408,60.597,57.725,62.675,57.725z"/>
					<path fill="#00949C" d="M47.66,139.594c6.026,6.027,12.06,12.055,18.086,18.086v77.586c-2.626-2.629-5.256-5.256-7.884-7.885
						c4.499-7.627-5.563-15.418-11.825-9.16c-6.257,6.262,1.534,16.322,9.162,11.824c3.514,3.52,7.033,7.033,10.547,10.549v11.016
						h3.771v-95.488c-6.396-6.4-12.793-12.795-19.193-19.195c4.498-7.627-5.562-15.418-11.82-9.156
						C32.241,134.031,40.033,144.088,47.66,139.594z M51.369,227.318c-2.082,0-3.768-1.684-3.768-3.768
						c0-2.082,1.686-3.766,3.768-3.766s3.768,1.684,3.768,3.766C55.137,225.635,53.451,227.318,51.369,227.318z M43.83,129.33
						c2.084,0,3.771,1.689,3.771,3.771c0,2.078-1.688,3.768-3.771,3.768c-2.078,0-3.768-1.689-3.768-3.768
						C40.063,131.02,41.752,129.33,43.83,129.33z"/>
				</g>
			</g>
		</g>
		<g clip-path="url(#SVGID_2_)">
			<path fill="#90CD4C" d="M81.682,74.346c0.612-1.061,0.957-2.285,0.941-3.59c-0.045-3.953-3.36-7.123-7.405-7.076l-0.313,0.012
				c-0.793-1.73-2.94-2.955-5.453-2.926c-2.825,0.029-5.154,1.639-5.602,3.721c-0.487-0.057-0.987-0.088-1.497-0.08
				c-1.661,0.018-3.211,0.391-4.536,1.02c-1.026-1.66-2.87-2.758-4.962-2.732c-2.286,0.025-4.247,1.383-5.153,3.326
				c-1.223-0.744-2.676-1.168-4.233-1.152c-4.287,0.049-7.728,3.43-7.68,7.551c0.024,2.332,1.168,4.402,2.93,5.75
				c-0.697,0.973-1.102,2.145-1.088,3.404c0.038,3.291,2.902,5.928,6.4,5.891c0.656-0.01,1.882-0.293,1.882-0.293
				c2.737,4.395,10.432,2.326,9.771,1.551c8.692,10.223,18.099,8.943,18.323,8.854c-3.705-0.883-5.7-3.904-7.256-7.596
				c1,0.334,2.086,0.514,3.224,0.498c3.081-0.035,5.772-1.459,7.304-3.578c0.913,0.322,1.916,0.494,2.968,0.482
				c4.206-0.047,7.581-3.033,7.54-6.666C87.75,77.551,85.136,74.938,81.682,74.346z"/>
			<path fill="#005C7B" d="M388.195,13.613c8.85,0.227,15.872,6.24,15.689,13.43c-0.185,7.189-7.508,12.834-16.356,12.607
				c-0.851-0.023-1.683-0.098-2.493-0.221c-3.53,3.352-7.655,3.863-11.629,3.854l0.021-0.844c2.173-0.996,4.081-2.863,4.139-5.049
				c0.007-0.305-0.008-0.605-0.046-0.9c-3.562-2.479-5.785-6.184-5.681-10.27C372.024,19.033,379.347,13.389,388.195,13.613z"/>
			<g>
				<g>
					<path fill="#FFFFFF" d="M521.266,87h-40.67c-13.225,0-13.823,9.633-13.843,10.059l0.002,41.088c0,5.25-1.702,9.391-5.06,12.641
						c-6.902,6.682-18.299,6.213-18.779,6.213H393v-3h49.971c0.159,0,9.847,0.084,15.681-5.58c2.65-2.57,3.349-6.205,3.349-10.475
						V96.58c0-0.215,2.101-12.58,18.596-12.58h40.657L521.266,87z"/>
				</g>
			</g>
			<g>
				<path fill="#FFFFFF" d="M140.834,156.289c-2.948,0-10.893-0.523-16.515-5.766c-3.86-3.6-5.818-8.652-5.818-15.023v-9.514h3.46
					v9.514c0,5.371,1.588,9.574,4.719,12.492c5.785,5.395,14.964,4.822,15.057,4.813l0.121-0.004h51.902v3.461h-51.847
					C141.756,156.271,141.38,156.289,140.834,156.289z"/>
			</g>
			<g>
				<path fill-rule="evenodd" clip-rule="evenodd" fill="#005C7B" d="M192.993,165.871V58.252c0-2.297,1.863-4.158,4.158-4.158
					h176.244c2.296,0,4.159,1.861,4.159,4.158v107.619H192.993z"/>
				<path fill-rule="evenodd" clip-rule="evenodd" fill="#FFFFFF" d="M373.396,182.506H197.151c-2.295,0-4.158-1.861-4.158-4.158
					v-12.477h184.562v12.477C377.555,180.645,375.691,182.506,373.396,182.506z"/>
				<path fill-rule="evenodd" clip-rule="evenodd" fill="#FFFFFF" d="M255.9,204.254v-2.289l7.284-0.893l5.026-19.174h37.249
					l5.023,19.174l7.286,0.893v2.289H255.9z"/>
				<path fill-rule="evenodd" clip-rule="evenodd" fill="#E6E6E6" d="M371.836,61.371v97.221H198.713V61.371H371.836z"/>
				<path opacity="0.08" fill-rule="evenodd" clip-rule="evenodd" fill="#3D3D3D" d="M267.529,185.529l0.682-3.631h37.249
					l0.677,3.631H267.529z"/>
				<g>
					<rect x="213" y="70" fill="#005C7B" width="47" height="9"/>
					<rect x="263" y="70" fill="#005C7B" width="44" height="9"/>
					<rect x="312" y="70" fill="#005C7B" width="47" height="9"/>
					<rect x="213" y="85" fill="#A0A0A0" width="47" height="35"/>
					<rect x="312" y="85" fill="#A0A0A0" width="47" height="35"/>
					<rect x="263" y="85" fill="#A0A0A0" width="44" height="35"/>
					<rect x="213.429" y="124.018" fill="#00B2C4" width="115.955" height="7.248"/>
					<rect x="213" y="135" fill="#90CD4C" width="88" height="7"/>
					<rect x="213.429" y="145.76" fill="#00B2C4" width="144.944" height="7.248"/>
				</g>
			</g>
			<g>
				<path fill="#005C7B" d="M136.304,50.016h-32.059c-3.066,0-5.543,2.486-5.543,5.553v65.092c0,3.057,2.477,5.547,5.543,5.547
					h32.059c3.061,0,5.547-2.488,5.547-5.547V55.568C141.849,52.502,139.364,50.016,136.304,50.016z"/>
				<rect x="102.859" y="59.381" fill="#6DBCC3" width="34.834" height="52.367"/>
				<polygon fill="#FFFFFF" points="127.707,55.648 112.845,55.648 112.845,54.029 127.709,54.029 127.709,55.648 				"/>
				<path fill="#FFFFFF" d="M134.067,54.908c0,0.785-0.64,1.42-1.422,1.42c-0.783,0-1.421-0.637-1.421-1.42
					c0-0.779,0.638-1.418,1.421-1.418C133.428,53.488,134.067,54.125,134.067,54.908z"/>
				<rect x="113.504" y="116.127" fill="#FFFFFF" width="13.536" height="4.164"/>
			</g>
			<path fill="#005C7B" d="M120.339,71.467c-5.232-0.039-9.503,4.172-9.542,9.404c-0.01,1.414,0.292,2.762,0.836,3.967l7.104,15.713
				c0.342,0.756,0.833,1.23,1.385,1.234c0.551,0.004,1.051-0.465,1.402-1.213l7.329-15.611c0.564-1.199,0.883-2.539,0.894-3.953
				C129.783,75.775,125.573,71.502,120.339,71.467z M120.23,86.625c-3.138-0.021-5.666-2.586-5.643-5.727
				c0.021-3.137,2.587-5.666,5.725-5.643c3.139,0.021,5.666,2.588,5.645,5.725C125.936,84.119,123.37,86.646,120.23,86.625z"/>
			<g>
				<rect x="304" y="120" fill="#FFFFFF" width="110" height="70"/>
				<rect x="303.5" y="119.5" fill="none" stroke="#999999" stroke-width="3" stroke-miterlimit="10" width="110" height="70"/>
				<rect x="304" y="120" fill="#999999" width="110" height="10"/>
				<circle fill="#E52828" cx="310.638" cy="124.629" r="1.907"/>
				<circle fill="#FFD400" cx="316.448" cy="124.629" r="1.907"/>
				<circle fill="#6FB007" cx="322.259" cy="124.629" r="1.907"/>
				<rect x="327" y="124" fill="#FFFFFF" width="59" height="3"/>
				<rect x="389" y="124" fill="#FFFFFF" width="23" height="3"/>
				<line fill="none" stroke="#C2C4BE" stroke-miterlimit="10" x1="386" y1="140.5" x2="404" y2="140.5"/>
				<line fill="none" stroke="#C2C4BE" stroke-miterlimit="10" x1="386" y1="141.5" x2="404" y2="141.5"/>
				<line fill="none" stroke="#C2C4BE" stroke-miterlimit="10" x1="386" y1="145.5" x2="404" y2="145.5"/>
				<line fill="none" stroke="#C2C4BE" stroke-miterlimit="10" x1="386" y1="148.5" x2="404" y2="148.5"/>
				<line fill="none" stroke="#C2C4BE" stroke-miterlimit="10" x1="386" y1="149.5" x2="404" y2="149.5"/>
				<path fill="#AFD648" d="M337.779,159.469l9.058,15.693c-2.435,1.213-5.169,1.912-8.075,1.912
					c-10.037,0-18.174-8.137-18.174-18.172c0-9.654,7.532-17.527,17.037-18.117v18.117
					C337.625,159.096,337.677,159.291,337.779,159.469z"/>
				<path fill="#002B59" d="M339.728,140.785v17.164h17.149C356.311,148.434,349.243,141.352,339.728,140.785z M342.322,143.389
					c6.057,1.32,10.631,5.91,11.95,11.967h-11.95V143.389z"/>
				<path fill="#002B59" d="M348.811,174.037c4.599-3.059,7.705-8.156,8.066-14h-16.148L348.811,174.037z"/>
			</g>
			<g>
				<rect x="171" y="42" fill="#FFFFFF" width="75" height="47"/>
				<rect x="170.5" y="41.5" fill="none" stroke="#999999" stroke-width="3" stroke-miterlimit="10" width="76" height="47"/>
				<rect x="171" y="42" fill="#999999" width="75" height="6"/>
				<path fill="#E52828" d="M177.031,44.574c0,0.713-0.578,1.289-1.292,1.289c-0.713,0-1.29-0.576-1.29-1.289
					c0-0.715,0.577-1.291,1.29-1.291C176.453,43.283,177.031,43.859,177.031,44.574z"/>
				<path fill="#FFD400" d="M180.964,44.574c0,0.713-0.577,1.289-1.289,1.289c-0.714,0-1.292-0.576-1.292-1.289
					c0-0.715,0.578-1.291,1.292-1.291C180.387,43.283,180.964,43.859,180.964,44.574z"/>
				<path fill="#6FB007" d="M184.898,44.574c0,0.713-0.578,1.289-1.29,1.289c-0.713,0-1.292-0.576-1.292-1.289
					c0-0.715,0.579-1.291,1.292-1.291C184.32,43.283,184.898,43.859,184.898,44.574z"/>
				<rect x="187" y="44" fill="#FFFFFF" width="38" height="2"/>
				<rect x="228" y="44" fill="#FFFFFF" width="16" height="2"/>
				<line fill="none" stroke="#C2C4BE" stroke-miterlimit="10" x1="225" y1="55.5" x2="239" y2="55.5"/>
				<line fill="none" stroke="#C2C4BE" stroke-miterlimit="10" x1="225" y1="56.5" x2="239" y2="56.5"/>
				<line fill="none" stroke="#C2C4BE" stroke-miterlimit="10" x1="225" y1="57.5" x2="239" y2="57.5"/>
				<line fill="none" stroke="#C2C4BE" stroke-miterlimit="10" x1="225" y1="60.5" x2="239" y2="60.5"/>
				<line fill="none" stroke="#C2C4BE" stroke-miterlimit="10" x1="225" y1="61.5" x2="239" y2="61.5"/>
			</g>
			<circle fill="#005C7B" cx="155.698" cy="154.531" r="14.635"/>
			<path fill="#FFFFFF" d="M160.252,153h-0.646l0.004-2.049c0.003-2.098-1.59-3.871-3.689-3.875s-3.697,1.803-3.7,3.9L152.216,153
				h-0.7c-0.305,0-0.778,0.23-0.778,0.537l-0.012,7.268c-0.001,0.307,0.471,0.334,0.776,0.336l8.736-0.002
				c0.303,0.002,0.341-0.072,0.341-0.377l0.012-7.213C160.591,153.244,160.556,153,160.252,153z M158.127,152.744l-4.433-0.006
				l0.003-1.924c0.002-1.307,0.912-2.369,2.221-2.367c1.307,0.002,2.215,1.068,2.213,2.375L158.127,152.744z"/>
			<g>
				<g>
					<path fill="#005C7B" d="M524.507,15.072h-104.51c-1.432,0-2.61,0.963-2.61,2.395v72.121c0,1.432,1.179,2.762,2.61,2.762
						h104.515c1.432,0,2.353-1.332,2.353-2.762V17.467C526.864,16.035,525.938,15.072,524.507,15.072z"/>
					<path fill="#FFFFFF" d="M520,83.447c0,1.572,0.338,3.553-1.142,3.553h-92.819c-1.48,0-3.039-1.98-3.039-3.553V23.545
						c0-1.572,1.559-1.545,3.039-1.545h92.819c1.479,0,1.142-0.027,1.142,1.545V83.447z"/>
					<path fill="#005C7B" d="M535,99.91c0,0.602-0.488,1.09-1.09,1.09H408.09c-0.602,0-1.09-0.488-1.09-1.09v-3.818
						c0-0.604,0.488-1.092,1.09-1.092h125.82c0.602,0,1.09,0.488,1.09,1.092V99.91z"/>
				</g>
				<rect x="429" y="32" fill="#90CD4C" width="87" height="11"/>
				<rect x="429" y="46" fill="#A0A0A0" width="88" height="5"/>
				<line fill="none" stroke="#A0A0A0" stroke-miterlimit="10" x1="429" y1="55.5" x2="455" y2="55.5"/>
				<line fill="none" stroke="#A0A0A0" stroke-miterlimit="10" x1="429" y1="57.5" x2="455" y2="57.5"/>
				<line fill="none" stroke="#A0A0A0" stroke-miterlimit="10" x1="429" y1="59.5" x2="455" y2="59.5"/>
				<line fill="none" stroke="#A0A0A0" stroke-miterlimit="10" x1="429" y1="61.5" x2="455" y2="61.5"/>
				<line fill="none" stroke="#A0A0A0" stroke-miterlimit="10" x1="429" y1="63.5" x2="455" y2="63.5"/>
				<line fill="none" stroke="#A0A0A0" stroke-miterlimit="10" x1="429" y1="65.5" x2="455" y2="65.5"/>
				<line fill="none" stroke="#A0A0A0" stroke-miterlimit="10" x1="429" y1="68.5" x2="455" y2="68.5"/>
				<line fill="none" stroke="#A0A0A0" stroke-miterlimit="10" x1="429" y1="70.5" x2="455" y2="70.5"/>
				<line fill="none" stroke="#A0A0A0" stroke-miterlimit="10" x1="429" y1="71.5" x2="455" y2="71.5"/>
				<line fill="none" stroke="#A0A0A0" stroke-miterlimit="10" x1="458" y1="55.5" x2="485" y2="55.5"/>
				<line fill="none" stroke="#A0A0A0" stroke-miterlimit="10" x1="458" y1="57.5" x2="485" y2="57.5"/>
				<line fill="none" stroke="#A0A0A0" stroke-miterlimit="10" x1="458" y1="59.5" x2="485" y2="59.5"/>
				<line fill="none" stroke="#A0A0A0" stroke-miterlimit="10" x1="458" y1="61.5" x2="485" y2="61.5"/>
				<line fill="none" stroke="#A0A0A0" stroke-miterlimit="10" x1="458" y1="63.5" x2="485" y2="63.5"/>
				<line fill="none" stroke="#A0A0A0" stroke-miterlimit="10" x1="458" y1="65.5" x2="485" y2="65.5"/>
				<line fill="none" stroke="#A0A0A0" stroke-miterlimit="10" x1="458" y1="68.5" x2="485" y2="68.5"/>
				<line fill="none" stroke="#A0A0A0" stroke-miterlimit="10" x1="458" y1="70.5" x2="485" y2="70.5"/>
				<line fill="none" stroke="#A0A0A0" stroke-miterlimit="10" x1="458" y1="71.5" x2="485" y2="71.5"/>
				<line fill="none" stroke="#A0A0A0" stroke-miterlimit="10" x1="488" y1="55.5" x2="517" y2="55.5"/>
				<line fill="none" stroke="#A0A0A0" stroke-miterlimit="10" x1="488" y1="57.5" x2="517" y2="57.5"/>
				<line fill="none" stroke="#A0A0A0" stroke-miterlimit="10" x1="488" y1="59.5" x2="517" y2="59.5"/>
				<line fill="none" stroke="#A0A0A0" stroke-miterlimit="10" x1="488" y1="61.5" x2="517" y2="61.5"/>
				<line fill="none" stroke="#A0A0A0" stroke-miterlimit="10" x1="488" y1="63.5" x2="517" y2="63.5"/>
				<line fill="none" stroke="#A0A0A0" stroke-miterlimit="10" x1="488" y1="65.5" x2="517" y2="65.5"/>
				<line fill="none" stroke="#A0A0A0" stroke-miterlimit="10" x1="488" y1="68.5" x2="517" y2="68.5"/>
				<line fill="none" stroke="#A0A0A0" stroke-miterlimit="10" x1="488" y1="70.5" x2="517" y2="70.5"/>
				<line fill="none" stroke="#A0A0A0" stroke-miterlimit="10" x1="488" y1="71.5" x2="517" y2="71.5"/>
			</g>
			<g>
				<path id="MobileMe_9_" fill="#90CD4C" d="M479.919,156.531c0,5.482-4.414,9.93-9.854,9.93h-30.49
					c-5.44,0-9.853-4.447-9.853-9.93c0-4.951,3.598-9.053,8.305-9.805c-0.06-0.346-0.093-0.705-0.093-1.072
					c0-3.475,2.796-6.291,6.245-6.291c1.537,0,2.947,0.561,4.034,1.494c1.939-4.4,4.425-8.418,11.396-8.418
					c8.455,0,12.463,6.57,12.463,13.504c0,0.289-0.012,0.578-0.031,0.861C476.535,147.727,479.919,151.732,479.919,156.531z"/>
				<g>
					<path fill="#FFFFFF" d="M448.017,161.965l5.045-4.732c-1.108-0.762-2.041-1.758-2.733-2.914l-5.044,4.73
						c-0.805,0.756-0.847,2.02-0.092,2.824C445.945,162.678,447.212,162.719,448.017,161.965z"/>
					<path fill="#FFFFFF" d="M458.074,157.543c4.412,0.143,8.104-3.318,8.247-7.73c0.142-4.412-3.319-8.104-7.73-8.246
						c-4.413-0.143-8.104,3.318-8.247,7.73S453.663,157.4,458.074,157.543z M452.341,149.361c0.107-3.303,2.882-5.904,6.185-5.799
						c3.305,0.107,5.905,2.883,5.798,6.186c-0.106,3.305-2.88,5.904-6.185,5.799C454.835,155.439,452.235,152.664,452.341,149.361z"
						/>
					<path fill="#FFFFFF" d="M458.482,144.895l-0.043,1.33c1.836,0.061,3.281,1.602,3.222,3.438l1.331,0.043
						C463.074,147.135,461.053,144.979,458.482,144.895z"/>
				</g>
			</g>
			<g>
				<circle fill="#FFFFFF" cx="387.913" cy="32.02" r="2.345"/>
				<path fill="#FFFFFF" d="M393.783,26.648c-0.033-0.037-0.066-0.07-0.103-0.105l-0.101-0.105
					c-0.016-0.018-0.035-0.031-0.055-0.051c-2.896-2.898-7.537-3.014-10.566-0.264l-0.355,0.322l-0.492,0.447
					c-0.598,0.543-0.641,1.477-0.097,2.076c0.545,0.604,1.478,0.648,2.075,0.105l0.85-0.771c1.926-1.748,4.916-1.602,6.664,0.322
					l0.557,0.594c0.537,0.594,1.461,0.637,2.057,0.096c0.288-0.262,0.459-0.619,0.479-1.008c0.02-0.387-0.112-0.76-0.374-1.049
					L393.783,26.648z"/>
				<path fill="#FFFFFF" d="M397.913,23.947l-0.462-0.51c-0.003-0.002-0.003-0.006-0.007-0.008l-0.365-0.402
					c-0.065-0.07-0.136-0.133-0.21-0.186c-4.726-4.574-12.24-4.805-17.243-0.439c-0.022,0.021-0.049,0.033-0.074,0.057l-0.921,0.836
					c-0.546,0.494-0.584,1.342-0.086,1.893c0.499,0.547,1.345,0.594,1.892,0.096l0.921-0.834c0.006-0.008,0.011-0.016,0.018-0.02
					c4.045-3.545,10.177-3.271,13.893,0.598l0.657,0.725c0.496,0.545,1.345,0.584,1.894,0.088
					C398.366,25.34,398.409,24.492,397.913,23.947z"/>
			</g>
			<g>
				<g>
					<path fill="#FFFFFF" d="M58.313,71.084l-2.091,0.721c-3.595,1.234-5.508,5.146-4.271,8.74c1.233,3.594,5.146,5.506,8.739,4.271
						l2.093-0.719L58.313,71.084z"/>
					<g>
						<path fill="#FFFFFF" d="M64.361,74.063l1.552-0.533c0.747-0.256,1.539,0.016,1.993,0.607l1.639-0.563
							c-1.51-3.057-5.064-4.607-8.373-3.471l-1.504,0.516l1.951,5.676l1.542-0.527C63.156,75.021,63.615,74.318,64.361,74.063z"/>
						<path fill="#FFFFFF" d="M70.111,75.219l-1.693,0.58c-0.059,0.682-0.508,1.301-1.196,1.537l-1.555,0.533
							c-0.689,0.236-1.422,0.025-1.887-0.477l-1.596,0.549l1.953,5.691l1.502-0.516C68.953,81.979,70.808,78.561,70.111,75.219z"/>
					</g>
					<path fill="#FFFFFF" d="M66.879,76.342l-1.55,0.533c-0.188,0.064-0.389,0.051-0.565-0.035
						c-0.178-0.086-0.309-0.234-0.372-0.422l-0.146-0.428c-0.132-0.381,0.073-0.801,0.456-0.934l1.553-0.533
						c0.187-0.064,0.388-0.051,0.563,0.035c0.178,0.086,0.311,0.234,0.373,0.422l0.147,0.428c0.063,0.186,0.05,0.385-0.035,0.561
						C67.216,76.145,67.066,76.277,66.879,76.342z"/>
				</g>
			</g>
			<g>
				<path fill="#FFFFFF" d="M205.165,198.676c2.947,0,10.893-0.521,16.514-5.764c3.86-3.6,5.819-8.654,5.819-15.025v-9.514h-3.461
					v9.514c0,5.373-1.588,9.574-4.718,12.494c-5.785,5.393-14.965,4.82-15.058,4.813l-0.121-0.006l-136.102,0.578l0.577,3.172
					l135.47-0.289C204.241,198.658,204.617,198.676,205.165,198.676z"/>
			</g>
			<g>
				<g>
					<path fill="#005C7B" d="M33.805,164.195l-0.032,55.527c-0.002,3.498,2.827,6.318,6.325,6.32l80.52,0.047
						c3.488,0.002,6.329-2.814,6.332-6.316l0.031-55.525c0.002-3.488-2.835-6.32-6.323-6.324l-80.52-0.045
						C36.64,157.875,33.807,160.707,33.805,164.195z"/>
					<path fill="#FFFFFF" d="M124.594,192.008c0,2.078-1.683,3.758-3.758,3.758c-2.077-0.002-3.76-1.684-3.758-3.762
						c0.002-2.072,1.685-3.758,3.761-3.754C122.915,188.25,124.595,189.938,124.594,192.008z"/>
					
						<rect x="49.903" y="155.785" transform="matrix(5.644123e-004 -1 1 5.644123e-004 -114.4368 269.4615)" fill="#FFFFFF" width="55.371" height="72.394"/>
				</g>
				<rect x="45" y="208" fill="#A0A0A0" width="65" height="6"/>
				<rect x="45" y="170" fill="#90CD4C" width="66" height="10"/>
				<line fill="none" stroke="#A0A0A0" stroke-miterlimit="10" x1="45" y1="184.5" x2="66" y2="184.5"/>
				<line fill="none" stroke="#A0A0A0" stroke-miterlimit="10" x1="45" y1="185.5" x2="66" y2="185.5"/>
				<line fill="none" stroke="#A0A0A0" stroke-miterlimit="10" x1="45" y1="189.5" x2="66" y2="189.5"/>
				<line fill="none" stroke="#A0A0A0" stroke-miterlimit="10" x1="45" y1="190.5" x2="66" y2="190.5"/>
				<line fill="none" stroke="#A0A0A0" stroke-miterlimit="10" x1="45" y1="193.5" x2="66" y2="193.5"/>
				<line fill="none" stroke="#A0A0A0" stroke-miterlimit="10" x1="45" y1="195.5" x2="66" y2="195.5"/>
				<line fill="none" stroke="#A0A0A0" stroke-miterlimit="10" x1="45" y1="198.5" x2="66" y2="198.5"/>
				<line fill="none" stroke="#A0A0A0" stroke-miterlimit="10" x1="45" y1="199.5" x2="66" y2="199.5"/>
				<line fill="none" stroke="#A0A0A0" stroke-miterlimit="10" x1="45" y1="203.5" x2="66" y2="203.5"/>
				<line fill="none" stroke="#A0A0A0" stroke-miterlimit="10" x1="67" y1="184.5" x2="87" y2="184.5"/>
				<line fill="none" stroke="#A0A0A0" stroke-miterlimit="10" x1="67" y1="185.5" x2="87" y2="185.5"/>
				<line fill="none" stroke="#A0A0A0" stroke-miterlimit="10" x1="67" y1="189.5" x2="87" y2="189.5"/>
				<line fill="none" stroke="#A0A0A0" stroke-miterlimit="10" x1="67" y1="190.5" x2="87" y2="190.5"/>
				<line fill="none" stroke="#A0A0A0" stroke-miterlimit="10" x1="67" y1="193.5" x2="87" y2="193.5"/>
				<line fill="none" stroke="#A0A0A0" stroke-miterlimit="10" x1="67" y1="195.5" x2="87" y2="195.5"/>
				<line fill="none" stroke="#A0A0A0" stroke-miterlimit="10" x1="67" y1="198.5" x2="87" y2="198.5"/>
				<line fill="none" stroke="#A0A0A0" stroke-miterlimit="10" x1="67" y1="199.5" x2="87" y2="199.5"/>
				<line fill="none" stroke="#A0A0A0" stroke-miterlimit="10" x1="67" y1="203.5" x2="87" y2="203.5"/>
				<line fill="none" stroke="#A0A0A0" stroke-miterlimit="10" x1="90" y1="184.5" x2="110" y2="184.5"/>
				<line fill="none" stroke="#A0A0A0" stroke-miterlimit="10" x1="90" y1="185.5" x2="110" y2="185.5"/>
				<line fill="none" stroke="#A0A0A0" stroke-miterlimit="10" x1="90" y1="189.5" x2="110" y2="189.5"/>
				<line fill="none" stroke="#A0A0A0" stroke-miterlimit="10" x1="90" y1="190.5" x2="110" y2="190.5"/>
				<line fill="none" stroke="#A0A0A0" stroke-miterlimit="10" x1="90" y1="193.5" x2="110" y2="193.5"/>
				<line fill="none" stroke="#A0A0A0" stroke-miterlimit="10" x1="90" y1="195.5" x2="110" y2="195.5"/>
				<line fill="none" stroke="#A0A0A0" stroke-miterlimit="10" x1="90" y1="198.5" x2="110" y2="198.5"/>
				<line fill="none" stroke="#A0A0A0" stroke-miterlimit="10" x1="90" y1="199.5" x2="110" y2="199.5"/>
				<line fill="none" stroke="#A0A0A0" stroke-miterlimit="10" x1="90" y1="203.5" x2="110" y2="203.5"/>
			</g>
			<path id="MobileMe_8_" fill="#90CD4C" d="M138.776,199.785c0,5.482,4.413,9.928,9.854,9.928h30.49
				c5.439,0,9.852-4.445,9.852-9.928c0-4.953-3.597-9.055-8.304-9.805c0.06-0.348,0.093-0.705,0.093-1.074
				c0-3.475-2.795-6.289-6.245-6.289c-1.537,0-2.947,0.559-4.034,1.494c-1.939-4.402-4.424-8.42-11.397-8.42
				c-8.455,0-12.463,6.572-12.463,13.504c0,0.289,0.012,0.578,0.032,0.863C142.158,190.98,138.776,194.984,138.776,199.785z"/>
			<g>
				<g>
					<path fill="#FFFFFF" d="M162.07,206.479l1.333,0.453c0.575,0.197,1.202-0.113,1.397-0.688l0.278-0.816
						c0.074-0.221,0.361-0.408,0.626-0.412c0.245-0.004,0.495-0.02,0.74-0.051c0.262-0.033,0.57,0.117,0.671,0.326l0.384,0.777
						c0.269,0.545,0.931,0.77,1.476,0.502l1.265-0.621c0.262-0.129,0.461-0.354,0.555-0.633c0.095-0.279,0.077-0.576-0.054-0.842
						l-0.383-0.777c-0.062-0.125-0.064-0.299-0.007-0.467c0.034-0.104,0.091-0.195,0.158-0.266c0.174-0.176,0.339-0.363,0.492-0.557
						c0.163-0.207,0.488-0.318,0.709-0.244l0.816,0.277c0.573,0.195,1.201-0.113,1.397-0.689l0.453-1.332
						c0.195-0.574-0.112-1.201-0.688-1.396l-0.815-0.277c-0.22-0.076-0.408-0.363-0.412-0.627c-0.003-0.246-0.021-0.496-0.052-0.74
						c-0.011-0.098,0.001-0.205,0.036-0.309c0.058-0.166,0.166-0.303,0.291-0.363l0.778-0.385c0.264-0.129,0.461-0.354,0.555-0.633
						c0.097-0.279,0.076-0.576-0.053-0.842l-0.622-1.264c-0.269-0.545-0.93-0.771-1.475-0.502l-0.778,0.383
						c-0.21,0.104-0.545,0.033-0.732-0.15c-0.177-0.176-0.363-0.34-0.555-0.492c-0.209-0.164-0.32-0.488-0.246-0.709l0.276-0.816
						c0.197-0.574-0.111-1.201-0.687-1.398l-1.333-0.453c-0.573-0.195-1.202,0.113-1.397,0.688l-0.277,0.816
						c-0.074,0.221-0.36,0.41-0.626,0.414c-0.245,0.002-0.497,0.02-0.74,0.049c-0.262,0.031-0.57-0.117-0.673-0.326l-0.384-0.777
						c-0.129-0.266-0.355-0.463-0.633-0.559c-0.278-0.094-0.577-0.074-0.842,0.057l-1.263,0.621
						c-0.264,0.131-0.461,0.355-0.557,0.635c-0.095,0.277-0.074,0.576,0.055,0.842l0.383,0.775c0.06,0.125,0.063,0.301,0.007,0.469
						c-0.034,0.102-0.092,0.195-0.159,0.264c-0.175,0.176-0.34,0.363-0.492,0.557c-0.164,0.207-0.487,0.32-0.709,0.244l-0.815-0.277
						c-0.575-0.195-1.202,0.113-1.397,0.688l-0.453,1.332c-0.196,0.576,0.112,1.203,0.688,1.398l0.814,0.277
						c0.221,0.076,0.411,0.363,0.413,0.627c0.004,0.246,0.021,0.496,0.051,0.742c0.013,0.098,0,0.203-0.036,0.309
						c-0.056,0.164-0.165,0.303-0.291,0.363l-0.776,0.383c-0.264,0.131-0.462,0.355-0.557,0.633
						c-0.095,0.279-0.074,0.578,0.055,0.842l0.621,1.262c0.269,0.545,0.932,0.771,1.476,0.502l0.777-0.383
						c0.209-0.104,0.544-0.033,0.732,0.154c0.176,0.174,0.362,0.338,0.556,0.49c0.207,0.164,0.319,0.49,0.244,0.711l-0.276,0.814
						C161.188,205.654,161.494,206.281,162.07,206.479z M162.58,197.148c0.571-1.686,2.411-2.59,4.094-2.016
						c1.686,0.572,2.591,2.41,2.017,4.096c-0.572,1.684-2.411,2.588-4.096,2.016C162.909,200.67,162.006,198.834,162.58,197.148z"/>
					<path fill="#FFFFFF" d="M159.776,188.984c0.062-0.008,0.135,0.033,0.147,0.063l0.193,0.391
						c0.178,0.363,0.619,0.512,0.982,0.334l0.631-0.313c0.176-0.086,0.308-0.236,0.372-0.422c0.063-0.186,0.051-0.385-0.037-0.561
						l-0.19-0.389c-0.006-0.012-0.011-0.049,0.004-0.094c0.01-0.025,0.023-0.047,0.037-0.064c0.092-0.092,0.18-0.189,0.259-0.291
						c0.039-0.049,0.121-0.072,0.153-0.063l0.406,0.139c0.384,0.131,0.802-0.076,0.933-0.459l0.226-0.666
						c0.132-0.385-0.073-0.803-0.457-0.932l-0.409-0.139c-0.03-0.01-0.081-0.08-0.081-0.143c-0.002-0.129-0.011-0.26-0.027-0.391
						c-0.003-0.02,0-0.047,0.009-0.072c0.017-0.045,0.041-0.07,0.053-0.076l0.389-0.191c0.177-0.086,0.31-0.236,0.372-0.422
						c0.063-0.186,0.05-0.385-0.036-0.561l-0.31-0.631c-0.088-0.178-0.237-0.309-0.423-0.373c-0.187-0.063-0.386-0.049-0.561,0.037
						l-0.39,0.191c-0.03,0.016-0.113,0-0.156-0.043c-0.093-0.09-0.191-0.18-0.292-0.258c-0.051-0.039-0.073-0.121-0.063-0.152
						l0.138-0.408c0.132-0.383-0.073-0.801-0.458-0.932l-0.665-0.227c-0.384-0.131-0.802,0.074-0.933,0.459l-0.139,0.41
						c-0.011,0.029-0.081,0.078-0.143,0.078c-0.13,0.002-0.261,0.014-0.391,0.029c-0.06,0.006-0.134-0.035-0.147-0.063l-0.192-0.391
						c-0.179-0.363-0.62-0.512-0.982-0.334l-0.632,0.313c-0.176,0.084-0.308,0.234-0.371,0.422
						c-0.062,0.186-0.051,0.385,0.036,0.561l0.191,0.389c0.005,0.012,0.01,0.047-0.004,0.094c-0.01,0.023-0.023,0.047-0.038,0.063
						c-0.091,0.092-0.179,0.189-0.259,0.293c-0.039,0.049-0.12,0.072-0.151,0.063l-0.409-0.141c-0.382-0.129-0.8,0.076-0.93,0.461
						l-0.228,0.666c-0.131,0.383,0.074,0.799,0.459,0.932l0.408,0.139c0.03,0.01,0.08,0.08,0.08,0.141
						c0.002,0.131,0.012,0.262,0.028,0.391c0.003,0.021-0.001,0.047-0.011,0.074c-0.016,0.043-0.04,0.07-0.052,0.076l-0.39,0.191
						c-0.175,0.086-0.309,0.236-0.371,0.422c-0.062,0.186-0.048,0.385,0.037,0.561l0.311,0.631c0.18,0.363,0.62,0.514,0.982,0.334
						l0.39-0.189c0.028-0.016,0.112,0,0.155,0.041c0.093,0.092,0.192,0.18,0.294,0.26c0.049,0.039,0.072,0.121,0.063,0.15
						l-0.141,0.41c-0.129,0.383,0.077,0.801,0.461,0.93l0.664,0.227c0.384,0.133,0.803-0.074,0.935-0.457l0.138-0.41
						c0.01-0.031,0.08-0.078,0.142-0.08C159.515,189.01,159.646,189.002,159.776,188.984z M157.994,184.953
						c0.255-0.746,1.068-1.146,1.815-0.893s1.147,1.068,0.893,1.814c-0.254,0.746-1.068,1.148-1.814,0.895
						C158.141,186.516,157.74,185.701,157.994,184.953z"/>
				</g>
			</g>
			<g>
				<path fill="#FFFFFF" d="M365.459,198.676c-2.947,0-10.893-0.521-16.515-5.764c-3.86-3.6-5.818-8.654-5.818-15.025v-9.514h3.46
					v9.514c0,5.373,1.588,9.574,4.719,12.494c5.783,5.393,14.964,4.82,15.058,4.813l0.119-0.006l136.103,0.578l-0.578,3.172
					l-135.469-0.289C366.382,198.658,366.007,198.676,365.459,198.676z"/>
			</g>
			<g>
				<path fill="#005C7B" d="M495.248,203.164l-5.736-5.021l-16.404,14.061c0.598,0.553,1.4,0.898,2.29,0.898H515.1
					c0.884,0,1.685-0.346,2.279-0.898l-16.395-14.061L495.248,203.164z"/>
				<path fill="#005C7B" d="M517.388,180.875c-0.597-0.557-1.398-0.896-2.288-0.896h-39.702c-0.885,0-1.688,0.344-2.282,0.904
					l22.133,18.969L517.388,180.875z"/>
				<polygon fill="#005C7B" points="472.062,182.885 472.062,210.406 488.069,196.801 				"/>
				<polygon fill="#005C7B" points="502.425,196.801 518.435,210.406 518.435,182.877 				"/>
			</g>
			<path fill="#E7E7E7" d="M513.485,143.889c2.173-6.021-0.947-12.664-6.968-14.836c-6.02-2.174-12.663,0.945-14.836,6.965
				c-2.173,6.021,0.946,12.666,6.967,14.838l1.362,0.492c0.752,0.271,1.584-0.121,1.856-0.869c0.27-0.752-0.12-1.586-0.871-1.855
				l-1.362-0.492c-4.515-1.629-6.856-6.611-5.227-11.127s6.614-6.855,11.127-5.227c4.517,1.631,6.855,6.611,5.227,11.127
				l-1.477,4.09c-0.271,0.75-1.103,1.141-1.854,0.871c-0.751-0.271-1.142-1.104-0.872-1.855l1.475-4.088
				c1.087-3.01-0.475-6.334-3.482-7.42c-3.008-1.084-6.333,0.475-7.419,3.484c-1.085,3.006,0.476,6.334,3.484,7.42
				c1.021,0.367,2.077,0.412,3.069,0.217c-0.434,2.082,0.7,4.225,2.761,4.967c2.257,0.814,4.749-0.355,5.563-2.613L513.485,143.889z
				 M501.6,142.68c-1.508-0.545-2.285-2.203-1.742-3.709c0.545-1.508,2.203-2.285,3.71-1.742c1.506,0.543,2.285,2.201,1.741,3.709
				C504.766,142.443,503.106,143.223,501.6,142.68z"/>
			<g>
				<path fill="#FFFFFF" d="M88.6,119.898c-0.672-1.488-4.756-2.773-4.756-2.773c-2.179-0.768-2.193-1.537-2.193-1.537
					c-4.286,8.445-7.536,0.023-7.536,0.023c-0.3,1.141-4.708,2.479-4.708,2.479c-1.287,0.496-1.832,1.238-1.832,1.238
					c-1.906,2.822-2.129,9.113-2.129,9.113c0.025,1.434,0.643,1.584,0.643,1.584c4.384,1.955,11.256,2.303,11.256,2.303
					c7.06,0.148,12.197-2.006,12.197-2.006c0.745-0.469,0.766-0.842,0.766-0.842C90.828,124.975,88.6,119.898,88.6,119.898z"/>
				<path fill="#FFFFFF" d="M73.032,111.127c0.327,2.715,2.664,5.529,4.784,5.529c2.437,0,4.753-2.959,5.113-5.529
					c0.138-0.098,0.363-0.334,0.445-0.871c0,0,0.521-1.861-0.169-1.662c0.241-0.717,1.036-3.514-0.507-5.25
					c0,0-0.722-0.988-2.479-1.51c-0.063-0.051-0.125-0.104-0.195-0.152c0,0,0.037,0.043,0.096,0.123
					c-0.101-0.029-0.206-0.055-0.311-0.08c-0.096-0.1-0.204-0.203-0.324-0.311c0,0,0.106,0.107,0.233,0.291
					c-0.048-0.012-0.091-0.021-0.139-0.031c-0.08-0.121-0.177-0.248-0.301-0.373c0,0,0.052,0.098,0.119,0.252
					c-0.323-0.238-0.975-0.789-0.975-1.404c0,0-0.405,0.191-0.644,0.537c0.093-0.285,0.25-0.551,0.506-0.77
					c0,0-0.268,0.139-0.515,0.434c-0.192,0.109-0.629,0.41-0.778,0.941l-0.139-0.072c0.069-0.15,0.164-0.311,0.295-0.469
					c0,0-0.19,0.17-0.355,0.439l-0.282-0.141c0.085-0.158,0.194-0.32,0.345-0.48c0,0-0.152,0.119-0.313,0.316
					c0.046-0.184,0.037-0.393-0.533,0.229c0,0-2.566,1.115-3.309,3.418c0,0-0.435,1.039,0.145,4.104
					c-0.822-0.391-0.263,1.619-0.263,1.619C72.669,110.793,72.895,111.027,73.032,111.127z M72.983,110.039L72.983,110.039
					L72.983,110.039z M77.695,100.451c-0.124,0.176-0.231,0.391-0.285,0.654l-0.088-0.033
					C77.391,100.85,77.508,100.637,77.695,100.451z"/>
			</g>
			<rect x="178.189" y="54.186" fill="#00B2C4" width="15.859" height="3.459"/>
			<rect x="178.189" y="59.377" fill="#00B2C4" width="25.23" height="3.459"/>
			<rect x="178.189" y="64.566" fill="#00B2C4" width="30.277" height="3.459"/>
			<rect x="178" y="71" fill="#90CD4C" width="22" height="2"/>
			<rect x="178" y="75" fill="#90CD4C" width="31" height="5"/>
		</g>
	</g>
</g>
<g id="Слой_1" display="none" opacity="0.75">
</g>
</svg>
