<?xml version="1.0" encoding="utf-8"?>
<!-- Generator: Adobe Illustrator 16.0.0, SVG Export Plug-In . SVG Version: 6.00 Build 0)  -->
<!DOCTYPE svg PUBLIC "-//W3C//DTD SVG 1.1//EN" "http://www.w3.org/Graphics/SVG/1.1/DTD/svg11.dtd">
<svg version="1.1" xmlns="http://www.w3.org/2000/svg" xmlns:xlink="http://www.w3.org/1999/xlink" x="0px" y="0px" width="140px"
	 height="160px" viewBox="0 0 140 160" enable-background="new 0 0 140 160" xml:space="preserve">
<g id="Слой_2">
	<g opacity="0.8">
		<g>
			<g>
				<path fill="#FFFFFF" d="M20.457,36.196c-9.842,0-17.848-8.005-17.848-17.846c0-9.843,8.006-17.85,17.848-17.85
					s17.848,8.007,17.848,17.85C38.305,28.19,30.299,36.196,20.457,36.196z"/>
				<path fill="#FFFFFF" d="M20.457,1c9.566,0,17.348,7.783,17.348,17.35c0,9.564-7.781,17.346-17.348,17.346
					c-9.565,0-17.348-7.781-17.348-17.346C3.109,8.783,10.892,1,20.457,1 M20.457,0C10.366,0,2.109,8.257,2.109,18.35
					c0,10.091,8.257,18.346,18.348,18.346c10.135,0,18.348-8.213,18.348-18.346C38.805,8.215,30.592,0,20.457,0L20.457,0z"/>
			</g>
			<g>
				<path fill="#FFFFFF" d="M20.457,122.072c-9.639,0-17.48-7.843-17.48-17.483V67.891c0-9.64,7.842-17.483,17.48-17.483
					c9.641,0,17.483,7.843,17.483,17.483v36.697C37.94,114.229,30.098,122.072,20.457,122.072z"/>
				<path fill="#FFFFFF" d="M20.457,50.908c9.365,0,16.983,7.619,16.983,16.983v36.697c0,9.365-7.618,16.983-16.983,16.983
					c-9.363,0-16.98-7.619-16.98-16.983V67.891C3.477,58.526,11.094,50.908,20.457,50.908 M20.457,49.908
					c-9.912,0-17.98,8.068-17.98,17.983v36.697c0,9.913,8.068,17.983,17.98,17.983c9.918,0,17.983-8.071,17.983-17.983V67.891
					C38.44,57.976,30.375,49.908,20.457,49.908L20.457,49.908z"/>
			</g>
			<g>
				<path fill="#FFFFFF" d="M82.844,109.592c-9.844,0-17.852-8.006-17.852-17.848c0-9.844,8.008-17.852,17.852-17.852
					c10.396,0,18.853-8.454,18.853-18.846c0-10.395-8.457-18.851-18.853-18.851h-50.66c5.984-3.937,9.633-10.619,9.633-17.846
					c0-7.228-3.648-13.912-9.633-17.85h50.66c30.077,0,54.547,24.47,54.547,54.547C137.391,85.124,112.921,109.592,82.844,109.592z"
					/>
				<path fill="#FFFFFF" d="M82.844,1c29.802,0,54.047,24.245,54.047,54.047c0,29.801-24.245,54.045-54.047,54.045
					c-9.567,0-17.352-7.782-17.352-17.348c0-9.568,7.784-17.352,17.352-17.352c10.671,0,19.353-8.679,19.353-19.346
					c0-10.67-8.682-19.351-19.353-19.351H33.75c5.354-4.104,8.566-10.485,8.566-17.346c0-6.862-3.213-13.245-8.567-17.35H82.844
					 M82.844,0H30.377c6.51,3.534,10.939,10.433,10.939,18.35c0,7.912-4.43,14.813-10.939,18.346h52.467
					c10.133,0,18.353,8.219,18.353,18.351c0,10.133-8.22,18.346-18.353,18.346s-18.352,8.219-18.352,18.352
					c0,10.132,8.219,18.348,18.352,18.348c30.402,0,55.047-24.645,55.047-55.045C137.891,24.643,113.246,0,82.844,0L82.844,0z"/>
			</g>
			<g>
				<path fill="#FFFFFF" d="M69.998,158.769c-9.639,0-17.479-7.842-17.479-17.481V67.891c0-9.64,7.84-17.483,17.479-17.483
					c9.641,0,17.483,7.843,17.483,17.483v1.758c-1.518,0.486-3.075,0.732-4.638,0.732c-11.779,0-21.363,9.584-21.363,21.364
					c0,11.779,9.584,21.362,21.363,21.362c1.471,0,2.993-0.065,4.638-0.198v28.379C87.481,150.927,79.639,158.769,69.998,158.769z"
					/>
				<path fill="#FFFFFF" d="M69.998,50.908c9.364,0,16.983,7.619,16.983,16.983v1.389c-1.357,0.399-2.747,0.601-4.138,0.601
					c-12.056,0-21.863,9.808-21.863,21.864c0,12.055,9.808,21.862,21.863,21.862c1.321,0,2.684-0.052,4.138-0.158v27.839
					c0,9.363-7.619,16.981-16.983,16.981c-9.362,0-16.979-7.618-16.979-16.981V67.891C53.02,58.526,60.636,50.908,69.998,50.908
					 M69.998,49.908c-9.91,0-17.979,8.068-17.979,17.983v73.396c0,9.913,8.068,17.981,17.979,17.981
					c9.919,0,17.983-8.068,17.983-17.981v-28.924c-1.695,0.15-3.404,0.243-5.138,0.243c-11.502,0-20.863-9.36-20.863-20.862
					c0-11.506,9.361-20.864,20.863-20.864c1.796,0,3.525-0.315,5.138-0.871v-2.119C87.981,57.976,79.917,49.908,69.998,49.908
					L69.998,49.908z"/>
			</g>
		</g>
	</g>
</g>
<g id="Слой_1" display="none" opacity="0.75">
</g>
</svg>
